<svg width="499" height="326" viewBox="0 0 499 326" fill="none" xmlns="http://www.w3.org/2000/svg">
<g clip-path="url(#clip0_325_5708)">
<g opacity="0.7">
<g style="mix-blend-mode:multiply" opacity="0.3">
<path d="M333.196 280.218C327.21 280.218 322.358 277.417 322.358 273.963C322.358 270.508 327.21 267.708 333.196 267.708C339.181 267.708 344.033 270.508 344.033 273.963C344.033 277.417 339.181 280.218 333.196 280.218Z" fill="#DFE2F5"/>
</g>
</g>
<g style="mix-blend-mode:multiply" opacity="0.4">
<path d="M419.07 180.282L458.224 157.681C458.894 157.296 458.808 156.619 458.034 156.174L419.256 133.793C418.483 133.345 417.314 133.298 416.644 133.683L377.49 156.284C376.82 156.669 376.906 157.346 377.68 157.79L416.458 180.172C417.231 180.617 418.4 180.667 419.07 180.282Z" fill="#898989"/>
</g>
<path d="M417.968 191.876C418.665 191.876 419.336 191.73 419.847 191.434L477.123 158.374C477.687 158.049 477.996 157.578 477.999 157.047C477.999 156.44 477.581 155.853 476.851 155.431L420.126 122.69C418.858 121.96 416.989 121.89 415.877 122.531L358.601 155.59C358.037 155.916 357.728 156.387 357.728 156.918C357.728 157.525 358.146 158.112 358.876 158.534L415.602 191.275C416.289 191.67 417.148 191.872 417.971 191.872L417.968 191.876ZM419.419 190.694C418.572 191.182 417.019 191.112 416.023 190.535L359.298 157.794C358.846 157.532 358.574 157.203 358.574 156.914C358.574 156.642 358.817 156.443 359.022 156.327L416.299 123.267C417.145 122.779 418.698 122.849 419.694 123.426L476.419 156.168C476.871 156.43 477.143 156.758 477.143 157.047C477.143 157.319 476.901 157.518 476.695 157.634L419.419 190.694Z" fill="#2C76BB"/>
<path d="M377.046 140.973V133.424L389.35 133.431L416.647 117.676C417.318 117.291 418.486 117.337 419.259 117.785L446.434 133.471L458.675 133.477V141.046H458.665C458.655 141.282 458.512 141.504 458.224 141.674L419.07 164.274C418.4 164.659 417.231 164.613 416.458 164.165L377.68 141.783C377.278 141.551 377.066 141.255 377.046 140.973Z" fill="#C6C6C6"/>
<path d="M419.07 156.722L458.224 134.121C458.894 133.736 458.808 133.059 458.034 132.615L419.256 110.233C418.483 109.785 417.314 109.739 416.644 110.123L377.49 132.724C376.82 133.109 376.906 133.786 377.68 134.231L416.458 156.612C417.231 157.057 418.4 157.107 419.07 156.722Z" fill="url(#paint0_linear_325_5708)"/>
<path d="M418.934 154.077L453.64 134.045C454.234 133.703 454.158 133.103 453.474 132.708L419.1 112.868C418.413 112.473 417.377 112.43 416.783 112.771L382.078 132.804C381.483 133.146 381.56 133.746 382.244 134.141L416.617 153.981C417.304 154.376 418.34 154.419 418.934 154.077Z" fill="#2F308D"/>
<path d="M418.848 152.398L450.732 133.995C451.276 133.68 451.21 133.129 450.579 132.767L419 114.54C418.37 114.175 417.417 114.139 416.873 114.451L384.985 132.854C384.441 133.169 384.507 133.72 385.138 134.081L416.717 152.309C417.348 152.674 418.3 152.71 418.844 152.398H418.848Z" fill="#ECECEC"/>
<path d="M418.592 132.226L422.32 130.073L420.285 128.898L416.558 131.048L418.592 132.226Z" fill="#7BCFDE"/>
<path d="M411.662 131.921L415.392 134.071L417.427 132.897L413.7 130.746L411.662 131.921Z" fill="#7BCFDE"/>
<path d="M419.439 132.714L421.473 133.889L423.511 132.714L421.473 131.54L419.439 132.714Z" fill="#7BCFDE"/>
<path d="M412.402 136.776L414.437 137.95L420.308 134.563L418.274 133.385L412.402 136.776Z" fill="#7BCFDE"/>
<g style="mix-blend-mode:multiply" opacity="0.4">
<path d="M61.8999 224.066L101.053 201.465C101.724 201.081 101.638 200.404 100.864 199.959L62.0858 177.577C61.3125 177.129 60.1441 177.083 59.4736 177.468L20.3202 200.068C19.6497 200.453 19.736 201.13 20.5094 201.575L59.2877 223.957C60.0611 224.405 61.2295 224.451 61.8999 224.066Z" fill="#898989"/>
</g>
<path d="M60.7947 234.217C61.4651 234.217 62.1124 234.077 62.6036 233.792L117.483 202.116C118.031 201.801 118.33 201.343 118.33 200.828C118.33 200.241 117.925 199.67 117.221 199.262L62.8692 167.891C61.6477 167.184 59.852 167.121 58.7799 167.739L3.90007 199.415C3.3524 199.73 3.05366 200.188 3.05366 200.702C3.05366 201.29 3.45863 201.86 4.1623 202.268L58.5144 233.639C59.1749 234.021 60.0047 234.213 60.7947 234.213V234.217ZM60.5789 168.173C61.2261 168.173 61.9165 168.329 62.441 168.634L116.793 200.005C117.221 200.251 117.477 200.56 117.477 200.832C117.477 201.084 117.248 201.27 117.059 201.379L62.1787 233.055C61.3722 233.523 59.8918 233.45 58.9425 232.903L4.59045 201.532C4.16227 201.286 3.90672 200.978 3.90672 200.706C3.90672 200.453 4.13574 200.268 4.32494 200.155L59.2047 168.479C59.5632 168.273 60.0578 168.17 60.5756 168.17L60.5789 168.173Z" fill="#2C76BB"/>
<path d="M19.8787 185.773V178.221L32.183 178.228L59.4802 162.472C60.1507 162.088 61.3191 162.134 62.0924 162.582L89.2668 178.267L101.508 178.274V185.843H101.498C101.488 186.079 101.345 186.301 101.057 186.47L61.9033 209.071C61.2328 209.456 60.0644 209.409 59.291 208.961L20.5127 186.58C20.1111 186.347 19.8987 186.052 19.8787 185.77V185.773Z" fill="#C6C6C6"/>
<path d="M61.8997 201.522L101.053 178.921C101.724 178.536 101.637 177.859 100.864 177.415L62.0856 155.033C61.3122 154.585 60.1439 154.538 59.4734 154.923L20.3199 177.524C19.6495 177.909 19.7358 178.586 20.5092 179.031L59.2875 201.412C60.0609 201.86 61.2292 201.907 61.8997 201.522Z" fill="url(#paint1_linear_325_5708)"/>
<path d="M61.8997 201.522L101.053 178.921C101.724 178.536 101.637 177.859 100.864 177.415L62.0856 155.033C61.3122 154.585 60.1439 154.538 59.4734 154.923L20.3199 177.524C19.6495 177.909 19.7358 178.586 20.5092 179.031L59.2875 201.412C60.0609 201.86 61.2292 201.907 61.8997 201.522Z" fill="url(#paint2_linear_325_5708)"/>
<path d="M61.7638 198.874L96.4695 178.841C97.0636 178.5 96.9873 177.899 96.3035 177.504L61.9298 157.664C61.2427 157.269 60.2071 157.226 59.613 157.568L24.9073 177.6C24.3132 177.942 24.3895 178.543 25.0733 178.938L59.447 198.778C60.1341 199.172 61.1697 199.216 61.7638 198.874Z" fill="#2F308D"/>
<path d="M61.6775 197.195L93.5652 178.792C94.1095 178.477 94.0432 177.926 93.4125 177.564L61.8336 159.337C61.2029 158.972 60.2503 158.935 59.7059 159.247L27.8183 177.65C27.2739 177.965 27.3403 178.516 27.971 178.878L59.5499 197.105C60.1806 197.47 61.1332 197.507 61.6775 197.195Z" fill="#4D5AA7"/>
<path d="M61.422 177.023L65.1528 174.869L63.1148 173.695L59.3873 175.848L61.422 177.023Z" fill="#7BCFDE"/>
<path d="M54.4915 176.718L58.2223 178.871L60.2569 177.697L56.5294 175.543L54.4915 176.718Z" fill="#7BCFDE"/>
<path d="M62.2684 177.511L64.3064 178.686L66.341 177.511L64.3064 176.336L62.2684 177.511Z" fill="#7BCFDE"/>
<path d="M55.2316 181.572L57.2696 182.747L63.138 179.359L61.1033 178.184L55.2316 181.572Z" fill="#7BCFDE"/>
<path opacity="0.4" d="M19.8721 168.07L36.5279 168.17L59.4769 154.923C60.1474 154.535 61.3157 154.585 62.0891 155.033L85.3535 168.462L101.505 168.558V178.367L101.495 178.374C101.458 178.579 101.316 178.775 101.053 178.924L61.8999 201.525C61.2295 201.913 60.0611 201.864 59.2877 201.416L20.5094 179.034C20.1576 178.832 19.9551 178.579 19.8953 178.33L19.8688 178.317V168.077L19.8721 168.07Z" fill="#7BCFDE"/>
<path d="M19.8787 169.043V161.49L32.183 161.497L59.4802 145.742C60.1507 145.357 61.3191 145.403 62.0924 145.851L89.2668 161.537L101.508 161.543V169.112H101.498C101.488 169.348 101.345 169.57 101.057 169.739L61.9033 192.34C61.2328 192.725 60.0644 192.679 59.291 192.231L20.5127 169.849C20.1111 169.617 19.8987 169.321 19.8787 169.039V169.043Z" fill="#C6C6C6"/>
<path d="M61.8997 184.788L101.053 162.187C101.724 161.802 101.637 161.125 100.864 160.681L62.0856 138.299C61.3122 137.854 60.1439 137.804 59.4734 138.189L20.3199 160.79C19.6495 161.175 19.7358 161.852 20.5092 162.297L59.2875 184.678C60.0609 185.126 61.2292 185.173 61.8997 184.788Z" fill="url(#paint3_linear_325_5708)"/>
<path d="M61.7638 182.143L96.4695 162.111C97.0636 161.769 96.9873 161.168 96.3035 160.773L61.9298 140.934C61.2427 140.539 60.2071 140.496 59.613 140.837L24.9073 160.87C24.3132 161.211 24.3895 161.812 25.0733 162.207L59.447 182.047C60.1341 182.442 61.1697 182.485 61.7638 182.143Z" fill="#2F308D"/>
<path d="M61.6775 180.464L93.5652 162.061C94.1095 161.746 94.0432 161.195 93.4125 160.833L61.8336 142.606C61.2029 142.241 60.2503 142.205 59.7059 142.516L27.8183 160.92C27.2739 161.235 27.3403 161.786 27.971 162.147L59.5499 180.375C60.1806 180.74 61.1332 180.776 61.6775 180.464Z" fill="#ECECEC"/>
<path d="M61.422 160.292L65.1528 158.139L63.1148 156.964L59.3873 159.118L61.422 160.292Z" fill="#7BCFDE"/>
<path d="M54.4915 159.987L58.2223 162.141L60.2569 160.966L56.5294 158.812L54.4915 159.987Z" fill="#7BCFDE"/>
<path d="M62.2684 160.78L64.3064 161.955L66.341 160.78L64.3064 159.605L62.2684 160.78Z" fill="#7BCFDE"/>
<path d="M55.2316 164.842L57.2696 166.016L63.138 162.628L61.1033 161.454L55.2316 164.842Z" fill="#7BCFDE"/>
<path d="M146.122 323.418C146.742 323.418 147.363 323.259 147.917 322.937L203.295 284.475L202.867 283.735L147.489 322.197C146.646 322.685 145.594 322.685 144.751 322.197L1.17171 239.323C0.972553 239.207 0.853033 239.002 0.853033 238.769C0.853033 238.537 0.972553 238.331 1.17171 238.219L34.0252 219.255L33.597 218.515L0.743514 237.479C0.275506 237.747 -0.00330801 238.232 -0.00330801 238.769C-0.00330801 239.307 0.275506 239.791 0.743514 240.063L144.323 322.937C144.877 323.256 145.498 323.418 146.118 323.418H146.122Z" fill="#2C76BB"/>
<path d="M417.862 252.889C418.655 252.889 419.449 252.686 420.155 252.278L498.326 207.199C498.748 206.954 499 206.519 499 206.031C499 205.544 498.748 205.109 498.326 204.863L446.812 175.132L446.384 175.872L497.898 205.603C498.12 205.733 498.144 205.945 498.144 206.031C498.144 206.118 498.12 206.33 497.895 206.459L419.724 251.535C418.572 252.202 417.138 252.198 415.987 251.535L400.217 242.433L399.789 243.173L415.558 252.275C416.265 252.683 417.062 252.889 417.855 252.889H417.862Z" fill="#2C76BB"/>
<path d="M108.85 111.773L110.891 120.808L120.706 164.201L139.357 246.693L321.814 141.382L315.673 114.218L306.36 73.0252L291.31 6.46406C290.394 2.39919 286.853 0.716823 283.404 2.70778L113.431 100.812C109.982 102.8 107.934 107.708 108.85 111.773Z" fill="url(#paint4_linear_325_5708)"/>
<path style="mix-blend-mode:soft-light" d="M108.853 111.776C107.934 107.711 109.985 102.803 113.431 100.816L283.404 2.70779C285.555 1.46675 287.742 1.6559 289.306 2.95997L222.536 198.685L139.357 246.693L108.853 111.776Z" fill="url(#paint5_linear_325_5708)"/>
<path d="M270.436 315.143L440.409 217.038C443.858 215.047 443.423 211.573 439.443 209.277L321.814 141.382L139.357 246.693L256.986 314.589C260.966 316.885 266.987 317.137 270.436 315.146V315.143Z" fill="white"/>
<path d="M315.859 165.738L325.229 160.329L319.955 157.283L310.585 162.691L315.859 165.738Z" fill="#D3DCF5"/>
<path d="M304.803 172.119L314.176 166.71L308.899 163.664L299.529 169.072L304.803 172.119Z" fill="#D3DCF5"/>
<path d="M293.747 178.5L303.12 173.091L297.846 170.045L288.473 175.454L293.747 178.5Z" fill="#D3DCF5"/>
<path d="M282.694 184.881L292.064 179.472L286.79 176.426L277.416 181.838L282.694 184.881Z" fill="#D3DCF5"/>
<path d="M271.637 191.262L281.008 185.853L275.733 182.807L266.363 188.219L271.637 191.262Z" fill="#D3DCF5"/>
<path d="M260.581 197.643L269.955 192.234L264.677 189.188L255.307 194.6L260.581 197.643Z" fill="#D3DCF5"/>
<path d="M249.525 204.024L258.898 198.615L253.624 195.569L244.251 200.981L249.525 204.024Z" fill="#D3DCF5"/>
<path d="M238.472 210.405L247.842 204.996L242.568 201.95L233.194 207.362L238.472 210.405Z" fill="#D3DCF5"/>
<path d="M227.416 216.786L236.786 211.377L231.512 208.331L222.141 213.743L227.416 216.786Z" fill="#D3DCF5"/>
<path d="M216.359 223.167L225.733 217.758L220.455 214.712L211.085 220.124L216.359 223.167Z" fill="#D3DCF5"/>
<path d="M205.303 229.548L214.677 224.139L209.402 221.093L200.029 226.505L205.303 229.548Z" fill="#D3DCF5"/>
<path d="M194.25 235.929L203.62 230.52L198.346 227.474L188.973 232.886L194.25 235.929Z" fill="#D3DCF5"/>
<path d="M183.194 242.31L192.564 236.901L187.29 233.855L177.92 239.267L183.194 242.31Z" fill="#D3DCF5"/>
<path d="M172.138 248.691L181.511 243.282L176.233 240.236L166.863 245.648L172.138 248.691Z" fill="#D3DCF5"/>
<path d="M326.633 171.259L335.403 166.199L326.633 161.139L317.864 166.199L326.633 171.259Z" fill="#D3DCF5"/>
<path d="M320.616 186.477L329.385 181.416L320.616 176.353L311.846 181.416L320.616 186.477Z" fill="#D3DCF5"/>
<path d="M309.971 192.619L318.74 187.559L309.971 182.498L301.202 187.559L309.971 192.619Z" fill="#D3DCF5"/>
<path d="M299.33 198.764L308.096 193.701L299.33 188.64L290.56 193.701L299.33 198.764Z" fill="#D3DCF5"/>
<path d="M288.685 204.907L297.454 199.846L288.685 194.782L279.916 199.846L288.685 204.907Z" fill="#D3DCF5"/>
<path d="M278.04 211.049L286.81 205.988L278.04 200.928L269.274 205.988L278.04 211.049Z" fill="#D3DCF5"/>
<path d="M267.399 217.194L276.165 212.13L267.399 207.07L258.629 212.13L267.399 217.194Z" fill="#D3DCF5"/>
<path d="M256.754 223.336L265.523 218.276L256.754 213.212L247.985 218.276L256.754 223.336Z" fill="#D3DCF5"/>
<path d="M246.109 229.478L254.879 224.418L246.109 219.358L237.343 224.418L246.109 229.478Z" fill="#D3DCF5"/>
<path d="M235.468 235.624L244.237 230.56L235.468 225.5L226.699 230.56L235.468 235.624Z" fill="#D3DCF5"/>
<path d="M224.823 241.766L233.593 236.706L224.823 231.645L216.054 236.706L224.823 241.766Z" fill="#D3DCF5"/>
<path d="M214.179 247.908L222.948 242.848L214.179 237.787L205.413 242.848L214.179 247.908Z" fill="#D3DCF5"/>
<path d="M203.537 254.053L212.307 248.99L203.537 243.929L194.768 248.99L203.537 254.053Z" fill="#D3DCF5"/>
<path d="M327.885 194.232L336.654 189.171L327.885 184.111L319.115 189.171L327.885 194.232Z" fill="#D3DCF5"/>
<path d="M317.287 200.351L326.056 195.287L317.287 190.227L308.517 195.287L317.287 200.351Z" fill="#D3DCF5"/>
<path d="M306.688 206.466L315.458 201.406L306.688 196.345L297.922 201.406L306.688 206.466Z" fill="#D3DCF5"/>
<path d="M296.093 212.582L304.859 207.521L296.093 202.461L287.324 207.521L296.093 212.582Z" fill="#D3DCF5"/>
<path d="M285.495 218.701L294.265 213.637L285.495 208.577L276.726 213.64L285.495 218.701Z" fill="#D3DCF5"/>
<path d="M274.897 224.816L283.666 219.756L274.897 214.695L266.128 219.756L274.897 224.816Z" fill="#D3DCF5"/>
<path d="M264.299 230.932L273.068 225.871L264.299 220.811L255.529 225.871L264.299 230.932Z" fill="#D3DCF5"/>
<path d="M253.7 237.051L262.47 231.99L253.7 226.927L244.934 231.99L253.7 237.051Z" fill="#D3DCF5"/>
<path d="M243.106 243.166L251.872 238.106L243.106 233.045L234.336 238.106L243.106 243.166Z" fill="#D3DCF5"/>
<path d="M232.507 249.285L241.277 244.221L232.507 239.161L223.738 244.221L232.507 249.285Z" fill="#D3DCF5"/>
<path d="M221.909 255.401L230.678 250.34L221.909 245.277L213.14 250.34L221.909 255.401Z" fill="#D3DCF5"/>
<path d="M211.311 261.516L220.08 256.456L211.311 251.396L202.542 256.456L211.311 261.516Z" fill="#D3DCF5"/>
<path d="M332.85 203.317L341.62 198.257L332.85 193.196L324.084 198.257L332.85 203.317Z" fill="#D3DCF5"/>
<path d="M322.242 209.443L331.012 204.382L322.242 199.319L313.473 204.382L322.242 209.443Z" fill="#D3DCF5"/>
<path d="M311.631 215.565L320.4 210.504L311.631 205.444L302.865 210.504L311.631 215.565Z" fill="#D3DCF5"/>
<path d="M301.022 221.69L309.792 216.63L301.022 211.566L292.253 216.63L301.022 221.69Z" fill="#D3DCF5"/>
<path d="M290.411 227.812L299.18 222.752L290.411 217.692L281.642 222.752L290.411 227.812Z" fill="#D3DCF5"/>
<path d="M279.803 233.938L288.572 228.878L279.803 223.814L271.033 228.878L279.803 233.938Z" fill="#D3DCF5"/>
<path d="M269.191 240.06L277.961 235L269.191 229.94L260.422 235L269.191 240.06Z" fill="#D3DCF5"/>
<path d="M258.583 246.186L267.349 241.125L258.583 236.062L249.814 241.125L258.583 246.186Z" fill="#D3DCF5"/>
<path d="M247.972 252.308L256.741 247.248L247.972 242.187L239.202 247.248L247.972 252.308Z" fill="#D3DCF5"/>
<path d="M237.363 258.433L246.129 253.373L237.363 248.309L228.594 253.373L237.363 258.433Z" fill="#D3DCF5"/>
<path d="M213.19 272.387L235.524 259.495L226.755 254.432L204.42 267.323L213.19 272.387Z" fill="#D3DCF5"/>
<path d="M330.955 180.507L345.573 172.069L336.807 167.009L322.186 175.447L330.955 180.507Z" fill="#D3DCF5"/>
<path d="M338.742 187.967L355.929 178.045L347.159 172.985L329.973 182.906L338.742 187.967Z" fill="#D3DCF5"/>
<path d="M343.834 196.979L366.281 184.021L357.512 178.961L335.064 191.919L343.834 196.979Z" fill="#D3DCF5"/>
<path d="M368.217 195.894L377.534 190.518L367.868 184.937L358.551 190.316L368.217 195.894Z" fill="#D3DCF5"/>
<path d="M357.359 202.162L366.673 196.783L357.008 191.205L347.694 196.581L357.359 202.162Z" fill="#D3DCF5"/>
<path d="M346.499 208.431L355.816 203.052L346.15 197.474L336.833 202.849L346.499 208.431Z" fill="#D3DCF5"/>
<path d="M256.509 260.371L265.826 254.992L256.16 249.414L246.843 254.79L256.509 260.371Z" fill="#D3DCF5"/>
<path d="M333.956 215.668L344.956 209.32L335.29 203.742L324.29 210.09L333.956 215.668Z" fill="#D3DCF5"/>
<path d="M267.605 253.967L278.601 247.619L268.936 242.038L257.936 248.389L267.605 253.967Z" fill="#D3DCF5"/>
<path d="M280.443 246.557L331.652 216.998L321.987 211.42L270.778 240.976L280.443 246.557Z" fill="#D3DCF5"/>
<path d="M315.959 177.421L324.728 172.361L315.959 167.301L307.19 172.361L315.959 177.421Z" fill="#D3DCF5"/>
<path d="M305.284 183.583L314.054 178.523L305.284 173.459L296.518 178.523L305.284 183.583Z" fill="#D3DCF5"/>
<path d="M294.61 189.745L303.379 184.682L294.61 179.621L285.844 184.682L294.61 189.745Z" fill="#D3DCF5"/>
<path d="M283.935 195.904L292.704 190.844L283.935 185.783L275.169 190.844L283.935 195.904Z" fill="#D3DCF5"/>
<path d="M273.264 202.066L282.03 197.006L273.264 191.942L264.495 197.006L273.264 202.066Z" fill="#D3DCF5"/>
<path d="M262.589 208.228L271.355 203.164L262.589 198.104L253.82 203.164L262.589 208.228Z" fill="#D3DCF5"/>
<path d="M251.915 214.387L260.681 209.326L251.915 204.266L243.145 209.326L251.915 214.387Z" fill="#D3DCF5"/>
<path d="M241.24 220.549L250.01 215.488L241.24 210.428L232.471 215.488L241.24 220.549Z" fill="#D3DCF5"/>
<path d="M230.566 226.711L239.335 221.65L230.566 216.587L221.796 221.65L230.566 226.711Z" fill="#D3DCF5"/>
<path d="M219.891 232.873L228.66 227.809L219.891 222.749L211.122 227.809L219.891 232.873Z" fill="#D3DCF5"/>
<path d="M209.216 239.032L217.986 233.971L209.216 228.911L200.447 233.971L209.216 239.032Z" fill="#D3DCF5"/>
<path d="M198.542 245.194L207.311 240.133L198.542 235.07L189.773 240.133L198.542 245.194Z" fill="#D3DCF5"/>
<path d="M182.311 254.561L196.647 246.285L187.881 241.225L173.542 249.501L182.311 254.561Z" fill="#D3DCF5"/>
<path d="M192.859 250.091L201.629 255.155L198.824 256.774L209.177 262.751L202.834 266.411L192.481 260.434L191.22 259.704L183.712 255.371L192.859 250.091Z" fill="#D3DCF5"/>
<path d="M246.139 266.354L254.62 261.463L250.242 258.935L241.761 263.829L246.139 266.354Z" fill="#D3DCF5"/>
<path d="M235.289 272.619L243.769 267.725L239.391 265.196L230.914 270.091L235.289 272.619Z" fill="#D3DCF5"/>
<path d="M230.001 269.566L238.479 264.672L234.104 262.143L225.623 267.038L230.001 269.566Z" fill="#D3DCF5"/>
<path d="M224.442 278.881L232.919 273.986L228.544 271.461L220.064 276.352L224.442 278.881Z" fill="#D3DCF5"/>
<path d="M316.367 165.585L325.794 160.266L320.549 157.17L311.123 162.489L316.367 165.585Z" fill="#EDF2FC"/>
<path d="M305.251 171.857L314.674 166.537L309.43 163.441L300.007 168.761L305.251 171.857Z" fill="#EDF2FC"/>
<path d="M294.135 178.128L303.558 172.812L298.314 169.716L288.887 175.032L294.135 178.128Z" fill="#EDF2FC"/>
<path d="M283.016 184.403L292.442 179.084L287.195 175.988L277.771 181.307L283.016 184.403Z" fill="#EDF2FC"/>
<path d="M271.9 190.674L281.323 185.359L276.079 182.263L266.655 187.579L271.9 190.674Z" fill="#EDF2FC"/>
<path d="M260.784 196.946L270.207 191.63L264.963 188.534L255.536 193.85L260.784 196.946Z" fill="#EDF2FC"/>
<path d="M249.664 203.221L259.088 197.902L253.843 194.806L244.42 200.125L249.664 203.221Z" fill="#EDF2FC"/>
<path d="M238.548 209.492L247.971 204.177L242.727 201.081L233.304 206.396L238.548 209.492Z" fill="#EDF2FC"/>
<path d="M227.429 215.767L236.855 210.448L231.608 207.352L222.185 212.671L227.429 215.767Z" fill="#EDF2FC"/>
<path d="M216.313 222.039L225.736 216.723L220.492 213.624L211.069 218.943L216.313 222.039Z" fill="#EDF2FC"/>
<path d="M205.197 228.31L214.62 222.994L209.376 219.898L199.949 225.214L205.197 228.31Z" fill="#EDF2FC"/>
<path d="M194.078 234.585L203.504 229.266L198.256 226.17L188.833 231.489L194.078 234.585Z" fill="#EDF2FC"/>
<path d="M182.961 240.857L192.385 235.541L187.14 232.445L177.717 237.761L182.961 240.857Z" fill="#EDF2FC"/>
<path d="M171.842 247.132L181.269 241.812L176.024 238.716L166.598 244.032L171.842 247.132Z" fill="#EDF2FC"/>
<path d="M327.088 171.213L335.907 166.235L327.188 161.089L318.369 166.066L327.088 171.213Z" fill="#EDF2FC"/>
<path d="M320.921 186.367L329.74 181.393L321.021 176.247L312.202 181.221L320.921 186.367Z" fill="#EDF2FC"/>
<path d="M310.22 192.407L319.036 187.433L310.316 182.286L301.5 187.26L310.22 192.407Z" fill="#EDF2FC"/>
<path d="M299.516 198.446L308.335 193.472L299.615 188.325L290.796 193.299L299.516 198.446Z" fill="#EDF2FC"/>
<path d="M288.811 204.485L297.63 199.511L288.911 194.364L280.095 199.338L288.811 204.485Z" fill="#EDF2FC"/>
<path d="M278.11 210.524L286.926 205.547L278.21 200.404L269.39 205.378L278.11 210.524Z" fill="#EDF2FC"/>
<path d="M267.405 216.564L276.225 211.586L267.505 206.44L258.689 211.417L267.405 216.564Z" fill="#EDF2FC"/>
<path d="M256.704 222.603L265.52 217.626L256.804 212.479L247.985 217.456L256.704 222.603Z" fill="#EDF2FC"/>
<path d="M246 228.642L254.819 223.665L246.099 218.518L237.28 223.495L246 228.642Z" fill="#EDF2FC"/>
<path d="M235.299 234.681L244.115 229.704L235.395 224.557L226.579 229.535L235.299 234.681Z" fill="#EDF2FC"/>
<path d="M224.594 240.717L233.413 235.743L224.694 230.597L215.875 235.574L224.594 240.717Z" fill="#EDF2FC"/>
<path d="M213.89 246.757L222.709 241.783L213.989 236.636L205.174 241.61L213.89 246.757Z" fill="#EDF2FC"/>
<path d="M203.189 252.796L212.005 247.822L203.288 242.675L194.469 247.649L203.189 252.796Z" fill="#EDF2FC"/>
<path d="M328.114 194.195L336.933 189.218L328.213 184.074L319.398 189.049L328.114 194.195Z" fill="#EDF2FC"/>
<path d="M317.459 200.208L326.275 195.234L317.559 190.087L308.74 195.061L317.459 200.208Z" fill="#EDF2FC"/>
<path d="M306.801 206.221L315.62 201.246L306.901 196.1L298.082 201.074L306.801 206.221Z" fill="#EDF2FC"/>
<path d="M296.143 212.233L304.962 207.259L296.243 202.113L287.427 207.087L296.143 212.233Z" fill="#EDF2FC"/>
<path d="M285.489 218.246L294.304 213.272L285.588 208.125L276.769 213.099L285.489 218.246Z" fill="#EDF2FC"/>
<path d="M274.831 224.259L283.65 219.285L274.93 214.138L266.111 219.112L274.831 224.259Z" fill="#EDF2FC"/>
<path d="M264.173 230.271L272.992 225.297L264.272 220.151L255.456 225.125L264.173 230.271Z" fill="#EDF2FC"/>
<path d="M253.518 236.284L262.334 231.31L253.617 226.163L244.798 231.137L253.518 236.284Z" fill="#EDF2FC"/>
<path d="M242.86 242.297L251.679 237.323L242.96 232.176L234.14 237.154L242.86 242.297Z" fill="#EDF2FC"/>
<path d="M232.202 248.313L241.021 243.335L232.302 238.189L223.486 243.166L232.202 248.313Z" fill="#EDF2FC"/>
<path d="M221.547 254.326L230.363 249.348L221.647 244.202L212.828 249.179L221.547 254.326Z" fill="#EDF2FC"/>
<path d="M210.889 260.338L219.708 255.361L210.989 250.214L202.17 255.192L210.889 260.338Z" fill="#EDF2FC"/>
<path d="M332.993 203.327L341.809 198.353L333.093 193.206L324.274 198.18L332.993 203.327Z" fill="#EDF2FC"/>
<path d="M322.325 209.35L331.141 204.372L322.421 199.226L313.606 204.203L322.325 209.35Z" fill="#EDF2FC"/>
<path d="M311.654 215.369L320.473 210.392L311.753 205.245L302.934 210.222L311.654 215.369Z" fill="#EDF2FC"/>
<path d="M300.986 221.388L309.802 216.414L301.086 211.268L292.266 216.242L300.986 221.388Z" fill="#EDF2FC"/>
<path d="M290.315 227.408L299.134 222.434L290.414 217.287L281.598 222.261L290.315 227.408Z" fill="#EDF2FC"/>
<path d="M279.647 233.427L288.466 228.453L279.746 223.306L270.927 228.28L279.647 233.427Z" fill="#EDF2FC"/>
<path d="M268.979 239.45L277.795 234.472L269.075 229.326L260.259 234.303L268.979 239.45Z" fill="#EDF2FC"/>
<path d="M258.308 245.469L267.127 240.492L258.407 235.345L249.588 240.322L258.308 245.469Z" fill="#EDF2FC"/>
<path d="M247.64 251.488L256.455 246.514L247.739 241.368L238.92 246.342L247.64 251.488Z" fill="#EDF2FC"/>
<path d="M236.968 257.508L245.787 252.534L237.068 247.387L228.252 252.361L236.968 257.508Z" fill="#EDF2FC"/>
<path d="M212.662 271.222L235.123 258.55L226.403 253.403L203.942 266.079L212.662 271.222Z" fill="#EDF2FC"/>
<path d="M331.32 180.501L346.021 172.205L337.301 167.058L322.601 175.354L331.32 180.501Z" fill="#EDF2FC"/>
<path d="M339.034 188.033L356.314 178.284L347.598 173.137L330.314 182.887L339.034 188.033Z" fill="#EDF2FC"/>
<path d="M344.036 197.095L366.61 184.36L357.89 179.213L335.32 191.949L344.036 197.095Z" fill="#EDF2FC"/>
<path d="M368.429 196.249L377.799 190.963L368.187 185.289L358.82 190.575L368.429 196.249Z" fill="#EDF2FC"/>
<path d="M357.512 202.411L366.879 197.125L357.266 191.451L347.9 196.737L357.512 202.411Z" fill="#EDF2FC"/>
<path d="M346.592 208.573L355.959 203.287L346.346 197.613L336.979 202.899L346.592 208.573Z" fill="#EDF2FC"/>
<path d="M256.097 259.631L265.464 254.345L255.855 248.675L246.485 253.957L256.097 259.631Z" fill="#EDF2FC"/>
<path d="M333.979 215.688L345.038 209.449L335.426 203.775L324.366 210.017L333.979 215.688Z" fill="#EDF2FC"/>
<path d="M267.253 253.337L278.312 247.098L268.703 241.424L257.64 247.666L267.253 253.337Z" fill="#EDF2FC"/>
<path d="M280.165 246.053L331.659 216.998L322.05 211.324L270.552 240.379L280.165 246.053Z" fill="#EDF2FC"/>
<path d="M316.354 177.269L325.173 172.291L316.453 167.145L307.638 172.122L316.354 177.269Z" fill="#EDF2FC"/>
<path d="M305.62 183.325L314.439 178.35L305.719 173.204L296.903 178.178L305.62 183.325Z" fill="#EDF2FC"/>
<path d="M294.885 189.38L303.704 184.406L294.985 179.26L286.169 184.234L294.885 189.38Z" fill="#EDF2FC"/>
<path d="M284.154 195.436L292.97 190.462L284.25 185.315L275.435 190.29L284.154 195.436Z" fill="#EDF2FC"/>
<path d="M273.42 201.495L282.236 196.518L273.519 191.371L264.7 196.349L273.42 201.495Z" fill="#EDF2FC"/>
<path d="M262.686 207.551L271.501 202.574L262.785 197.427L253.966 202.405L262.686 207.551Z" fill="#EDF2FC"/>
<path d="M251.951 213.607L260.767 208.633L252.051 203.486L243.232 208.46L251.951 213.607Z" fill="#EDF2FC"/>
<path d="M241.217 219.663L250.036 214.689L241.317 209.542L232.497 214.516L241.217 219.663Z" fill="#EDF2FC"/>
<path d="M230.483 225.719L239.302 220.745L230.582 215.598L221.763 220.572L230.483 225.719Z" fill="#EDF2FC"/>
<path d="M219.748 231.778L228.567 226.8L219.848 221.654L211.029 226.631L219.748 231.778Z" fill="#EDF2FC"/>
<path d="M209.014 237.834L217.833 232.856L209.114 227.713L200.294 232.687L209.014 237.834Z" fill="#EDF2FC"/>
<path d="M198.28 243.89L207.099 238.915L198.379 233.769L189.563 238.743L198.28 243.89Z" fill="#EDF2FC"/>
<path d="M181.956 253.101L196.374 244.965L187.658 239.818L173.24 247.954L181.956 253.101Z" fill="#EDF2FC"/>
<path d="M192.551 248.734L201.27 253.881L198.449 255.47L208.742 261.549L202.366 265.146L192.069 259.071L190.815 258.327L183.353 253.924L192.551 248.734Z" fill="#EDF2FC"/>
<path d="M245.668 265.515L254.195 260.707L249.844 258.135L241.316 262.946L245.668 265.515Z" fill="#EDF2FC"/>
<path d="M234.758 271.673L243.285 266.862L238.933 264.29L230.406 269.102L234.758 271.673Z" fill="#EDF2FC"/>
<path d="M229.5 268.568L238.027 263.756L233.676 261.188L225.149 265.999L229.5 268.568Z" fill="#EDF2FC"/>
<path d="M223.848 277.829L232.375 273.017L228.023 270.449L219.496 275.257L223.848 277.829Z" fill="#EDF2FC"/>
<path d="M321.492 272.646L366.401 246.727C367.161 246.289 367.065 245.522 366.188 245.018L334.679 226.83C333.803 226.323 332.475 226.27 331.715 226.708L286.806 252.627C286.046 253.065 286.142 253.831 287.019 254.335L318.528 272.523C319.404 273.031 320.732 273.084 321.492 272.646Z" fill="#EDF2FC"/>
<path d="M366.185 245.014L334.676 226.827C333.8 226.319 332.472 226.266 331.712 226.704L286.803 252.623C286.564 252.759 286.421 252.932 286.348 253.114C286.205 252.743 286.348 252.364 286.803 252.102L331.712 226.183C332.472 225.745 333.8 225.798 334.676 226.306L366.185 244.493C366.789 244.842 367.012 245.31 366.852 245.711C366.756 245.462 366.537 245.217 366.185 245.014Z" fill="#D3DCF5"/>
<path d="M270.436 315.143L440.409 217.038C441.979 216.132 442.736 214.918 442.726 213.647H442.733V221.913H442.726C442.726 223.17 441.966 224.378 440.406 225.277L270.433 323.385C268.8 324.328 266.592 324.762 264.295 324.719V316.48C266.592 316.52 268.8 316.088 270.433 315.146L270.436 315.143Z" fill="#DEE6FF"/>
<path d="M109.375 105.859C108.651 107.758 108.419 109.858 108.853 111.776L139.357 246.697L135.128 249.136L103.646 109.898C103.178 107.827 103.483 105.541 104.346 103.53L109.371 105.859H109.375Z" fill="#BFCEFF"/>
<path d="M138.116 245.977L153.889 255.082C153.889 255.082 153.892 255.082 153.892 255.085L256.983 314.589C259.081 315.8 261.74 316.434 264.295 316.48V324.719C261.743 324.673 259.081 324.039 256.983 322.828L153.925 263.345C153.925 263.345 153.898 263.335 153.885 263.328L138.112 254.223C136.403 253.237 135.019 250.592 135.019 248.313C135.019 246.033 136.403 244.988 138.112 245.973L138.116 245.977Z" fill="#BFCEFF"/>
<g style="mix-blend-mode:multiply">
<path d="M138.116 253.363L153.889 262.469C153.889 262.469 153.915 262.479 153.928 262.485L256.986 321.968C259.084 323.18 261.743 323.813 264.299 323.86C266.596 323.9 268.803 323.468 270.436 322.526L440.409 224.418C441.969 223.519 442.726 222.311 442.729 221.05H442.736V221.913H442.729C442.729 223.17 441.969 224.378 440.409 225.277L270.436 323.385C268.803 324.328 266.596 324.762 264.299 324.719C261.746 324.673 259.084 324.039 256.986 322.828L153.928 263.345C153.928 263.345 153.902 263.335 153.889 263.328L138.116 254.223C136.406 253.237 135.022 250.592 135.022 248.313C135.022 248.167 135.042 248.037 135.055 247.901C135.218 250.068 136.519 252.441 138.116 253.36V253.363Z" fill="#E8EDFA"/>
</g>
<g style="mix-blend-mode:multiply">
<path d="M136.866 250.919C135.949 249.33 135.949 247.613 136.867 247.083C137.784 246.554 139.272 247.412 140.189 249.001C141.107 250.59 141.107 252.307 140.189 252.837C139.271 253.366 137.784 252.508 136.866 250.919Z" fill="#E8EDFA"/>
</g>
<path opacity="0.5" d="M146.945 256.608L151.615 259.306C152.119 259.598 152.531 259.29 152.531 258.613C152.531 257.939 152.119 257.156 151.615 256.864L146.945 254.166C146.44 253.874 146.029 254.183 146.029 254.86C146.029 255.533 146.44 256.316 146.945 256.608Z" fill="#2A63C5"/>
<path opacity="0.5" d="M157.888 262.943L162.558 265.641C163.063 265.933 163.474 265.624 163.474 264.947C163.474 264.274 163.063 263.491 162.558 263.199L157.888 260.501C157.384 260.209 156.972 260.517 156.972 261.194C156.972 261.868 157.384 262.651 157.888 262.943Z" fill="#2A63C5"/>
<path d="M108.249 98.931L278.213 0.829664C279.657 -0.00322134 281.117 -0.185726 282.395 0.175965L282.435 0.18592C282.614 0.239012 282.79 0.302059 282.963 0.37838L287.51 2.03088C286.252 1.70237 284.828 1.89151 283.414 2.7078L113.451 100.806C111.628 101.858 110.204 103.726 109.395 105.853L104.369 103.523C105.202 101.586 106.553 99.9065 108.246 98.9277L108.249 98.931Z" fill="white"/>
<g opacity="0.85">
<path d="M256.27 74.4156C256.475 74.4156 256.684 74.3626 256.877 74.2531L290.587 54.7947C291.168 54.4596 291.367 53.7163 291.032 53.1356C290.696 52.5549 289.953 52.3558 289.372 52.6909L255.662 72.1493C255.081 72.4844 254.882 73.2277 255.217 73.8084C255.443 74.1966 255.851 74.4156 256.27 74.4156Z" fill="white"/>
</g>
<g opacity="0.85">
<path d="M242.203 91.9228C242.409 91.9228 242.618 91.8697 242.81 91.7602L292.412 63.1302C292.993 62.795 293.192 62.0517 292.857 61.471C292.522 60.8903 291.778 60.6912 291.198 61.0264L241.595 89.6564C241.014 89.9916 240.815 90.7349 241.151 91.3155C241.376 91.7038 241.784 91.9228 242.203 91.9228Z" fill="white"/>
</g>
<path d="M280.397 104.35L272.321 99.7008V99.7074C272.215 99.6377 272.076 99.6344 271.92 99.724L170.724 158.132C170.392 158.321 170.126 158.836 170.126 159.274V178.37C170.126 178.583 170.189 178.735 170.292 178.818L170.299 178.825C170.305 178.832 170.315 178.835 170.322 178.838L178.481 183.537L178.544 174.309L271.923 120.413C272.255 120.224 272.52 119.71 272.52 119.272V112.718L280.403 104.35H280.397Z" fill="url(#paint6_linear_325_5708)"/>
<path d="M280.035 125.089L178.839 183.497C178.507 183.686 178.242 183.484 178.242 183.046V163.949C178.242 163.508 178.51 162.997 178.839 162.808L280.035 104.399C280.367 104.21 280.633 104.413 280.633 104.851V123.947C280.633 124.389 280.364 124.9 280.035 125.089Z" fill="url(#paint7_linear_325_5708)"/>
<path opacity="0.6" d="M266.074 121.22L187.28 167.539C189.716 169.637 192.02 172.036 194.137 174.667L273.516 128.852C271.232 126.008 268.727 123.43 266.078 121.22H266.074Z" fill="#2F308D"/>
<path d="M277.147 119.352L181.723 174.428C181.498 174.558 181.315 174.422 181.315 174.12V169.321C181.315 169.019 181.498 168.671 181.723 168.542L277.147 113.465C277.373 113.336 277.556 113.472 277.556 113.774V118.572C277.556 118.874 277.373 119.222 277.147 119.352Z" fill="#2F308D"/>
<path d="M277.147 113.462L275.206 114.583V117.175C275.206 117.477 275.023 117.825 274.797 117.955L181.315 171.913V174.12C181.315 174.422 181.498 174.558 181.723 174.428L277.147 119.352C277.373 119.222 277.556 118.87 277.556 118.572V113.774C277.556 113.472 277.373 113.336 277.147 113.465V113.462Z" fill="#4D5AA7"/>
<path opacity="0.96" d="M330.753 326L410.138 280.181C399.898 274.272 391.265 261.334 388.63 248.963C387.561 243.949 384.491 239.596 380.049 237.031L320.061 202.411C303.353 192.768 292.522 175.407 291.387 156.155C290.428 139.898 278.133 123.911 268.594 118.403L189.208 164.221C198.608 169.647 208.957 184.811 210.136 200.792C211.556 220.044 222.029 237.469 238.754 247.122L300.667 282.853C305.108 285.414 308.179 289.771 309.247 294.785C311.883 307.156 320.516 320.094 330.756 326.003L330.753 326Z" fill="url(#paint8_linear_325_5708)"/>
<path opacity="0.8" d="M268.594 118.399L189.208 164.218C189.845 164.586 190.473 164.984 191.1 165.396H191.107L270.482 119.574C269.858 119.162 269.231 118.764 268.597 118.399H268.594Z" fill="#4D5AA7"/>
<g opacity="0.32">
<path d="M276.268 225.145L296.966 213.195L295.489 212.343L274.791 224.288L276.268 225.145Z" fill="#4D5AA7"/>
<path d="M264.232 232.09L271.704 227.779L270.223 226.926L262.755 231.237L264.232 232.09Z" fill="#4D5AA7"/>
<path d="M258.241 235.547L260.428 234.286L258.951 233.434L256.761 234.695L258.241 235.547Z" fill="#4D5AA7"/>
<path d="M246.966 242.054L254.437 237.744L252.957 236.891L245.489 241.202L246.966 242.054Z" fill="#4D5AA7"/>
<path d="M293.979 218.452L300.027 214.961L298.546 214.108L292.499 217.599L293.979 218.452Z" fill="#4D5AA7"/>
<path d="M267.293 233.855L289.412 221.086L287.935 220.234L265.816 233.002L267.293 233.855Z" fill="#4D5AA7"/>
<path d="M261.298 237.313L263.489 236.052L262.008 235.199L259.821 236.46L261.298 237.313Z" fill="#4D5AA7"/>
<path d="M250.026 243.82L257.494 239.509L256.017 238.657L248.546 242.967L250.026 243.82Z" fill="#4D5AA7"/>
<path d="M300.06 218.472L303.084 216.726L301.607 215.873L298.583 217.619L300.06 218.472Z" fill="#4D5AA7"/>
<path d="M291.908 223.177L295.496 221.106L294.016 220.253L290.431 222.324L291.908 223.177Z" fill="#4D5AA7"/>
<path d="M285.917 226.638L288.104 225.374L286.627 224.521L284.436 225.782L285.917 226.638Z" fill="#4D5AA7"/>
<path d="M274.641 233.142L282.113 228.831L280.633 227.978L273.164 232.289L274.641 233.142Z" fill="#4D5AA7"/>
<path d="M300.096 221.982L306.144 218.491L304.664 217.639L298.616 221.129L300.096 221.982Z" fill="#4D5AA7"/>
<path d="M288.061 228.931L295.529 224.617L294.052 223.764L286.581 228.075L288.061 228.931Z" fill="#4D5AA7"/>
<path d="M282.066 232.388L284.257 231.124L282.777 230.271L280.589 231.536L282.066 232.388Z" fill="#4D5AA7"/>
<path d="M270.794 238.896L278.263 234.585L276.786 233.732L269.314 238.043L270.794 238.896Z" fill="#4D5AA7"/>
<path d="M288.731 232.339L309.43 220.389L307.953 219.537L287.254 231.482L288.731 232.339Z" fill="#4D5AA7"/>
<path d="M276.696 239.284L284.167 234.973L282.69 234.12L275.219 238.431L276.696 239.284Z" fill="#4D5AA7"/>
<path d="M270.705 242.741L272.892 241.48L271.415 240.628L269.224 241.889L270.705 242.741Z" fill="#4D5AA7"/>
<path d="M259.429 249.248L266.901 244.938L265.421 244.085L257.952 248.396L259.429 249.248Z" fill="#4D5AA7"/>
<path d="M306.443 225.646L312.49 222.155L311.013 221.302L304.962 224.793L306.443 225.646Z" fill="#4D5AA7"/>
<path d="M279.756 241.049L301.875 228.28L300.398 227.427L278.279 240.196L279.756 241.049Z" fill="#4D5AA7"/>
<path d="M273.762 244.507L275.952 243.246L274.472 242.393L272.285 243.654L273.762 244.507Z" fill="#4D5AA7"/>
<path d="M262.49 251.014L269.958 246.703L268.481 245.851L261.009 250.161L262.49 251.014Z" fill="#4D5AA7"/>
<path d="M312.523 225.666L315.547 223.92L314.07 223.067L311.046 224.813L312.523 225.666Z" fill="#4D5AA7"/>
<path d="M304.375 230.371L307.96 228.3L306.483 227.447L302.894 229.518L304.375 230.371Z" fill="#4D5AA7"/>
<path d="M298.38 233.832L300.568 232.568L299.091 231.715L296.9 232.976L298.38 233.832Z" fill="#4D5AA7"/>
<path d="M287.105 240.336L294.577 236.025L293.096 235.172L285.628 239.483L287.105 240.336Z" fill="#4D5AA7"/>
<path d="M312.56 229.176L318.608 225.685L317.127 224.833L311.08 228.323L312.56 229.176Z" fill="#4D5AA7"/>
<path d="M300.525 236.125L307.993 231.811L306.516 230.958L299.048 235.269L300.525 236.125Z" fill="#4D5AA7"/>
<path d="M294.53 239.582L296.721 238.318L295.24 237.465L293.053 238.73L294.53 239.582Z" fill="#4D5AA7"/>
<path d="M283.258 246.089L290.726 241.779L289.249 240.926L281.778 245.237L283.258 246.089Z" fill="#4D5AA7"/>
<path d="M301.195 239.533L321.894 227.583L320.417 226.731L299.718 238.676L301.195 239.533Z" fill="#4D5AA7"/>
<path d="M289.163 246.478L296.631 242.167L295.154 241.314L287.683 245.625L289.163 246.478Z" fill="#4D5AA7"/>
<path d="M283.168 249.935L285.356 248.674L283.879 247.822L281.691 249.083L283.168 249.935Z" fill="#4D5AA7"/>
<path d="M271.893 256.443L279.365 252.132L277.884 251.279L270.416 255.59L271.893 256.443Z" fill="#4D5AA7"/>
<path d="M318.906 232.84L324.954 229.349L323.477 228.496L317.426 231.987L318.906 232.84Z" fill="#4D5AA7"/>
<path d="M292.22 248.243L314.339 235.474L312.862 234.621L290.743 247.39L292.22 248.243Z" fill="#4D5AA7"/>
<path d="M286.225 251.701L288.416 250.44L286.939 249.587L284.748 250.848L286.225 251.701Z" fill="#4D5AA7"/>
<path d="M274.953 258.208L282.422 253.897L280.945 253.045L273.473 257.355L274.953 258.208Z" fill="#4D5AA7"/>
<path d="M324.987 232.86L328.011 231.114L326.534 230.261L323.51 232.007L324.987 232.86Z" fill="#4D5AA7"/>
<path d="M316.838 237.565L320.423 235.494L318.946 234.641L315.358 236.712L316.838 237.565Z" fill="#4D5AA7"/>
<path d="M310.844 241.022L313.031 239.761L311.554 238.909L309.367 240.17L310.844 241.022Z" fill="#4D5AA7"/>
<path d="M299.569 247.53L307.04 243.219L305.56 242.366L298.092 246.677L299.569 247.53Z" fill="#4D5AA7"/>
<path d="M325.024 236.37L331.071 232.879L329.594 232.027L323.543 235.517L325.024 236.37Z" fill="#4D5AA7"/>
<path d="M312.988 243.315L320.456 239.005L318.979 238.152L311.511 242.463L312.988 243.315Z" fill="#4D5AA7"/>
<path d="M306.994 246.776L309.184 245.512L307.707 244.659L305.517 245.924L306.994 246.776Z" fill="#4D5AA7"/>
<path d="M295.722 253.283L303.19 248.973L301.713 248.12L294.241 252.431L295.722 253.283Z" fill="#4D5AA7"/>
</g>
</g>
<defs>
<linearGradient id="paint0_linear_325_5708" x1="-0.398789" y1="355.151" x2="72.8619" y2="366.399" gradientUnits="userSpaceOnUse">
<stop stop-color="#C2D3EC"/>
<stop offset="0.3" stop-color="#C6D7ED"/>
<stop offset="0.66" stop-color="#D5E3F1"/>
<stop offset="1" stop-color="#EAF6F8"/>
</linearGradient>
<linearGradient id="paint1_linear_325_5708" x1="-287.687" y1="359.617" x2="-214.426" y2="370.865" gradientUnits="userSpaceOnUse">
<stop stop-color="#C2D3EC"/>
<stop offset="0.3" stop-color="#C6D7ED"/>
<stop offset="0.66" stop-color="#D5E3F1"/>
<stop offset="1" stop-color="#EAF6F8"/>
</linearGradient>
<linearGradient id="paint2_linear_325_5708" x1="-287.687" y1="359.617" x2="-214.426" y2="370.865" gradientUnits="userSpaceOnUse">
<stop stop-color="#C2D3EC"/>
<stop offset="0.3" stop-color="#C6D7ED"/>
<stop offset="0.66" stop-color="#D5E3F1"/>
<stop offset="1" stop-color="#EAF6F8"/>
</linearGradient>
<linearGradient id="paint3_linear_325_5708" x1="-280.439" y1="338.705" x2="-207.178" y2="349.953" gradientUnits="userSpaceOnUse">
<stop stop-color="#C2D3EC"/>
<stop offset="0.3" stop-color="#C6D7ED"/>
<stop offset="0.66" stop-color="#D5E3F1"/>
<stop offset="1" stop-color="#EAF6F8"/>
</linearGradient>
<linearGradient id="paint4_linear_325_5708" x1="294.341" y1="179.021" x2="133.876" y2="70.2354" gradientUnits="userSpaceOnUse">
<stop stop-color="#427CE8"/>
<stop offset="0.52" stop-color="#2B64C7"/>
<stop offset="1" stop-color="#1951AD"/>
</linearGradient>
<linearGradient id="paint5_linear_325_5708" x1="156.537" y1="90.8543" x2="243.249" y2="141.795" gradientUnits="userSpaceOnUse">
<stop stop-color="white"/>
<stop offset="1" stop-color="#8F8F8F"/>
</linearGradient>
<linearGradient id="paint6_linear_325_5708" x1="190.151" y1="195.373" x2="243.667" y2="98.9811" gradientUnits="userSpaceOnUse">
<stop stop-color="#5C72B5"/>
<stop offset="0.04" stop-color="#6076B7"/>
<stop offset="0.09" stop-color="#6F84BF"/>
<stop offset="0.14" stop-color="#869CCD"/>
<stop offset="0.19" stop-color="#A7BCDF"/>
<stop offset="0.22" stop-color="#BFD3ED"/>
</linearGradient>
<linearGradient id="paint7_linear_325_5708" x1="255.924" y1="195.715" x2="220.305" y2="126.063" gradientUnits="userSpaceOnUse">
<stop stop-color="#C2D3EC"/>
<stop offset="0.3" stop-color="#C6D7ED"/>
<stop offset="0.66" stop-color="#D5E3F1"/>
<stop offset="1" stop-color="#EAF6F8"/>
</linearGradient>
<linearGradient id="paint8_linear_325_5708" x1="352.244" y1="320.907" x2="239.035" y2="120.25" gradientUnits="userSpaceOnUse">
<stop stop-color="#C2D3EC"/>
<stop offset="0.08" stop-color="#C4D5EC"/>
<stop offset="0.14" stop-color="#CEDDEF"/>
<stop offset="0.18" stop-color="#DDEBF4"/>
<stop offset="0.21" stop-color="#EAF6F8"/>
<stop offset="0.25" stop-color="#DAE8F3"/>
<stop offset="0.31" stop-color="#CCDCEF"/>
<stop offset="0.39" stop-color="#C4D5EC"/>
<stop offset="0.51" stop-color="#C2D3EC"/>
<stop offset="0.63" stop-color="#D2E1F0"/>
<stop offset="0.75" stop-color="#EAF6F8"/>
<stop offset="1" stop-color="#C2D3EC"/>
</linearGradient>
<clipPath id="clip0_325_5708">
<rect width="499" height="326" fill="white" transform="matrix(-1 0 0 1 499 0)"/>
</clipPath>
</defs>
</svg>
