<svg width="528" height="462" viewBox="0 0 528 462" fill="none" xmlns="http://www.w3.org/2000/svg">
<mask id="mask0_325_6292" style="mask-type:alpha" maskUnits="userSpaceOnUse" x="0" y="0" width="528" height="462">
<path fill-rule="evenodd" clip-rule="evenodd" d="M436.912 231.055L412.766 216.739L335.223 221.083L335.225 218.801L337.757 215.659L414.073 211.385L437.372 225.194L483.067 207.004V212.68L436.912 231.055ZM321.559 221.849C318.396 220.125 315.098 218.546 311.666 217.12L335.393 215.792L333.663 217.94L333.467 218.182V221.181L321.559 221.849ZM276.745 208.75C273.444 208.47 270.093 208.321 266.699 208.307L267.626 205.796L276.745 208.75ZM258.905 208.514L223.81 197.15L224.894 194.803L225.933 192.295L265.955 205.255L265.065 207.663L264.795 208.314C262.816 208.335 260.854 208.401 258.905 208.514ZM222.126 196.605L193.606 187.367L152.725 145.974L67.9825 110.142L70.0351 105.285L155.74 141.525L196.452 182.746L224.256 191.752L223.285 194.096L222.126 196.605Z" fill="white"/>
<path fill-rule="evenodd" clip-rule="evenodd" d="M104.108 405.943L102.442 405.388L132.315 315.738L194.234 184.681L235.135 87.7439L255.001 0L256.716 0.386864L236.802 88.2784L195.839 185.399L133.942 316.392L104.108 405.943Z" fill="white"/>
<path fill-rule="evenodd" clip-rule="evenodd" d="M224.925 438.873L223.242 438.373L248.038 355.252L248.846 355.522L249.069 355.596L249.811 355.441L224.925 438.873ZM306.296 215.054C305.744 214.857 305.192 214.667 304.635 214.479L341.425 107.427L362.485 16.1074L364.199 16.5031L343.112 107.91L306.296 215.054Z" fill="white"/>
<path fill-rule="evenodd" clip-rule="evenodd" d="M412.815 460.794L373.735 423.479L373.94 422.933L412.542 321.129V214.33L341.731 108.512L235.929 88.9774L187.752 96.2793L144.537 104.219L82.8496 88.3517L83.2874 86.6482L144.601 102.421L187.462 94.5462L235.959 87.195L236.105 87.2215L342.778 106.918L414.3 213.796L414.243 321.604L375.791 423.011L414.029 459.525L412.815 460.794Z" fill="white"/>
<path fill-rule="evenodd" clip-rule="evenodd" d="M249.069 355.597L248.846 355.523L248.038 355.253L244.467 354.063C246.773 354.472 249.111 354.819 251.476 355.1L249.811 355.443L249.069 355.597ZM212.862 343.517L210.791 342.827L210.891 342.473C211.545 342.829 212.198 343.175 212.862 343.517ZM209.128 342.271L163.888 327.177L164.081 326.435L164.494 325.542L205.159 339.102C206.513 339.963 207.902 340.796 209.318 341.6L209.128 342.271ZM326.586 339.575L326.57 339.492C327.858 338.687 329.122 337.855 330.353 337.003L355.256 331.856L413.252 320.428L458.248 302.76L458.582 302.906L483.069 313.669V315.589L458.21 304.662L413.742 322.109L355.604 333.577L326.586 339.575ZM162.229 326.625L132.698 316.772L87.0108 289.526L57.7165 267.254L43.7717 244.276V240.888L59.1314 266.197L87.9913 288.068L133.517 315.213L162.828 324.986L162.433 325.844L162.229 326.625Z" fill="white"/>
<path fill-rule="evenodd" clip-rule="evenodd" d="M140.148 418.192L138.447 417.749L162.229 326.624L162.433 325.844L162.828 324.986L173.624 301.612C173.898 302.382 174.186 303.145 174.49 303.905L164.494 325.542L164.081 326.435L163.888 327.177L140.148 418.192ZM210.358 222.085L222.128 196.605L223.286 194.096L224.257 191.752L265.067 93.2759L279.119 26.3796L280.837 26.7416L266.738 93.7927L225.934 192.294L224.896 194.803L223.811 197.149L212.922 220.719C212.056 221.163 211.203 221.619 210.358 222.085Z" fill="white"/>
<path fill-rule="evenodd" clip-rule="evenodd" d="M188.174 422.314L186.484 421.833L209.128 342.272L209.318 341.6C209.838 341.895 210.364 342.187 210.891 342.474L210.791 342.827L188.174 422.314ZM264.796 208.314L265.067 207.664L265.956 205.256L304.573 100.605L319.077 31.6536L320.796 32.0155L306.257 101.09L267.627 205.797L266.701 208.307H266.174C265.715 208.307 265.253 208.309 264.796 208.314Z" fill="white"/>
<path fill-rule="evenodd" clip-rule="evenodd" d="M256.98 411.454L272.645 355.796C273.262 355.764 273.884 355.728 274.499 355.687L259.424 409.254L285.494 404.815L306.823 396.332L307.048 397.1L308.733 396.606L308.46 395.68L333.353 385.779L333.485 386.489L335.21 386.17L335.118 385.667L367.883 397.17H397.571L415.666 345.782L438.698 338.504L439.027 338.682L483.069 362.546V364.547L438.515 340.406L417.032 347.191L398.813 398.928L367.442 398.879L334.367 387.268L285.879 406.533L256.98 411.454ZM170.254 282.812L141.921 272.31L115.999 256.542L91.6358 243.654H82.3419L79.3193 227.852L45.4902 187.084L46.8431 185.961L80.9607 227.079L83.7951 241.896H92.0715L92.2646 241.998L116.865 255.014L142.684 270.734L170.263 280.948C170.254 281.343 170.25 281.737 170.25 282.134C170.25 282.359 170.252 282.588 170.254 282.812Z" fill="white"/>
<path fill-rule="evenodd" clip-rule="evenodd" d="M391.456 272.22V270.606H389.698V242.562L349.886 246.058C349.48 245.503 349.064 244.949 348.642 244.404L391.456 240.642V270.434L413.266 266.519L454.068 254.977L483.068 237.325V239.368L454.66 256.638L413.66 268.23L391.456 272.22ZM207.852 223.515L181.444 213.297L138.841 177.91L65.7503 148.078L66.4145 146.45L139.756 176.385L139.86 176.472L182.456 211.852L209.81 222.389C209.151 222.758 208.498 223.134 207.852 223.515Z" fill="white"/>
<path fill-rule="evenodd" clip-rule="evenodd" d="M355.917 308.26C356.24 307.603 356.553 306.939 356.853 306.273L389.699 299.48V272.364H361.265C361.164 271.775 361.053 271.189 360.935 270.606H391.456V300.911L355.917 308.26Z" fill="white"/>
<path fill-rule="evenodd" clip-rule="evenodd" d="M333.485 386.489L333.353 385.779L324.966 340.473C325.507 340.15 326.039 339.824 326.57 339.492L326.586 339.575L335.119 385.667L335.21 386.17L333.485 386.489ZM335.216 230.881C334.642 230.422 334.059 229.969 333.469 229.522V218.182L333.664 217.94L335.395 215.792L378.729 162.026L421.258 159.299L476.091 109.698L477.268 111.002L421.982 161.014L379.611 163.732L337.758 215.66L335.226 218.801L335.224 221.083L335.216 230.881Z" fill="white"/>
<path fill-rule="evenodd" clip-rule="evenodd" d="M522.944 291.647L475.969 274.505L458.891 219.392L447.219 191.092L422.201 162.172L414.288 214.194L412.552 213.93L421.037 158.14L448.789 190.289L460.543 218.798L477.391 273.151L523.545 289.995L522.944 291.647Z" fill="white"/>
<path fill-rule="evenodd" clip-rule="evenodd" d="M527.452 264.726L490.057 256.542L475.845 212.656L471.622 195.694L450.905 167.813L484.279 136.661L485.478 137.948L453.253 168.026L473.286 195.1L477.533 212.172L491.417 255.04L527.826 263.011L527.452 264.726Z" fill="white"/>
<path fill-rule="evenodd" clip-rule="evenodd" d="M454.565 422.833L420.597 403.158L437.836 339.032L457.459 303.289L475.93 273.365L489.979 255.335L503.604 224.682L527.518 221.395L527.759 223.135L504.812 226.292L491.431 256.332L477.373 274.369L458.977 304.173L439.427 339.783L422.642 402.314L455.447 421.311L454.565 422.833Z" fill="white"/>
<path fill-rule="evenodd" clip-rule="evenodd" d="M391.456 241.602H389.699V215.341L394.123 186.39L395.86 186.655L391.445 215.475L391.456 241.602Z" fill="white"/>
<path fill-rule="evenodd" clip-rule="evenodd" d="M0.964486 305.619L0 304.149L57.9855 266.062L82.4545 242.145L83.6808 243.402L59.0803 267.424L0.964486 305.619Z" fill="white"/>
<path fill-rule="evenodd" clip-rule="evenodd" d="M100.3 236.026L98.636 235.46L109.251 204.197L138.568 176.627L153.309 143.664L143.715 103.524L138.472 65.6706L109.424 39.5178L110.599 38.2117L140.125 64.7935L145.439 103.199L155.158 143.834L139.9 177.789L110.773 205.178L100.3 236.026Z" fill="white"/>
<path fill-rule="evenodd" clip-rule="evenodd" d="M147.887 249.507L120.543 236.142L126.066 225.094L127.639 225.882L122.908 235.342L147.112 247.172L162.183 217.855L139.593 201.869L130.241 218.827L109.534 205.425L71.4247 177.861L72.4541 176.436L110.527 203.975L129.614 216.328L139.002 199.299L164.443 217.301L147.887 249.507Z" fill="white"/>
<path fill-rule="evenodd" clip-rule="evenodd" d="M194.587 232.992L175.459 226.233L162.848 218.323L163.78 216.833L176.309 224.692L196.141 231.683C195.617 232.113 195.099 232.551 194.587 232.992Z" fill="white"/>
<path fill-rule="evenodd" clip-rule="evenodd" d="M379.226 163.756L324.189 161.033L246.15 141.556L216.559 133.419L172.698 98.5105L162.42 57.0748L162.444 56.9043L168.3 16.1807L170.04 16.4321L164.208 56.9853L174.26 97.5052L217.512 131.932L246.593 139.856L287.195 149.957L324.445 159.303L379.212 162.002L420.298 159.36L393.941 100.713L394.371 100.284L439.16 55.8197L440.399 57.068L396.042 101.103L422.941 160.95L379.226 163.756Z" fill="white"/>
<path fill-rule="evenodd" clip-rule="evenodd" d="M342.369 108.585L342.144 106.841L393.707 100.189L378.182 65.4969L397.529 28.2061L399.087 29.0165L380.131 65.553L396.276 101.629L342.369 108.585Z" fill="white"/>
<path fill-rule="evenodd" clip-rule="evenodd" d="M416.241 347.358L404.008 345.783L374.007 329.497L367.744 304.884V216.781L355.407 192.465L315.062 187.396L206.99 156.577L187.072 141.725L154.311 144.624L154.157 142.873L187.585 139.915L207.781 154.976L315.412 185.677L356.553 190.837L369.502 216.361V304.773L375.52 328.319L404.698 344.161L416.457 345.615L416.241 347.358Z" fill="white"/>
<path fill-rule="evenodd" clip-rule="evenodd" d="M374.599 380.697L347.644 370.279L343.152 349.011L344.873 348.647L349.167 368.981L373.754 378.486L388.038 350.48L391.95 338.42L393.621 338.963L389.656 351.152L374.599 380.697Z" fill="white"/>
<path fill-rule="evenodd" clip-rule="evenodd" d="M354.732 393.54L353.112 392.862L360.835 374.408L362.453 375.086L354.732 393.54Z" fill="white"/>
<path fill-rule="evenodd" clip-rule="evenodd" d="M307.048 397.1L306.823 396.332L303.002 383.329L321.9 378.929L316.526 351.774L297.371 355.729L296.661 352.154C297.23 352.006 297.798 351.855 298.363 351.7L298.75 353.648L317.905 349.693L323.952 380.254L305.213 384.619L308.46 395.679L308.733 396.606L307.048 397.1Z" fill="white"/>
<path fill-rule="evenodd" clip-rule="evenodd" d="M46.8819 346.998L45.4531 345.975L86.7472 288.258L110.708 252.644L120.97 235.295L122.481 236.191L112.193 253.583L88.1899 289.26L46.8819 346.998Z" fill="white"/>
<path fill-rule="evenodd" clip-rule="evenodd" d="M88.262 369.551L86.659 368.83L115.131 305.39L135.056 267.185L146.748 247.884L148.25 248.795L136.586 268.046L116.712 306.158L88.262 369.551Z" fill="white"/>
<path fill-rule="evenodd" clip-rule="evenodd" d="M94.8721 218.303L77.3971 206.341L90.237 190.328L113.485 166.412L128.531 132.86L143.787 102.919L145.353 103.717L130.116 133.62L114.853 167.527L91.5511 191.491L79.9536 205.962L95.8653 216.851L94.8721 218.303Z" fill="white"/>
<path fill-rule="evenodd" clip-rule="evenodd" d="M186.543 141.212L174.828 117.775L176.4 116.989L188.114 140.426L186.543 141.212Z" fill="white"/>
<path fill-rule="evenodd" clip-rule="evenodd" d="M457.353 303.782L453.545 255.861L455.295 255.721L459.103 303.641L457.353 303.782Z" fill="white"/>
<path d="M438.019 228.125H436.262V311.984H438.019V228.125Z" fill="white"/>
<path fill-rule="evenodd" clip-rule="evenodd" d="M361.666 137.577L361.545 137.563L333.305 134.337L295.958 126.889L255.674 118.241L226.085 111.143L208.801 92.4623L204.163 55.5528L193.431 36.3645L194.965 35.5063L205.885 55.1626L210.474 91.6818L227.015 109.559L256.064 116.527L296.313 125.168L333.577 132.604L361.622 135.802L407.299 128.271L457.69 88.9007L458.77 90.2858L408.026 129.932L407.805 129.969L361.666 137.577Z" fill="white"/>
<path fill-rule="evenodd" clip-rule="evenodd" d="M400.577 161.891L367.636 103.752L351.088 67.5957L244.701 50.2969L205.143 56.1416L163.478 57.903L139.582 66.0646L113.251 76.0155L112.631 74.3719L138.988 64.4105L163.276 56.1522L204.976 54.3942L244.713 48.5178L244.848 48.5389L352.295 66.0102L369.198 102.953L402.104 161.024L400.577 161.891Z" fill="white"/>
<path fill-rule="evenodd" clip-rule="evenodd" d="M370.531 69.0057L370.031 67.3199L378.906 64.6831L379.407 66.3689L370.531 69.0057Z" fill="white"/>
<path fill-rule="evenodd" clip-rule="evenodd" d="M170.026 400.594L168.316 400.19L176.662 365.033L186.49 333.906L188.165 334.433L178.355 365.499L170.026 400.594Z" fill="white"/>
<path fill-rule="evenodd" clip-rule="evenodd" d="M295.299 436.275L284.961 406.129L265.139 384.742L242.332 377.389L202.221 370.057L177.051 365.982L156.181 352.907L122.631 347.319L103.744 332.613L68.244 315.161L57.6094 266.986L59.3262 266.608L69.7778 313.956L104.753 331.172L123.36 345.656L156.964 351.325L177.833 364.397L202.518 368.324L242.759 375.687L266.114 383.211L286.562 405.382L296.96 435.705L295.299 436.275Z" fill="white"/>
<path fill-rule="evenodd" clip-rule="evenodd" d="M258.036 411.217L233.75 406.529L195.275 394.038L172.257 387.171L147.871 384.8L114.266 372.609L90.5073 359.918L51.0288 339.309L31.5822 283.895L31.6471 283.639L42.3817 241.166L68.3777 213.461L69.6585 214.663L43.972 242.038L33.4146 283.814L52.4571 338.073L91.328 358.363L114.98 371.008L148.365 383.111L172.594 385.454L195.797 392.359L234.187 404.829L258.368 409.491L258.036 411.217Z" fill="white"/>
<path fill-rule="evenodd" clip-rule="evenodd" d="M256.655 169.975L255.065 169.23L266.191 145.462L267.783 146.207L256.655 169.975Z" fill="white"/>
<path fill-rule="evenodd" clip-rule="evenodd" d="M161.285 195.163L159.723 194.358L174.833 164.996L176.395 165.801L161.285 195.163Z" fill="white"/>
<path fill-rule="evenodd" clip-rule="evenodd" d="M367.546 359.35L360.791 331.701L362.497 331.281L369.252 358.932L367.546 359.35Z" fill="white"/>
<path fill-rule="evenodd" clip-rule="evenodd" d="M303.466 222.861L304.424 220.501L305.466 217.469L311.667 217.121C315.099 218.546 318.397 220.125 321.56 221.849L303.466 222.861ZM301.762 222.392L265.699 210.713L266.701 208.307C270.094 208.321 273.445 208.47 276.747 208.75L303.614 217.449L302.778 219.884L301.762 222.392ZM264.023 210.172L258.906 208.514C260.855 208.402 262.817 208.335 264.796 208.314L264.023 210.172Z" fill="white"/>
<path fill-rule="evenodd" clip-rule="evenodd" d="M249.178 353.78L248.623 353.595L264.719 313.856L265.53 314.132L266.355 314.487L250.554 353.495L249.178 353.78ZM267.014 312.859L266.16 312.492L265.378 312.228L275.724 286.681L276.625 286.97L277.16 285.295L276.387 285.047L290.219 250.894L291.163 251.159L291.317 251.203L292.013 251.142L284.129 270.606H282.827V272.364H283.417L267.014 312.859ZM291.486 249.424L290.883 249.256L301.762 222.392L302.778 219.884L303.614 217.449L304.635 214.48C305.192 214.669 305.744 214.858 306.296 215.055L305.466 217.469L304.424 220.501L303.466 222.862L292.753 249.313L291.486 249.424Z" fill="white"/>
<path fill-rule="evenodd" clip-rule="evenodd" d="M251.476 355.1C249.111 354.819 246.773 354.473 244.467 354.063L212.862 343.518C212.198 343.175 211.545 342.829 210.891 342.473L211.012 342.048L211.376 341.176L248.623 353.595L249.178 353.78L250.554 353.495L274.751 348.494L274.552 349.02L274.16 350.41L251.476 355.1ZM276.096 350.011L276.219 349.57L276.783 348.074L295.452 344.215L295.223 344.92L295.44 346.012L276.096 350.011ZM297.16 345.657L297.035 345.028L297.431 343.808L324.507 338.211L324.702 339.047L324.866 339.93L297.16 345.657ZM209.318 341.6C207.902 340.796 206.513 339.963 205.159 339.102L209.71 340.621L209.355 341.47L209.318 341.6ZM326.57 339.492L326.423 338.687L326.227 337.856L330.353 337.003C329.122 337.856 327.858 338.687 326.57 339.492Z" fill="white"/>
<path fill-rule="evenodd" clip-rule="evenodd" d="M174.491 303.905C174.186 303.145 173.898 302.382 173.624 301.613L180.546 286.629L181.472 286.972L182.208 287.2L174.491 303.905ZM182.95 285.592L182.038 285.309L181.284 285.029L203.815 236.251L204.721 236.573L205.305 234.913L204.554 234.65L209.418 224.12L210.298 224.461L211.061 224.746L195.408 258.626L194.475 258.317L193.922 259.985L194.667 260.231L182.95 285.592ZM211.799 223.146L210.923 222.818L210.156 222.522L210.358 222.085C211.203 221.619 212.056 221.163 212.922 220.719L211.799 223.146Z" fill="white"/>
<path fill-rule="evenodd" clip-rule="evenodd" d="M272.645 355.796L274.16 350.41L274.552 349.02L274.751 348.494L284.346 323.06L286.383 322.64L276.783 348.074L276.219 349.57L276.096 350.011L274.499 355.687C273.884 355.728 273.262 355.764 272.645 355.796ZM284.605 322.348L266.354 314.487L265.53 314.132L264.719 313.856L227.935 301.407L227.159 301.145L226.263 300.867L182.208 287.2L181.472 286.972L180.546 286.629L170.254 282.812C170.252 282.588 170.25 282.359 170.25 282.134C170.25 281.737 170.254 281.343 170.263 280.948L181.284 285.029L182.038 285.309L182.95 285.592L202.934 291.792L202.593 292.431L204.143 293.259L204.642 292.321L226.941 299.238L227.7 299.473L228.612 299.781L265.378 312.228L266.16 312.492L267.014 312.859L285.244 320.71L284.605 322.348Z" fill="white"/>
<path fill-rule="evenodd" clip-rule="evenodd" d="M291.317 251.203L291.162 251.159L290.219 250.894L271.16 245.529L271.445 244.78L269.806 244.151L269.461 245.051L253.297 240.5L252.548 240.289L251.628 239.942L211.061 224.746L210.298 224.461L209.418 224.12L207.852 223.515C208.498 223.134 209.151 222.758 209.81 222.388L210.156 222.522L210.922 222.817L211.799 223.146L252.302 238.323L253.095 238.62L253.975 238.868L290.883 249.255L291.486 249.424L292.753 249.313L333.469 245.736V247.501L292.013 251.142L291.317 251.203ZM335.203 247.348V245.583L348.642 244.404C349.064 244.948 349.48 245.502 349.886 246.058L335.203 247.348Z" fill="white"/>
<path fill-rule="evenodd" clip-rule="evenodd" d="M284.324 323.065L284.605 322.348L285.244 320.71L304.109 272.364H282.827V270.606H333.469V271.343L333.13 272.364H320.576L320.773 271.756L319.102 271.214L318.728 272.364H305.997L287.139 320.689L304.217 317.157L303.595 319.08L286.383 322.64L284.347 323.06L284.324 323.065ZM305.573 318.67L306.197 316.747L319.262 314.046L319.102 314.524L319.026 314.761L319.278 315.837L305.573 318.67ZM320.998 315.48L320.85 314.843L321.253 313.634L343.286 309.078L343.158 309.623L344.868 310.026L345.182 308.686L356.853 306.273C356.553 306.939 356.24 307.603 355.917 308.26L320.998 315.48ZM361.265 272.364H334.982L335.182 271.763V270.606H360.935C361.053 271.189 361.164 271.775 361.265 272.364Z" fill="white"/>
<path fill-rule="evenodd" clip-rule="evenodd" d="M324.965 340.473L324.865 339.93L324.702 339.047L324.507 338.21L319.278 315.837L319.026 314.761L319.102 314.524L319.262 314.046L333.13 272.364L333.469 271.342V229.522C334.059 229.968 334.642 230.422 335.215 230.881L335.203 245.583V247.348L335.182 270.606V271.763L334.982 272.364L321.253 313.634L320.85 314.843L320.998 315.48L326.227 337.855L326.423 338.687L326.57 339.492C326.039 339.824 325.507 340.149 324.965 340.473Z" fill="white"/>
<path fill-rule="evenodd" clip-rule="evenodd" d="M204.721 236.573L203.815 236.251L194.587 232.992C195.099 232.551 195.617 232.113 196.141 231.683L204.554 234.65L205.305 234.913L204.721 236.573Z" fill="white"/>
<path fill-rule="evenodd" clip-rule="evenodd" d="M296.661 352.154L295.44 346.012L295.223 344.92L295.452 344.215L303.595 319.08L304.217 317.157L318.728 272.364L319.102 271.214L320.773 271.756L320.576 272.364L306.197 316.747L305.573 318.67L297.431 343.808L297.035 345.027L297.16 345.657L298.363 351.7C297.798 351.855 297.23 352.006 296.661 352.154Z" fill="white"/>
<path fill-rule="evenodd" clip-rule="evenodd" d="M276.625 286.97L275.724 286.681L238.967 274.911L238.199 274.665L237.296 274.366L217.686 267.864L218.034 267.21L216.485 266.384L215.994 267.303L194.667 260.231L193.921 259.985L194.475 258.317L195.408 258.626L237.972 272.738L238.744 272.993L239.645 273.283L256.621 278.718L256.319 279.506L257.962 280.136L258.298 279.255L276.386 285.047L277.159 285.295L276.625 286.97Z" fill="white"/>
<path fill-rule="evenodd" clip-rule="evenodd" d="M344.868 310.026L343.158 309.623L343.286 309.078L348.721 285.933L350.431 286.333L345.182 308.686L344.868 310.026Z" fill="white"/>
<path fill-rule="evenodd" clip-rule="evenodd" d="M204.143 293.259L202.593 292.431L202.934 291.792L215.994 267.303L216.485 266.384L218.034 267.21L217.686 267.864L204.642 292.321L204.143 293.259Z" fill="white"/>
<path fill-rule="evenodd" clip-rule="evenodd" d="M257.962 280.136L256.319 279.506L256.622 278.718L269.461 245.051L269.806 244.151L271.445 244.78L271.16 245.529L258.298 279.255L257.962 280.136Z" fill="white"/>
<path fill-rule="evenodd" clip-rule="evenodd" d="M204.672 338.627C204.145 338.34 203.62 338.049 203.1 337.754L203.136 337.623L203.491 336.774L220.044 297.021L220.94 297.299L221.717 297.561L205.157 337.33L204.793 338.202L204.672 338.627ZM222.393 295.935L221.481 295.627L220.722 295.391L231.077 270.52L231.981 270.819L232.749 271.065L222.393 295.935ZM233.427 269.437L232.525 269.147L231.754 268.892L245.409 236.096L246.33 236.443L247.078 236.654L233.427 269.437ZM247.756 235.022L246.876 234.774L246.084 234.477L257.804 206.325L258.578 204.467C259.034 204.462 259.496 204.461 259.955 204.461H260.482L259.48 206.867L247.756 235.022Z" fill="white"/>
</mask>
<g mask="url(#mask0_325_6292)">
<rect x="-57.4426" y="-113.311" width="643.672" height="643.672" fill="url(#paint0_radial_325_6292)"/>
</g>
<circle cx="136.263" cy="317.562" r="9.01201" fill="#107C10" fill-opacity="0.2"/>
<g filter="url(#filter0_d_325_6292)">
<circle cx="136.263" cy="317.563" r="5.25701" fill="#107C10"/>
</g>
<circle cx="423.605" cy="74.0059" r="9.01201" fill="#54BF9E" fill-opacity="0.2"/>
<g filter="url(#filter1_d_325_6292)">
<circle cx="423.605" cy="74.0063" r="5.25701" fill="#107C10"/>
</g>
<circle cx="142.987" cy="204.56" r="56.1" fill="url(#paint1_radial_325_6292)" fill-opacity="0.2"/>
<circle cx="141.736" cy="204.678" r="9.01201" fill="#107C10" fill-opacity="0.2"/>
<g filter="url(#filter2_d_325_6292)">
<circle cx="141.736" cy="204.678" r="5.25701" fill="#107C10"/>
</g>
<circle cx="249.832" cy="25.4314" r="9.01201" fill="#54BF9E" fill-opacity="0.2"/>
<g filter="url(#filter3_d_325_6292)">
<circle cx="249.832" cy="25.4321" r="5.25701" fill="#107C10"/>
</g>
<g filter="url(#filter4_f_325_6292)">
<circle cx="266.251" cy="312.773" r="9.01201" fill="#107C10" fill-opacity="0.2"/>
</g>
<g filter="url(#filter5_d_325_6292)">
<circle cx="266.251" cy="312.774" r="5.25701" fill="#107C10"/>
</g>
<circle cx="132.843" cy="65.1121" r="9.01201" fill="#FAAD14" fill-opacity="0.2"/>
<g filter="url(#filter6_d_325_6292)">
<circle cx="132.843" cy="65.1115" r="5.25701" fill="#FAAD14"/>
</g>
<circle cx="377.083" cy="329.877" r="9.01201" fill="#D60000" fill-opacity="0.2"/>
<g filter="url(#filter7_d_325_6292)">
<circle cx="377.083" cy="329.877" r="5.25701" fill="#D60000"/>
</g>
<circle cx="459.18" cy="223.15" r="9.01201" fill="#D60000" fill-opacity="0.2"/>
<g filter="url(#filter8_d_325_6292)">
<circle cx="459.181" cy="223.15" r="5.25701" fill="#D60000"/>
</g>
<defs>
<filter id="filter0_d_325_6292" x="127.006" y="312.306" width="18.514" height="18.5142" filterUnits="userSpaceOnUse" color-interpolation-filters="sRGB">
<feFlood flood-opacity="0" result="BackgroundImageFix"/>
<feColorMatrix in="SourceAlpha" type="matrix" values="0 0 0 0 0 0 0 0 0 0 0 0 0 0 0 0 0 0 127 0" result="hardAlpha"/>
<feOffset dy="4"/>
<feGaussianBlur stdDeviation="2"/>
<feComposite in2="hardAlpha" operator="out"/>
<feColorMatrix type="matrix" values="0 0 0 0 1 0 0 0 0 1 0 0 0 0 1 0 0 0 0.25 0"/>
<feBlend mode="normal" in2="BackgroundImageFix" result="effect1_dropShadow_325_6292"/>
<feBlend mode="normal" in="SourceGraphic" in2="effect1_dropShadow_325_6292" result="shape"/>
</filter>
<filter id="filter1_d_325_6292" x="414.348" y="68.7493" width="18.514" height="18.5139" filterUnits="userSpaceOnUse" color-interpolation-filters="sRGB">
<feFlood flood-opacity="0" result="BackgroundImageFix"/>
<feColorMatrix in="SourceAlpha" type="matrix" values="0 0 0 0 0 0 0 0 0 0 0 0 0 0 0 0 0 0 127 0" result="hardAlpha"/>
<feOffset dy="4"/>
<feGaussianBlur stdDeviation="2"/>
<feComposite in2="hardAlpha" operator="out"/>
<feColorMatrix type="matrix" values="0 0 0 0 1 0 0 0 0 1 0 0 0 0 1 0 0 0 0.25 0"/>
<feBlend mode="normal" in2="BackgroundImageFix" result="effect1_dropShadow_325_6292"/>
<feBlend mode="normal" in="SourceGraphic" in2="effect1_dropShadow_325_6292" result="shape"/>
</filter>
<filter id="filter2_d_325_6292" x="132.479" y="199.421" width="18.514" height="18.5139" filterUnits="userSpaceOnUse" color-interpolation-filters="sRGB">
<feFlood flood-opacity="0" result="BackgroundImageFix"/>
<feColorMatrix in="SourceAlpha" type="matrix" values="0 0 0 0 0 0 0 0 0 0 0 0 0 0 0 0 0 0 127 0" result="hardAlpha"/>
<feOffset dy="4"/>
<feGaussianBlur stdDeviation="2"/>
<feComposite in2="hardAlpha" operator="out"/>
<feColorMatrix type="matrix" values="0 0 0 0 1 0 0 0 0 1 0 0 0 0 1 0 0 0 0.25 0"/>
<feBlend mode="normal" in2="BackgroundImageFix" result="effect1_dropShadow_325_6292"/>
<feBlend mode="normal" in="SourceGraphic" in2="effect1_dropShadow_325_6292" result="shape"/>
</filter>
<filter id="filter3_d_325_6292" x="240.575" y="20.175" width="18.514" height="18.5139" filterUnits="userSpaceOnUse" color-interpolation-filters="sRGB">
<feFlood flood-opacity="0" result="BackgroundImageFix"/>
<feColorMatrix in="SourceAlpha" type="matrix" values="0 0 0 0 0 0 0 0 0 0 0 0 0 0 0 0 0 0 127 0" result="hardAlpha"/>
<feOffset dy="4"/>
<feGaussianBlur stdDeviation="2"/>
<feComposite in2="hardAlpha" operator="out"/>
<feColorMatrix type="matrix" values="0 0 0 0 1 0 0 0 0 1 0 0 0 0 1 0 0 0 0.25 0"/>
<feBlend mode="normal" in2="BackgroundImageFix" result="effect1_dropShadow_325_6292"/>
<feBlend mode="normal" in="SourceGraphic" in2="effect1_dropShadow_325_6292" result="shape"/>
</filter>
<filter id="filter4_f_325_6292" x="253.239" y="299.761" width="26.024" height="26.0239" filterUnits="userSpaceOnUse" color-interpolation-filters="sRGB">
<feFlood flood-opacity="0" result="BackgroundImageFix"/>
<feBlend mode="normal" in="SourceGraphic" in2="BackgroundImageFix" result="shape"/>
<feGaussianBlur stdDeviation="2" result="effect1_foregroundBlur_325_6292"/>
</filter>
<filter id="filter5_d_325_6292" x="256.994" y="307.517" width="18.514" height="18.5142" filterUnits="userSpaceOnUse" color-interpolation-filters="sRGB">
<feFlood flood-opacity="0" result="BackgroundImageFix"/>
<feColorMatrix in="SourceAlpha" type="matrix" values="0 0 0 0 0 0 0 0 0 0 0 0 0 0 0 0 0 0 127 0" result="hardAlpha"/>
<feOffset dy="4"/>
<feGaussianBlur stdDeviation="2"/>
<feComposite in2="hardAlpha" operator="out"/>
<feColorMatrix type="matrix" values="0 0 0 0 1 0 0 0 0 1 0 0 0 0 1 0 0 0 0.25 0"/>
<feBlend mode="normal" in2="BackgroundImageFix" result="effect1_dropShadow_325_6292"/>
<feBlend mode="normal" in="SourceGraphic" in2="effect1_dropShadow_325_6292" result="shape"/>
</filter>
<filter id="filter6_d_325_6292" x="123.586" y="59.8545" width="18.514" height="18.5139" filterUnits="userSpaceOnUse" color-interpolation-filters="sRGB">
<feFlood flood-opacity="0" result="BackgroundImageFix"/>
<feColorMatrix in="SourceAlpha" type="matrix" values="0 0 0 0 0 0 0 0 0 0 0 0 0 0 0 0 0 0 127 0" result="hardAlpha"/>
<feOffset dy="4"/>
<feGaussianBlur stdDeviation="2"/>
<feComposite in2="hardAlpha" operator="out"/>
<feColorMatrix type="matrix" values="0 0 0 0 1 0 0 0 0 1 0 0 0 0 1 0 0 0 0.25 0"/>
<feBlend mode="normal" in2="BackgroundImageFix" result="effect1_dropShadow_325_6292"/>
<feBlend mode="normal" in="SourceGraphic" in2="effect1_dropShadow_325_6292" result="shape"/>
</filter>
<filter id="filter7_d_325_6292" x="367.826" y="324.62" width="18.514" height="18.5142" filterUnits="userSpaceOnUse" color-interpolation-filters="sRGB">
<feFlood flood-opacity="0" result="BackgroundImageFix"/>
<feColorMatrix in="SourceAlpha" type="matrix" values="0 0 0 0 0 0 0 0 0 0 0 0 0 0 0 0 0 0 127 0" result="hardAlpha"/>
<feOffset dy="4"/>
<feGaussianBlur stdDeviation="2"/>
<feComposite in2="hardAlpha" operator="out"/>
<feColorMatrix type="matrix" values="0 0 0 0 1 0 0 0 0 1 0 0 0 0 1 0 0 0 0.25 0"/>
<feBlend mode="normal" in2="BackgroundImageFix" result="effect1_dropShadow_325_6292"/>
<feBlend mode="normal" in="SourceGraphic" in2="effect1_dropShadow_325_6292" result="shape"/>
</filter>
<filter id="filter8_d_325_6292" x="449.924" y="217.893" width="18.514" height="18.5139" filterUnits="userSpaceOnUse" color-interpolation-filters="sRGB">
<feFlood flood-opacity="0" result="BackgroundImageFix"/>
<feColorMatrix in="SourceAlpha" type="matrix" values="0 0 0 0 0 0 0 0 0 0 0 0 0 0 0 0 0 0 127 0" result="hardAlpha"/>
<feOffset dy="4"/>
<feGaussianBlur stdDeviation="2"/>
<feComposite in2="hardAlpha" operator="out"/>
<feColorMatrix type="matrix" values="0 0 0 0 1 0 0 0 0 1 0 0 0 0 1 0 0 0 0.25 0"/>
<feBlend mode="normal" in2="BackgroundImageFix" result="effect1_dropShadow_325_6292"/>
<feBlend mode="normal" in="SourceGraphic" in2="effect1_dropShadow_325_6292" result="shape"/>
</filter>
<radialGradient id="paint0_radial_325_6292" cx="0" cy="0" r="1" gradientUnits="userSpaceOnUse" gradientTransform="translate(264.393 208.525) rotate(90) scale(321.836)">
<stop stop-color="#73AADD" stop-opacity="0.74"/>
<stop offset="0.71" stop-color="#73AADD" stop-opacity="0"/>
</radialGradient>
<radialGradient id="paint1_radial_325_6292" cx="0" cy="0" r="1" gradientUnits="userSpaceOnUse" gradientTransform="translate(142.987 204.56) rotate(90) scale(72.8616)">
<stop stop-color="#107C10"/>
<stop offset="1" stop-color="#107C10" stop-opacity="0"/>
</radialGradient>
</defs>
</svg>
