<svg xmlns="http://www.w3.org/2000/svg" xmlns:xlink="http://www.w3.org/1999/xlink" width="283.654" height="480.141" viewBox="0 0 283.654 480.141">
  <defs>
    <filter id="Tool_bar_bg" x="13.846" y="12.045" width="258.182" height="62.555" filterUnits="userSpaceOnUse">
      <feOffset dy="3" input="SourceAlpha"/>
      <feGaussianBlur stdDeviation="2" result="blur"/>
      <feFlood flood-color="#293846" flood-opacity="0.2"/>
      <feComposite operator="in" in2="blur"/>
      <feComposite in="SourceGraphic"/>
    </filter>
  </defs>
  <g id="Cancel_Pick_Up_Drop" data-name="Cancel Pick Up/Drop" transform="translate(-14622.979 -7737)">
    <g id="Group_78088" data-name="Group 78088" transform="translate(14642.824 7752.044)">
      <rect id="Rectangle_27881" data-name="Rectangle 27881" width="246.182" height="456.172" fill="#fff"/>
      <g id="Tool_bar" data-name="Tool bar">
        <g id="Tool_bar_bg-2" data-name="Tool bar bg">
          <g transform="matrix(1, 0, 0, 1, -19.85, -15.04)" filter="url(#Tool_bar_bg)">
            <path id="Tool_bar_bg-3" data-name="Tool bar bg" d="M246.182,0H0V50.555H246.182Z" transform="translate(19.85 15.04)" fill="#343434"/>
          </g>
        </g>
        <g id="Tool_bar_contents" data-name="Tool bar contents" transform="translate(39.147 28.379)">
          <path id="Path_129105" data-name="Path 129105" d="M5.926-6.558H2.26l-.823,2.29H.246l3.342-8.751H4.6L7.945-4.268H6.761ZM2.608-7.5H5.583L4.093-11.595Zm6.07-.072a3.81,3.81,0,0,1,.709-2.407,2.243,2.243,0,0,1,1.857-.911,2.255,2.255,0,0,1,1.809.781V-13.5h1.112v9.232H13.144l-.054-.7a2.264,2.264,0,0,1-1.857.817,2.221,2.221,0,0,1-1.842-.926A3.853,3.853,0,0,1,8.679-7.49Zm1.112.126a2.884,2.884,0,0,0,.457,1.731,1.477,1.477,0,0,0,1.262.625,1.622,1.622,0,0,0,1.545-.95V-9.028a1.635,1.635,0,0,0-1.533-.92,1.484,1.484,0,0,0-1.274.631A3.176,3.176,0,0,0,9.79-7.448Zm5.83-.126a3.81,3.81,0,0,1,.709-2.407,2.243,2.243,0,0,1,1.857-.911A2.255,2.255,0,0,1,20-10.11V-13.5h1.112v9.232H20.086l-.054-.7a2.264,2.264,0,0,1-1.857.817,2.221,2.221,0,0,1-1.842-.926A3.853,3.853,0,0,1,15.62-7.49Zm1.112.126a2.884,2.884,0,0,0,.457,1.731,1.477,1.477,0,0,0,1.262.625A1.622,1.622,0,0,0,20-6.041V-9.028a1.635,1.635,0,0,0-1.533-.92,1.484,1.484,0,0,0-1.274.631A3.176,3.176,0,0,0,16.732-7.448ZM27.214-5.212h4.147v.944H26.054v-8.751h1.16ZM35.2-4.148a2.841,2.841,0,0,1-2.152-.868,3.223,3.223,0,0,1-.829-2.323v-.2a3.9,3.9,0,0,1,.37-1.728,2.883,2.883,0,0,1,1.034-1.19,2.6,2.6,0,0,1,1.439-.43,2.436,2.436,0,0,1,1.971.835,3.617,3.617,0,0,1,.7,2.392V-7.2H33.333a2.312,2.312,0,0,0,.562,1.554,1.766,1.766,0,0,0,1.367.592,1.937,1.937,0,0,0,1-.24,2.507,2.507,0,0,0,.715-.637l.679.529A2.731,2.731,0,0,1,35.2-4.148Zm-.138-5.83a1.483,1.483,0,0,0-1.13.49,2.381,2.381,0,0,0-.565,1.373h3.258V-8.2a2.118,2.118,0,0,0-.457-1.313A1.4,1.4,0,0,0,35.064-9.978Zm7.976,5.71a2.336,2.336,0,0,1-.156-.685,2.481,2.481,0,0,1-1.851.805,2.3,2.3,0,0,1-1.578-.544,1.76,1.76,0,0,1-.616-1.379,1.838,1.838,0,0,1,.772-1.578,3.641,3.641,0,0,1,2.173-.562h1.082v-.511a1.249,1.249,0,0,0-.349-.929A1.4,1.4,0,0,0,41.489-10a1.621,1.621,0,0,0-1,.3.886.886,0,0,0-.4.727H38.97a1.535,1.535,0,0,1,.346-.941,2.359,2.359,0,0,1,.938-.718,3.154,3.154,0,0,1,1.3-.264,2.571,2.571,0,0,1,1.761.562,2.027,2.027,0,0,1,.661,1.548v2.993a3.659,3.659,0,0,0,.228,1.424v.1Zm-1.845-.847a1.954,1.954,0,0,0,.992-.27,1.636,1.636,0,0,0,.679-.7V-7.424h-.871q-2.044,0-2.044,1.2a1.012,1.012,0,0,0,.349.817A1.34,1.34,0,0,0,41.194-5.116Zm6.581-.661,1.611-4.995h1.136l-2.332,6.5h-.847l-2.356-6.5h1.136Zm6.515,1.629a2.841,2.841,0,0,1-2.152-.868,3.223,3.223,0,0,1-.829-2.323v-.2a3.9,3.9,0,0,1,.37-1.728,2.883,2.883,0,0,1,1.034-1.19,2.6,2.6,0,0,1,1.439-.43,2.436,2.436,0,0,1,1.971.835,3.617,3.617,0,0,1,.7,2.392V-7.2H52.421a2.312,2.312,0,0,0,.562,1.554,1.766,1.766,0,0,0,1.367.592,1.937,1.937,0,0,0,1-.24,2.507,2.507,0,0,0,.715-.637l.679.529A2.731,2.731,0,0,1,54.291-4.148Zm-.138-5.83a1.483,1.483,0,0,0-1.13.49,2.381,2.381,0,0,0-.565,1.373h3.258V-8.2a2.118,2.118,0,0,0-.457-1.313A1.4,1.4,0,0,0,54.152-9.978Z" transform="translate(-0.246 13.5)" fill="#dfbf2c"/>
        </g>
      </g>
      <path id="Icon" d="M14.941,8.787H6.6l3.829-3.829L9.471,4,4,9.471l5.471,5.471.957-.957L6.6,10.155h8.343Z" transform="translate(9.677 24.037)" fill="#dfbf2c"/>
      <g id="Group_38550" data-name="Group 38550" transform="translate(34.876 301.573)">
        <rect id="Rectangle_17161" data-name="Rectangle 17161" width="176.43" height="34.192" rx="4" fill="#131313"/>
        <path id="Path_129116" data-name="Path 129116" d="M5.838-6.306H2.448L1.739-4.268H.158l3.306-8.751H4.828L8.14-4.268H6.553ZM2.875-7.532H5.411l-1.268-3.63Zm11.81.078A3.872,3.872,0,0,1,14-5.047a2.194,2.194,0,0,1-1.839.9,2.209,2.209,0,0,1-1.713-.7v3.083H8.987v-9h1.346l.06.661a2.145,2.145,0,0,1,1.749-.781,2.217,2.217,0,0,1,1.866.887,3.975,3.975,0,0,1,.676,2.461ZM13.231-7.58a2.712,2.712,0,0,0-.388-1.545A1.26,1.26,0,0,0,11.734-9.7a1.344,1.344,0,0,0-1.286.739v2.885a1.356,1.356,0,0,0,1.3.757,1.259,1.259,0,0,0,1.091-.562A2.986,2.986,0,0,0,13.231-7.58Zm8.384.126a3.872,3.872,0,0,1-.685,2.407,2.194,2.194,0,0,1-1.839.9,2.209,2.209,0,0,1-1.713-.7v3.083H15.917v-9h1.346l.06.661a2.145,2.145,0,0,1,1.749-.781,2.217,2.217,0,0,1,1.866.887,3.975,3.975,0,0,1,.676,2.461ZM20.16-7.58a2.712,2.712,0,0,0-.388-1.545A1.26,1.26,0,0,0,18.664-9.7a1.344,1.344,0,0,0-1.286.739v2.885a1.356,1.356,0,0,0,1.3.757,1.259,1.259,0,0,0,1.091-.562A2.986,2.986,0,0,0,20.16-7.58ZM24.4-4.268H22.943V-13.5H24.4ZM28.268-6.36l1.322-4.412h1.557L28.563-3.282a2.1,2.1,0,0,1-2.019,1.641,2.6,2.6,0,0,1-.7-.109V-2.886l.276.018a1.422,1.422,0,0,0,.832-.2,1.334,1.334,0,0,0,.442-.676L27.6-4.3l-2.284-6.468h1.575Zm8.444.878h3.973v1.214H35.192v-8.751h1.521Zm7.861,1.334a3.022,3.022,0,0,1-2.251-.874,3.172,3.172,0,0,1-.862-2.329v-.18a3.9,3.9,0,0,1,.376-1.74,2.859,2.859,0,0,1,1.055-1.193,2.789,2.789,0,0,1,1.515-.427,2.552,2.552,0,0,1,2.053.847,3.583,3.583,0,0,1,.724,2.4v.589H42.933a1.953,1.953,0,0,0,.538,1.274,1.615,1.615,0,0,0,1.187.469,1.978,1.978,0,0,0,1.635-.811l.787.751a2.629,2.629,0,0,1-1.043.9A3.265,3.265,0,0,1,44.574-4.148ZM44.4-9.72a1.23,1.23,0,0,0-.971.421,2.181,2.181,0,0,0-.472,1.172H45.74v-.108a1.775,1.775,0,0,0-.391-1.109A1.221,1.221,0,0,0,44.4-9.72Zm7.8,5.451a2.254,2.254,0,0,1-.168-.607,2.273,2.273,0,0,1-1.707.727,2.294,2.294,0,0,1-1.6-.559,1.788,1.788,0,0,1-.619-1.382,1.847,1.847,0,0,1,.772-1.6,3.743,3.743,0,0,1,2.209-.556h.9v-.427a1.139,1.139,0,0,0-.282-.808,1.12,1.12,0,0,0-.859-.3,1.286,1.286,0,0,0-.817.249.772.772,0,0,0-.319.634H48.247a1.621,1.621,0,0,1,.355-1,2.362,2.362,0,0,1,.965-.73,3.388,3.388,0,0,1,1.361-.264,2.729,2.729,0,0,1,1.821.574,2.047,2.047,0,0,1,.7,1.614v2.933a3.324,3.324,0,0,0,.246,1.4v.1ZM50.6-5.32a1.661,1.661,0,0,0,.814-.21,1.405,1.405,0,0,0,.574-.565V-7.321H51.2a2.153,2.153,0,0,0-1.22.282.915.915,0,0,0-.409.8.853.853,0,0,0,.279.67A1.082,1.082,0,0,0,50.6-5.32Zm6.581-.8,1.376-4.652h1.509l-2.254,6.5H56.541l-2.272-6.5h1.515Zm6.659,1.971a3.022,3.022,0,0,1-2.251-.874,3.172,3.172,0,0,1-.862-2.329v-.18a3.9,3.9,0,0,1,.376-1.74,2.859,2.859,0,0,1,1.055-1.193,2.789,2.789,0,0,1,1.515-.427,2.552,2.552,0,0,1,2.053.847,3.583,3.583,0,0,1,.724,2.4v.589H62.2a1.953,1.953,0,0,0,.538,1.274,1.615,1.615,0,0,0,1.187.469,1.978,1.978,0,0,0,1.635-.811l.787.751a2.629,2.629,0,0,1-1.043.9A3.265,3.265,0,0,1,63.837-4.148ZM63.663-9.72a1.23,1.23,0,0,0-.971.421,2.181,2.181,0,0,0-.472,1.172H65v-.108a1.775,1.775,0,0,0-.391-1.109A1.221,1.221,0,0,0,63.663-9.72Z" transform="translate(54.657 26.151)" fill="#fff"/>
      </g>
      <g id="Group_38558" data-name="Group 38558" transform="translate(13.677 74.196)">
        <g id="Group_38557" data-name="Group 38557" transform="translate(0 18.122)">
          <g id="Group_38556" data-name="Group 38556" transform="translate(0 0)">
            <g id="Group_38552" data-name="Group 38552">
              <g id="Ellipse_1665" data-name="Ellipse 1665" fill="#fff" stroke="#000" stroke-width="1.5">
                <circle cx="6.838" cy="6.838" r="6.838" stroke="none"/>
                <circle cx="6.838" cy="6.838" r="6.088" fill="none"/>
              </g>
              <circle id="Ellipse_1666" data-name="Ellipse 1666" cx="4.103" cy="4.103" r="4.103" transform="translate(2.735 2.735)"/>
            </g>
            <path id="Path_129107" data-name="Path 129107" d="M2.351-6.261v2.7H1.084v-7.292h2.79a2.821,2.821,0,0,1,1.941.637,2.141,2.141,0,0,1,.719,1.685,2.07,2.07,0,0,1-.7,1.67,2.957,2.957,0,0,1-1.971.6Zm0-1.022H3.874A1.5,1.5,0,0,0,4.906-7.6a1.169,1.169,0,0,0,.356-.919A1.261,1.261,0,0,0,4.9-9.464a1.39,1.39,0,0,0-.992-.363H2.351ZM8.817-3.557H7.6V-8.976H8.817ZM7.525-10.384a.646.646,0,0,1,.178-.466.672.672,0,0,1,.508-.185.68.68,0,0,1,.511.185.641.641,0,0,1,.18.466.626.626,0,0,1-.18.458.685.685,0,0,1-.511.183A.677.677,0,0,1,7.7-9.925.631.631,0,0,1,7.525-10.384Zm4.843,5.955a1.1,1.1,0,0,0,.756-.265.907.907,0,0,0,.321-.656h1.147a1.788,1.788,0,0,1-.316.944,2.07,2.07,0,0,1-.8.694,2.388,2.388,0,0,1-1.092.255,2.311,2.311,0,0,1-1.8-.736,2.92,2.92,0,0,1-.666-2.033v-.125a2.872,2.872,0,0,1,.661-1.981,2.29,2.29,0,0,1,1.8-.744,2.227,2.227,0,0,1,1.575.563,2.018,2.018,0,0,1,.639,1.48H13.445a1.115,1.115,0,0,0-.318-.766,1.023,1.023,0,0,0-.759-.3,1.071,1.071,0,0,0-.912.428,2.185,2.185,0,0,0-.326,1.3v.2a2.221,2.221,0,0,0,.318,1.315A1.07,1.07,0,0,0,12.368-4.428Zm4.9-1.452-.541.556v1.768H15.514V-11.25h1.217v4.438l.381-.476,1.5-1.688h1.463L18.058-6.717l2.229,3.16H18.879Zm11.6-4.969v4.873a2.368,2.368,0,0,1-.744,1.841,2.825,2.825,0,0,1-1.981.679,2.845,2.845,0,0,1-1.988-.669,2.38,2.38,0,0,1-.736-1.856v-4.868h1.262v4.878a1.55,1.55,0,0,0,.371,1.117,1.446,1.446,0,0,0,1.092.386q1.463,0,1.463-1.543v-4.838Zm5.98,4.638a3.227,3.227,0,0,1-.571,2.006,1.829,1.829,0,0,1-1.533.749,1.841,1.841,0,0,1-1.427-.586v2.569H30.1v-7.5h1.122l.05.551a1.788,1.788,0,0,1,1.457-.651,1.847,1.847,0,0,1,1.555.739,3.313,3.313,0,0,1,.563,2.051ZM33.64-6.317A2.26,2.26,0,0,0,33.317-7.6a1.05,1.05,0,0,0-.924-.476,1.12,1.12,0,0,0-1.072.616v2.4a1.13,1.13,0,0,0,1.082.631,1.049,1.049,0,0,0,.909-.468A2.488,2.488,0,0,0,33.64-6.317Z" transform="translate(20.172 14.498)"/>
          </g>
          <g id="Group_38554" data-name="Group 38554" transform="translate(79.325 0)">
            <g id="Group_38553" data-name="Group 38553">
              <g id="Ellipse_1665-2" data-name="Ellipse 1665" fill="#fff" stroke="#000" stroke-width="1.5">
                <circle cx="6.838" cy="6.838" r="6.838" stroke="none"/>
                <circle cx="6.838" cy="6.838" r="6.088" fill="none"/>
              </g>
            </g>
            <path id="Path_129108" data-name="Path 129108" d="M1.084-3.372v-7.292H3.238a3.378,3.378,0,0,1,1.715.431A2.937,2.937,0,0,1,6.113-9.011,3.879,3.879,0,0,1,6.523-7.2v.366A3.863,3.863,0,0,1,6.11-5.009,2.9,2.9,0,0,1,4.933-3.8a3.535,3.535,0,0,1-1.75.426ZM2.351-9.642v5.259h.826a1.9,1.9,0,0,0,1.53-.624A2.716,2.716,0,0,0,5.251-6.8V-7.2a2.787,2.787,0,0,0-.516-1.813,1.829,1.829,0,0,0-1.5-.626Zm8.154,1.963a3.012,3.012,0,0,0-.5-.04,1.116,1.116,0,0,0-1.127.641v3.706H7.665V-8.791H8.827l.03.606a1.371,1.371,0,0,1,1.222-.706,1.139,1.139,0,0,1,.431.07Zm.361,1.548a3.2,3.2,0,0,1,.316-1.435,2.3,2.3,0,0,1,.887-.982,2.5,2.5,0,0,1,1.312-.343,2.367,2.367,0,0,1,1.781.706A2.778,2.778,0,0,1,15.9-6.312l.005.285A3.224,3.224,0,0,1,15.6-4.594a2.277,2.277,0,0,1-.882.977,2.516,2.516,0,0,1-1.325.346,2.351,2.351,0,0,1-1.836-.764,2.925,2.925,0,0,1-.689-2.036Zm1.217.105a2.184,2.184,0,0,0,.346,1.31,1.123,1.123,0,0,0,.962.473,1.111,1.111,0,0,0,.959-.481,2.412,2.412,0,0,0,.343-1.407,2.156,2.156,0,0,0-.353-1.3,1.127,1.127,0,0,0-.959-.481,1.117,1.117,0,0,0-.947.473A2.366,2.366,0,0,0,12.083-6.026Zm9.6,0a3.227,3.227,0,0,1-.571,2.006,1.829,1.829,0,0,1-1.533.749,1.841,1.841,0,0,1-1.427-.586v2.569H16.931v-7.5h1.122l.05.551a1.788,1.788,0,0,1,1.457-.651,1.847,1.847,0,0,1,1.555.739A3.313,3.313,0,0,1,21.679-6.1Zm-1.212-.105a2.26,2.26,0,0,0-.323-1.287,1.05,1.05,0,0,0-.924-.476,1.12,1.12,0,0,0-1.072.616v2.4a1.13,1.13,0,0,0,1.082.631,1.049,1.049,0,0,0,.909-.468A2.488,2.488,0,0,0,20.467-6.131Z" transform="translate(20.172 14.313)"/>
          </g>
          <g id="Group_38555" data-name="Group 38555" transform="translate(145.658 0)">
            <g id="Group_38553-2" data-name="Group 38553" transform="translate(0)">
              <g id="Ellipse_1665-3" data-name="Ellipse 1665" fill="#fff" stroke="#000" stroke-width="1.5">
                <circle cx="6.838" cy="6.838" r="6.838" stroke="none"/>
                <circle cx="6.838" cy="6.838" r="6.088" fill="none"/>
              </g>
            </g>
            <path id="Path_129109" data-name="Path 129109" d="M1.084-3.557v-7.292h2.5a3.051,3.051,0,0,1,1.883.5,1.746,1.746,0,0,1,.646,1.478,1.575,1.575,0,0,1-.27.9,1.741,1.741,0,0,1-.791.621,1.61,1.61,0,0,1,.914.6,1.758,1.758,0,0,1,.323,1.064,1.941,1.941,0,0,1-.659,1.578,2.864,2.864,0,0,1-1.886.551ZM2.351-6.847v2.279H3.759a1.362,1.362,0,0,0,.932-.3,1.037,1.037,0,0,0,.336-.821A1.041,1.041,0,0,0,3.864-6.847Zm0-.932H3.593a1.436,1.436,0,0,0,.924-.268.918.918,0,0,0,.333-.759.931.931,0,0,0-.308-.781,1.555,1.555,0,0,0-.959-.24H2.351ZM7.209-6.317a3.2,3.2,0,0,1,.316-1.435,2.3,2.3,0,0,1,.887-.982,2.5,2.5,0,0,1,1.312-.343A2.367,2.367,0,0,1,11.5-8.37,2.778,2.778,0,0,1,12.243-6.5l.005.285a3.224,3.224,0,0,1-.308,1.432,2.277,2.277,0,0,1-.882.977,2.516,2.516,0,0,1-1.325.346A2.351,2.351,0,0,1,7.9-4.22a2.925,2.925,0,0,1-.689-2.036Zm1.217.105A2.184,2.184,0,0,0,8.772-4.9a1.123,1.123,0,0,0,.962.473,1.111,1.111,0,0,0,.959-.481,2.412,2.412,0,0,0,.343-1.407,2.156,2.156,0,0,0-.353-1.3A1.127,1.127,0,0,0,9.724-8.1a1.117,1.117,0,0,0-.947.473A2.366,2.366,0,0,0,8.427-6.211ZM14.8-10.293v1.317h.957v.9H14.8v3.025a.666.666,0,0,0,.123.448.569.569,0,0,0,.438.138,1.875,1.875,0,0,0,.426-.05v.942a3,3,0,0,1-.8.115q-1.4,0-1.4-1.548v-3.07h-.892v-.9h.892v-1.317Zm3.085,1.908A1.905,1.905,0,0,1,19.4-9.076q1.733,0,1.758,1.978v3.541H19.936v-3.5a1.07,1.07,0,0,0-.243-.794.993.993,0,0,0-.714-.233,1.172,1.172,0,0,0-1.092.651v3.872H16.671V-11.25h1.217Z" transform="translate(20.172 14.498)"/>
          </g>
        </g>
        <path id="Path_129106" data-name="Path 129106" d="M4.409-5.073a.822.822,0,0,0-.316-.692,3.8,3.8,0,0,0-1.138-.491,5.5,5.5,0,0,1-1.309-.552,1.747,1.747,0,0,1-.93-1.524,1.658,1.658,0,0,1,.671-1.356,2.715,2.715,0,0,1,1.741-.533A2.941,2.941,0,0,1,4.4-9.958a2.079,2.079,0,0,1,.874.746,1.912,1.912,0,0,1,.318,1.073H4.409a1.067,1.067,0,0,0-.334-.834,1.379,1.379,0,0,0-.956-.3,1.441,1.441,0,0,0-.9.248.825.825,0,0,0-.32.692.746.746,0,0,0,.346.624,3.985,3.985,0,0,0,1.141.486,5.247,5.247,0,0,1,1.276.538A2.03,2.03,0,0,1,5.368-6a1.8,1.8,0,0,1,.224.914A1.62,1.62,0,0,1,4.94-3.729a2.829,2.829,0,0,1-1.769.5A3.325,3.325,0,0,1,1.812-3.5a2.281,2.281,0,0,1-.963-.755A1.881,1.881,0,0,1,.506-5.377H1.689a1.1,1.1,0,0,0,.383.9,1.679,1.679,0,0,0,1.1.318,1.458,1.458,0,0,0,.928-.25A.807.807,0,0,0,4.409-5.073ZM8.747-3.226A2.35,2.35,0,0,1,7-3.906a2.467,2.467,0,0,1-.671-1.811v-.14a3.035,3.035,0,0,1,.292-1.353,2.224,2.224,0,0,1,.82-.928,2.169,2.169,0,0,1,1.178-.332,1.985,1.985,0,0,1,1.6.659,2.787,2.787,0,0,1,.563,1.865v.458h-3.3A1.519,1.519,0,0,0,7.89-4.5a1.256,1.256,0,0,0,.923.365,1.538,1.538,0,0,0,1.272-.631l.612.584a2.045,2.045,0,0,1-.811.7A2.539,2.539,0,0,1,8.747-3.226ZM8.612-7.56a.957.957,0,0,0-.755.327,1.7,1.7,0,0,0-.367.912H9.654V-6.4a1.381,1.381,0,0,0-.3-.862A.949.949,0,0,0,8.612-7.56Zm4.254,4.24H11.73V-10.5h1.136Zm3.464.093a2.35,2.35,0,0,1-1.751-.68,2.467,2.467,0,0,1-.671-1.811v-.14A3.035,3.035,0,0,1,14.2-7.211a2.224,2.224,0,0,1,.82-.928A2.169,2.169,0,0,1,16.2-8.471a1.985,1.985,0,0,1,1.6.659,2.787,2.787,0,0,1,.563,1.865v.458h-3.3a1.519,1.519,0,0,0,.418.991,1.256,1.256,0,0,0,.923.365,1.538,1.538,0,0,0,1.272-.631l.612.584a2.045,2.045,0,0,1-.811.7A2.539,2.539,0,0,1,16.33-3.226ZM16.194-7.56a.957.957,0,0,0-.755.327,1.7,1.7,0,0,0-.367.912h2.164V-6.4a1.381,1.381,0,0,0-.3-.862A.949.949,0,0,0,16.194-7.56Zm5.123,3.427a1.027,1.027,0,0,0,.706-.248.846.846,0,0,0,.3-.612h1.071a1.669,1.669,0,0,1-.295.881,1.932,1.932,0,0,1-.748.647,2.229,2.229,0,0,1-1.019.238,2.157,2.157,0,0,1-1.683-.687,2.726,2.726,0,0,1-.622-1.9v-.117a2.68,2.68,0,0,1,.617-1.849,2.137,2.137,0,0,1,1.683-.694,2.078,2.078,0,0,1,1.47.526,1.884,1.884,0,0,1,.6,1.381H22.323a1.04,1.04,0,0,0-.3-.715.955.955,0,0,0-.708-.28,1,1,0,0,0-.851.4,2.039,2.039,0,0,0-.3,1.213v.182a2.073,2.073,0,0,0,.3,1.227A1,1,0,0,0,21.318-4.133Zm4.357-5.474v1.229h.893v.841h-.893v2.824a.622.622,0,0,0,.115.418.531.531,0,0,0,.409.129,1.75,1.75,0,0,0,.4-.047v.879a2.8,2.8,0,0,1-.748.108q-1.309,0-1.309-1.444V-7.536h-.832v-.841h.832V-9.607Zm5.437,5.343H34.2v.944H29.928v-6.806h1.183Zm6.114,1.038a2.35,2.35,0,0,1-1.751-.68A2.467,2.467,0,0,1,34.8-5.718v-.14A3.035,3.035,0,0,1,35.1-7.211a2.224,2.224,0,0,1,.82-.928,2.169,2.169,0,0,1,1.178-.332,1.985,1.985,0,0,1,1.6.659,2.787,2.787,0,0,1,.563,1.865v.458h-3.3a1.519,1.519,0,0,0,.418.991,1.256,1.256,0,0,0,.923.365,1.538,1.538,0,0,0,1.272-.631l.612.584a2.045,2.045,0,0,1-.811.7A2.539,2.539,0,0,1,37.225-3.226ZM37.09-7.56a.957.957,0,0,0-.755.327,1.7,1.7,0,0,0-.367.912h2.164V-6.4a1.381,1.381,0,0,0-.3-.862A.949.949,0,0,0,37.09-7.56Zm6.068,4.24a1.753,1.753,0,0,1-.131-.472,1.768,1.768,0,0,1-1.328.566,1.784,1.784,0,0,1-1.243-.435,1.391,1.391,0,0,1-.481-1.075,1.436,1.436,0,0,1,.6-1.241,2.911,2.911,0,0,1,1.718-.432h.7v-.332a.886.886,0,0,0-.22-.629.871.871,0,0,0-.668-.236,1,1,0,0,0-.636.194.6.6,0,0,0-.248.493H40.082a1.261,1.261,0,0,1,.276-.778,1.837,1.837,0,0,1,.75-.568,2.635,2.635,0,0,1,1.059-.206,2.122,2.122,0,0,1,1.416.446,1.592,1.592,0,0,1,.542,1.255v2.281A2.585,2.585,0,0,0,44.317-3.4v.079Zm-1.248-.818a1.292,1.292,0,0,0,.633-.164,1.093,1.093,0,0,0,.446-.439v-.954h-.612a1.674,1.674,0,0,0-.949.22.712.712,0,0,0-.318.622.664.664,0,0,0,.217.521A.842.842,0,0,0,41.909-4.138Zm5.119-.622L48.1-8.378h1.173L47.519-3.32h-.986L44.766-8.378h1.178Zm5.18,1.533a2.35,2.35,0,0,1-1.751-.68,2.467,2.467,0,0,1-.671-1.811v-.14a3.035,3.035,0,0,1,.292-1.353,2.224,2.224,0,0,1,.82-.928,2.169,2.169,0,0,1,1.178-.332,1.985,1.985,0,0,1,1.6.659,2.787,2.787,0,0,1,.563,1.865v.458h-3.3a1.519,1.519,0,0,0,.418.991,1.256,1.256,0,0,0,.923.365,1.538,1.538,0,0,0,1.272-.631l.612.584a2.045,2.045,0,0,1-.811.7A2.539,2.539,0,0,1,52.208-3.226ZM52.072-7.56a.957.957,0,0,0-.755.327,1.7,1.7,0,0,0-.367.912h2.164V-6.4a1.381,1.381,0,0,0-.3-.862A.949.949,0,0,0,52.072-7.56ZM62.249-9.172H60.127V-3.32H58.953V-9.172h-2.1v-.954h5.4ZM64.8-4.946,65.83-8.378h1.211L65.03-2.553A1.634,1.634,0,0,1,63.46-1.277a2.025,2.025,0,0,1-.547-.085v-.883l.215.014a1.106,1.106,0,0,0,.647-.156,1.037,1.037,0,0,0,.344-.525l.164-.434L62.506-8.378h1.225ZM72.122-5.8a3.012,3.012,0,0,1-.533,1.872,1.707,1.707,0,0,1-1.43.7,1.718,1.718,0,0,1-1.332-.547v2.4H67.69v-7h1.047l.047.514a1.668,1.668,0,0,1,1.36-.608,1.724,1.724,0,0,1,1.451.69,3.092,3.092,0,0,1,.526,1.914Zm-1.131-.1a2.11,2.11,0,0,0-.3-1.2.98.98,0,0,0-.862-.444,1.045,1.045,0,0,0-1,.575v2.244a1.055,1.055,0,0,0,1.01.589.979.979,0,0,0,.848-.437A2.322,2.322,0,0,0,70.991-5.9ZM75.31-3.226a2.35,2.35,0,0,1-1.751-.68,2.467,2.467,0,0,1-.671-1.811v-.14a3.035,3.035,0,0,1,.292-1.353A2.224,2.224,0,0,1,74-8.139a2.169,2.169,0,0,1,1.178-.332,1.985,1.985,0,0,1,1.6.659,2.787,2.787,0,0,1,.563,1.865v.458h-3.3a1.519,1.519,0,0,0,.418.991,1.256,1.256,0,0,0,.923.365,1.538,1.538,0,0,0,1.272-.631l.612.584a2.045,2.045,0,0,1-.811.7A2.539,2.539,0,0,1,75.31-3.226ZM75.174-7.56a.957.957,0,0,0-.755.327,1.7,1.7,0,0,0-.367.912h2.164V-6.4a1.381,1.381,0,0,0-.3-.862A.949.949,0,0,0,75.174-7.56Z" transform="translate(-0.16 10.5)" opacity="0.5"/>
      </g>
      <g id="Group_38563" data-name="Group 38563" transform="translate(13.677 129.929)">
        <g id="Group_38561" data-name="Group 38561">
          <g id="Group_38551" data-name="Group 38551">
            <g id="Rectangle_17157" data-name="Rectangle 17157" transform="translate(0 0)" fill="#fff" stroke="rgba(41,56,70,0.6)" stroke-width="1">
              <rect width="105.311" height="49.92" rx="3" stroke="none"/>
              <rect x="0.5" y="0.5" width="104.311" height="48.92" rx="2.5" fill="none"/>
            </g>
            <path id="Path_129110" data-name="Path 129110" d="M4.581-5.6H2.038v2.678H.939v-6.32H4.955v.886H2.038v1.88H4.581ZM8.067-6.655a2.61,2.61,0,0,0-.43-.035.968.968,0,0,0-.977.556v3.212H5.606v-4.7H6.613l.026.525A1.188,1.188,0,0,1,7.7-7.706a.987.987,0,0,1,.373.061ZM8.38-5.314a2.769,2.769,0,0,1,.273-1.244,2,2,0,0,1,.768-.851,2.165,2.165,0,0,1,1.137-.3,2.052,2.052,0,0,1,1.543.612,2.407,2.407,0,0,1,.64,1.623l0,.247a2.794,2.794,0,0,1-.267,1.241,1.973,1.973,0,0,1-.764.846,2.181,2.181,0,0,1-1.148.3A2.037,2.037,0,0,1,8.976-3.5a2.535,2.535,0,0,1-.6-1.765Zm1.055.091a1.893,1.893,0,0,0,.3,1.135.974.974,0,0,0,.833.41.963.963,0,0,0,.831-.417,2.09,2.09,0,0,0,.3-1.22,1.868,1.868,0,0,0-.306-1.129.977.977,0,0,0-.831-.417.968.968,0,0,0-.82.41A2.051,2.051,0,0,0,9.434-5.223Zm5.2-2.4.03.491a1.69,1.69,0,0,1,1.354-.577,1.3,1.3,0,0,1,1.289.721,1.666,1.666,0,0,1,1.441-.721,1.464,1.464,0,0,1,1.157.43,1.892,1.892,0,0,1,.388,1.268v3.086H19.236V-5.978a.934.934,0,0,0-.2-.655.855.855,0,0,0-.647-.208.878.878,0,0,0-.588.193,1.019,1.019,0,0,0-.319.506l0,3.221H16.436V-6.013a.752.752,0,0,0-.846-.829.929.929,0,0,0-.9.517v3.4H13.636v-4.7Zm9.059,4.7v-6.32h1.867a2.928,2.928,0,0,1,1.487.373,2.545,2.545,0,0,1,1,1.059A3.362,3.362,0,0,1,28.4-6.238v.317a3.348,3.348,0,0,1-.358,1.58,2.515,2.515,0,0,1-1.02,1.05,3.063,3.063,0,0,1-1.517.369Zm1.1-5.435V-3.8H25.5a1.649,1.649,0,0,0,1.326-.54A2.354,2.354,0,0,0,27.3-5.891v-.352a2.416,2.416,0,0,0-.447-1.571,1.585,1.585,0,0,0-1.3-.543ZM32.2-2.922a1.628,1.628,0,0,1-.122-.438,1.642,1.642,0,0,1-1.233.525,1.657,1.657,0,0,1-1.155-.4,1.292,1.292,0,0,1-.447-1A1.334,1.334,0,0,1,29.8-5.39a2.7,2.7,0,0,1,1.6-.4h.647V-6.1a.823.823,0,0,0-.2-.584.809.809,0,0,0-.621-.219.929.929,0,0,0-.59.18.558.558,0,0,0-.23.458H29.345a1.171,1.171,0,0,1,.256-.723,1.706,1.706,0,0,1,.7-.527,2.447,2.447,0,0,1,.983-.191,1.971,1.971,0,0,1,1.315.415,1.478,1.478,0,0,1,.5,1.165v2.118A2.4,2.4,0,0,0,33.278-3v.074Zm-1.159-.76a1.2,1.2,0,0,0,.588-.152,1.015,1.015,0,0,0,.415-.408v-.886h-.569a1.555,1.555,0,0,0-.881.2.661.661,0,0,0-.3.577.616.616,0,0,0,.2.484A.782.782,0,0,0,31.043-3.682ZM35.527-8.76v1.142h.829v.781h-.829v2.622a.577.577,0,0,0,.106.388.493.493,0,0,0,.38.119,1.625,1.625,0,0,0,.369-.043v.816a2.6,2.6,0,0,1-.695.1q-1.215,0-1.215-1.341V-6.837H33.7v-.781h.773V-8.76Zm3.7,5.925A2.182,2.182,0,0,1,37.6-3.467a2.291,2.291,0,0,1-.623-1.682v-.13a2.818,2.818,0,0,1,.271-1.257,2.065,2.065,0,0,1,.762-.862,2.014,2.014,0,0,1,1.094-.308,1.843,1.843,0,0,1,1.482.612,2.588,2.588,0,0,1,.523,1.732v.425H38.044a1.41,1.41,0,0,0,.389.92,1.166,1.166,0,0,0,.857.339,1.428,1.428,0,0,0,1.181-.586l.569.543a1.9,1.9,0,0,1-.753.653A2.358,2.358,0,0,1,39.229-2.835ZM39.1-6.859a.888.888,0,0,0-.7.3,1.575,1.575,0,0,0-.341.846h2.01v-.078a1.282,1.282,0,0,0-.282-.8A.881.881,0,0,0,39.1-6.859Z" transform="translate(9.277 21.044)" opacity="0.6"/>
            <path id="Path_129111" data-name="Path 129111" d="M6.651-7.786A4.772,4.772,0,0,1,5.944-4.94,2.494,2.494,0,0,1,3.8-3.981a2.527,2.527,0,0,1-2.137-.935A4.57,4.57,0,0,1,.923-7.684V-9.2a4.7,4.7,0,0,1,.706-2.831,2.517,2.517,0,0,1,2.155-.944,2.531,2.531,0,0,1,2.143.92A4.557,4.557,0,0,1,6.651-9.3ZM5.19-9.421a3.7,3.7,0,0,0-.337-1.806,1.149,1.149,0,0,0-1.07-.574,1.148,1.148,0,0,0-1.052.544,3.422,3.422,0,0,0-.355,1.7v1.983A3.8,3.8,0,0,0,2.72-5.748a1.151,1.151,0,0,0,1.076.6A1.131,1.131,0,0,0,4.836-5.7a3.574,3.574,0,0,0,.355-1.74Zm8.264-1.124A2.034,2.034,0,0,1,13.124-9.4a2.293,2.293,0,0,1-.9.79,2.5,2.5,0,0,1,1.055.871,2.2,2.2,0,0,1,.37,1.25,2.3,2.3,0,0,1-.781,1.83,3.067,3.067,0,0,1-2.08.676A3.079,3.079,0,0,1,8.7-4.66a2.294,2.294,0,0,1-.784-1.827A2.224,2.224,0,0,1,8.285-7.75a2.394,2.394,0,0,1,1.046-.859,2.28,2.28,0,0,1-.893-.79,2.048,2.048,0,0,1-.328-1.145,2.276,2.276,0,0,1,.721-1.773,2.786,2.786,0,0,1,1.947-.655,2.8,2.8,0,0,1,1.953.655A2.276,2.276,0,0,1,13.454-10.544ZM12.186-6.56A1.443,1.443,0,0,0,11.8-7.608a1.363,1.363,0,0,0-1.025-.4,1.348,1.348,0,0,0-1.019.4A1.453,1.453,0,0,0,9.373-6.56a1.408,1.408,0,0,0,.376,1.028,1.382,1.382,0,0,0,1.037.385,1.387,1.387,0,0,0,1.031-.373A1.412,1.412,0,0,0,12.186-6.56ZM12-10.49a1.358,1.358,0,0,0-.331-.941,1.134,1.134,0,0,0-.89-.37,1.143,1.143,0,0,0-.884.352,1.359,1.359,0,0,0-.325.959,1.353,1.353,0,0,0,.328.956,1.148,1.148,0,0,0,.887.355,1.148,1.148,0,0,0,.887-.355A1.353,1.353,0,0,0,12-10.49Zm3.444,7.14H14.3l3.444-9.5h1.148ZM23.762-4.1H22.307v-7.03l-2.146.731v-1.226l3.414-1.256h.186Zm8.925,0H26.8v-1l2.915-3.179a7.259,7.259,0,0,0,.9-1.175,1.9,1.9,0,0,0,.267-.947,1.438,1.438,0,0,0-.352-1.01,1.22,1.22,0,0,0-.947-.385,1.406,1.406,0,0,0-1.1.433,1.7,1.7,0,0,0-.391,1.184H26.635A2.862,2.862,0,0,1,27-11.623a2.5,2.5,0,0,1,1.04-.995,3.309,3.309,0,0,1,1.56-.355,2.96,2.96,0,0,1,2.01.64,2.222,2.222,0,0,1,.736,1.77,3,3,0,0,1-.37,1.373,7.809,7.809,0,0,1-1.211,1.632l-2.14,2.29h4.063ZM34.3-3.35H33.156l3.444-9.5h1.148ZM44.552-4.1H38.668v-1l2.915-3.179a7.259,7.259,0,0,0,.9-1.175,1.9,1.9,0,0,0,.267-.947,1.438,1.438,0,0,0-.352-1.01,1.22,1.22,0,0,0-.947-.385,1.406,1.406,0,0,0-1.1.433,1.7,1.7,0,0,0-.391,1.184H38.5a2.862,2.862,0,0,1,.364-1.439,2.5,2.5,0,0,1,1.04-.995,3.309,3.309,0,0,1,1.56-.355,2.96,2.96,0,0,1,2.01.64,2.222,2.222,0,0,1,.736,1.77,3,3,0,0,1-.37,1.373,7.809,7.809,0,0,1-1.211,1.632l-2.14,2.29h4.063Zm6.816-3.684a4.772,4.772,0,0,1-.706,2.846,2.494,2.494,0,0,1-2.149.959,2.527,2.527,0,0,1-2.137-.935,4.57,4.57,0,0,1-.736-2.768V-9.2a4.7,4.7,0,0,1,.706-2.831,2.517,2.517,0,0,1,2.155-.944,2.531,2.531,0,0,1,2.143.92A4.557,4.557,0,0,1,51.367-9.3ZM49.907-9.421a3.7,3.7,0,0,0-.337-1.806A1.149,1.149,0,0,0,48.5-11.8a1.148,1.148,0,0,0-1.052.544,3.422,3.422,0,0,0-.355,1.7v1.983a3.8,3.8,0,0,0,.343,1.827,1.151,1.151,0,0,0,1.076.6,1.131,1.131,0,0,0,1.04-.556,3.574,3.574,0,0,0,.355-1.74ZM58.544-4.1H52.659v-1l2.915-3.179a7.259,7.259,0,0,0,.9-1.175,1.9,1.9,0,0,0,.267-.947,1.438,1.438,0,0,0-.352-1.01,1.22,1.22,0,0,0-.947-.385,1.406,1.406,0,0,0-1.1.433,1.7,1.7,0,0,0-.391,1.184H52.491a2.862,2.862,0,0,1,.364-1.439,2.5,2.5,0,0,1,1.04-.995,3.309,3.309,0,0,1,1.56-.355,2.96,2.96,0,0,1,2.01.64,2.222,2.222,0,0,1,.736,1.77,3,3,0,0,1-.37,1.373A7.809,7.809,0,0,1,56.62-7.557l-2.14,2.29h4.063Zm5.067,0H62.156v-7.03L60.01-10.4v-1.226l3.414-1.256h.186Z" transform="translate(9.282 42.054)"/>
          </g>
          <g id="Group_38560" data-name="Group 38560" transform="translate(113.517)">
            <g id="Rectangle_17157-2" data-name="Rectangle 17157" transform="translate(0 0)" fill="#fff" stroke="rgba(41,56,70,0.6)" stroke-width="1">
              <rect width="105.311" height="49.92" rx="3" stroke="none"/>
              <rect x="0.5" y="0.5" width="104.311" height="48.92" rx="2.5" fill="none"/>
            </g>
            <path id="Path_129113" data-name="Path 129113" d="M5.3-8.357H3.329v5.435H2.239V-8.357H.286v-.886H5.3ZM4.926-5.314A2.769,2.769,0,0,1,5.2-6.557a2,2,0,0,1,.768-.851,2.165,2.165,0,0,1,1.137-.3,2.052,2.052,0,0,1,1.543.612,2.407,2.407,0,0,1,.64,1.623l0,.247a2.794,2.794,0,0,1-.267,1.241,1.973,1.973,0,0,1-.764.846,2.181,2.181,0,0,1-1.148.3A2.037,2.037,0,0,1,5.523-3.5a2.535,2.535,0,0,1-.6-1.765Zm1.055.091a1.893,1.893,0,0,0,.3,1.135.974.974,0,0,0,.833.41.963.963,0,0,0,.831-.417,2.09,2.09,0,0,0,.3-1.22,1.868,1.868,0,0,0-.306-1.129A.977.977,0,0,0,7.1-6.859a.968.968,0,0,0-.82.41A2.051,2.051,0,0,0,5.981-5.223Zm6.52,2.3v-6.32h1.867a2.928,2.928,0,0,1,1.487.373,2.545,2.545,0,0,1,1,1.059,3.362,3.362,0,0,1,.356,1.571v.317a3.348,3.348,0,0,1-.358,1.58,2.515,2.515,0,0,1-1.02,1.05,3.063,3.063,0,0,1-1.517.369Zm1.1-5.435V-3.8h.716a1.649,1.649,0,0,0,1.326-.54,2.354,2.354,0,0,0,.471-1.552v-.352a2.416,2.416,0,0,0-.447-1.571,1.585,1.585,0,0,0-1.3-.543Zm7.414,5.435a1.628,1.628,0,0,1-.122-.438,1.642,1.642,0,0,1-1.233.525,1.657,1.657,0,0,1-1.155-.4,1.292,1.292,0,0,1-.447-1,1.334,1.334,0,0,1,.558-1.152,2.7,2.7,0,0,1,1.6-.4h.647V-6.1a.823.823,0,0,0-.2-.584.809.809,0,0,0-.621-.219.929.929,0,0,0-.59.18.558.558,0,0,0-.23.458H18.157a1.171,1.171,0,0,1,.256-.723,1.706,1.706,0,0,1,.7-.527,2.447,2.447,0,0,1,.983-.191,1.971,1.971,0,0,1,1.315.415,1.478,1.478,0,0,1,.5,1.165v2.118A2.4,2.4,0,0,0,22.089-3v.074Zm-1.159-.76a1.2,1.2,0,0,0,.588-.152,1.015,1.015,0,0,0,.415-.408v-.886h-.569a1.555,1.555,0,0,0-.881.2.661.661,0,0,0-.3.577.616.616,0,0,0,.2.484A.782.782,0,0,0,19.854-3.682ZM24.338-8.76v1.142h.829v.781h-.829v2.622a.577.577,0,0,0,.106.388.493.493,0,0,0,.38.119,1.625,1.625,0,0,0,.369-.043v.816a2.6,2.6,0,0,1-.695.1q-1.215,0-1.215-1.341V-6.837H22.51v-.781h.773V-8.76Zm3.7,5.925a2.182,2.182,0,0,1-1.626-.632,2.291,2.291,0,0,1-.623-1.682v-.13a2.818,2.818,0,0,1,.271-1.257,2.065,2.065,0,0,1,.762-.862,2.014,2.014,0,0,1,1.094-.308,1.843,1.843,0,0,1,1.482.612,2.588,2.588,0,0,1,.523,1.732v.425H26.855a1.41,1.41,0,0,0,.388.92,1.166,1.166,0,0,0,.857.339,1.428,1.428,0,0,0,1.181-.586l.569.543a1.9,1.9,0,0,1-.753.653A2.358,2.358,0,0,1,28.041-2.835Zm-.126-4.024a.888.888,0,0,0-.7.3,1.575,1.575,0,0,0-.341.846h2.01v-.078a1.282,1.282,0,0,0-.282-.8A.881.881,0,0,0,27.915-6.859Z" transform="translate(9.483 21.044)" opacity="0.6"/>
            <path id="Path_129112" data-name="Path 129112" d="M6.651-7.786A4.772,4.772,0,0,1,5.944-4.94,2.494,2.494,0,0,1,3.8-3.981a2.527,2.527,0,0,1-2.137-.935A4.57,4.57,0,0,1,.923-7.684V-9.2a4.7,4.7,0,0,1,.706-2.831,2.517,2.517,0,0,1,2.155-.944,2.531,2.531,0,0,1,2.143.92A4.557,4.557,0,0,1,6.651-9.3ZM5.19-9.421a3.7,3.7,0,0,0-.337-1.806,1.149,1.149,0,0,0-1.07-.574,1.148,1.148,0,0,0-1.052.544,3.422,3.422,0,0,0-.355,1.7v1.983A3.8,3.8,0,0,0,2.72-5.748a1.151,1.151,0,0,0,1.076.6A1.131,1.131,0,0,0,4.836-5.7a3.574,3.574,0,0,0,.355-1.74Zm8.264-1.124A2.034,2.034,0,0,1,13.124-9.4a2.293,2.293,0,0,1-.9.79,2.5,2.5,0,0,1,1.055.871,2.2,2.2,0,0,1,.37,1.25,2.3,2.3,0,0,1-.781,1.83,3.067,3.067,0,0,1-2.08.676A3.079,3.079,0,0,1,8.7-4.66a2.294,2.294,0,0,1-.784-1.827A2.224,2.224,0,0,1,8.285-7.75a2.394,2.394,0,0,1,1.046-.859,2.28,2.28,0,0,1-.893-.79,2.048,2.048,0,0,1-.328-1.145,2.276,2.276,0,0,1,.721-1.773,2.786,2.786,0,0,1,1.947-.655,2.8,2.8,0,0,1,1.953.655A2.276,2.276,0,0,1,13.454-10.544ZM12.186-6.56A1.443,1.443,0,0,0,11.8-7.608a1.363,1.363,0,0,0-1.025-.4,1.348,1.348,0,0,0-1.019.4A1.453,1.453,0,0,0,9.373-6.56a1.408,1.408,0,0,0,.376,1.028,1.382,1.382,0,0,0,1.037.385,1.387,1.387,0,0,0,1.031-.373A1.412,1.412,0,0,0,12.186-6.56ZM12-10.49a1.358,1.358,0,0,0-.331-.941,1.134,1.134,0,0,0-.89-.37,1.143,1.143,0,0,0-.884.352,1.359,1.359,0,0,0-.325.959,1.353,1.353,0,0,0,.328.956,1.148,1.148,0,0,0,.887.355,1.148,1.148,0,0,0,.887-.355A1.353,1.353,0,0,0,12-10.49Zm3.444,7.14H14.3l3.444-9.5h1.148ZM23.762-4.1H22.307v-7.03l-2.146.731v-1.226l3.414-1.256h.186Zm8.925,0H26.8v-1l2.915-3.179a7.259,7.259,0,0,0,.9-1.175,1.9,1.9,0,0,0,.267-.947,1.438,1.438,0,0,0-.352-1.01,1.22,1.22,0,0,0-.947-.385,1.406,1.406,0,0,0-1.1.433,1.7,1.7,0,0,0-.391,1.184H26.635A2.862,2.862,0,0,1,27-11.623a2.5,2.5,0,0,1,1.04-.995,3.309,3.309,0,0,1,1.56-.355,2.96,2.96,0,0,1,2.01.64,2.222,2.222,0,0,1,.736,1.77,3,3,0,0,1-.37,1.373,7.809,7.809,0,0,1-1.211,1.632l-2.14,2.29h4.063ZM34.3-3.35H33.156l3.444-9.5h1.148ZM44.552-4.1H38.668v-1l2.915-3.179a7.259,7.259,0,0,0,.9-1.175,1.9,1.9,0,0,0,.267-.947,1.438,1.438,0,0,0-.352-1.01,1.22,1.22,0,0,0-.947-.385,1.406,1.406,0,0,0-1.1.433,1.7,1.7,0,0,0-.391,1.184H38.5a2.862,2.862,0,0,1,.364-1.439,2.5,2.5,0,0,1,1.04-.995,3.309,3.309,0,0,1,1.56-.355,2.96,2.96,0,0,1,2.01.64,2.222,2.222,0,0,1,.736,1.77,3,3,0,0,1-.37,1.373,7.809,7.809,0,0,1-1.211,1.632l-2.14,2.29h4.063Zm6.816-3.684a4.772,4.772,0,0,1-.706,2.846,2.494,2.494,0,0,1-2.149.959,2.527,2.527,0,0,1-2.137-.935,4.57,4.57,0,0,1-.736-2.768V-9.2a4.7,4.7,0,0,1,.706-2.831,2.517,2.517,0,0,1,2.155-.944,2.531,2.531,0,0,1,2.143.92A4.557,4.557,0,0,1,51.367-9.3ZM49.907-9.421a3.7,3.7,0,0,0-.337-1.806A1.149,1.149,0,0,0,48.5-11.8a1.148,1.148,0,0,0-1.052.544,3.422,3.422,0,0,0-.355,1.7v1.983a3.8,3.8,0,0,0,.343,1.827,1.151,1.151,0,0,0,1.076.6,1.131,1.131,0,0,0,1.04-.556,3.574,3.574,0,0,0,.355-1.74ZM58.544-4.1H52.659v-1l2.915-3.179a7.259,7.259,0,0,0,.9-1.175,1.9,1.9,0,0,0,.267-.947,1.438,1.438,0,0,0-.352-1.01,1.22,1.22,0,0,0-.947-.385,1.406,1.406,0,0,0-1.1.433,1.7,1.7,0,0,0-.391,1.184H52.491a2.862,2.862,0,0,1,.364-1.439,2.5,2.5,0,0,1,1.04-.995,3.309,3.309,0,0,1,1.56-.355,2.96,2.96,0,0,1,2.01.64,2.222,2.222,0,0,1,.736,1.77,3,3,0,0,1-.37,1.373A7.809,7.809,0,0,1,56.62-7.557l-2.14,2.29h4.063Zm5.067,0H62.156v-7.03L60.01-10.4v-1.226l3.414-1.256h.186Z" transform="translate(9.282 42.054)"/>
          </g>
        </g>
        <g id="Group_38562" data-name="Group 38562" transform="translate(0 60.862)">
          <g id="Rectangle_17157-3" data-name="Rectangle 17157" transform="translate(0 0)" fill="#fff" stroke="rgba(41,56,70,0.6)" stroke-width="1">
            <rect width="218.828" height="85.48" rx="3" stroke="none"/>
            <rect x="0.5" y="0.5" width="217.828" height="84.48" rx="2.5" fill="none"/>
          </g>
          <path id="Path_129114" data-name="Path 129114" d="M.939-3v-6.32H2.806a2.928,2.928,0,0,1,1.487.373,2.545,2.545,0,0,1,1,1.059,3.362,3.362,0,0,1,.356,1.571V-6A3.348,3.348,0,0,1,5.3-4.416a2.515,2.515,0,0,1-1.02,1.05A3.063,3.063,0,0,1,2.758-3Zm1.1-5.435v4.558h.716a1.649,1.649,0,0,0,1.326-.54,2.354,2.354,0,0,0,.471-1.552v-.352A2.416,2.416,0,0,0,4.1-7.888a1.585,1.585,0,0,0-1.3-.543ZM8.714-2.909a2.182,2.182,0,0,1-1.626-.632,2.291,2.291,0,0,1-.623-1.682v-.13A2.818,2.818,0,0,1,6.737-6.61,2.065,2.065,0,0,1,7.5-7.472,2.014,2.014,0,0,1,8.592-7.78a1.843,1.843,0,0,1,1.482.612A2.588,2.588,0,0,1,10.6-5.436v.425H7.529a1.41,1.41,0,0,0,.388.92,1.166,1.166,0,0,0,.857.339,1.428,1.428,0,0,0,1.181-.586l.569.543a1.9,1.9,0,0,1-.753.653A2.358,2.358,0,0,1,8.714-2.909ZM8.588-6.933a.888.888,0,0,0-.7.3,1.575,1.575,0,0,0-.341.846h2.01v-.078a1.282,1.282,0,0,0-.282-.8A.881.881,0,0,0,8.588-6.933Zm5.461,2.661a.478.478,0,0,0-.232-.43,2.47,2.47,0,0,0-.77-.26,3.961,3.961,0,0,1-.9-.286,1.2,1.2,0,0,1-.79-1.107,1.25,1.25,0,0,1,.512-1.016,2.025,2.025,0,0,1,1.3-.408,2.107,2.107,0,0,1,1.361.417,1.322,1.322,0,0,1,.519,1.081H14a.65.65,0,0,0-.226-.506.865.865,0,0,0-.6-.2.935.935,0,0,0-.566.161.506.506,0,0,0-.219.43.428.428,0,0,0,.2.378,2.806,2.806,0,0,0,.825.271,3.9,3.9,0,0,1,.975.326,1.38,1.38,0,0,1,.525.454,1.157,1.157,0,0,1,.171.642A1.224,1.224,0,0,1,14.561-3.3a2.24,2.24,0,0,1-1.376.393,2.429,2.429,0,0,1-1.029-.208,1.693,1.693,0,0,1-.7-.573,1.356,1.356,0,0,1-.252-.786h1.024a.743.743,0,0,0,.282.575,1.1,1.1,0,0,0,.69.2,1.067,1.067,0,0,0,.634-.158A.49.49,0,0,0,14.049-4.272Zm3.885.521a.954.954,0,0,0,.655-.23.786.786,0,0,0,.278-.569h.994a1.549,1.549,0,0,1-.273.818,1.794,1.794,0,0,1-.695.6,2.07,2.07,0,0,1-.946.221,2,2,0,0,1-1.563-.638,2.531,2.531,0,0,1-.577-1.762v-.109a2.489,2.489,0,0,1,.573-1.717,1.984,1.984,0,0,1,1.563-.645,1.93,1.93,0,0,1,1.365.488,1.749,1.749,0,0,1,.553,1.283h-.994a.966.966,0,0,0-.276-.664.887.887,0,0,0-.658-.26.928.928,0,0,0-.79.371,1.894,1.894,0,0,0-.282,1.126v.169a1.925,1.925,0,0,0,.276,1.139A.927.927,0,0,0,17.934-3.752Zm5.183-2.978a2.61,2.61,0,0,0-.43-.035.968.968,0,0,0-.977.556V-3H20.655v-4.7h1.007l.026.525a1.188,1.188,0,0,1,1.059-.612.987.987,0,0,1,.373.061ZM24.9-3H23.85v-4.7H24.9Zm-1.12-5.916a.56.56,0,0,1,.154-.4.582.582,0,0,1,.441-.161.589.589,0,0,1,.443.161.556.556,0,0,1,.156.4.543.543,0,0,1-.156.4.594.594,0,0,1-.443.158.587.587,0,0,1-.441-.158A.547.547,0,0,1,23.785-8.913ZM30.166-5.3a2.8,2.8,0,0,1-.495,1.738,1.585,1.585,0,0,1-1.328.649,1.6,1.6,0,0,1-1.237-.508v2.227H26.051v-6.5h.972l.043.477A1.549,1.549,0,0,1,28.33-7.78a1.6,1.6,0,0,1,1.348.64,2.871,2.871,0,0,1,.488,1.778Zm-1.05-.091a1.959,1.959,0,0,0-.28-1.116.91.91,0,0,0-.8-.412.971.971,0,0,0-.929.534V-4.3a.98.98,0,0,0,.938.547.909.909,0,0,0,.788-.406A2.156,2.156,0,0,0,29.115-5.388ZM32.38-8.835v1.142h.829v.781H32.38V-4.29a.577.577,0,0,0,.106.388.493.493,0,0,0,.38.119,1.625,1.625,0,0,0,.369-.043v.816a2.6,2.6,0,0,1-.695.1q-1.215,0-1.215-1.341V-6.912h-.773v-.781h.773V-8.835ZM35.136-3H34.081v-4.7h1.055Zm-1.12-5.916a.56.56,0,0,1,.154-.4.582.582,0,0,1,.441-.161.589.589,0,0,1,.443.161.556.556,0,0,1,.156.4.543.543,0,0,1-.156.4.594.594,0,0,1-.443.158.587.587,0,0,1-.441-.158A.547.547,0,0,1,34.016-8.913Zm2.071,3.525a2.769,2.769,0,0,1,.273-1.244,2,2,0,0,1,.768-.851,2.165,2.165,0,0,1,1.137-.3,2.052,2.052,0,0,1,1.543.612,2.407,2.407,0,0,1,.64,1.623l0,.247a2.794,2.794,0,0,1-.267,1.241,1.973,1.973,0,0,1-.764.846,2.181,2.181,0,0,1-1.148.3,2.037,2.037,0,0,1-1.591-.662,2.535,2.535,0,0,1-.6-1.765Zm1.055.091a1.892,1.892,0,0,0,.3,1.135.974.974,0,0,0,.833.41.963.963,0,0,0,.831-.417,2.09,2.09,0,0,0,.3-1.22A1.868,1.868,0,0,0,39.1-6.517a.977.977,0,0,0-.831-.417.968.968,0,0,0-.82.41A2.051,2.051,0,0,0,37.141-5.3Zm5.183-2.4.03.543a1.689,1.689,0,0,1,1.367-.629q1.467,0,1.493,1.68V-3H44.16V-6.039a.967.967,0,0,0-.193-.662.813.813,0,0,0-.632-.215,1.016,1.016,0,0,0-.951.577V-3H41.33v-4.7Z" transform="translate(9.277 21.118)" opacity="0.6"/>
          <path id="Path_129115" data-name="Path 129115" d="M6.432-8.146H2.639v3.1H7.045V-4.1H1.485v-8.751h5.5v.944H2.639V-9.09H6.432ZM9.359-10.6l.036.817a2.37,2.37,0,0,1,1.947-.938q2.062,0,2.08,2.326v4.3H12.31V-8.4a1.5,1.5,0,0,0-.322-1.04,1.289,1.289,0,0,0-.983-.337,1.6,1.6,0,0,0-.95.288,1.959,1.959,0,0,0-.637.757V-4.1H8.307v-6.5Zm7.248-1.575V-10.6h1.214v.859H16.607v4.038a.9.9,0,0,0,.162.587.683.683,0,0,0,.553.2A2.692,2.692,0,0,0,17.851-5v.9A3.242,3.242,0,0,1,17-3.981a1.385,1.385,0,0,1-1.124-.451,1.937,1.937,0,0,1-.379-1.28V-9.745H14.311V-10.6H15.5v-1.575Zm5.211,8.2a2.841,2.841,0,0,1-2.152-.868,3.223,3.223,0,0,1-.829-2.323v-.2a3.9,3.9,0,0,1,.37-1.728A2.883,2.883,0,0,1,20.24-10.3a2.6,2.6,0,0,1,1.439-.43,2.436,2.436,0,0,1,1.971.835,3.617,3.617,0,0,1,.7,2.392v.463H19.949a2.312,2.312,0,0,0,.562,1.554,1.766,1.766,0,0,0,1.367.592,1.937,1.937,0,0,0,1-.24,2.507,2.507,0,0,0,.715-.637l.679.529A2.731,2.731,0,0,1,21.818-3.981Zm-.138-5.83a1.483,1.483,0,0,0-1.13.49,2.381,2.381,0,0,0-.565,1.373h3.258v-.084a2.118,2.118,0,0,0-.457-1.313A1.4,1.4,0,0,0,21.68-9.811Zm7.1.2a3.332,3.332,0,0,0-.547-.042,1.465,1.465,0,0,0-1.485.932V-4.1H25.641v-6.5h1.082l.018.751a1.731,1.731,0,0,1,1.551-.871,1.136,1.136,0,0,1,.493.084ZM33.027-4.1v-8.751H35.5a3.977,3.977,0,0,1,2.019.5,3.415,3.415,0,0,1,1.355,1.436,4.676,4.676,0,0,1,.484,2.14v.559a4.692,4.692,0,0,1-.478,2.17,3.361,3.361,0,0,1-1.364,1.43A4.23,4.23,0,0,1,35.45-4.1Zm1.154-7.807v6.864H35.4a2.642,2.642,0,0,0,2.077-.83,3.43,3.43,0,0,0,.742-2.364v-.511a3.484,3.484,0,0,0-.7-2.319,2.492,2.492,0,0,0-1.986-.839Zm9.442,7.928a2.841,2.841,0,0,1-2.152-.868,3.223,3.223,0,0,1-.829-2.323v-.2a3.9,3.9,0,0,1,.37-1.728,2.883,2.883,0,0,1,1.034-1.19,2.6,2.6,0,0,1,1.439-.43,2.436,2.436,0,0,1,1.971.835,3.617,3.617,0,0,1,.7,2.392v.463H41.754a2.312,2.312,0,0,0,.562,1.554,1.766,1.766,0,0,0,1.367.592,1.937,1.937,0,0,0,1-.24,2.507,2.507,0,0,0,.715-.637l.679.529A2.731,2.731,0,0,1,43.624-3.981Zm-.138-5.83a1.483,1.483,0,0,0-1.13.49,2.381,2.381,0,0,0-.565,1.373h3.258v-.084a2.118,2.118,0,0,0-.457-1.313A1.4,1.4,0,0,0,43.485-9.811Zm7.747,3.985a.819.819,0,0,0-.34-.7,3.269,3.269,0,0,0-1.184-.43,5.6,5.6,0,0,1-1.34-.433,1.907,1.907,0,0,1-.733-.6A1.438,1.438,0,0,1,47.4-8.82a1.687,1.687,0,0,1,.676-1.352,2.641,2.641,0,0,1,1.728-.553,2.717,2.717,0,0,1,1.794.571,1.814,1.814,0,0,1,.688,1.461H51.166a1,1,0,0,0-.388-.787,1.453,1.453,0,0,0-.977-.331,1.52,1.52,0,0,0-.95.264.832.832,0,0,0-.343.691.674.674,0,0,0,.319.607,3.919,3.919,0,0,0,1.151.391,6,6,0,0,1,1.349.445,1.968,1.968,0,0,1,.766.622,1.53,1.53,0,0,1,.249.887,1.664,1.664,0,0,1-.7,1.4,2.924,2.924,0,0,1-1.809.526,3.275,3.275,0,0,1-1.382-.276,2.248,2.248,0,0,1-.941-.772,1.861,1.861,0,0,1-.34-1.073h1.112a1.151,1.151,0,0,0,.448.887,1.737,1.737,0,0,0,1.1.328,1.793,1.793,0,0,0,1.013-.255A.785.785,0,0,0,51.233-5.826Zm5.169.938a1.6,1.6,0,0,0,1.04-.361,1.269,1.269,0,0,0,.493-.9h1.052A2.016,2.016,0,0,1,58.6-5.087a2.533,2.533,0,0,1-.947.805,2.731,2.731,0,0,1-1.253.3,2.679,2.679,0,0,1-2.113-.887A3.531,3.531,0,0,1,53.5-7.293v-.186a3.915,3.915,0,0,1,.349-1.689,2.655,2.655,0,0,1,1-1.148,2.843,2.843,0,0,1,1.542-.409,2.608,2.608,0,0,1,1.818.655,2.341,2.341,0,0,1,.772,1.7H57.934a1.532,1.532,0,0,0-.478-1.037A1.486,1.486,0,0,0,56.4-9.811a1.556,1.556,0,0,0-1.313.61,2.865,2.865,0,0,0-.466,1.764v.21A2.808,2.808,0,0,0,55.079-5.5,1.564,1.564,0,0,0,56.4-4.889Zm6.978-4.718a3.332,3.332,0,0,0-.547-.042,1.465,1.465,0,0,0-1.485.932V-4.1H60.236v-6.5h1.082l.018.751a1.731,1.731,0,0,1,1.551-.871,1.136,1.136,0,0,1,.493.084ZM65.609-4.1H64.5v-6.5h1.112Zm-1.2-8.228a.664.664,0,0,1,.165-.457.621.621,0,0,1,.49-.186.63.63,0,0,1,.493.186.657.657,0,0,1,.168.457.635.635,0,0,1-.168.451.642.642,0,0,1-.493.18.632.632,0,0,1-.49-.18A.642.642,0,0,1,64.407-12.33Zm8.475,5.049A3.894,3.894,0,0,1,72.2-4.889a2.177,2.177,0,0,1-1.839.908A2.385,2.385,0,0,1,68.5-4.733V-1.6H67.388v-9H68.4l.054.721a2.291,2.291,0,0,1,1.887-.841,2.218,2.218,0,0,1,1.854.884,3.936,3.936,0,0,1,.682,2.458ZM71.77-7.407A2.873,2.873,0,0,0,71.3-9.144a1.51,1.51,0,0,0-1.286-.637,1.635,1.635,0,0,0-1.515.9v3.107a1.638,1.638,0,0,0,1.527.89A1.5,1.5,0,0,0,71.3-5.523,3.136,3.136,0,0,0,71.77-7.407ZM75.8-12.179V-10.6h1.214v.859H75.8v4.038a.9.9,0,0,0,.162.587.683.683,0,0,0,.553.2A2.692,2.692,0,0,0,77.047-5v.9a3.242,3.242,0,0,1-.853.119,1.385,1.385,0,0,1-1.124-.451,1.937,1.937,0,0,1-.379-1.28V-9.745H73.507V-10.6h1.184v-1.575ZM79.523-4.1H78.411v-6.5h1.112Zm-1.2-8.228a.664.664,0,0,1,.165-.457.621.621,0,0,1,.49-.186.63.63,0,0,1,.493.186.657.657,0,0,1,.168.457.635.635,0,0,1-.168.451.642.642,0,0,1-.493.18.632.632,0,0,1-.49-.18A.642.642,0,0,1,78.321-12.33Zm2.687,4.916a3.841,3.841,0,0,1,.376-1.719,2.8,2.8,0,0,1,1.046-1.178,2.847,2.847,0,0,1,1.53-.415,2.742,2.742,0,0,1,2.149.92,3.538,3.538,0,0,1,.82,2.446v.078a3.875,3.875,0,0,1-.364,1.7A2.761,2.761,0,0,1,85.524-4.4a2.879,2.879,0,0,1-1.554.421,2.736,2.736,0,0,1-2.143-.92,3.52,3.52,0,0,1-.82-2.434Zm1.118.132a2.782,2.782,0,0,0,.5,1.737,1.606,1.606,0,0,0,1.343.655,1.6,1.6,0,0,0,1.346-.664,3.042,3.042,0,0,0,.5-1.86,2.777,2.777,0,0,0-.508-1.734,1.615,1.615,0,0,0-1.349-.664,1.6,1.6,0,0,0-1.328.655A3.02,3.02,0,0,0,82.125-7.281ZM89.374-10.6l.036.817a2.37,2.37,0,0,1,1.947-.938q2.062,0,2.08,2.326v4.3H92.325V-8.4A1.5,1.5,0,0,0,92-9.445a1.289,1.289,0,0,0-.983-.337,1.6,1.6,0,0,0-.95.288,1.959,1.959,0,0,0-.637.757V-4.1H88.322v-6.5Zm15.687,6.5H103.9V-8.146H99.489V-4.1H98.335v-8.751h1.154V-9.09H103.9v-3.762h1.16Zm4.574.12a2.841,2.841,0,0,1-2.152-.868,3.223,3.223,0,0,1-.829-2.323v-.2a3.9,3.9,0,0,1,.37-1.728,2.883,2.883,0,0,1,1.034-1.19,2.6,2.6,0,0,1,1.439-.43,2.436,2.436,0,0,1,1.971.835,3.617,3.617,0,0,1,.7,2.392v.463h-4.406a2.312,2.312,0,0,0,.562,1.554,1.766,1.766,0,0,0,1.367.592,1.937,1.937,0,0,0,1-.24,2.507,2.507,0,0,0,.715-.637l.679.529A2.731,2.731,0,0,1,109.635-3.981Zm-.138-5.83a1.483,1.483,0,0,0-1.13.49,2.381,2.381,0,0,0-.565,1.373h3.258v-.084a2.118,2.118,0,0,0-.457-1.313A1.4,1.4,0,0,0,109.5-9.811Zm7.1.2a3.332,3.332,0,0,0-.547-.042,1.465,1.465,0,0,0-1.485.932V-4.1h-1.112v-6.5h1.082l.018.751a1.731,1.731,0,0,1,1.551-.871,1.136,1.136,0,0,1,.493.084Zm3.72,5.626a2.841,2.841,0,0,1-2.152-.868,3.223,3.223,0,0,1-.829-2.323v-.2a3.9,3.9,0,0,1,.37-1.728,2.883,2.883,0,0,1,1.034-1.19,2.6,2.6,0,0,1,1.439-.43,2.436,2.436,0,0,1,1.971.835,3.617,3.617,0,0,1,.7,2.392v.463h-4.406a2.312,2.312,0,0,0,.562,1.554,1.766,1.766,0,0,0,1.367.592,1.937,1.937,0,0,0,1-.24,2.507,2.507,0,0,0,.715-.637l.679.529A2.731,2.731,0,0,1,120.321-3.981Zm-.138-5.83a1.483,1.483,0,0,0-1.13.49,2.381,2.381,0,0,0-.565,1.373h3.258v-.084a2.118,2.118,0,0,0-.457-1.313A1.4,1.4,0,0,0,120.183-9.811Z" transform="translate(9.104 42.054)" opacity="0.3"/>
        </g>
      </g>
    </g>
    <g id="Employee_punches_in_and_out_from" data-name="Employee punches &apos;in and out&apos; from" transform="translate(14622.979 7737)">
      <g id="Group_66559" data-name="Group 66559" transform="translate(0 0)">
        <g id="Group_61875" data-name="Group 61875" transform="translate(0 0)">
          <g id="Group_61872" data-name="Group 61872" transform="translate(0 0)">
            <g id="Group_61868" data-name="Group 61868" transform="translate(0 0)">
              <g id="Group_61867" data-name="Group 61867" transform="translate(0 0)">
                <g id="Group_61866" data-name="Group 61866">
                  <path id="Path_112352" data-name="Path 112352" d="M715.117,149.506V61.414a40.341,40.341,0,0,0-40.342-40.34H478.766A41.91,41.91,0,0,0,436.978,62.86V95.14h0a2.363,2.363,0,0,0-2.363,2.363v16.546a2.365,2.365,0,0,0,2.363,2.365h0v19.7h0a2.365,2.365,0,0,0-2.363,2.365v35.456a2.365,2.365,0,0,0,2.363,2.365h0v11.819h0a2.365,2.365,0,0,0-2.363,2.365v35.456a2.365,2.365,0,0,0,2.363,2.365h0v231a42.04,42.04,0,0,0,41.917,41.917H674.776a40.46,40.46,0,0,0,40.342-40.34V214.9h.788a2.365,2.365,0,0,0,2.363-2.365V151.869a2.364,2.364,0,0,0-2.363-2.363ZM609.755,39.087a3.447,3.447,0,1,1-3.447-3.447A3.448,3.448,0,0,1,609.755,39.087Zm-46.882-.679H593.6a2,2,0,1,1,0,3.94H562.873a2,2,0,1,1,0-3.94ZM700.146,457.482c0,13.758-10.159,25.612-23.918,25.612H480.035c-13.758,0-25.723-11.854-25.723-25.612V59.862c0-13.758,11.964-23.818,25.723-23.818h22.681c4.8,0,6.568-.547,6.858,5.531a11.729,11.729,0,0,0,3.165,7.642,17.046,17.046,0,0,0,7.34,4.55,21.831,21.831,0,0,0,6.319,1.188H630.075a22,22,0,0,0,6.319-1.317,17.165,17.165,0,0,0,7.34-4.408,11.287,11.287,0,0,0,3.165-7.5c.29-6.077,2.063-5.684,6.858-5.684h22.47c13.758,0,23.918,10.06,23.918,23.818Z" transform="translate(-434.615 -21.074)" fill="#4f80ff"/>
                  <path id="Path_112353" data-name="Path 112353" d="M557.473,33.434H526.746a2,2,0,1,0,0,3.94h30.728a2,2,0,1,0,0-3.94Z" transform="translate(-398.487 -16.1)" fill="#fff"/>
                  <path id="Path_112354" data-name="Path 112354" d="M558.026,31.46a3.447,3.447,0,1,0,3.447,3.447A3.446,3.446,0,0,0,558.026,31.46Z" transform="translate(-386.334 -16.894)" fill="#fff"/>
                </g>
              </g>
            </g>
          </g>
        </g>
      </g>
    </g>
  </g>
</svg>
