<svg xmlns="http://www.w3.org/2000/svg" xmlns:xlink="http://www.w3.org/1999/xlink" width="92" height="92" viewBox="0 0 92 92">
  <defs>
    <filter id="Rectangle_27312" x="0" y="0" width="92" height="92" filterUnits="userSpaceOnUse">
      <feOffset input="SourceAlpha"/>
      <feGaussianBlur stdDeviation="6" result="blur"/>
      <feFlood flood-color="#0c2464" flood-opacity="0.122"/>
      <feComposite operator="in" in2="blur"/>
      <feComposite in="SourceGraphic"/>
    </filter>
  </defs>
  <g id="Driver_Reports" data-name="Driver Reports" transform="translate(-885 -3858)">
    <g transform="matrix(1, 0, 0, 1, 885, 3858)" filter="url(#Rectangle_27312)">
      <rect id="Rectangle_27312-2" data-name="Rectangle 27312" width="56" height="56" rx="6" transform="translate(18 18)" fill="#fff"/>
    </g>
    <g id="Group_78102" data-name="Group 78102" transform="translate(747.2 3797.5)">
      <path id="Path_129199" data-name="Path 129199" d="M135.2,192.5a12.7,12.7,0,1,0,12.7,12.7A12.71,12.71,0,0,0,135.2,192.5ZM146.3,205.2a11.068,11.068,0,0,1-.312,2.569l-5.7-3.288a5.154,5.154,0,0,0-1.928-3.337v-6.584A11.123,11.123,0,0,1,146.3,205.2Zm-2.392,6.864-5.267-3.041a5.154,5.154,0,0,0,1.593-2.744l5.265,3.04a11.09,11.09,0,0,1-1.591,2.745Zm-17.432,0a11.1,11.1,0,0,1-1.591-2.745l5.265-3.04a5.149,5.149,0,0,0,1.593,2.744Zm5.146-6.864a3.57,3.57,0,1,1,3.57,3.57,3.575,3.575,0,0,1-3.57-3.57Zm5.157-10.981v6.077a5.112,5.112,0,0,0-3.174,0v-6.077a10,10,0,0,1,3.174,0Zm-4.761.341v6.584a5.273,5.273,0,0,0-.637.593,5.118,5.118,0,0,0-1.29,2.745l-5.7,3.288a11.05,11.05,0,0,1,7.622-13.209Zm-4.444,18.7,5.688-3.284a5.113,5.113,0,0,0,3.861,0l5.688,3.284a11.051,11.051,0,0,1-15.236,0Z" transform="translate(41 -95.108)" fill="#ff6d24" stroke="#ff6d24" stroke-width="1"/>
      <path id="Path_129200" data-name="Path 129200" d="M255.106,325.1a.787.787,0,0,0,.23-.563.8.8,0,0,0-.063-.3.916.916,0,0,0-.166-.262,1.255,1.255,0,0,0-.12-.1.586.586,0,0,0-.142-.072.494.494,0,0,0-.151-.048.74.74,0,0,0-.452.048.821.821,0,0,0-.262.167.914.914,0,0,0-.167.262.8.8,0,0,0-.063.3.8.8,0,0,0,1.357.563Z" transform="translate(-78.347 -214.452)" fill="#ff6d24" stroke="#ff6d24" stroke-width="1"/>
      <path id="Path_129201" data-name="Path 129201" d="M357.1,90.5h-23.8a.793.793,0,0,0-.793.793v3.7a.793.793,0,1,0,1.587,0v-2.9H356.3v26.977H342.089a.793.793,0,1,0,0,1.587H357.1a.793.793,0,0,0,.793-.793V91.293A.793.793,0,0,0,357.1,90.5Z" transform="translate(-153.675 0)" fill="#ff6d24" stroke="#ff6d24" stroke-width="1"/>
      <path id="Path_129204" data-name="Path 129204" d="M397.322,110.227l-1.767-.793a.794.794,0,0,0-.65,0l-1.443.648-1.438-.648a.8.8,0,0,0-.651,0l-.985.647-.985-.647a.794.794,0,0,0-.652,0l-1.435.646-1.433-.646a.785.785,0,0,0-.652,0l-1.437.646-1.437-.646a.793.793,0,1,0-.651,1.447l1.762.793a.788.788,0,0,0,.651,0l1.437-.646,1.433.646a.8.8,0,0,0,.652,0l1.435-.646.985.647a.8.8,0,0,0,.651,0l.985-.647,1.438.647a.794.794,0,0,0,.65,0l1.443-.648,1.441.648a.787.787,0,0,0,.325.07.794.794,0,0,0,.327-1.518Z" transform="translate(-197.247 -12.8)" fill="#1e5bfa" stroke="#1e5bfa" stroke-width="1"/>
      <path id="Path_129205" data-name="Path 129205" d="M446.335,167.043a.793.793,0,0,0-.793-.793h-9.748a.793.793,0,1,0,0,1.587h9.748A.793.793,0,0,0,446.335,167.043Z" transform="translate(-245.747 -62.806)" fill="#1e5bfa" stroke="#1e5bfa" stroke-width="1"/>
      <path id="Path_129206" data-name="Path 129206" d="M458.793,237.837h7.662a.793.793,0,0,0,0-1.587h-7.662a.793.793,0,0,0,0,1.587Z" transform="translate(-266.707 -126.458)" fill="#1e5bfa" stroke="#1e5bfa" stroke-width="1"/>
    </g>
  </g>
</svg>
