<svg xmlns="http://www.w3.org/2000/svg" width="56" height="56" viewBox="0 0 56 56">
  <g id="Group_78123" data-name="Group 78123" transform="translate(-678 -2282)">
    <rect id="Rectangle_27887" data-name="Rectangle 27887" width="56" height="56" rx="6" transform="translate(678 2282)" fill="#ff6d24" opacity="0.08"/>
    <g id="Group_78122" data-name="Group 78122" transform="translate(580.362 2206.493)">
      <path id="Path_124319" data-name="Path 124319" d="M301.3,296.809a10.392,10.392,0,0,0-9.41,6.425,2.844,2.844,0,0,0,1.8,3.8,12.12,12.12,0,0,0,13.681-4.979,2.843,2.843,0,0,0-1.066-4.073,10.388,10.388,0,0,0-5.006-1.177Zm.028,1.422a8.969,8.969,0,0,1,4.321,1.016,1.422,1.422,0,0,1,.533,2.038,10.7,10.7,0,0,1-12.076,4.393,1.421,1.421,0,0,1-.9-1.9,8.971,8.971,0,0,1,8.122-5.545Z" transform="translate(-170.924 -192.297)" fill="#ff6d24" stroke="#ff6d24" stroke-width="0.8"/>
      <path id="Path_124320" data-name="Path 124320" d="M111.5,230.091a2.547,2.547,0,0,0-.736.15l-4.09,1.488a1.574,1.574,0,0,0-1.033,1.583,19.685,19.685,0,0,0,3.76,10.324,1.574,1.574,0,0,0,1.808.55l4.09-1.486a2.553,2.553,0,0,0-.128-4.84,2.553,2.553,0,0,0-1.394-3.832,2.553,2.553,0,0,0-2.277-3.937Zm.078,1.419a1.131,1.131,0,0,1,1.008,1.747,1.422,1.422,0,0,0,.775,2.132,1.131,1.131,0,0,1,.619,1.7,1.422,1.422,0,0,0,.775,2.132,1.131,1.131,0,0,1,.056,2.144l-4.087,1.488a.153.153,0,0,1-.175-.053,18.265,18.265,0,0,1-3.488-9.577.153.153,0,0,1,.1-.155l4.09-1.488a1.122,1.122,0,0,1,.328-.067Z" transform="translate(0 -130.998)" fill="#1e5bfa" stroke="#1e5bfa" stroke-width="0.8"/>
      <path id="Path_124321" data-name="Path 124321" d="M461.015,100.842a1.571,1.571,0,0,0-.461.095l-4.087,1.488a2.552,2.552,0,0,0,.125,4.84,2.553,2.553,0,0,0,1.394,3.829A2.553,2.553,0,0,0,461,114.881l4.09-1.488a1.574,1.574,0,0,0,1.033-1.583,19.685,19.685,0,0,0-3.76-10.324,1.574,1.574,0,0,0-1.346-.644Zm.069,1.422a.154.154,0,0,1,.131.061v0A18.267,18.267,0,0,1,464.7,111.9a.153.153,0,0,1-.1.155l-4.09,1.488a1.131,1.131,0,0,1-1.336-1.68,1.422,1.422,0,0,0-.775-2.132,1.131,1.131,0,0,1-.619-1.7,1.422,1.422,0,0,0-.775-2.132,1.131,1.131,0,0,1-.058-2.144l4.09-1.488a.167.167,0,0,1,.044-.011Z" transform="translate(-320.785 -12.25)" fill="#1e5bfa" stroke="#1e5bfa" stroke-width="0.8"/>
      <path id="Path_124322" data-name="Path 124322" d="M218.571,139.056a3.974,3.974,0,0,1,.726,3.136l.077.065a10.7,10.7,0,0,1,18.411-6.7c0-.032.01-.064.016-.1a3.975,3.975,0,0,1-1.459-2.869,12.122,12.122,0,0,0-10.438-1.031,11.878,11.878,0,0,0-7.332,7.344Z" transform="translate(-103.757 -39.802)" fill="#ff6d24" stroke="#ff6d24" stroke-width="0.8"/>
      <path id="Path_124323" data-name="Path 124323" d="M201.933,89.534a15.638,15.638,0,0,0-22.348,8.134,3.977,3.977,0,0,1,1.421.263,14.217,14.217,0,0,1,20.01-7.283,3.971,3.971,0,0,1,.918-1.114Z" transform="translate(-67.94)" fill="#ff6d24" stroke="#ff6d24" stroke-width="0.8"/>
      <path id="Path_124324" data-name="Path 124324" d="M241.376,285.158a14.216,14.216,0,0,1-24.481,8.911c-.071.031-.143.059-.215.086l-1.225.446h0a15.638,15.638,0,0,0,27.368-9.962l-1.225.446h0q-.109.041-.221.075Z" transform="translate(-100.895 -181.118)" fill="#ff6d24" stroke="#ff6d24" stroke-width="0.8"/>
      <path id="Path_124325" data-name="Path 124325" d="M259.969,239.109a5.671,5.671,0,0,0,1.949-3.085,7.108,7.108,0,0,1,11.137-4.054,5.671,5.671,0,0,0,3.475,1.11,1.426,1.426,0,0,0,.47-.091,3.968,3.968,0,0,0,.707,1.244,2.842,2.842,0,0,1-1.152.268,7.094,7.094,0,0,1-4.347-1.388,5.686,5.686,0,0,0-8.909,3.243,7.093,7.093,0,0,1-2.437,3.857,2.847,2.847,0,0,1-1.054.538,3.977,3.977,0,0,0-.257-1.407,1.43,1.43,0,0,0,.418-.231Z" transform="translate(-141.41 -131.449)" fill="#ff6d24" stroke="#ff6d24" stroke-width="0.8"/>
    </g>
  </g>
</svg>
