<svg width="40" height="40" viewBox="0 0 40 40" fill="none" xmlns="http://www.w3.org/2000/svg">
<circle cx="20" cy="20" r="20" fill="#0078D4" fill-opacity="0.1"/>
<path d="M12 21V23H28V21H12ZM12 10H28C28.55 10 29.0208 10.1958 29.4125 10.5875C29.8042 10.9792 30 11.45 30 12V23C30 23.55 29.8042 24.0208 29.4125 24.4125C29.0208 24.8042 28.55 25 28 25H24V30L20 28L16 30V25H12C11.45 25 10.9792 24.8042 10.5875 24.4125C10.1958 24.0208 10 23.55 10 23V12C10 11.45 10.1958 10.9792 10.5875 10.5875C10.9792 10.1958 11.45 10 12 10ZM12 18H28V12H12V18Z" fill="#0078D4"/>
</svg>
