<svg width="633" height="497" viewBox="0 0 633 497" fill="none" xmlns="http://www.w3.org/2000/svg">
<path d="M105.989 417.75C89.5054 385.512 77.0539 350.578 79.2208 315.12C81.3877 279.676 100.351 243.617 134.503 226.038C144.529 220.881 155.59 217.387 165.077 211.471C179.447 202.518 189.074 188.775 199.046 175.843C231.291 134.024 273.033 95.7527 326.224 78.7766C386.93 59.3921 457.596 71.1589 509.396 105.7C561.197 140.241 593.981 195.816 601.376 253.577C608.772 311.351 591.76 370.735 558.189 420.354" fill="#D3EFFF"/>
<mask id="mask0_15_4302" style="mask-type:luminance" maskUnits="userSpaceOnUse" x="316" y="43" width="238" height="238">
<path d="M553.223 158.884C554.898 224.369 503.205 278.823 437.763 280.488C372.333 282.164 317.924 230.428 316.249 164.932C314.573 99.448 366.266 44.9936 431.696 43.317C497.138 41.6403 551.536 93.3763 553.211 158.872L553.223 158.884Z" fill="white"/>
</mask>
<g mask="url(#mask0_15_4302)">
<path d="M552.289 146.789C560.642 211.77 514.776 271.207 449.849 279.566C384.921 287.925 325.534 242.021 317.182 177.04C308.83 112.059 354.695 52.6225 419.623 44.2633C484.538 35.9041 543.937 81.8077 552.289 146.789Z" fill="#5499EF"/>
<g opacity="0.2">
<path d="M333.037 82.167C329.938 83.3646 303.876 121.58 310.768 152.046C317.661 182.513 345.147 274.943 345.147 274.943C362.126 267.734 378.627 257.674 388.906 242.357C399.185 227.028 401.853 205.543 391.527 190.238C386.286 182.465 377.957 176.346 375.827 167.22C373.985 159.352 377.203 150.681 374.164 143.196C371.328 136.202 363.921 132.358 358.967 126.669C353.571 120.466 351.249 112.262 348.246 104.61C345.23 96.9572 340.851 89.113 333.36 85.7478" fill="#294587"/>
</g>
<path d="M347.504 248.249C366.913 251.159 385.974 233.722 387.327 214.13C388.679 194.537 374.439 175.747 355.988 169.052C366.362 163.795 366.614 148.298 360.583 138.358C354.552 128.418 344.417 121.735 336.866 112.897C329.316 104.059 324.589 90.5022 331.314 81.0173C303.876 90.622 286.777 119.963 284.766 148.981C282.756 177.998 293.406 206.513 307.37 232.021C312.156 240.752 317.84 249.722 326.827 253.997C335.813 258.273 348.808 255.422 351.991 245.997" fill="#294587"/>
<g opacity="0.2">
<path d="M554.719 122.478C544.775 131.975 534.831 141.484 524.887 150.981C519.682 155.962 514.286 161.052 507.597 163.735C500.908 166.417 492.52 166.13 487.314 161.136C481.403 155.46 481.044 145.412 474.582 140.382C467.762 135.065 458.01 137.915 449.358 137.807C436.1 137.639 423.978 129.795 415.028 120.011C405.994 110.131 399.317 97.7476 397.797 84.4424C396.277 71.1372 400.334 56.9338 409.918 47.5806L436.734 31.4011L480.936 41.1375L554.695 122.478H554.719Z" fill="#294587"/>
</g>
<path d="M404.689 29.0179C412.599 32.2154 415.734 42.0836 414.968 50.5865C414.202 59.0893 410.612 67.1012 409.248 75.5323C406.759 90.8973 412.3 107.34 423.572 118.071C434.843 128.801 451.524 133.52 466.733 130.274C472.453 129.053 478.771 126.873 483.82 129.819C493.142 135.268 489.193 152.681 498.993 157.184C504.641 159.771 511.234 155.962 515.303 151.268C519.371 146.573 522.363 140.741 527.556 137.34C533.072 133.723 540.324 133.388 545.577 129.4C554.587 122.562 553.654 108.789 550.495 97.9272C537.057 51.82 498.012 14.1198 451.5 2.31159C441.066 -0.335086 429.459 -1.61651 419.982 3.4972C410.505 8.61091 405.228 22.2994 412.048 30.6346" fill="#294587"/>
<g opacity="0.2">
<path d="M432.666 296.452C428.059 290.416 426.455 282.5 426.79 274.919C427.113 267.326 429.208 259.937 431.337 252.656C434.76 240.955 438.912 228.464 448.736 221.267C460.008 213.004 476.09 214.201 488.547 220.548C501.003 226.896 510.636 237.518 519.981 247.925" fill="#294587"/>
</g>
<path d="M440.791 287.985C437.344 270.177 439.379 251.339 446.558 234.68C448.772 229.543 451.536 224.513 455.688 220.764C459.84 217.028 465.608 214.74 471.088 215.83C475.085 216.62 478.519 219.064 481.822 221.447C488.02 225.914 494.219 230.381 500.429 234.86C505.658 238.632 511.33 243.075 512.323 249.446C513.711 258.249 505.646 265.482 498.084 270.213C477.083 283.338 453.247 291.913 428.693 295.158" fill="#294587"/>
<g opacity="0.2">
<path d="M444.44 157.04C440.982 155.902 436.961 158.537 436.124 162.094C435.286 165.639 437.308 169.507 440.444 171.363C443.435 173.136 447.468 173.184 450.327 171.208C453.199 169.232 454.575 165.22 453.259 161.998C451.931 158.777 447.36 155.603 444.153 156.968" fill="#294587"/>
</g>
<g opacity="0.2">
<path d="M456.143 178.249C454.587 177.806 452.78 179.004 452.565 180.609C452.35 182.214 453.75 183.842 455.365 183.878C456.981 183.914 458.452 182.381 458.369 180.764C458.285 179.148 456.669 177.794 455.054 177.962" fill="#294587"/>
</g>
</g>
<path d="M414.035 418.103C414.358 417.911 428.645 409.157 448.856 389.193C412.359 376.223 418.067 322.188 418.067 322.188C460.032 344.834 460.211 368.882 456.394 381.492C465.955 371.409 476.485 359.062 487.302 344.187C440.348 335.756 433.551 268.727 433.551 268.727C488.678 284.991 497.665 312.631 497.294 329.804C505.455 317.517 513.627 303.745 521.561 288.476C470.729 283.482 463.538 212.417 463.538 212.417C523.428 230.093 528.86 261.171 526.993 277.685C530.835 269.805 534.604 261.59 538.241 252.931L539.294 253.374C514.022 208.237 569.341 161.986 569.341 161.986C592.938 236.177 551.943 251.973 542.25 254.62L543.782 255.266C538.66 267.422 533.311 278.787 527.819 289.458C555.09 257.542 610.755 278.332 610.755 278.332C560.546 332.822 528.561 304.463 522.973 298.631C514.992 313.35 506.807 326.559 498.67 338.403C533.826 308.906 588.463 343.888 588.463 343.888C525.282 388.462 498.502 353.337 493.632 345.589C481.93 361.9 470.49 375.337 460.163 386.175C495.248 363.756 544.787 395.468 544.787 395.468C480.266 440.989 453.702 403.396 449.669 396.714C430.667 414.941 417.445 423.061 417.134 423.24L414.047 418.079L414.035 418.103Z" fill="url(#paint0_linear_15_4302)"/>
<path d="M179.968 237.554C179.801 237.47 172.525 233.734 161.959 224.752C179.262 217.111 174.512 191.004 174.512 191.004C154.911 203.566 155.689 215.279 158.011 221.279C152.985 216.716 147.409 211.087 141.605 204.237C164.161 198.417 165.023 165.531 165.023 165.531C138.769 175.471 135.407 189.255 136.209 197.602C131.793 191.914 127.306 185.519 122.891 178.369C147.457 174.082 148.366 139.22 148.366 139.22C119.851 150.01 118.343 165.351 119.851 173.315C117.697 169.615 115.555 165.758 113.473 161.675L112.971 161.926C123.632 139.028 95.0098 118.525 95.0098 118.525C86.2268 155.507 106.76 161.71 111.583 162.645L110.865 163.016C113.796 168.752 116.824 174.082 119.887 179.076C105.444 164.525 79.0951 176.692 79.0951 176.692C105.528 201.387 120.067 186.417 122.579 183.375C126.995 190.249 131.47 196.381 135.862 201.854C117.673 188.776 92.3414 207.806 92.3414 207.806C124.733 227.207 136.496 209.123 138.578 205.171C144.872 212.68 150.927 218.812 156.359 223.71C138.458 214.069 115.496 231.326 115.496 231.326C148.57 251.135 160.141 231.865 161.852 228.464C171.772 236.644 178.496 240.117 178.664 240.189L179.98 237.566L179.968 237.554Z" fill="url(#paint1_linear_15_4302)"/>
<path d="M262.235 405.576H30.7656V369.145L262.235 363.768V405.576Z" fill="#5499EF"/>
<path d="M49.1932 368.726L46.9317 405.576H52.3283L54.1232 368.607L49.1932 368.726Z" fill="#294587"/>
<path d="M72.6107 368.451H60.6686V405.576H72.6107V368.451Z" fill="#294587"/>
<path d="M203.459 381.684H88.0109V389.876H203.459V381.684Z" fill="#294587"/>
<path d="M213.833 364.894V405.576H227.989L226.457 364.607L213.833 364.894Z" fill="#294587"/>
<path d="M232.572 364.463V405.576H237.358L238.531 364.319L232.572 364.463Z" fill="#294587"/>
<path d="M55.3797 368.427C47.4701 352.475 50.1266 335.697 59.1489 322.332L224.423 317.529L228.025 368.403L55.3916 368.427H55.3797Z" fill="#294587"/>
<path d="M59.0053 365.66C51.5625 351.445 53.9916 338.236 62.4515 326.343L226.481 322.571L230.167 364.978L59.0173 365.672L59.0053 365.66Z" fill="#E3D8D8"/>
<path d="M172.778 338.427L170.6 378.487C170.6 378.487 177.086 365.265 176.392 367.313C176.021 368.403 181.884 379.493 181.884 379.493L186.575 337.912L172.766 338.427H172.778Z" fill="url(#paint2_linear_15_4302)"/>
<path opacity="0.31" d="M218.835 337.11C218.835 337.11 218.296 337.194 217.279 337.253C216.214 337.289 214.719 337.337 212.816 337.409C208.903 337.481 203.303 337.601 196.411 337.733C182.554 337.816 163.42 338.475 142.289 338.99C121.157 339.888 102.035 340.499 88.1904 341.337C81.298 341.661 75.7098 341.924 71.797 342.104C69.8944 342.164 68.3986 342.211 67.3337 342.247C66.3166 342.271 65.7781 342.247 65.7781 342.211C65.7781 342.164 66.3046 342.092 67.3217 341.996C68.3747 341.9 69.8705 341.78 71.773 341.613C75.6859 341.337 81.2621 340.942 88.1425 340.451C101.963 339.397 121.109 338.643 142.253 337.744C163.396 337.241 182.542 336.715 196.411 336.858C203.315 336.882 208.915 336.906 212.828 336.93C214.731 336.966 216.226 336.99 217.291 337.014C218.308 337.05 218.847 337.086 218.847 337.122L218.835 337.11Z" fill="#E0E0E0"/>
<path d="M19.6253 431.732L218.919 422.977V403.744L19.6253 407.564C10.3397 410.63 11.7039 428.462 19.6253 431.744V431.732Z" fill="#294587"/>
<path d="M22.0544 427.516L221.18 417.744V407.971L22.0544 410.642C15.5689 412.786 16.5142 425.241 22.0544 427.528V427.516Z" fill="#E3D8D8"/>
<path d="M36.8922 417.732V452.749L38.8786 446.151L41.7145 452.749V417.732H36.8922Z" fill="#5499EF"/>
<path d="M394.757 147.196C395.033 147.1 395.607 148.106 396.05 149.447C396.493 150.789 396.624 151.938 396.337 152.022C396.062 152.106 395.475 151.1 395.045 149.771C394.614 148.453 394.482 147.292 394.757 147.196Z" fill="#4363BA"/>
<path d="M390.689 137.902C390.952 137.771 391.646 138.693 392.257 139.962C392.867 141.244 393.13 142.369 392.867 142.477C392.604 142.597 391.898 141.663 391.299 140.417C390.701 139.16 390.426 138.034 390.689 137.902Z" fill="#4363BA"/>
<path d="M385.532 129.16C385.771 128.992 386.573 129.831 387.327 131.028C388.08 132.226 388.487 133.316 388.236 133.459C387.985 133.603 387.183 132.777 386.441 131.591C385.699 130.417 385.292 129.328 385.532 129.16Z" fill="#4363BA"/>
<path d="M379.441 121.052C379.668 120.861 380.554 121.603 381.439 122.705C382.313 123.807 382.839 124.849 382.6 125.016C382.361 125.196 381.475 124.454 380.602 123.364C379.74 122.274 379.214 121.244 379.441 121.052Z" fill="#4363BA"/>
<path d="M372.525 113.627C372.728 113.412 373.685 114.059 374.679 115.065C375.66 116.07 376.294 117.053 376.079 117.244C375.863 117.448 374.906 116.801 373.925 115.807C372.955 114.813 372.321 113.831 372.525 113.627Z" fill="#4363BA"/>
<path d="M364.914 106.921C365.094 106.693 366.123 107.244 367.2 108.154C368.277 109.065 368.995 109.975 368.803 110.19C368.612 110.406 367.583 109.855 366.518 108.957C365.453 108.059 364.735 107.148 364.914 106.921Z" fill="#4363BA"/>
<path d="M356.718 100.945C356.873 100.705 357.95 101.149 359.099 101.963C360.26 102.765 361.049 103.604 360.882 103.843C360.714 104.083 359.637 103.628 358.501 102.825C357.352 102.035 356.562 101.184 356.718 100.945Z" fill="#4363BA"/>
<path d="M348.018 95.7233C348.162 95.4718 349.263 95.8191 350.483 96.5137C351.704 97.2083 352.577 97.9748 352.422 98.2263C352.266 98.4778 351.165 98.1185 349.957 97.4359C348.748 96.7413 347.875 95.9748 348.018 95.7233Z" fill="#4363BA"/>
<path d="M338.888 91.2924C339.008 91.0289 340.133 91.2924 341.413 91.8672C342.694 92.4541 343.627 93.1487 343.495 93.4002C343.364 93.6636 342.239 93.4002 340.97 92.8253C339.702 92.2505 338.769 91.5559 338.888 91.2924Z" fill="#4363BA"/>
<path d="M329.423 87.6636C329.519 87.3881 330.668 87.5438 331.984 88.0228C333.312 88.5019 334.293 89.1007 334.186 89.3761C334.078 89.6516 332.929 89.4839 331.625 89.0168C330.321 88.5498 329.327 87.939 329.423 87.6636Z" fill="#4363BA"/>
<path d="M319.695 84.8373C319.767 84.5498 320.927 84.6217 322.28 84.981C323.644 85.3403 324.673 85.8672 324.589 86.1546C324.505 86.4301 323.345 86.3702 322.004 86.0109C320.664 85.6516 319.623 85.1247 319.695 84.8373Z" fill="#4363BA"/>
<path d="M309.751 82.8014C309.799 82.514 310.96 82.49 312.336 82.7415C313.724 82.993 314.789 83.4361 314.729 83.7235C314.669 84.0109 313.508 84.0349 312.144 83.7834C310.768 83.5319 309.703 83.0888 309.751 82.8014Z" fill="#4363BA"/>
<path d="M299.688 81.5678C299.712 81.2804 300.861 81.1606 302.261 81.3043C303.661 81.448 304.773 81.7953 304.726 82.0827C304.69 82.3702 303.541 82.4899 302.153 82.3462C300.765 82.2025 299.664 81.8552 299.688 81.5558V81.5678Z" fill="#4363BA"/>
<path d="M289.553 81.1367C289.553 80.8493 290.689 80.6338 292.101 80.6697C293.513 80.7056 294.638 80.9691 294.626 81.2565C294.614 81.5439 293.465 81.7595 292.077 81.7236C290.677 81.6876 289.553 81.4242 289.553 81.1367Z" fill="#4363BA"/>
<path d="M279.405 81.496C279.382 81.2086 280.506 80.9092 281.906 80.8254C283.318 80.7415 284.455 80.9212 284.467 81.2086C284.467 81.496 283.354 81.7954 281.966 81.8793C280.578 81.9511 279.429 81.7834 279.405 81.496Z" fill="#4363BA"/>
<path d="M269.318 82.6576C269.27 82.3702 270.371 81.987 271.759 81.7954C273.159 81.6037 274.308 81.6876 274.344 81.975C274.38 82.2624 273.279 82.6576 271.903 82.8373C270.527 83.0289 269.366 82.945 269.318 82.6576Z" fill="#4363BA"/>
<path d="M259.374 84.6218C259.303 84.3344 260.368 83.8673 261.744 83.5679C263.12 83.2685 264.28 83.2566 264.34 83.544C264.4 83.8314 263.335 84.2985 261.971 84.5979C260.607 84.8973 259.446 84.9092 259.374 84.6218Z" fill="#4363BA"/>
<path d="M249.61 87.3762C249.514 87.1007 250.532 86.5378 251.884 86.1307C253.224 85.7235 254.385 85.6157 254.468 85.8911C254.552 86.1666 253.535 86.7295 252.195 87.1366C250.867 87.5438 249.706 87.6516 249.622 87.3762H249.61Z" fill="#4363BA"/>
<path d="M240.121 90.9331C240.002 90.6697 240.971 90.023 242.275 89.508C243.579 88.9811 244.728 88.7894 244.824 89.0649C244.92 89.3403 243.962 89.9751 242.67 90.49C241.378 91.005 240.229 91.2086 240.121 90.9331Z" fill="#4363BA"/>
<path d="M230.955 95.2922C230.824 95.0407 231.721 94.3102 232.989 93.6874C234.246 93.0527 235.371 92.7533 235.49 93.0168C235.61 93.2803 234.701 93.9988 233.456 94.6216C232.212 95.2443 231.087 95.5437 230.955 95.2922Z" fill="#4363BA"/>
<path d="M222.208 100.43C222.053 100.19 222.89 99.3879 224.087 98.6454C225.283 97.9029 226.372 97.5077 226.528 97.7712C226.671 98.0227 225.834 98.8251 224.649 99.5556C223.465 100.286 222.376 100.681 222.208 100.43Z" fill="#4363BA"/>
<path d="M213.928 106.274C213.748 106.047 214.526 105.184 215.651 104.346C216.788 103.508 217.841 103.029 218.008 103.268C218.176 103.508 217.398 104.37 216.285 105.196C215.16 106.023 214.107 106.514 213.928 106.274Z" fill="#4363BA"/>
<path d="M206.162 112.801C205.97 112.585 206.664 111.663 207.717 110.729C208.782 109.807 209.787 109.232 209.979 109.46C210.17 109.687 209.464 110.609 208.423 111.532C207.37 112.454 206.365 113.017 206.162 112.801Z" fill="#4363BA"/>
<path d="M198.946 119.927C198.731 119.723 199.353 118.753 200.334 117.735C201.316 116.729 202.273 116.07 202.476 116.286C202.68 116.49 202.057 117.472 201.088 118.478C200.119 119.472 199.15 120.13 198.946 119.927Z" fill="#4363BA"/>
<path d="M192.317 127.615C192.09 127.436 192.628 126.406 193.526 125.328C194.423 124.238 195.333 123.519 195.548 123.711C195.763 123.903 195.225 124.933 194.339 125.998C193.454 127.076 192.544 127.795 192.317 127.615Z" fill="#4363BA"/>
<path d="M186.31 135.807C186.071 135.639 186.526 134.573 187.339 133.424C188.153 132.274 189.003 131.483 189.23 131.651C189.469 131.831 189.003 132.897 188.201 134.034C187.399 135.172 186.55 135.974 186.31 135.807Z" fill="#4363BA"/>
<path d="M180.973 144.441C180.722 144.298 181.093 143.196 181.811 141.986C182.529 140.777 183.307 139.914 183.558 140.07C183.809 140.226 183.426 141.328 182.72 142.525C182.014 143.723 181.225 144.585 180.973 144.441Z" fill="#4363BA"/>
<path d="M176.331 153.471C176.067 153.351 176.354 152.226 176.977 150.956C177.599 149.687 178.305 148.777 178.568 148.908C178.831 149.04 178.544 150.166 177.922 151.423C177.312 152.681 176.594 153.591 176.331 153.471Z" fill="#4363BA"/>
<path d="M172.418 162.836C172.142 162.74 172.346 161.591 172.86 160.285C173.375 158.98 174.009 158.01 174.284 158.118C174.548 158.226 174.356 159.375 173.842 160.669C173.327 161.962 172.693 162.932 172.418 162.836Z" fill="#4363BA"/>
<path d="M169.283 172.489C169.007 172.417 169.103 171.255 169.51 169.902C169.917 168.549 170.479 167.531 170.754 167.627C171.03 167.722 170.934 168.872 170.527 170.213C170.12 171.543 169.57 172.561 169.283 172.489Z" fill="#4363BA"/>
<path d="M166.961 182.357C166.674 182.297 166.674 181.148 166.961 179.77C167.26 178.393 167.727 177.327 168.002 177.399C168.289 177.471 168.277 178.633 167.99 179.986C167.703 181.351 167.236 182.405 166.949 182.357H166.961Z" fill="#4363BA"/>
<path d="M165.597 191.315C165.31 191.279 165.19 190.369 165.334 189.279C165.477 188.189 165.824 187.327 166.112 187.375C166.399 187.423 166.518 188.333 166.375 189.411C166.231 190.489 165.884 191.351 165.597 191.315Z" fill="#4363BA"/>
<path d="M298.336 56.2627L310.696 101.639L279.932 118.777C279.932 118.777 281.835 122.262 277.395 123.22C272.956 124.166 272.011 121.316 272.011 121.316H237.8L225.702 75.8074L265.669 78.8732L298.336 56.2627Z" fill="#3868B3"/>
<path d="M295.093 55.9634C295.093 55.9634 276.067 66.119 271.939 68.3345C267.822 70.562 264.639 74.6817 264.963 80.0829C264.963 80.0829 262.833 73.8674 254.504 73.7356C243.412 73.568 226.6 73.7356 226.6 73.7356L239.284 114.035C239.284 114.035 273.303 112.993 276.151 117.747C276.151 117.747 271.305 111.496 306.185 97.2084L295.093 55.9514V55.9634Z" fill="#FFFDFD"/>
<path d="M305.312 94.5618L307.478 100.166L276.067 117.759C276.067 117.759 274.799 112.047 279.238 109.508C283.677 106.969 305.312 94.5618 305.312 94.5618Z" fill="#C6BABA"/>
<path d="M226.516 73.4961L226.767 75.9272L238.972 117.448L276.067 117.759C276.067 117.759 277.012 113.951 268.768 112.681C260.523 111.412 239.284 111.735 239.284 111.735L226.516 73.4961Z" fill="#C6BABA"/>
<path d="M276.079 117.771C275.612 117.903 272.788 109.412 269.749 98.8012C266.722 88.1906 264.627 79.4841 265.094 79.3523C265.561 79.2206 268.385 87.7115 271.424 98.3222C274.452 108.933 276.534 117.627 276.079 117.759V117.771Z" fill="#C6BABA"/>
<path d="M290.642 66.7296C290.869 67.1488 287.53 69.3643 283.187 71.6637C278.843 73.9631 275.134 75.484 274.918 75.0648C274.691 74.6457 278.029 72.4301 282.373 70.1308C286.717 67.8314 290.414 66.3105 290.642 66.7296Z" fill="#C6BABA"/>
<path d="M291.874 70.1188C292.101 70.5379 288.763 72.7535 284.419 75.0528C280.076 77.3522 276.378 78.8732 276.151 78.454C275.923 78.0349 279.262 75.8193 283.606 73.5199C287.949 71.2206 291.647 69.6996 291.874 70.1188Z" fill="#C6BABA"/>
<path d="M292.795 73.8314C293.023 74.2506 289.684 76.4661 285.341 78.7655C280.997 81.0649 277.299 82.5858 277.072 82.1666C276.845 81.7475 280.183 79.5319 284.527 77.2326C288.871 74.9332 292.568 73.4123 292.795 73.8314Z" fill="#C6BABA"/>
<path d="M293.717 77.5319C293.944 77.951 290.606 80.1666 286.262 82.4659C281.918 84.7653 278.221 86.2862 277.994 85.8671C277.766 85.4479 281.105 83.2324 285.448 80.933C289.792 78.6336 293.489 77.1127 293.717 77.5319Z" fill="#C6BABA"/>
<path d="M294.65 81.2325C294.877 81.6517 291.539 83.8672 287.195 86.1666C282.852 88.466 279.154 89.9869 278.927 89.5678C278.699 89.1486 282.038 86.9331 286.382 84.6337C290.725 82.3343 294.423 80.8134 294.65 81.2325Z" fill="#C6BABA"/>
<path d="M295.572 84.9449C295.799 85.3641 292.46 87.5796 288.117 89.879C283.773 92.1784 280.076 93.6993 279.848 93.2802C279.621 92.861 282.959 90.6455 287.303 88.3461C291.647 86.0467 295.344 84.5258 295.572 84.9449Z" fill="#C6BABA"/>
<path d="M296.493 88.6456C296.72 89.0648 293.382 91.2803 289.038 93.5797C284.694 95.8791 280.997 97.4 280.77 96.9809C280.542 96.5617 283.881 94.3462 288.224 92.0468C292.568 89.7474 296.266 88.2265 296.493 88.6456Z" fill="#C6BABA"/>
<path d="M240.277 81.4959C240.277 81.0169 244.249 80.5858 249.167 80.5379C254.085 80.49 258.07 80.8373 258.07 81.3163C258.07 81.7953 254.097 82.2265 249.179 82.2744C244.261 82.3223 240.277 81.975 240.277 81.4959Z" fill="#C6BABA"/>
<path d="M240.815 85.0767C240.815 84.5977 244.788 84.1666 249.706 84.1187C254.624 84.0708 258.609 84.4181 258.609 84.8971C258.609 85.3761 254.636 85.8073 249.718 85.8552C244.8 85.9031 240.815 85.5558 240.815 85.0767Z" fill="#C6BABA"/>
<path d="M241.761 88.7652C241.761 88.2862 245.733 87.8551 250.651 87.8071C255.569 87.7592 259.554 88.1065 259.554 88.5856C259.554 89.0646 255.581 89.4957 250.663 89.5437C245.745 89.5916 241.761 89.2443 241.761 88.7652Z" fill="#C6BABA"/>
<path d="M242.718 92.4659C242.718 91.9869 246.691 91.5557 251.609 91.5078C256.527 91.4599 260.511 91.8072 260.511 92.2863C260.511 92.7653 256.539 93.1964 251.62 93.2443C246.702 93.2922 242.718 92.9449 242.718 92.4659Z" fill="#C6BABA"/>
<path d="M243.663 96.1663C243.663 95.6873 247.636 95.2562 252.554 95.2083C257.472 95.1604 261.457 95.5077 261.457 95.9867C261.457 96.4657 257.484 96.8969 252.566 96.9448C247.648 96.9927 243.663 96.6454 243.663 96.1663Z" fill="#C6BABA"/>
<path d="M244.62 99.8551C244.62 99.376 248.593 98.9449 253.511 98.897C258.429 98.8491 262.414 99.1964 262.414 99.6754C262.414 100.154 258.441 100.586 253.523 100.633C248.605 100.681 244.62 100.334 244.62 99.8551Z" fill="#C6BABA"/>
<path d="M245.566 103.556C245.566 103.076 249.538 102.645 254.456 102.597C259.374 102.55 263.359 102.897 263.359 103.376C263.359 103.855 259.386 104.286 254.468 104.334C249.55 104.382 245.566 104.035 245.566 103.556Z" fill="#C6BABA"/>
<path d="M483.485 334.726C483.629 334.475 482.791 333.672 481.606 332.942C480.422 332.199 479.333 331.804 479.177 332.056C479.022 332.295 479.859 333.098 481.056 333.84C482.253 334.583 483.342 334.978 483.485 334.726Z" fill="#4363BA"/>
<path d="M492.352 339.649C492.484 339.385 491.598 338.643 490.366 337.984C489.133 337.325 488.02 337.002 487.877 337.253C487.733 337.505 488.619 338.247 489.863 338.918C491.107 339.577 492.22 339.912 492.352 339.649Z" fill="#4363BA"/>
<path d="M501.542 343.948C501.649 343.672 500.716 343.002 499.436 342.427C498.167 341.864 497.031 341.613 496.899 341.876C496.779 342.14 497.713 342.822 499.005 343.397C500.285 343.972 501.422 344.211 501.542 343.948Z" fill="#4363BA"/>
<path d="M511.031 347.529C511.127 347.253 510.133 346.654 508.817 346.187C507.501 345.72 506.352 345.565 506.244 345.84C506.137 346.115 507.13 346.714 508.458 347.181C509.786 347.648 510.935 347.804 511.031 347.529Z" fill="#4363BA"/>
<path d="M520.795 350.283C520.855 349.996 519.814 349.481 518.474 349.133C517.121 348.786 515.973 348.738 515.889 349.014C515.805 349.289 516.846 349.804 518.21 350.163C519.575 350.511 520.735 350.57 520.795 350.283Z" fill="#4363BA"/>
<path d="M530.775 352.08C530.811 351.792 529.722 351.385 528.346 351.169C526.97 350.954 525.809 351.014 525.761 351.301C525.713 351.588 526.79 351.996 528.19 352.211C529.578 352.427 530.739 352.367 530.775 352.08Z" fill="#4363BA"/>
<path d="M540.886 352.798C540.886 352.511 539.761 352.223 538.373 352.163C536.985 352.103 535.836 352.295 535.812 352.582C535.788 352.87 536.913 353.157 538.325 353.217C539.737 353.277 540.874 353.085 540.886 352.798Z" fill="#4363BA"/>
<path d="M551.021 352.307C550.985 352.02 549.836 351.876 548.448 351.984C547.06 352.092 545.948 352.427 545.959 352.714C545.971 353.002 547.12 353.157 548.532 353.038C549.944 352.93 551.057 352.595 551.021 352.307Z" fill="#4363BA"/>
<path d="M560.989 350.475C560.917 350.187 559.756 350.211 558.404 350.511C557.052 350.81 555.987 351.289 556.047 351.576C556.095 351.864 557.255 351.852 558.631 351.552C560.008 351.253 561.072 350.774 560.989 350.487V350.475Z" fill="#4363BA"/>
<path d="M570.574 347.169C570.454 346.906 569.317 347.098 568.025 347.601C566.732 348.104 565.763 348.738 565.847 349.014C565.943 349.289 567.079 349.098 568.396 348.583C569.712 348.068 570.681 347.433 570.574 347.169Z" fill="#4363BA"/>
<path d="M579.56 342.475C579.404 342.223 578.303 342.583 577.095 343.265C575.886 343.948 575.013 344.726 575.156 344.978C575.288 345.241 576.389 344.882 577.621 344.176C578.854 343.481 579.715 342.702 579.56 342.463V342.475Z" fill="#4363BA"/>
<path d="M587.769 336.511C587.577 336.283 586.536 336.798 585.447 337.661C584.358 338.523 583.604 339.409 583.772 339.637C583.939 339.876 584.981 339.361 586.093 338.487C587.206 337.613 587.948 336.726 587.769 336.511Z" fill="#4363BA"/>
<path d="M594.972 329.385C594.745 329.194 593.799 329.864 592.854 330.882C591.909 331.9 591.299 332.882 591.502 333.098C591.705 333.301 592.651 332.643 593.62 331.601C594.589 330.571 595.187 329.577 594.972 329.385Z" fill="#4363BA"/>
<path d="M600.919 321.17C600.668 321.026 599.842 321.84 599.076 322.99C598.311 324.152 597.88 325.23 598.119 325.397C598.358 325.565 599.172 324.751 599.962 323.577C600.74 322.391 601.17 321.313 600.919 321.17Z" fill="#4363BA"/>
<path d="M605.287 312.02C605.012 311.924 604.353 312.882 603.815 314.152C603.277 315.433 603.061 316.571 603.324 316.691C603.588 316.822 604.246 315.864 604.796 314.559C605.347 313.254 605.562 312.116 605.287 312.02Z" fill="#4363BA"/>
<path d="M607.716 302.176C607.429 302.14 606.974 303.206 606.723 304.571C606.459 305.924 606.483 307.086 606.759 307.158C607.046 307.23 607.489 306.164 607.752 304.763C608.015 303.374 608.003 302.212 607.716 302.176Z" fill="#4363BA"/>
<path d="M607.979 292.056C607.692 292.092 607.56 293.23 607.608 294.607C607.656 295.984 607.847 297.122 608.135 297.134C608.422 297.134 608.709 295.996 608.661 294.583C608.613 293.158 608.266 292.032 607.979 292.068V292.056Z" fill="#4363BA"/>
<path d="M605.622 282.212C605.347 282.332 605.574 283.446 605.993 284.751C606.412 286.056 606.878 287.098 607.165 287.038C607.453 286.978 607.429 285.793 606.998 284.428C606.567 283.062 605.885 282.092 605.622 282.2V282.212Z" fill="#4363BA"/>
<path d="M599.998 273.841C599.794 274.057 600.453 274.979 601.326 276.033C602.188 277.086 602.977 277.901 603.241 277.733C603.468 277.589 603.049 276.476 602.14 275.362C601.218 274.248 600.189 273.637 599.998 273.853V273.841Z" fill="#4363BA"/>
<path d="M591.299 268.811C591.227 269.098 592.232 269.613 593.476 270.152C594.733 270.691 595.798 271.062 595.953 270.811C596.109 270.571 595.223 269.757 593.895 269.182C592.567 268.607 591.37 268.536 591.299 268.811Z" fill="#4363BA"/>
<path d="M581.307 268.967C581.355 269.098 581.678 269.146 582.121 269.11C582.575 269.063 583.174 268.943 583.844 268.847C585.172 268.619 586.273 268.404 586.285 268.104C586.285 267.817 585.112 267.554 583.676 267.805C582.958 267.913 582.336 268.164 581.917 268.392C581.486 268.619 581.259 268.823 581.307 268.967Z" fill="#4363BA"/>
<path d="M573.625 275.326C573.876 275.47 574.642 274.643 575.527 273.625C576.413 272.607 577.119 271.733 576.939 271.506C576.76 271.278 575.683 271.829 574.726 272.931C573.768 274.033 573.374 275.182 573.625 275.326Z" fill="#4363BA"/>
<path d="M571.926 285.05C572.213 284.967 572.129 283.853 572.105 282.536C572.069 281.206 572.081 280.092 571.782 280.021C571.507 279.949 571.004 281.074 571.052 282.559C571.088 284.044 571.662 285.146 571.926 285.05Z" fill="#4363BA"/>
<path d="M577.849 293.026C578.016 292.775 577.215 291.972 576.233 291.05C575.24 290.14 574.403 289.398 574.163 289.565C573.924 289.733 574.439 290.835 575.515 291.829C576.58 292.823 577.693 293.266 577.849 293.026Z" fill="#4363BA"/>
<path d="M587.23 296.679C587.278 296.38 586.213 295.973 584.885 295.649C583.569 295.302 582.444 295.11 582.336 295.386C582.228 295.649 583.222 296.308 584.61 296.679C585.998 297.026 587.182 296.967 587.218 296.691L587.23 296.679Z" fill="#4363BA"/>
<path d="M597.329 296.571C597.27 296.284 596.133 296.26 594.769 296.38C593.405 296.511 592.292 296.751 592.292 297.038C592.292 297.326 593.452 297.565 594.876 297.434C596.3 297.302 597.389 296.847 597.341 296.571H597.329Z" fill="#4363BA"/>
<path d="M606.926 293.386C606.794 293.122 605.694 293.422 604.413 293.949C603.145 294.475 602.152 295.038 602.235 295.326C602.319 295.601 603.492 295.469 604.808 294.931C606.124 294.392 607.046 293.649 606.914 293.398L606.926 293.386Z" fill="#4363BA"/>
<path d="M615.35 287.793C615.159 287.577 614.154 288.14 613.065 288.966C611.964 289.805 611.162 290.607 611.318 290.859C611.473 291.098 612.574 290.667 613.711 289.805C614.848 288.943 615.554 288.008 615.362 287.793H615.35Z" fill="#4363BA"/>
<path d="M622.135 280.272C621.884 280.104 621.058 280.895 620.196 281.973C619.311 283.026 618.772 284.044 618.988 284.248C619.203 284.452 620.113 283.721 621.022 282.631C621.908 281.517 622.362 280.44 622.135 280.284V280.272Z" fill="#4363BA"/>
<path d="M627.053 271.41C626.79 271.302 626.072 272.212 625.461 273.458C624.851 274.703 624.564 275.829 624.815 275.973C625.067 276.116 625.785 275.206 626.407 273.925C627.029 272.655 627.316 271.53 627.053 271.41Z" fill="#4363BA"/>
<path d="M630.248 261.781C629.961 261.709 629.422 262.739 629.039 264.081C628.656 265.41 628.573 266.571 628.848 266.667C629.123 266.763 629.661 265.733 630.056 264.368C630.451 263.003 630.535 261.853 630.248 261.781Z" fill="#4363BA"/>
<path d="M631.947 251.781C631.66 251.757 631.265 252.847 631.085 254.224C630.894 255.602 630.978 256.763 631.265 256.811C631.552 256.859 631.935 255.769 632.126 254.368C632.318 252.967 632.234 251.805 631.947 251.781Z" fill="#4363BA"/>
<path d="M632.39 241.65C632.091 241.65 631.875 242.787 631.851 244.177C631.815 245.566 632.019 246.703 632.306 246.727C632.593 246.739 632.868 245.614 632.904 244.201C632.916 242.787 632.665 241.65 632.378 241.65H632.39Z" fill="#4363BA"/>
<path d="M631.612 231.53C631.325 231.566 631.205 232.728 631.361 234.105C631.504 235.482 631.863 236.596 632.15 236.572C632.438 236.548 632.557 235.398 632.402 233.997C632.258 232.596 631.899 231.494 631.612 231.53Z" fill="#4363BA"/>
<path d="M629.614 221.578C629.326 221.65 629.362 222.812 629.673 224.165C629.985 225.518 630.475 226.572 630.762 226.512C631.05 226.452 631.026 225.291 630.703 223.925C630.379 222.548 629.889 221.494 629.614 221.578Z" fill="#4363BA"/>
<path d="M626.407 211.962C626.132 212.069 626.311 213.219 626.79 214.524C627.268 215.83 627.891 216.812 628.166 216.716C628.441 216.62 628.273 215.482 627.783 214.153C627.292 212.824 626.682 211.842 626.407 211.962Z" fill="#4363BA"/>
<path d="M621.967 202.836C621.716 202.98 622.039 204.093 622.685 205.327C623.331 206.56 624.073 207.447 624.337 207.327C624.6 207.207 624.277 206.081 623.619 204.836C622.96 203.59 622.219 202.692 621.967 202.836Z" fill="#4363BA"/>
<path d="M616.343 194.405C616.116 194.584 616.583 195.65 617.396 196.776C618.21 197.902 619.06 198.692 619.299 198.524C619.538 198.369 619.072 197.303 618.246 196.153C617.42 195.003 616.571 194.225 616.343 194.405Z" fill="#4363BA"/>
<path d="M609.571 186.86C609.367 187.076 609.989 188.058 610.959 189.052C611.928 190.046 612.885 190.704 613.101 190.501C613.316 190.309 612.694 189.327 611.713 188.309C610.731 187.291 609.774 186.644 609.571 186.86Z" fill="#4363BA"/>
<path d="M601.733 180.441C601.565 180.68 602.331 181.555 603.444 182.393C604.545 183.231 605.598 183.722 605.789 183.495C605.981 183.267 605.215 182.393 604.078 181.543C602.953 180.692 601.9 180.201 601.733 180.441Z" fill="#4363BA"/>
<path d="M592.962 175.375C592.842 175.639 593.728 176.381 594.96 177.028C596.181 177.674 597.293 177.986 597.449 177.734C597.593 177.483 596.707 176.74 595.451 176.082C594.206 175.423 593.081 175.1 592.962 175.375Z" fill="#4363BA"/>
<path d="M583.485 171.794C583.401 172.082 584.406 172.657 585.722 173.1C587.039 173.531 588.187 173.663 588.295 173.399C588.403 173.124 587.398 172.549 586.057 172.094C584.717 171.651 583.568 171.519 583.485 171.794Z" fill="#4363BA"/>
<path d="M573.565 169.782C573.529 170.07 574.618 170.489 575.982 170.704C577.346 170.932 578.507 170.872 578.567 170.585C578.627 170.297 577.538 169.89 576.15 169.663C574.75 169.435 573.601 169.495 573.565 169.782Z" fill="#4363BA"/>
<path d="M563.43 169.303C563.43 169.591 564.567 169.842 565.955 169.854C567.343 169.866 568.479 169.639 568.491 169.351C568.503 169.064 567.379 168.812 565.967 168.8C564.555 168.788 563.418 169.004 563.43 169.303Z" fill="#4363BA"/>
<path d="M553.343 170.226C553.39 170.513 554.539 170.609 555.927 170.441C557.303 170.273 558.404 169.89 558.38 169.603C558.356 169.315 557.196 169.22 555.796 169.387C554.396 169.567 553.295 169.938 553.343 170.226Z" fill="#4363BA"/>
<path d="M546.761 171.531C546.833 171.818 547.24 171.962 547.683 171.866C548.125 171.77 548.424 171.459 548.365 171.172C548.305 170.884 547.898 170.74 547.443 170.836C547.001 170.944 546.689 171.255 546.761 171.531Z" fill="#4363BA"/>
<path d="M538.241 319.661L569.712 373.253C569.712 373.253 570.609 371.696 577.119 366.307C583.628 360.918 608.757 343.002 608.757 343.002L578.339 292.092L541.424 313.29C541.424 313.29 536.913 316.092 538.241 319.661Z" fill="#5499EF"/>
<path d="M572.213 364.163C572.213 364.163 565.739 367.72 568.85 372.439C569.844 373.96 570.514 376.618 583.401 368.786C597.413 360.271 612.275 350.99 612.275 350.99L608.35 342.415L572.213 364.151V364.163Z" fill="#E3D8D8"/>
<path d="M541.287 313.337L540.543 313.795L571.683 364.573L572.427 364.116L541.287 313.337Z" fill="#294587"/>
<path d="M576.102 367.277L583.916 362.511C583.916 362.511 586.943 367.66 587.254 374.93L583.581 370.02C583.581 370.02 582.887 375.085 582.312 377.517C580.888 373.325 579.057 369.612 576.09 367.277H576.102Z" fill="#E06B58"/>
<path d="M586.596 360.93C586.656 361.038 583.94 362.834 580.517 364.954C577.095 367.073 574.271 368.69 574.199 368.594C574.127 368.487 576.856 366.69 580.278 364.571C583.7 362.451 586.524 360.822 586.596 360.93Z" fill="#CACCCC"/>
<path d="M575.922 314.032C575.982 314.14 573.086 315.948 569.437 318.056C565.787 320.176 562.784 321.805 562.724 321.697C562.664 321.589 565.56 319.781 569.209 317.673C572.859 315.553 575.862 313.924 575.922 314.032Z" fill="white"/>
<path d="M575.204 317.505C575.264 317.613 573.493 318.799 571.244 320.14C568.994 321.481 567.115 322.487 567.056 322.379C566.996 322.272 568.767 321.086 571.016 319.745C573.266 318.403 575.145 317.397 575.204 317.505Z" fill="white"/>
<path d="M573.936 357.385L547.06 314.918L575.851 298.188L602.295 341.11L573.936 357.385ZM548.281 315.218L574.223 356.199L601.075 340.786L575.551 299.362L548.281 315.206V315.218Z" fill="#EEF1FC"/>
<path d="M155.893 182.992H489.803C495.954 182.992 500.955 187.986 500.955 194.153V425.779H144.74V194.153C144.74 187.998 149.73 182.992 155.893 182.992Z" fill="#0F1735"/>
<path d="M106.497 425.3C106.497 425.3 131.051 432.39 165.047 432.39H485.687C485.687 432.39 522.051 432.39 540.934 425.3V423.336H106.497V425.3Z" fill="#0F1735"/>
<path d="M540.934 423.336H106.497V425.3H540.934V423.336Z" fill="#1C2956"/>
<path d="M281.918 423.384V424.881C281.918 425.983 282.804 426.869 283.905 426.869H363.622C364.663 426.869 365.513 426.019 365.513 424.977V423.324L281.918 423.372V423.384Z" fill="#1C2956"/>
<path d="M159.794 192.596H485.902C489.432 192.596 492.292 195.459 492.292 198.992V410.905H153.404V198.992C153.404 195.459 156.264 192.596 159.794 192.596Z" fill="#E3D8D8"/>
<g opacity="0.1" filter="url(#filter0_d_15_4302)">
<path d="M348.736 416.019H298.707V418.342H348.736V416.019Z" fill="#F0E7CF"/>
</g>
<path d="M469.389 217.686H273.53V398.282H469.389V217.686Z" fill="#5499EF"/>
<g clip-path="url(#clip0_15_4302)">
<path d="M419.991 325.606C419.991 325.606 427.033 329.06 429.51 337.981C431.987 346.901 439.557 370.132 439.557 370.132C439.557 370.132 443.886 375.259 444.353 379.053C444.815 382.847 443.891 392.031 442.496 393.745C441.106 395.459 439.121 395.175 439.121 395.175L420.898 393.435L413.723 345.074L419.991 325.606Z" fill="#5F6783"/>
<path d="M359.731 324.76C359.731 324.76 346.704 328.874 343.457 332.452L354.125 382.408L353.956 398.169H415.729C415.729 397.39 416.282 345.838 416.282 345.838L419.991 325.606L398.034 321.714L393.705 318.291L369.276 319.535L365.568 323.268L359.736 324.755L359.731 324.76Z" fill="#5F6783"/>
<g opacity="0.3">
<path d="M364.681 368.098C364.491 367.675 364.219 367.215 363.768 367.123C363.024 366.968 362.526 367.856 362.275 368.573C360.27 374.293 357.613 379.554 354.161 384.52L354.002 392.191C357.603 389.14 361.152 385.872 363.45 381.737C365.747 377.602 366.624 372.414 364.686 368.098H364.681Z" fill="black"/>
</g>
<path d="M343.457 332.452C343.457 332.452 339.164 338.342 337.379 342.188C335.595 346.034 320.823 378.33 319.936 381.665C319.044 385 316.751 395.505 323.501 397.942H337.379L351.31 369.585L352.022 336.675L343.452 332.452H343.457Z" fill="#5F6783"/>
<path d="M338.272 377.463C338.272 377.463 337.964 377.189 337.323 376.823C336.687 376.461 335.692 376.043 334.41 375.759C333.769 375.62 333.056 375.506 332.286 375.46C331.517 375.413 330.691 375.424 329.85 375.62C328.168 375.997 326.496 377.07 325.178 378.573C323.839 380.075 323.019 381.851 322.531 383.523C322.039 385.201 321.829 386.776 321.695 388.092C321.567 389.414 321.516 390.487 321.47 391.231C321.449 391.577 321.429 391.861 321.418 392.088C321.403 392.284 321.393 392.387 321.382 392.387C321.372 392.387 321.367 392.284 321.367 392.088C321.367 391.861 321.367 391.577 321.367 391.231C321.382 390.487 321.403 389.409 321.505 388.077C321.613 386.75 321.808 385.16 322.29 383.451C322.767 381.753 323.603 379.93 324.973 378.392C326.322 376.854 328.045 375.754 329.794 375.377C330.666 375.181 331.517 375.176 332.297 375.238C333.076 375.294 333.799 375.418 334.446 375.573C335.743 375.883 336.738 376.332 337.369 376.73C337.682 376.931 337.913 377.112 338.056 377.246C338.2 377.38 338.272 377.458 338.262 377.463H338.272Z" fill="#263238"/>
<path d="M331.686 371.815C331.686 371.815 331.85 371.769 332.153 371.738C332.456 371.702 332.897 371.691 333.44 371.722C333.984 371.748 334.63 371.841 335.333 372.006C336.031 372.182 336.79 372.44 337.544 372.796C338.292 373.163 338.969 373.591 339.544 374.03C340.113 374.479 340.59 374.923 340.954 375.336C341.318 375.744 341.59 376.095 341.749 376.353C341.913 376.611 342.001 376.756 341.985 376.766C341.944 376.797 341.57 376.234 340.816 375.465C340.441 375.078 339.959 374.654 339.395 374.231C338.821 373.813 338.159 373.4 337.426 373.044C336.687 372.693 335.954 372.44 335.271 372.254C334.584 372.078 333.958 371.97 333.425 371.924C332.358 371.82 331.691 371.877 331.686 371.825V371.815Z" fill="#263238"/>
<path d="M344.237 370.261C344.237 370.261 344.006 370.261 343.596 370.21C343.185 370.158 342.59 370.096 341.857 370.039C340.39 369.926 338.349 369.9 336.113 370.168C333.882 370.442 331.902 370.953 330.502 371.407C329.799 371.634 329.235 371.836 328.85 371.985C328.465 372.13 328.245 372.202 328.24 372.187C328.235 372.171 328.435 372.063 328.814 371.887C329.189 371.707 329.742 371.48 330.445 371.227C331.84 370.721 333.83 370.173 336.087 369.9C338.339 369.631 340.405 369.688 341.877 369.848C342.616 369.926 343.211 370.019 343.616 370.101C344.021 370.184 344.247 370.235 344.242 370.256L344.237 370.261Z" fill="#263238"/>
<path d="M383.77 342.668C383.77 342.668 383.719 342.616 383.627 342.498C383.529 342.363 383.401 342.193 383.247 341.987C382.909 341.512 382.437 340.856 381.852 340.04C380.652 338.337 378.985 335.967 377.016 333.174L377.231 333.143C376.482 335.353 375.656 337.795 374.79 340.36L374.733 340.521L374.595 340.428C374.502 340.371 374.405 340.304 374.308 340.242C373.159 339.509 372.143 338.626 371.287 337.671C370.43 336.711 369.717 335.688 369.127 334.666C367.948 332.617 367.235 330.598 366.753 328.89C366.271 327.176 366.019 325.751 365.855 324.775C365.773 324.305 365.711 323.934 365.66 323.65C365.635 323.521 365.609 323.428 365.594 323.361C365.568 323.304 365.558 323.268 365.563 323.268C365.619 323.242 365.768 323.784 365.958 324.76C366.158 325.73 366.435 327.145 366.937 328.843C367.44 330.536 368.163 332.534 369.343 334.548C369.933 335.554 370.635 336.556 371.481 337.5C372.333 338.435 373.328 339.302 374.451 340.02C374.549 340.082 374.646 340.144 374.733 340.2L374.538 340.273C375.415 337.707 376.246 335.27 377 333.066L377.077 332.834L377.216 333.035C379.149 335.849 380.79 338.239 381.97 339.958C382.534 340.789 382.98 341.46 383.309 341.945C383.452 342.162 383.565 342.338 383.658 342.477C383.734 342.601 383.77 342.663 383.765 342.668H383.77Z" fill="#263238"/>
<g opacity="0.3">
<path d="M399.855 366.513C399.28 372.29 400.547 378.237 403.424 383.265C406.296 388.299 410.512 392.78 415.759 395.191C415.929 390.064 415.682 384.024 415.852 378.898L399.855 366.513Z" fill="black"/>
</g>
<path d="M399.275 359.766C399.275 359.766 397.034 360.391 398.716 365.021C400.398 369.647 400.957 369.368 402.081 373.699C403.204 378.026 404.512 381.98 406.476 384.427C408.44 386.874 415.734 391.861 415.734 391.861L422.278 385.65C422.278 385.65 421.201 381.02 421.458 377.876C421.714 374.732 422.37 367.014 422.278 365.698C422.186 364.381 420.781 361.181 420.781 361.181V358.992L417.416 348.569C417.416 348.569 415.544 347.722 414.893 350.732L413.769 347.536C413.769 347.536 411.995 347.252 411.528 350.923C411.061 354.593 411.902 359.673 411.902 359.673L410.969 366.075L409.569 370.401L408.353 370.587C408.353 370.587 406.522 370.086 405.522 366.617C404.522 363.153 401.809 359.012 399.285 359.766H399.275Z" fill="#FFBE9D"/>
<path d="M420.078 376.131C420.078 376.131 420.062 376.048 420.047 375.893C420.037 375.713 420.021 375.486 420.001 375.202C419.965 374.572 419.919 373.699 419.862 372.61C419.76 370.364 419.621 367.236 419.457 363.586L419.488 363.664C419.185 363.302 418.652 363.194 418.165 363.318C417.667 363.437 417.226 363.746 416.949 364.211C416.38 365.135 416.344 366.343 416.17 367.51C415.816 370.148 415.477 372.657 415.169 374.949C415.016 376.09 414.852 377.179 414.626 378.186C414.41 379.192 414.108 380.111 413.815 380.932C413.528 381.753 413.272 382.496 413.113 383.167C412.954 383.838 412.887 384.427 412.903 384.912C412.923 385.883 413.205 386.378 413.159 386.389C413.149 386.389 413.097 386.27 413 386.027C412.923 385.779 412.815 385.408 412.795 384.917C412.764 384.427 412.815 383.818 412.964 383.136C413.113 382.455 413.359 381.701 413.636 380.875C413.918 380.049 414.205 379.146 414.41 378.144C414.621 377.148 414.775 376.064 414.923 374.923C415.226 372.631 415.554 370.122 415.903 367.484C415.985 366.895 416.047 366.317 416.149 365.734C416.252 365.156 416.411 364.577 416.729 364.082C417.026 363.576 417.549 363.204 418.103 363.075C418.652 362.936 419.303 363.06 419.678 363.514L419.703 363.55V363.591C419.832 367.241 419.934 370.37 420.011 372.62C420.037 373.71 420.062 374.582 420.078 375.217C420.078 375.501 420.083 375.728 420.083 375.909C420.083 376.064 420.083 376.146 420.073 376.146L420.078 376.131Z" fill="#EB996E"/>
<path d="M416.503 364.273C416.503 364.273 416.385 364.072 416.226 363.684C416.072 363.297 415.867 362.724 415.677 361.996C415.488 361.274 415.308 360.391 415.205 359.405C415.154 358.909 415.118 358.383 415.18 357.835C415.236 357.288 415.395 356.71 415.744 356.225C416.041 355.801 416.462 355.461 416.939 355.321L417.042 355.29L417.093 355.383C418.042 357.066 418.862 358.553 419.442 359.622C419.709 360.122 419.929 360.54 420.114 360.886C420.268 361.186 420.345 361.351 420.329 361.361C420.314 361.372 420.211 361.217 420.032 360.933C419.832 360.602 419.585 360.195 419.293 359.709C418.673 358.661 417.821 357.195 416.862 355.517L417.016 355.579C416.606 355.703 416.231 355.998 415.964 356.385C415.652 356.829 415.498 357.355 415.441 357.871C415.385 358.393 415.411 358.904 415.452 359.389C415.539 360.365 415.693 361.237 415.862 361.96C416.026 362.683 416.2 363.261 416.324 363.659C416.447 364.056 416.518 364.273 416.503 364.283V364.273Z" fill="#EB996E"/>
<path d="M414.939 365.12C414.939 365.12 414.898 364.908 414.877 364.521C414.862 364.077 414.836 363.53 414.81 362.884C414.764 361.501 414.723 359.591 414.693 357.479C414.677 355.368 414.595 353.453 414.775 352.064C414.862 351.372 415 350.82 415.123 350.453C415.246 350.081 415.349 349.89 415.364 349.901C415.411 349.916 415.077 350.716 414.959 352.09C414.831 353.458 414.939 355.368 414.959 357.479C414.99 359.591 415 361.501 415 362.884C414.995 363.53 414.985 364.077 414.98 364.526C414.969 364.913 414.954 365.125 414.939 365.13V365.12Z" fill="#EB996E"/>
<path d="M409.405 382.47C409.369 382.439 409.774 381.954 410.282 381.071C410.538 380.632 410.8 380.085 411.041 379.466C411.272 378.836 411.482 378.129 411.625 377.37C411.759 376.606 411.805 375.873 411.805 375.202C411.795 374.531 411.738 373.927 411.651 373.431C411.482 372.429 411.266 371.831 411.313 371.815C411.328 371.81 411.395 371.954 411.497 372.223C411.605 372.491 411.723 372.894 411.836 373.395C411.949 373.901 412.025 374.515 412.051 375.196C412.067 375.883 412.02 376.637 411.887 377.416C411.743 378.196 411.523 378.919 411.272 379.554C411.01 380.183 410.723 380.736 410.441 381.169C410.164 381.603 409.912 381.939 409.717 382.15C409.528 382.367 409.415 382.481 409.399 382.465L409.405 382.47Z" fill="#EB996E"/>
<path d="M420.893 379.234L426.571 381.216C426.571 381.216 431.992 378.392 435.731 381.216C439.47 384.04 442.717 391.479 441.691 394.489C441.691 394.489 439.111 397.694 437.147 398.164C435.182 398.634 427.551 396.776 424.376 396.099C421.191 395.423 415.723 391.845 415.723 391.845L420.888 379.229L420.893 379.234Z" fill="#FFBE9D"/>
<path d="M421.591 387.659C421.591 387.659 421.55 387.478 421.529 387.153C421.509 386.766 421.478 386.306 421.447 385.774C421.386 384.608 421.309 382.997 421.283 381.211C421.258 379.425 421.309 377.809 421.417 376.642C421.468 376.059 421.529 375.589 421.586 375.264C421.642 374.939 421.683 374.763 421.704 374.768C421.745 374.773 421.658 375.491 421.601 376.652C421.545 377.814 421.524 379.425 421.55 381.206C421.581 382.951 421.611 384.53 421.632 385.769C421.637 386.353 421.632 386.828 421.632 387.153C421.622 387.478 421.606 387.659 421.591 387.659Z" fill="#EB996E"/>
<path d="M440.316 380.994C440.275 381.035 439.691 380.219 438.429 379.28C437.183 378.34 435.162 377.339 432.772 377.205C430.377 377.075 428.258 377.845 426.92 378.64C425.561 379.435 424.894 380.178 424.858 380.132C424.848 380.121 425.007 379.93 425.325 379.621C425.643 379.311 426.145 378.898 426.822 378.475C428.161 377.623 430.325 376.802 432.787 376.936C435.249 377.076 437.311 378.134 438.547 379.125C439.173 379.621 439.629 380.09 439.911 380.431C440.199 380.772 440.332 380.983 440.322 380.989L440.316 380.994Z" fill="#263238"/>
<path d="M439.588 376.229C439.552 376.286 438.793 375.511 437.224 374.918C435.68 374.308 433.285 374.03 430.828 374.727C429.602 375.072 428.479 375.563 427.52 376.11C426.561 376.663 425.761 377.267 425.125 377.814C424.489 378.361 424.001 378.841 423.668 379.171C423.335 379.507 423.15 379.688 423.135 379.677C423.124 379.667 423.283 379.461 423.596 379.099C423.909 378.743 424.376 378.242 425.007 377.669C425.632 377.096 426.433 376.466 427.402 375.893C428.371 375.325 429.51 374.814 430.761 374.463C433.28 373.751 435.736 374.071 437.296 374.737C438.085 375.062 438.67 375.439 439.045 375.728C439.239 375.867 439.368 376.002 439.46 376.084C439.552 376.172 439.598 376.219 439.588 376.224V376.229Z" fill="#263238"/>
<path d="M439.634 372.099C439.619 372.151 438.629 371.846 436.978 371.624C436.152 371.505 435.162 371.438 434.064 371.438C432.967 371.454 431.761 371.547 430.51 371.758C429.264 371.985 428.099 372.316 427.058 372.677C426.027 373.054 425.12 373.457 424.386 373.854C422.914 374.634 422.083 375.258 422.052 375.217C422.042 375.202 422.242 375.042 422.622 374.758C422.806 374.613 423.042 374.448 423.324 374.272C423.607 374.097 423.925 373.88 424.294 373.689C425.022 373.271 425.935 372.848 426.971 372.45C428.017 372.073 429.197 371.732 430.459 371.5C431.726 371.283 432.946 371.196 434.059 371.196C435.172 371.211 436.172 371.299 436.998 371.443C437.414 371.495 437.783 371.593 438.111 371.66C438.439 371.727 438.716 371.805 438.937 371.872C439.388 372.006 439.629 372.089 439.624 372.104L439.634 372.099Z" fill="#263238"/>
<path d="M396.121 321.543C396.121 321.543 396.382 322.039 396.516 323.061C396.654 324.078 396.634 325.606 396.3 327.496C396.131 328.44 395.905 329.478 395.567 330.588C395.213 331.698 394.68 332.834 394.074 334.021C392.854 336.396 391.31 338.982 389.53 341.744L389.32 342.069V341.682C389.32 339.86 389.315 337.944 389.31 335.952L389.51 336.05C387.981 337.289 386.376 338.595 384.719 339.942L384.76 339.88C383.652 343.422 382.919 347.366 382.632 351.47C382.165 357.753 382.539 363.762 382.837 369.213C383.088 374.67 383.252 379.59 383.422 383.714C383.586 387.844 383.734 391.179 383.858 393.487C383.924 394.628 383.976 395.521 384.011 396.14C384.032 396.435 384.047 396.662 384.058 396.832C384.068 396.987 384.063 397.07 384.063 397.07C384.063 397.07 384.047 396.992 384.027 396.837C384.011 396.672 383.986 396.44 383.955 396.151C383.899 395.547 383.827 394.648 383.75 393.497C383.596 391.19 383.416 387.855 383.232 383.725C383.047 379.595 382.832 374.68 382.586 369.229C382.278 363.782 381.893 357.758 382.36 351.454C382.652 347.335 383.386 343.37 384.509 339.808L384.519 339.772L384.55 339.746C386.207 338.404 387.817 337.103 389.345 335.864L389.545 335.704V335.962C389.545 337.95 389.54 339.865 389.535 341.692L389.325 341.63C392.849 336.132 395.716 331.352 396.157 327.485C396.511 325.611 396.552 324.099 396.434 323.082C396.382 322.571 396.285 322.194 396.223 321.936C396.141 321.683 396.11 321.554 396.11 321.554L396.121 321.543Z" fill="#263238"/>
<path d="M386.925 388.139H386.74C385.996 388.154 385.335 388.836 385.335 389.584C385.335 390.333 385.991 391.019 386.73 391.045C387.473 391.071 388.176 390.431 388.222 389.687C388.274 388.944 387.658 388.216 386.919 388.144L386.925 388.139Z" fill="white"/>
<path d="M386.925 368.243H386.74C385.996 368.258 385.335 368.94 385.335 369.688C385.335 370.437 385.991 371.123 386.73 371.149C387.473 371.175 388.176 370.535 388.222 369.791C388.274 369.048 387.658 368.32 386.919 368.248L386.925 368.243Z" fill="white"/>
<path d="M386.73 350.443C387.473 350.469 388.176 349.828 388.222 349.085C388.274 348.342 387.658 347.614 386.919 347.542H386.735C385.991 347.557 385.33 348.238 385.33 348.987C385.33 349.736 385.986 350.422 386.725 350.448L386.73 350.443Z" fill="white"/>
<path d="M364.588 298.23C362.788 296.227 360.977 294.198 359.664 291.844C358.351 289.49 357.572 286.738 358.008 284.075C358.259 282.516 358.921 281.034 359.023 279.454C359.167 277.286 358.264 275.02 359.023 272.991C360.218 269.816 364.465 269.326 367.04 267.132C369.045 265.423 370.02 262.651 372.23 261.21C374.159 259.956 376.636 259.982 378.908 260.307C381.18 260.632 383.468 261.21 385.745 260.901C387.366 260.679 388.894 260.023 390.484 259.625C392.074 259.228 393.843 259.125 395.259 259.951C396.675 260.777 397.47 262.8 396.541 264.158C399.178 262.935 402.527 265.005 403.25 267.834C403.973 270.663 402.527 273.724 400.291 275.588C398.054 277.456 395.167 278.324 392.315 278.866C384.237 280.399 375.477 279.532 368.517 275.133" fill="#263238"/>
<path d="M392.982 325.565C392.587 322.488 392.264 319.922 392.243 319.602C392.243 319.602 402.46 317.29 401.896 306.892C401.624 301.869 400.224 291.56 398.854 282.252C397.382 272.258 388.515 265.082 378.498 265.753L377.503 265.82C366.804 267.173 361.973 277.079 363.614 287.802L369.384 323.768C369.384 323.768 371.846 331.724 377.118 333.102L383.765 342.663L384.863 338.548L389.817 334.207C389.817 334.207 390.956 332.968 392.259 330.547C393.325 328.564 393.1 326.53 392.972 325.565H392.982Z" fill="#FFBE9D"/>
<path d="M392.254 319.447C392.254 319.447 385.765 320.423 378.539 316.505C378.539 316.505 382.216 323.768 392.454 322.137L392.248 319.447H392.254Z" fill="#EB996E"/>
<path d="M395.541 291.188C395.623 291.968 395.028 292.68 394.218 292.784C393.408 292.882 392.689 292.329 392.607 291.55C392.53 290.77 393.12 290.053 393.926 289.955C394.736 289.857 395.454 290.409 395.536 291.194L395.541 291.188Z" fill="#263238"/>
<path d="M396.982 287.502C396.813 287.709 395.639 286.95 394.054 287.064C392.469 287.151 391.356 288.05 391.171 287.869C391.079 287.786 391.243 287.425 391.725 287.022C392.202 286.62 393.028 286.201 394.018 286.14C395.008 286.078 395.864 286.387 396.367 286.733C396.88 287.079 397.07 287.415 396.982 287.508V287.502Z" fill="#263238"/>
<path d="M380.555 292.267C380.637 293.047 380.042 293.759 379.231 293.862C378.421 293.961 377.703 293.408 377.621 292.629C377.544 291.849 378.134 291.132 378.939 291.033C379.749 290.935 380.467 291.488 380.549 292.272L380.555 292.267Z" fill="#263238"/>
<path d="M381.406 288.85C381.237 289.056 380.062 288.297 378.477 288.411C376.892 288.499 375.78 289.397 375.595 289.216C375.503 289.134 375.667 288.772 376.149 288.37C376.621 287.967 377.452 287.549 378.436 287.487C379.426 287.425 380.283 287.735 380.785 288.081C381.298 288.427 381.488 288.762 381.401 288.855L381.406 288.85Z" fill="#263238"/>
<path d="M387.95 300.3C387.935 300.212 388.909 299.97 390.494 299.66C390.894 299.593 391.274 299.484 391.325 299.201C391.402 298.901 391.202 298.473 390.976 298.008C390.53 297.048 390.063 296.041 389.571 294.983C387.612 290.672 386.166 287.12 386.34 287.043C386.514 286.966 388.238 290.393 390.197 294.704C390.669 295.768 391.12 296.779 391.551 297.75C391.736 298.204 392.033 298.71 391.869 299.335C391.782 299.644 391.5 299.887 391.243 299.975C390.987 300.073 390.761 300.094 390.561 300.119C388.961 300.316 387.961 300.388 387.95 300.3Z" fill="#263238"/>
<path d="M381.401 282.562C381.273 283.006 379.677 282.908 377.831 283.259C375.98 283.574 374.513 284.224 374.241 283.847C374.118 283.667 374.354 283.243 374.933 282.779C375.508 282.319 376.441 281.855 377.549 281.653C378.657 281.457 379.693 281.566 380.39 281.798C381.093 282.03 381.457 282.345 381.406 282.557L381.401 282.562Z" fill="#263238"/>
<path d="M396.09 282.918C395.834 283.3 394.715 282.996 393.402 283.068C392.084 283.094 390.992 283.476 390.71 283.114C390.587 282.939 390.735 282.562 391.202 282.185C391.659 281.814 392.443 281.478 393.346 281.442C394.249 281.411 395.054 281.684 395.536 282.025C396.023 282.366 396.203 282.727 396.09 282.913V282.918Z" fill="#263238"/>
<path d="M364.973 295.442C364.793 295.375 357.741 293.806 358.439 300.899C359.136 307.987 366.768 305.679 366.763 305.473C366.753 305.266 364.978 295.447 364.978 295.447L364.973 295.442Z" fill="#FFBE9D"/>
<path d="M363.639 303.144C363.609 303.124 363.527 303.243 363.327 303.361C363.132 303.475 362.793 303.573 362.414 303.47C361.644 303.268 360.901 302.143 360.742 300.868C360.66 300.223 360.736 299.598 360.911 299.066C361.075 298.524 361.372 298.132 361.742 298.029C362.106 297.905 362.393 298.106 362.501 298.297C362.614 298.488 362.583 298.633 362.624 298.638C362.644 298.653 362.762 298.503 362.68 298.214C362.639 298.075 362.537 297.92 362.357 297.796C362.173 297.672 361.921 297.631 361.66 297.683C361.121 297.776 360.68 298.328 360.485 298.911C360.259 299.5 360.162 300.207 360.254 300.93C360.439 302.355 361.295 303.619 362.347 303.81C362.855 303.893 363.255 303.702 363.45 303.511C363.65 303.315 363.67 303.15 363.645 303.139L363.639 303.144Z" fill="#EB996E"/>
<path d="M398.342 272.568C397.859 275.391 392.171 277.973 387.458 277.838C383.114 277.709 380.965 275.541 377.805 273.998C376.472 273.347 374.902 273.17 373.097 273.466C370.902 273.827 369.768 276.429 368.538 278.293C370.881 283.44 369.933 289.423 368.943 294.998C368.835 295.613 368.696 296.279 368.23 296.691C367.44 297.394 366.153 296.975 365.378 296.258C364.132 295.107 363.562 293.403 363.157 291.756C362.229 287.998 361.87 284.059 362.46 280.229C363.05 276.398 364.624 272.681 367.224 269.821C370.471 266.249 375.22 264.189 380.026 263.941C384.832 263.693 389.658 265.19 393.679 267.844C395.546 269.073 397.29 270.596 398.347 272.578" fill="#263238"/>
<path d="M388.992 303.893C387.797 303.33 386.596 302.768 385.401 302.21C385.196 302.112 384.976 302.014 384.75 302.045C384.494 302.081 384.293 302.272 384.129 302.468C383.298 303.485 383.088 305.013 383.729 306.159C384.376 307.305 385.889 307.909 387.099 307.403C388.371 306.872 388.992 305.385 389.089 304.001L388.992 303.888V303.893Z" fill="#EB996E"/>
<path d="M387.207 307.662C387.217 307.693 387.043 307.796 386.684 307.873C386.33 307.941 385.776 307.972 385.14 307.76C384.509 307.559 383.796 307.063 383.355 306.268C382.909 305.494 382.745 304.404 383.134 303.418C383.319 302.928 383.611 302.494 383.965 302.154C384.145 301.983 384.335 301.839 384.55 301.71C384.663 301.648 384.801 301.586 384.965 301.575C385.124 301.565 385.268 301.606 385.381 301.658C385.617 301.761 385.765 301.875 385.94 301.978C386.109 302.081 386.268 302.184 386.427 302.283C386.735 302.479 387.027 302.659 387.299 302.835C388.366 303.516 389.002 303.966 388.966 304.033C388.93 304.095 388.222 303.759 387.109 303.165C386.827 303.01 386.525 302.845 386.201 302.67C386.037 302.577 385.868 302.484 385.699 302.391C385.53 302.298 385.34 302.179 385.191 302.123C385.027 302.066 384.955 302.071 384.796 302.159C384.637 302.257 384.468 302.391 384.324 302.536C384.027 302.83 383.786 303.196 383.627 303.614C383.298 304.446 383.416 305.349 383.781 306.036C384.14 306.727 384.719 307.182 385.263 307.409C385.812 307.641 386.314 307.672 386.653 307.672C386.996 307.662 387.186 307.631 387.202 307.672L387.207 307.662Z" fill="#263238"/>
<path d="M386.078 291.364C386.037 291.364 386.083 290.703 385.796 289.567C385.514 288.458 384.776 286.821 383.114 285.551C382.288 284.932 381.252 284.41 380.057 284.199C378.872 283.997 377.528 284.033 376.256 284.524C375.615 284.751 374.995 285.087 374.431 285.515C373.856 285.933 373.333 286.455 372.902 287.059C372.015 288.251 371.512 289.779 371.497 291.354C371.512 292.928 372.01 294.461 372.902 295.654C373.333 296.258 373.856 296.779 374.431 297.203C375 297.631 375.615 297.972 376.256 298.194C377.528 298.684 378.872 298.72 380.057 298.519C381.252 298.307 382.288 297.786 383.114 297.167C384.776 295.902 385.514 294.265 385.796 293.15C386.083 292.014 386.037 291.354 386.078 291.354C386.078 291.354 386.083 291.395 386.083 291.472C386.083 291.571 386.083 291.684 386.083 291.823C386.083 291.978 386.078 292.169 386.037 292.396C386.007 292.624 385.981 292.882 385.899 293.171C385.781 293.749 385.519 294.436 385.104 295.169C384.683 295.897 384.073 296.661 383.232 297.311C382.396 297.956 381.334 298.504 380.103 298.731C378.882 298.948 377.498 298.917 376.18 298.421C375.513 298.194 374.872 297.843 374.282 297.399C373.687 296.965 373.143 296.428 372.697 295.804C371.774 294.57 371.251 292.985 371.235 291.349C371.251 289.712 371.774 288.127 372.697 286.893C373.143 286.269 373.687 285.732 374.282 285.298C374.872 284.859 375.513 284.508 376.18 284.281C377.498 283.78 378.882 283.749 380.103 283.971C381.334 284.199 382.396 284.751 383.232 285.391C384.073 286.042 384.683 286.806 385.104 287.533C385.519 288.267 385.781 288.953 385.899 289.531C385.981 289.815 386.007 290.079 386.037 290.306C386.073 290.533 386.083 290.724 386.083 290.879C386.083 291.018 386.083 291.137 386.083 291.23C386.083 291.307 386.083 291.349 386.078 291.349V291.364Z" fill="#263238"/>
<path d="M403.64 290.672C403.599 290.672 403.64 290.027 403.363 288.922C403.086 287.838 402.368 286.243 400.747 285.014C399.947 284.41 398.937 283.899 397.772 283.698C396.618 283.502 395.31 283.538 394.069 284.018C393.443 284.235 392.843 284.565 392.289 284.983C391.73 285.391 391.223 285.902 390.802 286.491C389.935 287.652 389.448 289.139 389.433 290.677C389.448 292.216 389.935 293.703 390.797 294.864C391.218 295.453 391.725 295.959 392.284 296.372C392.838 296.79 393.438 297.12 394.064 297.337C395.305 297.812 396.608 297.853 397.767 297.652C398.931 297.445 399.942 296.934 400.742 296.335C402.363 295.102 403.081 293.512 403.352 292.427C403.629 291.323 403.588 290.677 403.629 290.677C403.64 290.677 403.64 290.837 403.629 291.137C403.629 291.287 403.624 291.478 403.588 291.694C403.558 291.916 403.532 292.169 403.455 292.448C403.204 293.553 402.501 295.2 400.855 296.485C400.039 297.115 399.003 297.652 397.803 297.869C396.613 298.08 395.264 298.049 393.977 297.564C393.331 297.342 392.705 297.001 392.13 296.568C391.551 296.144 391.023 295.623 390.587 295.014C389.684 293.811 389.176 292.267 389.166 290.672C389.181 289.077 389.689 287.534 390.592 286.331C391.028 285.722 391.556 285.195 392.136 284.777C392.71 284.348 393.336 284.008 393.982 283.786C395.269 283.3 396.618 283.269 397.808 283.481C399.008 283.703 400.044 284.24 400.86 284.865C402.506 286.15 403.209 287.792 403.46 288.902C403.537 289.18 403.568 289.433 403.594 289.655C403.629 289.872 403.64 290.063 403.635 290.213C403.64 290.517 403.64 290.672 403.635 290.672H403.64Z" fill="#263238"/>
<path d="M389.31 289.036C389.279 289.067 389.11 288.922 388.802 288.773C388.494 288.623 388.032 288.478 387.509 288.489C386.991 288.494 386.53 288.659 386.227 288.819C385.919 288.979 385.76 289.129 385.73 289.103C385.704 289.082 385.822 288.876 386.13 288.659C386.432 288.442 386.925 288.23 387.504 288.22C388.079 288.21 388.581 288.401 388.894 288.607C389.207 288.814 389.335 289.015 389.31 289.036Z" fill="#263238"/>
<path d="M371.81 290.316C371.856 290.378 370.415 291.534 368.594 292.897C366.773 294.265 365.265 295.323 365.219 295.267C365.173 295.205 366.614 294.053 368.435 292.685C370.256 291.317 371.764 290.259 371.81 290.316Z" fill="#263238"/>
<g opacity="0.3">
<path d="M365.742 323.913C365.029 330.919 367.676 338.316 373.256 342.56C373.692 342.895 374.246 343.221 374.759 343.035C375.118 342.906 375.349 342.56 375.538 342.224C377.128 339.452 377.662 336.391 377.205 333.221C376.323 335.565 375.564 337.862 374.672 340.314C369.809 337.341 366.773 331.022 365.742 323.908V323.913Z" fill="black"/>
</g>
<path opacity="0.3" d="M384.642 339.844L388.74 338.337L389.417 345.311C389.417 345.311 393.838 337.201 395.669 333.5C397.5 329.798 396.557 323.268 396.557 323.268C396.557 323.268 397.213 328.957 392.782 336.21L389.438 341.682V335.952L384.642 339.839V339.844Z" fill="black"/>
<g opacity="0.3">
<path d="M336.984 375.289C335.159 374.422 333.056 374.303 331.05 374.541C328.932 374.789 326.804 375.444 325.142 376.792C323.48 378.139 322.357 380.266 322.562 382.403L322.767 382.434C324.198 378.542 327.04 375.707 330.707 375.362C334.374 375.021 337.949 376.663 340.467 379.368C340.221 377.349 338.81 376.162 336.984 375.289Z" fill="black"/>
</g>
<g opacity="0.3">
<path d="M440.583 379.27C439.209 377.778 437.28 376.874 435.29 376.523C431.797 375.909 428.048 377.003 425.417 379.399L426.197 378.759C428.182 377.587 430.469 376.895 432.772 376.962C435.07 377.029 437.372 377.886 439.039 379.481C440.573 380.948 441.491 382.935 442.368 384.871C442.712 382.868 441.953 380.756 440.578 379.265L440.583 379.27Z" fill="black"/>
</g>
<path d="M414.174 346.881C414.174 346.881 414.226 346.674 414.359 346.318C414.518 345.91 414.713 345.409 414.944 344.816C415.441 343.551 416.118 341.801 416.842 339.86C417.56 337.913 418.18 336.143 418.626 334.857C418.837 334.258 419.016 333.753 419.16 333.34C419.288 332.983 419.37 332.787 419.385 332.792C419.401 332.797 419.355 333.004 419.257 333.371C419.16 333.737 419.006 334.269 418.806 334.919C418.406 336.22 417.811 338.006 417.093 339.953C416.375 341.899 415.662 343.639 415.123 344.888C414.852 345.513 414.626 346.013 414.462 346.359C414.298 346.705 414.2 346.891 414.185 346.881H414.174Z" fill="#263238"/>
<path d="M349.514 347.387C349.443 347.402 348.884 344.945 348.268 341.899C347.653 338.853 347.212 336.375 347.283 336.36C347.355 336.344 347.914 338.802 348.53 341.847C349.145 344.893 349.586 347.371 349.514 347.387Z" fill="#263238"/>
<path d="M348.545 378.098C348.709 378.18 346.668 362.012 346.668 362.012C346.668 362.012 347.955 349.741 348.678 349.173L348.699 344.842C348.699 344.842 350.694 343.623 351.227 345.59C351.227 345.59 352.997 344.047 353.305 347.722C353.612 351.398 353.679 355.161 353.679 355.161L357.613 365.063L358.259 365.393C358.259 365.393 359.105 357.634 359.598 356.493C360.09 355.352 360.429 352.575 362.291 352.993C364.157 353.411 364.311 354.965 363.978 357.495C363.645 360.024 363.224 362.642 363.383 364.273C363.542 365.904 364.275 369.508 364.05 372.362C363.824 375.217 362.27 378.237 360.634 380.354C359.003 382.47 355.885 386.848 354.187 388.17C353.597 388.629 348.55 378.093 348.55 378.093L348.545 378.098Z" fill="#FFBE9D"/>
<path d="M350.53 364.939C350.53 364.939 350.515 364.691 350.54 364.247C350.576 363.751 350.617 363.122 350.668 362.368C350.786 360.783 350.971 358.594 351.192 356.178C351.304 354.975 351.412 353.824 351.51 352.776C351.561 352.255 351.592 351.764 351.525 351.315C351.463 350.866 351.289 350.479 351.033 350.2C350.515 349.632 349.843 349.488 349.427 349.493C348.991 349.493 348.766 349.606 348.755 349.581C348.755 349.57 348.807 349.544 348.914 349.498C349.027 349.457 349.196 349.405 349.422 349.39C349.863 349.359 350.581 349.472 351.171 350.076C351.463 350.376 351.669 350.809 351.74 351.284C351.822 351.764 351.792 352.275 351.751 352.802C351.658 353.855 351.556 355.001 351.453 356.209C351.233 358.625 351.017 360.809 350.853 362.389C350.766 363.137 350.694 363.767 350.638 364.257C350.581 364.696 350.54 364.944 350.525 364.939H350.53Z" fill="#EB996E"/>
<path d="M352.648 358.326C352.684 358.357 352.248 358.744 351.951 359.601C351.633 360.442 351.52 361.712 351.294 363.091C351.084 364.474 350.874 365.723 350.715 366.622C350.55 367.525 350.432 368.077 350.397 368.072C350.361 368.067 350.412 367.499 350.53 366.591C350.643 365.682 350.822 364.428 351.033 363.044C351.253 361.671 351.397 360.396 351.776 359.523C351.956 359.09 352.171 358.775 352.346 358.579C352.52 358.382 352.643 358.305 352.648 358.315V358.326Z" fill="#EB996E"/>
<path d="M351.202 345.373C351.202 345.373 351.269 345.549 351.34 345.884C351.412 346.215 351.499 346.695 351.597 347.294C351.792 348.486 352.007 350.143 352.146 351.986C352.279 353.829 352.31 355.502 352.289 356.71C352.279 357.314 352.264 357.804 352.238 358.14C352.217 358.475 352.197 358.661 352.176 358.661C352.135 358.661 352.13 357.913 352.099 356.71C352.069 355.502 352.012 353.84 351.879 352.007C351.745 350.174 351.561 348.517 351.412 347.32C351.263 346.122 351.166 345.384 351.202 345.373Z" fill="#EB996E"/>
<path d="M362.552 360.535C362.593 360.597 361.978 360.881 361.229 360.649C360.475 360.422 360.126 359.838 360.193 359.813C360.254 359.761 360.644 360.2 361.306 360.396C361.962 360.608 362.532 360.463 362.552 360.54V360.535Z" fill="#EB996E"/>
<path d="M348.766 376.085L338.369 380.483H332.174C332.174 380.483 326.05 382.408 325.106 388.185C324.162 393.967 324.029 396.941 326.722 397.653C329.414 398.365 337.02 398.448 340.79 397.188C344.56 395.929 354.433 387.906 354.433 387.906L355.387 382.104L348.76 376.079L348.766 376.085Z" fill="#FFBE9D"/>
<path d="M351.202 382.47C351.202 382.47 351.084 382.388 350.904 382.197C350.72 382.016 350.494 381.717 350.227 381.335C349.714 380.56 349.15 379.388 348.776 378.025C348.386 376.663 348.222 375.387 348.135 374.469C348.058 373.55 348.058 372.977 348.094 372.971C348.135 372.971 348.196 373.534 348.319 374.443C348.453 375.351 348.648 376.606 349.027 377.948C349.396 379.295 349.92 380.447 350.381 381.231C350.848 382.011 351.227 382.434 351.192 382.47H351.202Z" fill="#EB996E"/>
<path d="M355.726 384.308C355.669 384.287 356.136 383.492 356.315 382.068C356.403 381.36 356.392 380.498 356.192 379.574C355.992 378.65 355.556 377.7 354.92 376.812C354.289 375.919 353.577 375.145 352.982 374.396C352.376 373.648 351.894 372.92 351.576 372.259C351.258 371.598 351.11 371.015 351.053 370.607C351.002 370.199 351.022 369.972 351.038 369.972C351.089 369.962 351.074 370.896 351.745 372.171C352.074 372.806 352.566 373.508 353.171 374.236C353.777 374.969 354.495 375.744 355.141 376.652C355.792 377.556 356.249 378.557 356.438 379.512C356.633 380.467 356.618 381.36 356.505 382.083C356.392 382.811 356.192 383.374 356.028 383.745C355.951 383.931 355.874 384.071 355.818 384.163C355.767 384.256 355.731 384.303 355.726 384.298V384.308Z" fill="#EB996E"/>
<path d="M339.703 359.11C339.636 359.147 338.503 357.066 337.169 354.469C335.836 351.873 334.81 349.741 334.871 349.705C334.938 349.668 336.072 351.749 337.405 354.346C338.739 356.942 339.764 359.074 339.703 359.11Z" fill="white"/>
<path d="M356.515 340.273C356.449 340.242 357.151 338.512 358.08 336.406C359.013 334.3 359.824 332.617 359.89 332.648C359.957 332.679 359.254 334.408 358.326 336.515C357.392 338.621 356.582 340.304 356.515 340.273Z" fill="white"/>
<path d="M372.974 352.503C372.918 352.549 371.861 351.362 370.62 349.849C369.374 348.336 368.414 347.072 368.471 347.025C368.527 346.979 369.584 348.166 370.825 349.679C372.071 351.191 373.03 352.456 372.974 352.503Z" fill="white"/>
<path d="M369.189 369.316C369.127 369.275 369.922 368.067 370.963 366.622C372.005 365.176 372.897 364.04 372.954 364.087C373.015 364.128 372.22 365.336 371.179 366.782C370.138 368.227 369.245 369.363 369.189 369.316Z" fill="white"/>
<path d="M364.091 393.064C364.06 393.079 363.824 392.687 363.491 392.026C363.152 391.365 362.716 390.441 362.28 389.403C361.839 388.361 361.485 387.406 361.244 386.703C361.008 386.001 360.885 385.557 360.921 385.547C360.957 385.537 361.142 385.955 361.424 386.636C361.747 387.411 362.116 388.309 362.526 389.3C362.947 390.286 363.332 391.174 363.665 391.948C363.957 392.625 364.132 393.048 364.096 393.069L364.091 393.064Z" fill="white"/>
<path d="M378.575 382.971C378.559 383.043 377.164 382.832 375.462 382.501C373.754 382.171 372.384 381.841 372.4 381.768C372.415 381.696 373.81 381.908 375.513 382.238C377.221 382.568 378.59 382.899 378.575 382.971Z" fill="white"/>
<path d="M389.807 360.778C389.751 360.726 391.084 359.198 392.777 357.355C394.469 355.517 395.89 354.067 395.941 354.118C395.998 354.17 394.664 355.698 392.972 357.541C391.279 359.379 389.858 360.829 389.807 360.778Z" fill="white"/>
<path d="M401.111 390.374C401.055 390.42 399.398 388.49 397.408 386.058C395.418 383.627 393.854 381.619 393.91 381.572C393.967 381.526 395.623 383.456 397.613 385.888C399.603 388.319 401.168 390.328 401.111 390.374Z" fill="white"/>
<path d="M330.953 377.757C330.989 377.829 329.476 378.604 327.824 379.879C326.168 381.144 325.024 382.414 324.962 382.357C324.937 382.336 325.188 381.99 325.66 381.479C326.127 380.973 326.824 380.312 327.66 379.667C328.496 379.027 329.317 378.526 329.927 378.201C330.537 377.881 330.938 377.726 330.953 377.757Z" fill="white"/>
<path d="M335.179 366.353C335.241 366.395 334.702 367.319 333.974 368.418C333.246 369.518 332.61 370.375 332.548 370.333C332.486 370.292 333.025 369.368 333.753 368.268C334.482 367.169 335.118 366.312 335.179 366.353Z" fill="white"/>
<path d="M344.703 377.556C344.647 377.592 344.109 376.688 343.832 375.434C343.544 374.185 343.642 373.137 343.708 373.142C343.791 373.142 343.816 374.159 344.093 375.372C344.365 376.585 344.775 377.52 344.703 377.551V377.556Z" fill="white"/>
<path d="M346.114 341.976C346.124 342.049 345.242 342.24 344.139 342.394C343.037 342.554 342.134 342.622 342.124 342.549C342.113 342.477 342.996 342.286 344.098 342.131C345.201 341.971 346.104 341.904 346.114 341.976Z" fill="white"/>
<path d="M353.264 329.21C353.3 329.277 352.525 329.778 351.535 330.33C350.545 330.882 349.709 331.28 349.679 331.213C349.643 331.146 350.417 330.645 351.407 330.093C352.397 329.54 353.228 329.143 353.264 329.21Z" fill="white"/>
<path d="M373.374 334.599C373.318 334.646 372.43 333.572 371.394 332.204C370.358 330.836 369.568 329.695 369.63 329.648C369.686 329.602 370.574 330.676 371.61 332.044C372.646 333.412 373.436 334.553 373.374 334.599Z" fill="white"/>
<path d="M398.901 347.438C398.849 347.485 397.916 346.519 397.054 345.115C396.182 343.711 395.736 342.446 395.798 342.42C395.869 342.389 396.423 343.592 397.28 344.976C398.131 346.359 398.962 347.392 398.901 347.443V347.438Z" fill="white"/>
<path d="M408.646 350.67C408.712 350.701 408.24 351.898 407.589 353.339C406.938 354.784 406.358 355.93 406.286 355.899C406.22 355.868 406.691 354.671 407.343 353.23C407.994 351.785 408.574 350.639 408.646 350.67Z" fill="white"/>
<path d="M410.005 337.284C409.948 337.33 408.789 336.024 407.415 334.362C406.04 332.7 404.973 331.311 405.03 331.264C405.086 331.218 406.245 332.524 407.62 334.186C408.994 335.849 410.061 337.237 410.005 337.284Z" fill="white"/>
<path d="M395.126 326.412C395.054 326.412 394.946 325.297 394.895 323.908C394.839 322.524 394.859 321.399 394.931 321.394C395.003 321.394 395.11 322.509 395.162 323.898C395.218 325.281 395.198 326.406 395.126 326.412Z" fill="white"/>
<path d="M407.261 325.735C407.271 325.808 405.85 326.061 404.096 326.298C402.337 326.536 400.906 326.665 400.896 326.592C400.885 326.52 402.301 326.267 404.06 326.03C405.819 325.792 407.25 325.663 407.261 325.735Z" fill="white"/>
<path d="M426.371 339.865C426.304 339.896 425.453 338.259 424.463 336.21C423.478 334.16 422.73 332.467 422.796 332.436C422.863 332.405 423.714 334.042 424.704 336.091C425.689 338.141 426.438 339.834 426.371 339.865Z" fill="white"/>
<path d="M423.15 352.074C423.078 352.059 423.278 350.742 423.596 349.137C423.914 347.526 424.232 346.235 424.304 346.251C424.376 346.266 424.176 347.583 423.858 349.188C423.54 350.794 423.222 352.09 423.15 352.074Z" fill="white"/>
<path d="M432.018 361.697C431.946 361.723 431.269 359.947 430.495 357.732C429.725 355.517 429.156 353.7 429.228 353.674C429.3 353.649 429.977 355.424 430.751 357.639C431.52 359.854 432.09 361.671 432.018 361.697Z" fill="white"/>
<path d="M430.782 367.324C430.766 367.391 429.541 367.133 428.192 366.389C426.838 365.656 425.95 364.763 426.002 364.717C426.053 364.655 426.997 365.44 428.32 366.157C429.638 366.88 430.808 367.246 430.782 367.324Z" fill="white"/>
<path d="M442.137 380.163C442.071 380.194 441.66 379.409 441.219 378.413C440.778 377.416 440.475 376.585 440.542 376.554C440.609 376.523 441.019 377.308 441.46 378.304C441.901 379.301 442.204 380.132 442.137 380.163Z" fill="white"/>
<path d="M375.072 398.066C375 398.076 374.82 397.049 374.672 395.779C374.523 394.509 374.467 393.471 374.538 393.461C374.61 393.451 374.79 394.478 374.938 395.748C375.087 397.018 375.144 398.056 375.072 398.066Z" fill="white"/>
<path d="M409.912 397.178C409.841 397.162 409.989 396.161 410.246 394.943C410.502 393.724 410.769 392.749 410.841 392.764C410.913 392.78 410.764 393.781 410.507 394.999C410.251 396.218 409.984 397.193 409.912 397.178Z" fill="white"/>
</g>
<path d="M302.308 261.123H165.382V395.432H302.308V261.123Z" fill="#F9F4EA"/>
<path d="M196.505 282.571H181.895V297.194H196.505V282.571Z" fill="#3868B3"/>
<path d="M277.658 286.404H205.432V289.302H277.658V286.404Z" fill="#3868B3"/>
<path d="M246.415 292.092H205.432V294.99H246.415V292.092Z" fill="#3868B3"/>
<path d="M196.505 326.032H181.895V340.655H196.505V326.032Z" fill="#3868B3"/>
<path d="M277.658 329.864H205.432V332.762H277.658V329.864Z" fill="#3868B3"/>
<path d="M277.658 334.727H205.432V337.625H277.658V334.727Z" fill="#3868B3"/>
<path d="M277.658 339.708H205.432V342.607H277.658V339.708Z" fill="#3868B3"/>
<path d="M249.132 344.595H205.432V347.493H249.132V344.595Z" fill="#3868B3"/>
<path d="M263.06 317.505H277.67V302.883H263.06V317.505Z" fill="#5499EF"/>
<path d="M254.121 306.715H181.895V309.613H254.121V306.715Z" fill="#5499EF"/>
<path d="M254.133 312.403H213.15V315.301H254.133V312.403Z" fill="#5499EF"/>
<path d="M263.06 376.343H277.67V361.72H263.06V376.343Z" fill="#5499EF"/>
<path d="M254.121 365.552H181.895V368.451H254.121V365.552Z" fill="#5499EF"/>
<path d="M254.133 371.241H213.15V374.139H254.133V371.241Z" fill="#5499EF"/>
<path d="M165.382 261.123V272.2H302.416V261.123C302.416 261.123 165.633 260.871 165.382 261.123Z" fill="#5499EF"/>
<path d="M284.563 266.979C284.12 267.23 283.558 267.087 283.306 266.643C283.055 266.2 283.199 265.638 283.641 265.386C284.084 265.135 284.647 265.278 284.898 265.721C285.149 266.164 285.006 266.727 284.563 266.979Z" fill="#F8E9CD"/>
<path d="M289.146 266.979C288.703 267.23 288.141 267.087 287.889 266.643C287.638 266.2 287.782 265.638 288.224 265.386C288.667 265.135 289.23 265.278 289.481 265.721C289.732 266.164 289.589 266.727 289.146 266.979Z" fill="#F8E9CD"/>
<path d="M293.669 266.979C293.226 267.23 292.664 267.087 292.413 266.643C292.161 266.2 292.305 265.638 292.748 265.386C293.19 265.135 293.753 265.278 294.004 265.721C294.255 266.164 294.112 266.727 293.669 266.979Z" fill="#F8E9CD"/>
<path opacity="0.18" d="M359.23 182.034L352.649 310.583L144.752 349.373V193.519C144.752 187.183 149.886 182.034 156.228 182.034H359.242H359.23Z" fill="#F0E7CF"/>
<path d="M442.585 242.476C442.585 242.476 467.666 240.308 467.666 260.224C467.666 280.14 443.447 276.667 443.447 276.667L433.934 286.188L433.503 276.236C433.503 276.236 417.505 277.098 417.505 260.224C417.505 243.35 431.78 242.476 442.585 242.476Z" fill="#EDEDED"/>
<path d="M426.276 256.224C426.276 255.973 433.168 255.769 441.664 255.769C450.16 255.769 457.064 255.973 457.064 256.224C457.064 256.476 450.172 256.679 441.664 256.679C433.156 256.679 426.276 256.476 426.276 256.224Z" fill="#5499EF"/>
<path d="M426.276 259.985C426.276 259.733 433.168 259.53 441.664 259.53C450.16 259.53 457.064 259.733 457.064 259.985C457.064 260.236 450.172 260.44 441.664 260.44C433.156 260.44 426.276 260.236 426.276 259.985Z" fill="#5499EF"/>
<path d="M425.642 264.368C425.642 264.116 432.534 263.913 441.03 263.913C449.526 263.913 456.43 264.116 456.43 264.368C456.43 264.619 449.538 264.823 441.03 264.823C432.522 264.823 425.642 264.619 425.642 264.368Z" fill="#5499EF"/>
<path d="M265.788 345.924C265.788 345.924 265.872 345.84 266.051 345.732C266.243 345.637 266.53 345.505 266.937 345.433C267.727 345.289 269.007 345.397 270.18 346.307C271.352 347.205 272.178 348.906 272.322 350.81C272.477 352.738 271.975 354.798 271.484 356.882C270.515 361.085 269.605 364.894 268.923 367.648C268.588 368.966 268.313 370.055 268.098 370.894C267.894 371.66 267.763 372.079 267.727 372.067C267.691 372.067 267.763 371.624 267.918 370.846C268.098 369.995 268.325 368.894 268.6 367.564C269.198 364.798 270.048 360.978 271.017 356.774C271.508 354.678 272.011 352.678 271.879 350.834C271.771 349.014 271.029 347.421 269.964 346.559C268.899 345.684 267.703 345.517 266.949 345.601C266.183 345.696 265.8 345.948 265.776 345.9L265.788 345.924Z" fill="#294587"/>
<path d="M297.498 371.588C297.426 371.588 297.211 370.594 296.888 368.978C296.553 367.361 296.098 365.121 295.56 362.654C295.021 360.187 294.495 357.96 294.124 356.355C293.753 354.75 293.525 353.744 293.585 353.72C293.645 353.708 293.98 354.666 294.447 356.259C294.913 357.852 295.488 360.068 296.026 362.547C296.565 365.014 296.972 367.277 297.211 368.918C297.462 370.558 297.558 371.576 297.498 371.588Z" fill="#294587"/>
<defs>
<filter id="filter0_d_15_4302" x="279.707" y="414.019" width="94.0297" height="46.3232" filterUnits="userSpaceOnUse" color-interpolation-filters="sRGB">
<feFlood flood-opacity="0" result="BackgroundImageFix"/>
<feColorMatrix in="SourceAlpha" type="matrix" values="0 0 0 0 0 0 0 0 0 0 0 0 0 0 0 0 0 0 127 0" result="hardAlpha"/>
<feOffset dx="3" dy="20"/>
<feGaussianBlur stdDeviation="11"/>
<feColorMatrix type="matrix" values="0 0 0 0 0.0980392 0 0 0 0 0.121569 0 0 0 0 0.286275 0 0 0 0.35 0"/>
<feBlend mode="normal" in2="BackgroundImageFix" result="effect1_dropShadow_15_4302"/>
<feBlend mode="normal" in="SourceGraphic" in2="effect1_dropShadow_15_4302" result="shape"/>
</filter>
<linearGradient id="paint0_linear_15_4302" x1="414.035" y1="292.643" x2="610.743" y2="292.643" gradientUnits="userSpaceOnUse">
<stop offset="0.07" stop-color="#9ED7C4"/>
<stop offset="0.97" stop-color="#729DAE"/>
</linearGradient>
<linearGradient id="paint1_linear_15_4302" x1="79.0951" y1="179.351" x2="179.968" y2="179.351" gradientUnits="userSpaceOnUse">
<stop offset="0.07" stop-color="#9ED7C4"/>
<stop offset="0.97" stop-color="#729DAE"/>
</linearGradient>
<linearGradient id="paint2_linear_15_4302" x1="177.852" y1="341.885" x2="180.556" y2="401.043" gradientUnits="userSpaceOnUse">
<stop offset="0.07" stop-color="#9ED7C4"/>
<stop offset="0.97" stop-color="#729DAE"/>
</linearGradient>
<clipPath id="clip0_15_4302">
<rect width="125.643" height="138.92" fill="white" transform="translate(318.833 259.326)"/>
</clipPath>
</defs>
</svg>
