<svg xmlns="http://www.w3.org/2000/svg" width="56" height="56" viewBox="0 0 56 56">
  <g id="Group_78125" data-name="Group 78125" transform="translate(-678 -2184)">
    <rect id="Rectangle_27888" data-name="Rectangle 27888" width="56" height="56" rx="6" transform="translate(678 2184)" fill="#ff6d24" opacity="0.08"/>
    <g id="Group_78124" data-name="Group 78124" transform="translate(-12536.092 479.932)">
      <g id="Group_75591" data-name="Group 75591" transform="translate(13234.506 1714.068)">
        <path id="Path_124311" data-name="Path 124311" d="M163.961,147.877a6.47,6.47,0,0,0,5.176-10.353l-4.437-5.916a.924.924,0,0,0-1.294-.185,1.407,1.407,0,0,0-.185.185l-4.437,5.916a6.47,6.47,0,0,0,5.176,10.353Zm-3.7-9.243,3.7-4.934,3.7,4.934a4.622,4.622,0,1,1-7.395,0Z" transform="translate(-153.851 -131.139)" fill="#1e5bfa" stroke="#1e5bf9" stroke-width="0.5"/>
        <path id="Path_124312" data-name="Path 124312" d="M209.785,207.153a2.78,2.78,0,0,0-1.387-2.4l-.924,1.595a.922.922,0,1,1-.924,1.595l-.924,1.595a2.775,2.775,0,0,0,3.79-1.017,2.623,2.623,0,0,0,.37-1.363Z" transform="translate(-196.901 -196.885)" fill="#1e5bfa" stroke="#1e5bf9" stroke-width="0.5"/>
        <path id="Path_124313" data-name="Path 124313" d="M129.09,243.872l.739-1.7a8.3,8.3,0,0,1-4.945-6.794l-1.837.185a10.146,10.146,0,0,0,6.043,8.308Z" transform="translate(-123.047 -224.28)" fill="#ff6d24"/>
        <path id="Path_124314" data-name="Path 124314" d="M282.542,172.766l1.768.555a10.065,10.065,0,0,0,.462-3.05v-.555a10.208,10.208,0,0,0-2.1-6.2l-1.467,1.132a8.3,8.3,0,0,1,1.722,5.072v.555a8.331,8.331,0,0,1-.381,2.5Z" transform="translate(-264.495 -160.003)" fill="#ff6d24"/>
        <path id="Path_124315" data-name="Path 124315" d="M255.57,131.429l1.465-1.127,1.775,2.308-1.465,1.127Z" transform="translate(-241.57 -130.302)" fill="#ff6d24"/>
      </g>
      <path id="Path_124316" data-name="Path 124316" d="M149.686,336.369a2.394,2.394,0,0,0-1.832.389l-7.359,5.138v-.029a2.878,2.878,0,0,0-2.873-2.873h-6.876a5.273,5.273,0,0,1-3.753-1.554,6.371,6.371,0,0,0-4.53-1.876h-.425a1.449,1.449,0,0,0-1.422-1.224H115.96a.55.55,0,0,0,0,1.1h4.655a.344.344,0,0,1,.345.345v11.837a.344.344,0,0,1-.345.345H115.96a.565.565,0,0,0-.55.557.554.554,0,0,0,.55.55h4.655a1.442,1.442,0,0,0,1.422-1.224h1.187a5.248,5.248,0,0,1,3.636,1.444c1.649,1.569,4.266,3.232,6.157,3.232h.059c5.893-.1,17.732-12.014,17.849-12.131a2.383,2.383,0,0,0,.3-2.983,2.348,2.348,0,0,0-1.539-1.041Zm.462,3.255c-4.479,4.53-13.076,11.736-17.086,11.809h-.037c-1.5,0-3.892-1.5-5.4-2.932a6.348,6.348,0,0,0-4.4-1.745h-1.165V336.662h.4a5.273,5.273,0,0,1,3.753,1.554,6.358,6.358,0,0,0,4.53,1.876h6.876a1.775,1.775,0,0,1,1.774,1.774,1.742,1.742,0,0,1-.345,1.048.51.51,0,0,0-.1.124,1.746,1.746,0,0,1-1.334.6H131.4a.55.55,0,0,0,0,1.1h6.231a2.871,2.871,0,0,0,2.206-1.034l8.657-6.047a1.29,1.29,0,0,1,1.657,1.965Z" transform="translate(13108.682 1397.482)" fill="#ff6d24" stroke="#ff6d24" stroke-width="1.2"/>
    </g>
  </g>
</svg>
