<svg width="448" height="369" viewBox="0 0 448 369" fill="none" xmlns="http://www.w3.org/2000/svg">
<g clip-path="url(#clip0_308_372)">
<g opacity="0.7">
<g style="mix-blend-mode:multiply" opacity="0.3">
<path d="M13.1364 267.744L1.65978 261.127C-0.797642 259.711 -0.490867 257.235 2.3476 255.596L12.4485 249.773C15.287 248.138 19.5818 247.957 22.0393 249.376L33.5159 255.993C35.9733 257.409 35.6665 259.885 32.828 261.523L22.7271 267.347C19.8886 268.982 15.5938 269.162 13.1364 267.744Z" fill="#DFE2F5"/>
</g>
<path d="M35.1757 246.11H28.4009L22.0393 242.44C19.5819 241.024 15.2871 241.202 12.4486 242.837L6.77491 246.106H0.00650884V251.488H0.0226548C-0.109742 252.494 0.423076 253.475 1.65986 254.191L13.1364 260.807C15.5939 262.223 19.8887 262.046 22.7272 260.411L32.8281 254.587C34.3652 253.7 35.1564 252.569 35.1693 251.488H35.1757V246.106V246.11Z" fill="#E2E4F6"/>
<g style="mix-blend-mode:multiply">
<path d="M0.0229819 250.427H0.00683594V250.727C0.00683594 250.627 0.00683594 250.527 0.0229819 250.427Z" fill="#E8EDFA"/>
<path d="M32.8281 253.523L22.7272 259.347C19.8887 260.982 15.5939 261.162 13.1364 259.743L1.65986 253.126C0.590994 252.51 0.0484885 251.695 0.00650884 250.834V251.488H0.0226548C-0.109742 252.494 0.423076 253.475 1.65986 254.191L13.1364 260.807C15.5939 262.223 19.8887 262.046 22.7272 260.411L32.8281 254.587C34.3652 253.7 35.1564 252.569 35.1693 251.488H35.1757V250.427H35.1693C35.1564 251.504 34.3652 252.639 32.8281 253.526V253.523Z" fill="#E8EDFA"/>
</g>
<path d="M13.1364 255.29L1.65978 248.673C-0.797642 247.258 -0.490867 244.781 2.3476 243.143L12.4485 237.319C15.287 235.684 19.5818 235.504 22.0393 236.923L33.5159 243.54C35.9733 244.955 35.6665 247.432 32.828 249.07L22.7271 254.893C19.8886 256.528 15.5938 256.709 13.1364 255.29Z" fill="white"/>
<path d="M25.6754 247.677L22.1879 249.689L20.3182 250.766C18.8134 251.637 16.5303 251.73 15.229 250.979L12.9944 249.692L9.13546 247.467C7.83409 246.716 7.99555 245.4 9.50036 244.533L14.8641 241.44C16.3689 240.576 18.6455 240.479 19.9533 241.234L26.0403 244.746C27.3482 245.497 27.1802 246.812 25.6754 247.677Z" fill="url(#paint0_linear_308_372)"/>
<g style="mix-blend-mode:multiply">
<path d="M22.1879 246.09V249.692L20.3182 250.769C18.8134 251.64 16.5304 251.733 15.229 250.982L12.9944 249.695V246.106L22.1879 246.087V246.09Z" fill="#E2E4F6"/>
</g>
<path d="M16.427 248.505L13.4271 246.777C12.7845 246.406 12.8652 245.758 13.6079 245.332L16.2494 243.81C16.9921 243.381 18.1127 243.336 18.7553 243.707L21.7552 245.436C22.3978 245.806 22.3171 246.455 21.5744 246.88L18.9329 248.402C18.1902 248.831 17.0697 248.876 16.427 248.505Z" fill="white"/>
</g>
<g opacity="0.7">
<g style="mix-blend-mode:multiply" opacity="0.3">
<path d="M86.9753 358.143L72.2017 349.626C69.0371 347.801 69.4342 344.615 73.0865 342.51L86.0872 335.012C89.7395 332.907 95.2679 332.678 98.4325 334.503L113.206 343.019C116.371 344.844 115.973 348.03 112.321 350.136L99.3205 357.633C95.6683 359.739 90.1399 359.968 86.9753 358.143Z" fill="#DFE2F5"/>
</g>
<path d="M115.341 330.295H106.619L98.4293 325.574C95.2646 323.749 89.7395 323.978 86.084 326.083L78.7796 330.295H70.0672V337.221H70.0866C69.9154 338.518 70.6032 339.778 72.1952 340.697L86.9688 349.217C90.1335 351.042 95.6586 350.813 99.3141 348.707L112.315 341.21C114.294 340.069 115.308 338.611 115.328 337.221H115.337V330.295H115.341Z" fill="#E2E4F6"/>
<g style="mix-blend-mode:multiply">
<path d="M70.0897 335.854H70.0703V336.238C70.0703 336.109 70.0703 335.983 70.0897 335.854Z" fill="#E8EDFA"/>
<path d="M112.318 339.843L99.3172 347.34C95.665 349.446 90.1366 349.675 86.972 347.85L72.1984 339.33C70.8228 338.537 70.1253 337.486 70.0704 336.38V337.221H70.0897C69.9186 338.518 70.6064 339.778 72.1984 340.698L86.972 349.217C90.1366 351.042 95.6618 350.813 99.3172 348.707L112.318 341.21C114.298 340.069 115.311 338.611 115.331 337.221H115.341V335.854H115.331C115.311 337.241 114.298 338.701 112.318 339.843Z" fill="#E8EDFA"/>
</g>
<path d="M86.9755 342.116L72.2019 333.597C69.0373 331.772 69.4345 328.586 73.0867 326.48L86.0875 318.983C89.7397 316.877 95.2681 316.648 98.4327 318.473L113.206 326.993C116.371 328.818 115.974 332.004 112.322 334.11L99.3208 341.607C95.6685 343.713 90.1401 343.941 86.9755 342.116Z" fill="white"/>
<path d="M103.112 332.317L98.6198 334.909L96.214 336.296C94.2765 337.415 91.3411 337.537 89.6652 336.57L86.788 334.916L81.8215 332.049C80.1455 331.082 80.3522 329.392 82.2897 328.27L89.1937 324.291C91.1312 323.178 94.0634 323.056 95.7425 324.023L103.577 328.544C105.259 329.511 105.046 331.204 103.108 332.317H103.112Z" fill="url(#paint1_linear_308_372)"/>
<g style="mix-blend-mode:multiply">
<path d="M98.6199 330.272V334.909L96.2141 336.296C94.2766 337.415 91.3413 337.537 89.6653 336.57L86.7881 334.916V330.298L98.6199 330.272Z" fill="#E2E4F6"/>
</g>
<path d="M91.2056 333.384L87.3435 331.159C86.5168 330.682 86.6202 329.85 87.576 329.298L90.9731 327.338C91.929 326.786 93.3724 326.728 94.1991 327.206L98.0612 329.431C98.8879 329.908 98.7846 330.74 97.8287 331.291L94.4316 333.252C93.4758 333.803 92.0323 333.861 91.2056 333.384Z" fill="white"/>
</g>
<path d="M368.413 103.849L366.514 112.243L357.385 152.56L340.038 229.203L170.324 131.358L176.037 106.119L184.701 67.8461L198.699 6.00425C199.552 2.22822 202.846 0.664278 206.052 2.51521L364.154 93.6656C367.36 95.5133 369.266 100.073 368.413 103.849Z" fill="url(#paint2_linear_308_372)"/>
<path style="mix-blend-mode:soft-light" d="M368.413 103.849C369.269 100.073 367.36 95.5133 364.154 93.6656L206.052 2.51519C204.053 1.36078 202.019 1.53813 200.562 2.74736L262.67 184.597L340.038 229.203L368.413 103.849Z" fill="url(#paint3_linear_308_372)"/>
<path d="M218.113 292.802L60.0115 201.652C56.8049 199.804 57.2085 196.573 60.9092 194.438L170.324 131.355L340.038 229.2L230.623 292.28C226.919 294.414 221.32 294.647 218.113 292.799V292.802Z" fill="white"/>
<path d="M175.866 153.989L167.147 148.961L172.055 146.133L180.771 151.157L175.866 153.989Z" fill="#D3DCF5"/>
<path d="M186.147 159.915L177.432 154.892L182.337 152.06L191.056 157.087L186.147 159.915Z" fill="#D3DCF5"/>
<path d="M196.432 165.846L187.714 160.818L192.622 157.99L201.338 163.018L196.432 165.846Z" fill="#D3DCF5"/>
<path d="M206.714 171.772L197.999 166.748L202.904 163.92L211.623 168.944L206.714 171.772Z" fill="#D3DCF5"/>
<path d="M216.999 177.702L208.28 172.675L213.189 169.847L221.904 174.874L216.999 177.702Z" fill="#D3DCF5"/>
<path d="M227.281 183.633L218.565 178.605L223.471 175.777L232.189 180.801L227.281 183.633Z" fill="#D3DCF5"/>
<path d="M237.566 189.559L228.847 184.535L233.756 181.704L242.471 186.731L237.566 189.559Z" fill="#D3DCF5"/>
<path d="M247.848 195.489L239.129 190.462L244.037 187.634L252.756 192.658L247.848 195.489Z" fill="#D3DCF5"/>
<path d="M258.133 201.416L249.414 196.392L254.319 193.561L263.038 198.588L258.133 201.416Z" fill="#D3DCF5"/>
<path d="M268.414 207.346L259.696 202.319L264.604 199.491L273.323 204.518L268.414 207.346Z" fill="#D3DCF5"/>
<path d="M278.7 213.273L269.981 208.249L274.886 205.421L283.605 210.445L278.7 213.273Z" fill="#D3DCF5"/>
<path d="M288.981 219.203L280.262 214.176L285.171 211.348L293.89 216.375L288.981 219.203Z" fill="#D3DCF5"/>
<path d="M299.266 225.133L290.547 220.106L295.453 217.278L304.171 222.302L299.266 225.133Z" fill="#D3DCF5"/>
<path d="M309.548 231.06L300.829 226.036L305.737 223.205L314.453 228.232L309.548 231.06Z" fill="#D3DCF5"/>
<path d="M165.842 159.119L157.685 154.417L165.842 149.713L173.999 154.417L165.842 159.119Z" fill="#D3DCF5"/>
<path d="M171.442 173.256L163.285 168.554L171.442 163.853L179.595 168.554L171.442 173.256Z" fill="#D3DCF5"/>
<path d="M181.339 178.963L173.185 174.262L181.339 169.56L189.496 174.262L181.339 178.963Z" fill="#D3DCF5"/>
<path d="M191.24 184.671L183.086 179.969L191.24 175.268L199.397 179.969L191.24 184.671Z" fill="#D3DCF5"/>
<path d="M201.141 190.378L192.984 185.677L201.141 180.975L209.298 185.677L201.141 190.378Z" fill="#D3DCF5"/>
<path d="M211.041 196.086L202.884 191.384L211.041 186.683L219.198 191.384L211.041 196.086Z" fill="#D3DCF5"/>
<path d="M220.942 201.794L212.785 197.092L220.942 192.391L229.099 197.092L220.942 201.794Z" fill="#D3DCF5"/>
<path d="M230.843 207.501L222.686 202.8L230.843 198.098L238.996 202.8L230.843 207.501Z" fill="#D3DCF5"/>
<path d="M240.74 213.209L232.586 208.507L240.74 203.806L248.897 208.507L240.74 213.209Z" fill="#D3DCF5"/>
<path d="M250.641 218.92L242.484 214.215L250.641 209.513L258.798 214.215L250.641 218.92Z" fill="#D3DCF5"/>
<path d="M260.542 224.627L252.385 219.922L260.542 215.221L268.699 219.922L260.542 224.627Z" fill="#D3DCF5"/>
<path d="M270.442 230.335L262.285 225.63L270.442 220.929L278.599 225.63L270.442 230.335Z" fill="#D3DCF5"/>
<path d="M280.343 236.042L272.186 231.338L280.343 226.636L288.5 231.338L280.343 236.042Z" fill="#D3DCF5"/>
<path d="M164.68 180.463L156.523 175.761L164.68 171.057L172.833 175.761L164.68 180.463Z" fill="#D3DCF5"/>
<path d="M174.535 186.145L166.378 181.443L174.535 176.742L182.692 181.443L174.535 186.145Z" fill="#D3DCF5"/>
<path d="M184.394 191.83L176.237 187.125L184.394 182.423L192.551 187.125L184.394 191.83Z" fill="#D3DCF5"/>
<path d="M194.249 197.511L186.096 192.81L194.249 188.108L202.406 192.81L194.249 197.511Z" fill="#D3DCF5"/>
<path d="M204.108 203.196L195.951 198.492L204.108 193.79L212.265 198.492L204.108 203.196Z" fill="#D3DCF5"/>
<path d="M213.967 208.878L205.81 204.177L213.967 199.475L222.121 204.177L213.967 208.878Z" fill="#D3DCF5"/>
<path d="M223.822 214.56L215.666 209.858L223.822 205.157L231.979 209.858L223.822 214.56Z" fill="#D3DCF5"/>
<path d="M233.681 220.245L225.524 215.543L233.681 210.839L241.838 215.543L233.681 220.245Z" fill="#D3DCF5"/>
<path d="M243.537 225.927L235.383 221.225L243.537 216.524L251.694 221.225L243.537 225.927Z" fill="#D3DCF5"/>
<path d="M253.395 231.612L245.239 226.907L253.395 222.205L261.552 226.907L253.395 231.612Z" fill="#D3DCF5"/>
<path d="M263.254 237.294L255.097 232.592L263.254 227.891L271.408 232.592L263.254 237.294Z" fill="#D3DCF5"/>
<path d="M273.11 242.978L264.953 238.274L273.11 233.572L281.267 238.274L273.11 242.978Z" fill="#D3DCF5"/>
<path d="M160.059 188.905L151.902 184.2L160.059 179.499L168.216 184.203L160.059 188.905Z" fill="#D3DCF5"/>
<path d="M169.927 194.593L161.77 189.892L169.927 185.19L178.084 189.892L169.927 194.593Z" fill="#D3DCF5"/>
<path d="M179.796 200.285L171.642 195.58L179.796 190.878L187.953 195.58L179.796 200.285Z" fill="#D3DCF5"/>
<path d="M189.664 205.973L181.51 201.271L189.664 196.57L197.821 201.271L189.664 205.973Z" fill="#D3DCF5"/>
<path d="M199.536 211.664L191.379 206.959L199.536 202.258L207.689 206.959L199.536 211.664Z" fill="#D3DCF5"/>
<path d="M209.404 217.352L201.247 212.651L209.404 207.949L217.561 212.651L209.404 217.352Z" fill="#D3DCF5"/>
<path d="M219.272 223.044L211.115 218.339L219.272 213.638L227.429 218.339L219.272 223.044Z" fill="#D3DCF5"/>
<path d="M229.141 228.732L220.984 224.031L229.141 219.329L237.298 224.031L229.141 228.732Z" fill="#D3DCF5"/>
<path d="M239.01 234.42L230.853 229.719L239.01 225.017L247.166 229.719L239.01 234.42Z" fill="#D3DCF5"/>
<path d="M248.878 240.112L240.724 235.41L248.878 230.706L257.035 235.41L248.878 240.112Z" fill="#D3DCF5"/>
<path d="M271.363 253.075L250.589 241.099L258.746 236.394L279.52 248.373L271.363 253.075Z" fill="#D3DCF5"/>
<path d="M161.822 167.713L148.224 159.87L156.381 155.169L169.979 163.008L161.822 167.713Z" fill="#D3DCF5"/>
<path d="M154.579 174.639L138.594 165.423L146.751 160.722L162.736 169.938L154.579 174.639Z" fill="#D3DCF5"/>
<path d="M149.841 183.013L128.961 170.976L137.118 166.274L157.998 178.312L149.841 183.013Z" fill="#D3DCF5"/>
<path d="M127.163 182.007L118.496 177.009L127.489 171.827L136.153 176.822L127.163 182.007Z" fill="#D3DCF5"/>
<path d="M137.264 187.828L128.596 182.833L137.59 177.651L146.254 182.646L137.264 187.828Z" fill="#D3DCF5"/>
<path d="M147.365 193.651L138.698 188.656L147.691 183.474L156.355 188.469L147.365 193.651Z" fill="#D3DCF5"/>
<path d="M231.069 241.911L222.405 236.916L231.395 231.731L240.059 236.729L231.069 241.911Z" fill="#D3DCF5"/>
<path d="M159.028 200.378L148.798 194.48L157.792 189.295L168.022 195.196L159.028 200.378Z" fill="#D3DCF5"/>
<path d="M220.751 235.962L210.518 230.064L219.511 224.879L229.742 230.78L220.751 235.962Z" fill="#D3DCF5"/>
<path d="M208.807 229.077L161.176 201.616L170.166 196.431L217.797 223.892L208.807 229.077Z" fill="#D3DCF5"/>
<path d="M175.772 164.843L167.615 160.141L175.772 155.44L183.926 160.141L175.772 164.843Z" fill="#D3DCF5"/>
<path d="M185.698 170.566L177.545 165.865L185.698 161.163L193.855 165.865L185.698 170.566Z" fill="#D3DCF5"/>
<path d="M195.628 176.293L187.471 171.589L195.628 166.887L203.785 171.589L195.628 176.293Z" fill="#D3DCF5"/>
<path d="M205.558 182.017L197.401 177.312L205.558 172.611L213.715 177.312L205.558 182.017Z" fill="#D3DCF5"/>
<path d="M215.485 187.741L207.331 183.039L215.485 178.334L223.642 183.039L215.485 187.741Z" fill="#D3DCF5"/>
<path d="M225.415 193.464L217.258 188.763L225.415 184.061L233.571 188.763L225.415 193.464Z" fill="#D3DCF5"/>
<path d="M235.344 199.188L227.187 194.487L235.344 189.785L243.501 194.487L235.344 199.188Z" fill="#D3DCF5"/>
<path d="M245.274 204.912L237.117 200.21L245.274 195.509L253.428 200.21L245.274 204.912Z" fill="#D3DCF5"/>
<path d="M255.201 210.639L247.047 205.934L255.201 201.233L263.358 205.934L255.201 210.639Z" fill="#D3DCF5"/>
<path d="M265.13 216.363L256.973 211.661L265.13 206.956L273.287 211.661L265.13 216.363Z" fill="#D3DCF5"/>
<path d="M275.06 222.086L266.903 217.385L275.06 212.683L283.214 217.385L275.06 222.086Z" fill="#D3DCF5"/>
<path d="M284.987 227.81L276.833 223.108L284.987 218.407L293.144 223.108L284.987 227.81Z" fill="#D3DCF5"/>
<path d="M300.087 236.516L286.75 228.826L294.907 224.124L308.244 231.812L300.087 236.516Z" fill="#D3DCF5"/>
<path d="M290.273 232.363L282.116 237.065L284.728 238.57L275.096 244.123L280.995 247.522L290.625 241.969L291.8 241.292L298.782 237.268L290.273 232.363Z" fill="#D3DCF5"/>
<path d="M240.714 247.474L232.829 242.927L236.901 240.579L244.786 245.126L240.714 247.474Z" fill="#D3DCF5"/>
<path d="M250.806 253.291L242.92 248.744L246.992 246.397L254.878 250.943L250.806 253.291Z" fill="#D3DCF5"/>
<path d="M255.727 250.453L247.838 245.906L251.91 243.559L259.799 248.106L255.727 250.453Z" fill="#D3DCF5"/>
<path d="M260.897 259.108L253.011 254.561L257.083 252.214L264.969 256.761L260.897 259.108Z" fill="#D3DCF5"/>
<path d="M175.866 153.447L167.147 148.42L172.055 145.592L180.771 150.616L175.866 153.447Z" fill="#EDF2FC"/>
<path d="M186.147 159.374L177.432 154.35L182.337 151.519L191.056 156.546L186.147 159.374Z" fill="#EDF2FC"/>
<path d="M196.432 165.304L187.714 160.277L192.622 157.449L201.338 162.476L196.432 165.304Z" fill="#EDF2FC"/>
<path d="M206.714 171.231L197.999 166.207L202.904 163.379L211.623 168.403L206.714 171.231Z" fill="#EDF2FC"/>
<path d="M216.999 177.161L208.28 172.134L213.189 169.306L221.904 174.333L216.999 177.161Z" fill="#EDF2FC"/>
<path d="M227.281 183.091L218.565 178.064L223.471 175.236L232.189 180.26L227.281 183.091Z" fill="#EDF2FC"/>
<path d="M237.566 189.018L228.847 183.994L233.756 181.162L242.471 186.19L237.566 189.018Z" fill="#EDF2FC"/>
<path d="M247.848 194.948L239.129 189.921L244.037 187.093L252.756 192.116L247.848 194.948Z" fill="#EDF2FC"/>
<path d="M258.133 200.875L249.414 195.851L254.319 193.019L263.038 198.047L258.133 200.875Z" fill="#EDF2FC"/>
<path d="M268.414 206.805L259.696 201.777L264.604 198.949L273.323 203.977L268.414 206.805Z" fill="#EDF2FC"/>
<path d="M278.7 212.732L269.981 207.708L274.886 204.88L283.605 209.904L278.7 212.732Z" fill="#EDF2FC"/>
<path d="M288.981 218.662L280.262 213.634L285.171 210.806L293.89 215.834L288.981 218.662Z" fill="#EDF2FC"/>
<path d="M299.266 224.592L290.547 219.565L295.453 216.737L304.171 221.761L299.266 224.592Z" fill="#EDF2FC"/>
<path d="M309.548 230.519L300.829 225.495L305.737 222.663L314.453 227.691L309.548 230.519Z" fill="#EDF2FC"/>
<path d="M165.842 158.577L157.685 153.876L165.842 149.174L173.999 153.876L165.842 158.577Z" fill="#EDF2FC"/>
<path d="M171.442 172.714L163.285 168.013L171.442 163.311L179.595 168.013L171.442 172.714Z" fill="#EDF2FC"/>
<path d="M181.339 178.422L173.185 173.72L181.339 169.019L189.496 173.72L181.339 178.422Z" fill="#EDF2FC"/>
<path d="M191.24 184.129L183.086 179.428L191.24 174.726L199.397 179.428L191.24 184.129Z" fill="#EDF2FC"/>
<path d="M201.141 189.837L192.984 185.135L201.141 180.434L209.298 185.135L201.141 189.837Z" fill="#EDF2FC"/>
<path d="M211.041 195.544L202.884 190.843L211.041 186.141L219.198 190.843L211.041 195.544Z" fill="#EDF2FC"/>
<path d="M220.942 201.252L212.785 196.55L220.942 191.849L229.099 196.55L220.942 201.252Z" fill="#EDF2FC"/>
<path d="M230.843 206.96L222.686 202.258L230.843 197.557L238.996 202.258L230.843 206.96Z" fill="#EDF2FC"/>
<path d="M240.74 212.667L232.586 207.966L240.74 203.264L248.897 207.966L240.74 212.667Z" fill="#EDF2FC"/>
<path d="M250.641 218.378L242.484 213.673L250.641 208.972L258.798 213.673L250.641 218.378Z" fill="#EDF2FC"/>
<path d="M260.542 224.085L252.385 219.381L260.542 214.679L268.699 219.381L260.542 224.085Z" fill="#EDF2FC"/>
<path d="M270.442 229.793L262.285 225.088L270.442 220.387L278.599 225.088L270.442 229.793Z" fill="#EDF2FC"/>
<path d="M280.343 235.501L272.186 230.796L280.343 226.094L288.5 230.796L280.343 235.501Z" fill="#EDF2FC"/>
<path d="M164.68 179.921L156.523 175.22L164.68 170.515L172.833 175.22L164.68 179.921Z" fill="#EDF2FC"/>
<path d="M174.535 185.603L166.378 180.901L174.535 176.2L182.692 180.901L174.535 185.603Z" fill="#EDF2FC"/>
<path d="M184.394 191.288L176.237 186.583L184.394 181.882L192.551 186.586L184.394 191.288Z" fill="#EDF2FC"/>
<path d="M194.249 196.97L186.096 192.268L194.249 187.567L202.406 192.268L194.249 196.97Z" fill="#EDF2FC"/>
<path d="M204.108 202.655L195.951 197.95L204.108 193.248L212.265 197.95L204.108 202.655Z" fill="#EDF2FC"/>
<path d="M213.967 208.336L205.81 203.635L213.967 198.933L222.121 203.635L213.967 208.336Z" fill="#EDF2FC"/>
<path d="M223.822 214.018L215.666 209.317L223.822 204.615L231.979 209.317L223.822 214.018Z" fill="#EDF2FC"/>
<path d="M233.681 219.703L225.524 215.002L233.681 210.297L241.838 215.002L233.681 219.703Z" fill="#EDF2FC"/>
<path d="M243.537 225.385L235.383 220.683L243.537 215.982L251.694 220.683L243.537 225.385Z" fill="#EDF2FC"/>
<path d="M253.395 231.07L245.239 226.365L253.395 221.664L261.552 226.365L253.395 231.07Z" fill="#EDF2FC"/>
<path d="M263.254 236.752L255.097 232.05L263.254 227.349L271.408 232.05L263.254 236.752Z" fill="#EDF2FC"/>
<path d="M273.11 242.437L264.953 237.732L273.11 233.031L281.267 237.732L273.11 242.437Z" fill="#EDF2FC"/>
<path d="M160.059 188.363L151.902 183.662L160.059 178.957L168.216 183.662L160.059 188.363Z" fill="#EDF2FC"/>
<path d="M169.927 194.051L161.77 189.35L169.927 184.648L178.084 189.35L169.927 194.051Z" fill="#EDF2FC"/>
<path d="M179.796 199.743L171.642 195.038L179.796 190.337L187.953 195.038L179.796 199.743Z" fill="#EDF2FC"/>
<path d="M189.664 205.431L181.51 200.729L189.664 196.028L197.821 200.729L189.664 205.431Z" fill="#EDF2FC"/>
<path d="M199.536 211.122L191.379 206.418L199.536 201.716L207.689 206.418L199.536 211.122Z" fill="#EDF2FC"/>
<path d="M209.404 216.811L201.247 212.109L209.404 207.408L217.561 212.109L209.404 216.811Z" fill="#EDF2FC"/>
<path d="M219.272 222.502L211.115 217.797L219.272 213.096L227.429 217.797L219.272 222.502Z" fill="#EDF2FC"/>
<path d="M229.141 228.19L220.984 223.489L229.141 218.787L237.298 223.489L229.141 228.19Z" fill="#EDF2FC"/>
<path d="M239.01 233.879L230.853 229.177L239.01 224.476L247.166 229.177L239.01 233.879Z" fill="#EDF2FC"/>
<path d="M248.878 239.57L240.724 234.869L248.878 230.164L257.035 234.869L248.878 239.57Z" fill="#EDF2FC"/>
<path d="M271.363 252.533L250.589 240.557L258.746 235.852L279.52 247.832L271.363 252.533Z" fill="#EDF2FC"/>
<path d="M161.822 167.171L148.224 159.329L156.381 154.627L169.979 162.466L161.822 167.171Z" fill="#EDF2FC"/>
<path d="M154.579 174.097L138.594 164.881L146.751 160.18L162.736 169.396L154.579 174.097Z" fill="#EDF2FC"/>
<path d="M149.841 182.472L128.961 170.434L137.118 165.733L157.998 177.77L149.841 182.472Z" fill="#EDF2FC"/>
<path d="M127.163 181.466L118.496 176.467L127.489 171.286L136.153 176.28L127.163 181.466Z" fill="#EDF2FC"/>
<path d="M137.264 187.286L128.596 182.291L137.59 177.109L146.254 182.104L137.264 187.286Z" fill="#EDF2FC"/>
<path d="M147.365 193.11L138.698 188.115L147.691 182.933L156.355 187.928L147.365 193.11Z" fill="#EDF2FC"/>
<path d="M231.069 241.369L222.405 236.375L231.395 231.189L240.059 236.187L231.069 241.369Z" fill="#EDF2FC"/>
<path d="M159.028 199.836L148.798 193.938L157.792 188.753L168.022 194.654L159.028 199.836Z" fill="#EDF2FC"/>
<path d="M220.751 235.42L210.518 229.522L219.511 224.337L229.742 230.238L220.751 235.42Z" fill="#EDF2FC"/>
<path d="M208.807 228.535L161.176 201.074L170.166 195.889L217.797 223.35L208.807 228.535Z" fill="#EDF2FC"/>
<path d="M175.772 164.301L167.615 159.599L175.772 154.898L183.926 159.599L175.772 164.301Z" fill="#EDF2FC"/>
<path d="M185.698 170.025L177.545 165.323L185.698 160.622L193.855 165.323L185.698 170.025Z" fill="#EDF2FC"/>
<path d="M195.628 175.752L187.471 171.047L195.628 166.345L203.785 171.047L195.628 175.752Z" fill="#EDF2FC"/>
<path d="M205.558 181.475L197.401 176.771L205.558 172.069L213.715 176.771L205.558 181.475Z" fill="#EDF2FC"/>
<path d="M215.485 187.199L207.331 182.497L215.485 177.793L223.642 182.497L215.485 187.199Z" fill="#EDF2FC"/>
<path d="M225.415 192.923L217.258 188.221L225.415 183.52L233.571 188.221L225.415 192.923Z" fill="#EDF2FC"/>
<path d="M235.344 198.646L227.187 193.945L235.344 189.243L243.501 193.945L235.344 198.646Z" fill="#EDF2FC"/>
<path d="M245.274 204.37L237.117 199.669L245.274 194.967L253.428 199.669L245.274 204.37Z" fill="#EDF2FC"/>
<path d="M255.201 210.097L247.047 205.392L255.201 200.691L263.358 205.392L255.201 210.097Z" fill="#EDF2FC"/>
<path d="M265.13 215.821L256.973 211.119L265.13 206.415L273.287 211.119L265.13 215.821Z" fill="#EDF2FC"/>
<path d="M275.06 221.544L266.903 216.843L275.06 212.141L283.214 216.843L275.06 221.544Z" fill="#EDF2FC"/>
<path d="M284.987 227.268L276.833 222.567L284.987 217.865L293.144 222.567L284.987 227.268Z" fill="#EDF2FC"/>
<path d="M300.087 235.975L286.75 228.284L294.907 223.582L308.244 231.27L300.087 235.975Z" fill="#EDF2FC"/>
<path d="M290.273 231.821L282.116 236.523L284.728 238.029L275.096 243.581L280.995 246.98L290.625 241.427L291.8 240.75L298.782 236.726L290.273 231.821Z" fill="#EDF2FC"/>
<path d="M240.714 246.932L232.829 242.385L236.901 240.038L244.786 244.584L240.714 246.932Z" fill="#EDF2FC"/>
<path d="M250.806 252.749L242.92 248.202L246.992 245.855L254.878 250.402L250.806 252.749Z" fill="#EDF2FC"/>
<path d="M255.727 249.911L247.838 245.365L251.91 243.017L259.799 247.564L255.727 249.911Z" fill="#EDF2FC"/>
<path d="M260.897 258.566L253.011 254.02L257.083 251.672L264.969 256.219L260.897 258.566Z" fill="#EDF2FC"/>
<path d="M170.624 253.317L128.851 229.235C128.144 228.829 128.235 228.116 129.048 227.645L158.357 210.748C159.174 210.278 160.407 210.226 161.114 210.636L202.887 234.717C203.595 235.123 203.504 235.836 202.69 236.307L173.382 253.204C172.565 253.675 171.332 253.726 170.624 253.317Z" fill="#EDF2FC"/>
<path d="M129.052 227.645L158.36 210.748C159.177 210.278 160.411 210.226 161.118 210.636L202.891 234.717C203.11 234.843 203.246 235.004 203.314 235.175C203.446 234.83 203.314 234.478 202.891 234.233L161.118 210.152C160.411 209.746 159.177 209.794 158.36 210.265L129.052 227.162C128.49 227.484 128.283 227.92 128.432 228.294C128.519 228.061 128.726 227.836 129.052 227.645Z" fill="#D3DCF5"/>
<path d="M218.113 292.802L60.0115 201.652C58.5519 200.81 57.8479 199.682 57.8544 198.501H57.8479V206.179H57.8544C57.8544 207.35 58.5583 208.469 60.0115 209.307L218.113 300.457C219.631 301.331 221.688 301.734 223.822 301.696V294.04C221.688 294.079 219.631 293.676 218.113 292.802Z" fill="#DEE6FF"/>
<path d="M367.929 98.3542C368.6 100.118 368.817 102.069 368.413 103.849L340.038 229.203L343.971 231.47L373.254 102.104C373.69 100.183 373.405 98.0575 372.601 96.1904L367.925 98.3542H367.929Z" fill="#BFCEFF"/>
<path d="M341.194 228.539L326.521 236.997C326.521 236.997 326.521 236.997 326.518 236.997L230.626 292.283C228.676 293.408 226.202 293.998 223.826 294.04V301.696C226.202 301.654 228.676 301.064 230.626 299.938L326.485 244.671C326.485 244.671 326.511 244.662 326.521 244.655L341.194 236.197C342.783 235.281 344.071 232.824 344.071 230.709C344.071 228.593 342.783 227.62 341.194 228.535V228.539Z" fill="#BFCEFF"/>
<g style="mix-blend-mode:multiply">
<path d="M341.194 235.401L326.521 243.859C326.521 243.859 326.495 243.868 326.485 243.875L230.626 299.142C228.676 300.267 226.202 300.857 223.826 300.899C221.691 300.938 219.634 300.535 218.116 299.661L60.0146 208.511C58.5615 207.672 57.8575 206.553 57.8575 205.379H57.8511V206.182H57.8575C57.8575 207.353 58.5615 208.472 60.0146 209.31L218.116 300.461C219.634 301.335 221.691 301.738 223.826 301.699C226.202 301.657 228.676 301.067 230.626 299.941L326.485 244.675C326.485 244.675 326.511 244.665 326.521 244.659L341.194 236.2C342.783 235.285 344.071 232.827 344.071 230.712C344.071 230.577 344.052 230.457 344.042 230.332C343.89 232.344 342.683 234.549 341.194 235.404V235.401Z" fill="#E8EDFA"/>
</g>
<g style="mix-blend-mode:multiply">
<path d="M342.354 233.128C343.207 231.652 343.208 230.057 342.355 229.565C341.502 229.074 340.12 229.872 339.266 231.348C338.413 232.824 338.412 234.419 339.265 234.91C340.117 235.402 341.5 234.604 342.354 233.128Z" fill="#E8EDFA"/>
</g>
<path opacity="0.5" d="M332.982 238.416L328.636 240.921C328.164 241.192 327.783 240.905 327.783 240.28C327.783 239.654 328.164 238.925 328.636 238.654L332.982 236.149C333.454 235.878 333.835 236.165 333.835 236.79C333.835 237.416 333.454 238.145 332.982 238.416Z" fill="#2A63C5"/>
<path opacity="0.5" d="M322.801 244.301L318.454 246.806C317.983 247.077 317.602 246.79 317.602 246.164C317.602 245.539 317.983 244.81 318.454 244.539L322.801 242.034C323.272 241.763 323.653 242.05 323.653 242.675C323.653 243.301 323.272 244.03 322.801 244.301Z" fill="#2A63C5"/>
<g opacity="0.7">
<g style="mix-blend-mode:multiply" opacity="0.3">
<path d="M133.24 307.332C139.063 307.332 143.783 304.611 143.783 301.254C143.783 297.897 139.063 295.176 133.24 295.176C127.417 295.176 122.697 297.897 122.697 301.254C122.697 304.611 127.417 307.332 133.24 307.332Z" fill="#DFE2F5"/>
</g>
</g>
<g style="mix-blend-mode:multiply">
<path d="M419.938 259.63C419.005 259.63 418.097 259.556 417.238 259.411C417.074 259.382 416.964 259.227 416.993 259.063C417.022 258.899 417.174 258.789 417.342 258.818C418.456 259.008 419.667 259.069 420.888 259.005C421.043 258.998 421.198 259.124 421.204 259.289C421.214 259.456 421.084 259.598 420.92 259.605C420.594 259.624 420.264 259.63 419.938 259.63ZM424.475 259.04C424.343 259.04 424.22 258.95 424.185 258.815C424.143 258.653 424.239 258.489 424.398 258.447C425.602 258.128 426.71 257.689 427.691 257.148C427.837 257.067 428.021 257.119 428.102 257.264C428.182 257.409 428.131 257.593 427.985 257.673C426.962 258.241 425.809 258.695 424.556 259.027C424.53 259.034 424.504 259.037 424.478 259.037L424.475 259.04ZM413.867 258.276C413.819 258.276 413.767 258.263 413.722 258.237L413.586 258.16L410.448 256.351C410.302 256.267 410.254 256.083 410.338 255.938C410.422 255.793 410.606 255.745 410.751 255.829L414.013 257.709C414.158 257.789 414.213 257.973 414.132 258.118C414.077 258.218 413.974 258.273 413.867 258.273V258.276ZM430.976 255.903C430.872 255.903 430.769 255.848 430.714 255.751C430.63 255.606 430.678 255.422 430.824 255.339L433.963 253.529C434.108 253.446 434.292 253.497 434.376 253.639C434.46 253.784 434.411 253.968 434.266 254.052L431.127 255.861C431.079 255.887 431.027 255.903 430.976 255.903ZM407.461 254.584C407.409 254.584 407.357 254.571 407.309 254.542L404.17 252.733C404.025 252.649 403.976 252.465 404.06 252.32C404.144 252.175 404.328 252.127 404.473 252.211L407.612 254.02C407.758 254.103 407.806 254.287 407.722 254.432C407.667 254.529 407.564 254.584 407.461 254.584ZM437.253 252.285C437.15 252.285 437.046 252.23 436.992 252.133C436.908 251.988 436.956 251.804 437.101 251.72L440.24 249.911C440.385 249.828 440.569 249.879 440.653 250.021C440.737 250.166 440.689 250.35 440.544 250.434L437.405 252.243C437.356 252.269 437.305 252.285 437.253 252.285ZM401.183 250.966C401.131 250.966 401.08 250.953 401.031 250.924L397.892 249.115C397.747 249.031 397.699 248.847 397.783 248.702C397.867 248.557 398.051 248.509 398.196 248.593L401.335 250.402C401.48 250.485 401.528 250.669 401.445 250.814C401.39 250.911 401.286 250.966 401.183 250.966ZM443.527 248.667C443.424 248.667 443.321 248.612 443.266 248.515C443.182 248.37 443.23 248.186 443.376 248.102L444.067 247.703C444.935 247.203 445.655 246.638 446.208 246.029C446.321 245.906 446.511 245.897 446.634 246.006C446.757 246.119 446.766 246.31 446.657 246.432C446.062 247.09 445.294 247.693 444.37 248.225L443.679 248.625C443.631 248.651 443.579 248.667 443.527 248.667ZM394.921 247.322C394.86 247.322 394.799 247.303 394.747 247.267C393.523 246.403 392.819 245.31 392.719 244.107C392.706 243.943 392.829 243.794 392.994 243.781C393.155 243.769 393.307 243.891 393.32 244.056C393.407 245.075 394.021 246.016 395.096 246.777C395.232 246.874 395.264 247.061 395.167 247.196C395.109 247.28 395.015 247.325 394.921 247.325V247.322ZM447.693 243.259C447.541 243.259 447.409 243.143 447.393 242.991C447.283 241.979 446.65 241.047 445.565 240.299C445.429 240.205 445.394 240.015 445.488 239.88C445.581 239.744 445.772 239.709 445.907 239.802C447.141 240.654 447.864 241.734 447.993 242.927C448.013 243.091 447.89 243.24 447.725 243.259C447.716 243.259 447.703 243.259 447.693 243.259ZM394.337 241.124C394.263 241.124 394.188 241.099 394.134 241.044C394.011 240.931 394.004 240.741 394.117 240.618C394.705 239.983 395.454 239.399 396.352 238.883L397.108 238.448C397.253 238.364 397.437 238.416 397.521 238.558C397.605 238.703 397.557 238.886 397.411 238.97L396.656 239.406C395.813 239.893 395.109 240.438 394.563 241.028C394.505 241.092 394.424 241.124 394.34 241.124H394.337ZM442.61 238.519C442.559 238.519 442.507 238.506 442.459 238.477L439.32 236.668C439.174 236.584 439.126 236.4 439.21 236.255C439.294 236.11 439.478 236.062 439.623 236.146L442.762 237.955C442.907 238.038 442.956 238.222 442.872 238.367C442.817 238.464 442.714 238.519 442.61 238.519ZM400.395 237.2C400.292 237.2 400.188 237.145 400.133 237.048C400.049 236.903 400.098 236.72 400.243 236.636L403.382 234.827C403.527 234.743 403.711 234.791 403.795 234.936C403.879 235.081 403.831 235.265 403.686 235.349L400.547 237.158C400.498 237.184 400.447 237.2 400.395 237.2ZM436.333 234.901C436.281 234.901 436.229 234.888 436.181 234.859L433.042 233.05C432.897 232.966 432.848 232.782 432.932 232.637C433.016 232.492 433.2 232.444 433.346 232.528L436.485 234.337C436.63 234.42 436.678 234.604 436.594 234.749C436.539 234.846 436.436 234.901 436.333 234.901ZM406.669 233.582C406.566 233.582 406.463 233.527 406.408 233.43C406.324 233.285 406.372 233.102 406.518 233.018L409.656 231.209C409.802 231.125 409.986 231.173 410.07 231.318C410.154 231.463 410.105 231.647 409.96 231.731L406.821 233.54C406.773 233.566 406.721 233.582 406.669 233.582ZM430.055 231.283C430.004 231.283 429.952 231.27 429.903 231.241L426.765 229.432C426.619 229.348 426.571 229.164 426.652 229.019C426.736 228.874 426.92 228.822 427.065 228.906L427.126 228.942L430.204 230.715C430.349 230.799 430.397 230.983 430.314 231.128C430.259 231.225 430.155 231.28 430.052 231.28L430.055 231.283ZM412.947 229.967C412.84 229.967 412.737 229.909 412.682 229.809C412.601 229.664 412.656 229.48 412.802 229.4C413.828 228.839 414.985 228.387 416.237 228.061C416.399 228.02 416.564 228.116 416.606 228.277C416.648 228.439 416.551 228.603 416.389 228.645C415.181 228.958 414.074 229.39 413.089 229.928C413.044 229.954 412.992 229.967 412.944 229.967H412.947ZM423.503 228.316C423.487 228.316 423.468 228.316 423.451 228.313C422.341 228.119 421.13 228.049 419.909 228.113C419.748 228.123 419.599 227.994 419.593 227.826C419.583 227.658 419.712 227.516 419.88 227.51C421.146 227.446 422.402 227.516 423.558 227.72C423.723 227.749 423.833 227.903 423.803 228.068C423.778 228.213 423.652 228.316 423.506 228.316H423.503Z" fill="#DFE2F5"/>
</g>
<g style="mix-blend-mode:multiply">
<path d="M406.876 214.241C406.269 214.241 405.675 214.196 405.11 214.112C404.945 214.086 404.832 213.931 404.858 213.767C404.884 213.602 405.039 213.493 405.203 213.515C406.308 213.683 407.535 213.676 408.723 213.499C408.888 213.473 409.043 213.589 409.066 213.754C409.091 213.918 408.975 214.073 408.81 214.096C408.168 214.192 407.519 214.241 406.876 214.241ZM402.439 213.222C402.388 213.222 402.336 213.209 402.287 213.18L399.149 211.371C399.003 211.287 398.955 211.103 399.039 210.958C399.123 210.813 399.307 210.765 399.452 210.848L402.591 212.657C402.736 212.741 402.785 212.925 402.701 213.07C402.646 213.167 402.543 213.222 402.439 213.222ZM412.214 213.038C412.104 213.038 411.998 212.977 411.943 212.874C411.869 212.725 411.927 212.545 412.075 212.467C412.22 212.393 412.363 212.319 412.501 212.238L415.204 210.681C415.35 210.597 415.534 210.645 415.618 210.79C415.702 210.936 415.653 211.119 415.508 211.203L412.805 212.761C412.656 212.848 412.505 212.928 412.35 213.006C412.304 213.028 412.259 213.038 412.214 213.038ZM396.162 209.604C396.11 209.604 396.058 209.591 396.01 209.562L392.871 207.753C392.726 207.669 392.677 207.485 392.761 207.34C392.845 207.195 393.029 207.147 393.175 207.23L396.313 209.039C396.459 209.123 396.507 209.307 396.423 209.452C396.368 209.549 396.265 209.604 396.162 209.604ZM418.498 209.433C418.395 209.433 418.291 209.378 418.236 209.281C418.153 209.136 418.201 208.952 418.346 208.869L421.485 207.06C421.63 206.976 421.814 207.024 421.898 207.169C421.982 207.314 421.934 207.498 421.789 207.582L418.65 209.391C418.601 209.417 418.55 209.433 418.498 209.433ZM389.887 205.986C389.836 205.986 389.784 205.973 389.736 205.944L389.222 205.647C388.079 204.986 387.417 204.103 387.317 203.093C387.301 202.929 387.42 202.78 387.588 202.764C387.753 202.748 387.901 202.868 387.918 203.035C387.998 203.845 388.554 204.57 389.522 205.128L390.036 205.425C390.181 205.508 390.23 205.692 390.146 205.837C390.091 205.934 389.987 205.989 389.884 205.989L389.887 205.986ZM424.763 205.795C424.666 205.795 424.572 205.75 424.514 205.663C424.42 205.525 424.456 205.338 424.595 205.244C425.741 204.464 426.4 203.525 426.455 202.6C426.464 202.432 426.607 202.306 426.774 202.316C426.942 202.326 427.068 202.468 427.059 202.635C426.994 203.751 426.242 204.857 424.937 205.744C424.885 205.779 424.827 205.795 424.766 205.795H424.763ZM389.296 200.336C389.206 200.336 389.116 200.294 389.057 200.217C388.957 200.085 388.983 199.894 389.116 199.794C389.371 199.601 389.655 199.411 389.958 199.237L392.254 197.915C392.4 197.831 392.584 197.882 392.668 198.024C392.752 198.169 392.703 198.353 392.558 198.437L390.262 199.759C389.981 199.92 389.719 200.094 389.484 200.275C389.429 200.317 389.364 200.336 389.3 200.336H389.296ZM424.801 200.114C424.75 200.114 424.698 200.101 424.65 200.072L421.511 198.263C421.366 198.179 421.317 197.995 421.401 197.85C421.485 197.705 421.669 197.657 421.814 197.74L424.953 199.549C425.099 199.633 425.147 199.817 425.063 199.962C425.008 200.059 424.905 200.114 424.801 200.114ZM395.542 196.667C395.438 196.667 395.335 196.612 395.28 196.515C395.196 196.37 395.245 196.186 395.39 196.102L398.529 194.293C398.674 194.209 398.858 194.261 398.942 194.403C399.026 194.548 398.978 194.732 398.832 194.816L395.693 196.625C395.645 196.65 395.593 196.667 395.542 196.667ZM418.524 196.496C418.472 196.496 418.421 196.483 418.372 196.454L415.233 194.645C415.088 194.561 415.04 194.377 415.124 194.232C415.207 194.087 415.392 194.039 415.537 194.122L418.676 195.931C418.821 196.015 418.869 196.199 418.785 196.344C418.731 196.441 418.627 196.496 418.524 196.496ZM401.819 193.049C401.713 193.049 401.609 192.994 401.554 192.894C401.474 192.749 401.525 192.565 401.671 192.484C402.678 191.923 403.892 191.504 405.174 191.275C405.339 191.246 405.494 191.356 405.526 191.517C405.555 191.681 405.446 191.836 405.281 191.868C404.064 192.088 402.917 192.481 401.965 193.013C401.919 193.039 401.868 193.052 401.816 193.052L401.819 193.049ZM412.25 192.874C412.198 192.874 412.146 192.862 412.098 192.833L411.775 192.645C410.98 192.188 409.954 191.875 408.804 191.743C408.639 191.723 408.52 191.575 408.539 191.407C408.559 191.243 408.704 191.123 408.875 191.143C410.105 191.285 411.213 191.626 412.078 192.123L412.401 192.31C412.547 192.394 412.595 192.578 412.511 192.723C412.456 192.82 412.353 192.874 412.25 192.874Z" fill="#DFE2F5"/>
</g>
<path d="M407.18 209.601L395.464 202.842V189.331L407.18 196.086V209.601Z" fill="#E8EDFA"/>
<path d="M407.18 196.086L395.464 189.331L407.18 182.575L418.898 189.331L407.18 196.086Z" fill="#F9FBFC"/>
<path d="M418.898 202.842L407.18 209.601V196.086L418.898 189.331V202.842Z" fill="url(#paint4_linear_308_372)"/>
<g style="mix-blend-mode:multiply">
<path d="M395.464 202.152V202.842L407.18 209.6L418.898 202.842V202.152L407.18 208.907L395.464 202.152Z" fill="#E8EDFA"/>
</g>
<path d="M420.571 253.713L402.255 243.153V222.031L420.571 232.592V253.713Z" fill="#E8EDFA"/>
<path d="M420.571 232.592L402.255 222.031L420.571 211.471L438.89 222.031L420.571 232.592Z" fill="#F9FBFC"/>
<path d="M438.89 243.153L420.571 253.713V232.592L438.89 222.031V243.153Z" fill="url(#paint5_linear_308_372)"/>
<g style="mix-blend-mode:multiply">
<path d="M402.255 242.073V243.153L420.571 253.713L438.89 243.153V242.073L420.571 252.633L402.255 242.073Z" fill="#E8EDFA"/>
</g>
<path d="M423.833 223.911C422.031 224.95 419.112 224.95 417.313 223.911C415.511 222.873 415.511 221.19 417.313 220.151C419.115 219.113 422.034 219.113 423.833 220.151C425.634 221.19 425.634 222.873 423.833 223.911Z" fill="url(#paint6_linear_308_372)"/>
<path d="M409.34 190.575C408.148 191.262 406.214 191.262 405.019 190.575C403.828 189.888 403.828 188.773 405.019 188.086C406.211 187.399 408.145 187.399 409.34 188.086C410.531 188.773 410.531 189.888 409.34 190.575Z" fill="url(#paint7_linear_308_372)"/>
<path d="M408.261 254.89C406.967 255.635 404.871 255.635 403.579 254.89C402.284 254.145 402.284 252.936 403.579 252.191C404.874 251.446 406.97 251.446 408.261 252.191C409.556 252.936 409.556 254.145 408.261 254.89Z" fill="#F4F6FF"/>
<path d="M405.92 255.735C405.026 255.735 404.135 255.535 403.437 255.132C402.72 254.719 402.326 254.152 402.326 253.539C402.326 252.927 402.72 252.359 403.437 251.946C404.829 251.143 407.008 251.143 408.404 251.946C409.12 252.359 409.514 252.927 409.514 253.539C409.514 254.152 409.12 254.719 408.404 255.132C407.706 255.532 406.815 255.735 405.92 255.735ZM405.92 251.908C405.123 251.908 404.325 252.082 403.718 252.433C403.182 252.743 402.888 253.136 402.888 253.539C402.888 253.942 403.182 254.339 403.718 254.645C404.932 255.345 406.908 255.345 408.119 254.645C408.655 254.336 408.949 253.942 408.949 253.539C408.949 253.136 408.655 252.74 408.119 252.433C407.512 252.082 406.715 251.908 405.917 251.908H405.92Z" fill="#DFE2F5"/>
<path d="M397.67 212.019C399.499 212.019 400.983 211.164 400.983 210.11C400.983 209.056 399.499 208.201 397.67 208.201C395.84 208.201 394.356 209.056 394.356 210.11C394.356 211.164 395.84 212.019 397.67 212.019Z" fill="#F3F6FF"/>
<path d="M397.67 212.296C396.772 212.296 395.871 212.1 395.186 211.703C394.469 211.29 394.075 210.723 394.075 210.11C394.075 209.497 394.469 208.93 395.186 208.517C396.555 207.727 398.784 207.727 400.153 208.517C400.87 208.93 401.264 209.497 401.264 210.11C401.264 210.723 400.87 211.29 400.153 211.703C399.468 212.096 398.57 212.296 397.67 212.296ZM397.67 208.478C396.872 208.478 396.074 208.653 395.467 209.004C394.931 209.314 394.637 209.707 394.637 210.11C394.637 210.516 394.931 210.91 395.467 211.216C396.681 211.916 398.658 211.916 399.869 211.216C400.405 210.907 400.699 210.513 400.699 210.11C400.699 209.707 400.405 209.31 399.869 209.004C399.262 208.656 398.464 208.478 397.666 208.478H397.67Z" fill="#DFE2F5"/>
<g style="mix-blend-mode:multiply">
<path d="M377.739 268.46C376.576 268.476 375.449 268.285 374.355 267.934C374.197 267.882 374.109 267.715 374.161 267.553C374.213 267.395 374.381 267.308 374.542 267.36C375.575 267.692 376.654 267.869 377.739 267.856C377.829 267.856 377.92 267.856 378.01 267.853C378.172 267.86 378.317 267.979 378.32 268.147C378.323 268.314 378.194 268.453 378.026 268.456C377.929 268.456 377.836 268.46 377.739 268.46ZM381.553 267.744C381.43 267.744 381.317 267.669 381.272 267.55C381.21 267.395 381.288 267.221 381.446 267.16C381.943 266.97 382.428 266.738 382.889 266.47L384.601 265.483C384.746 265.399 384.93 265.451 385.014 265.593C385.098 265.738 385.05 265.922 384.905 266.006L383.193 266.992C382.705 267.276 382.189 267.521 381.666 267.721C381.63 267.734 381.595 267.74 381.556 267.74L381.553 267.744ZM371.203 266.351C371.151 266.351 371.1 266.338 371.051 266.309L367.912 264.5C367.767 264.416 367.719 264.232 367.803 264.087C367.887 263.942 368.071 263.893 368.216 263.977L371.355 265.786C371.5 265.87 371.549 266.054 371.465 266.199C371.41 266.296 371.306 266.351 371.203 266.351ZM387.885 264.238C387.782 264.238 387.678 264.184 387.624 264.087C387.54 263.942 387.588 263.758 387.733 263.674L390.872 261.865C391.017 261.781 391.201 261.833 391.285 261.975C391.369 262.12 391.321 262.304 391.176 262.388L388.037 264.197C387.988 264.222 387.937 264.238 387.885 264.238ZM364.925 262.733C364.874 262.733 364.822 262.72 364.774 262.691L361.635 260.882C361.49 260.798 361.441 260.614 361.525 260.469C361.609 260.324 361.793 260.275 361.938 260.359L365.077 262.168C365.223 262.252 365.271 262.436 365.187 262.581C365.132 262.678 365.029 262.733 364.925 262.733ZM394.163 260.62C394.059 260.62 393.956 260.566 393.901 260.469C393.817 260.324 393.866 260.14 394.011 260.056L397.15 258.247C397.295 258.163 397.479 258.215 397.563 258.357C397.647 258.502 397.599 258.686 397.453 258.769L394.314 260.579C394.266 260.604 394.214 260.62 394.163 260.62ZM358.651 259.115C358.599 259.115 358.548 259.102 358.499 259.073L355.361 257.264C355.215 257.18 355.167 256.996 355.251 256.851C355.335 256.706 355.519 256.657 355.664 256.741L358.803 258.55C358.948 258.634 358.997 258.818 358.913 258.963C358.858 259.06 358.754 259.115 358.651 259.115ZM400.44 257.002C400.337 257.002 400.234 256.948 400.179 256.851C400.095 256.706 400.143 256.522 400.288 256.438L403.427 254.629C403.573 254.545 403.757 254.597 403.841 254.739C403.925 254.884 403.876 255.068 403.731 255.151L400.592 256.96C400.544 256.986 400.492 257.002 400.44 257.002ZM352.374 255.497C352.322 255.497 352.27 255.484 352.222 255.455L349.083 253.646C348.938 253.562 348.889 253.378 348.973 253.233C349.057 253.088 349.241 253.039 349.387 253.123L352.525 254.932C352.671 255.016 352.719 255.2 352.635 255.345C352.58 255.442 352.477 255.497 352.374 255.497ZM346.096 251.878C346.044 251.878 345.993 251.866 345.944 251.837L342.805 250.028C342.66 249.944 342.612 249.76 342.696 249.615C342.78 249.47 342.964 249.421 343.109 249.505L346.248 251.314C346.393 251.398 346.442 251.582 346.358 251.727C346.303 251.824 346.199 251.878 346.096 251.878ZM339.818 248.26C339.767 248.26 339.715 248.248 339.667 248.219L336.528 246.41C336.383 246.326 336.334 246.142 336.418 245.997C336.502 245.852 336.686 245.803 336.831 245.887L339.97 247.696C340.116 247.78 340.164 247.964 340.08 248.109C340.025 248.206 339.922 248.26 339.818 248.26ZM333.541 244.642C333.489 244.642 333.438 244.63 333.389 244.601L330.25 242.791C330.105 242.708 330.057 242.524 330.141 242.379C330.224 242.234 330.409 242.185 330.554 242.269L333.693 244.078C333.838 244.162 333.886 244.346 333.802 244.491C333.748 244.588 333.644 244.642 333.541 244.642Z" fill="#DFE2F5"/>
</g>
<g style="mix-blend-mode:multiply">
<path d="M341.85 242.24C341.714 242.24 341.591 242.147 341.556 242.008C341.517 241.847 341.617 241.682 341.779 241.644C342.447 241.482 343.086 241.228 343.684 240.886L344.966 240.147C345.111 240.064 345.295 240.112 345.379 240.257C345.463 240.402 345.415 240.586 345.269 240.67L343.987 241.408C343.342 241.779 342.647 242.056 341.924 242.23C341.901 242.237 341.875 242.24 341.853 242.24H341.85ZM338.262 242.214C338.236 242.214 338.214 242.214 338.188 242.205C337.461 242.021 336.77 241.731 336.124 241.347L334.865 240.596C334.723 240.512 334.674 240.325 334.762 240.183C334.846 240.041 335.033 239.993 335.175 240.08L336.438 240.831C337.032 241.186 337.671 241.45 338.34 241.621C338.501 241.663 338.598 241.827 338.556 241.989C338.52 242.124 338.398 242.214 338.262 242.214ZM348.253 238.899C348.15 238.899 348.046 238.845 347.992 238.748C347.908 238.603 347.956 238.419 348.101 238.335L351.24 236.526C351.385 236.442 351.57 236.494 351.654 236.636C351.737 236.781 351.689 236.965 351.544 237.048L348.405 238.858C348.357 238.883 348.305 238.899 348.253 238.899ZM354.531 235.281C354.427 235.281 354.324 235.227 354.269 235.13C354.185 234.985 354.234 234.801 354.379 234.717L357.518 232.908C357.663 232.824 357.847 232.876 357.931 233.018C358.015 233.163 357.967 233.347 357.821 233.43L354.682 235.239C354.634 235.265 354.582 235.281 354.531 235.281ZM360.808 231.663C360.705 231.663 360.602 231.609 360.547 231.512C360.463 231.367 360.511 231.183 360.657 231.099L363.795 229.29C363.941 229.206 364.125 229.255 364.209 229.4C364.293 229.545 364.244 229.729 364.099 229.812L360.96 231.621C360.912 231.65 360.86 231.663 360.808 231.663ZM367.086 228.045C366.983 228.045 366.879 227.991 366.824 227.894C366.74 227.749 366.789 227.565 366.934 227.481L370.073 225.672C370.218 225.588 370.402 225.637 370.486 225.782C370.57 225.927 370.522 226.111 370.376 226.194L367.238 228.003C367.189 228.029 367.138 228.045 367.086 228.045ZM373.363 224.427C373.26 224.427 373.157 224.373 373.102 224.276C373.018 224.131 373.066 223.947 373.212 223.863L376.35 222.054C376.496 221.97 376.68 222.019 376.764 222.164C376.848 222.309 376.799 222.493 376.654 222.576L373.515 224.385C373.467 224.411 373.415 224.427 373.363 224.427ZM379.641 220.809C379.538 220.809 379.434 220.754 379.379 220.658C379.295 220.513 379.344 220.329 379.489 220.245L382.628 218.436C382.773 218.352 382.957 218.401 383.041 218.546C383.125 218.691 383.077 218.875 382.932 218.958L379.793 220.767C379.744 220.793 379.693 220.809 379.641 220.809ZM385.919 217.191C385.815 217.191 385.712 217.136 385.657 217.04C385.573 216.895 385.621 216.711 385.767 216.627L388.906 214.818C389.051 214.734 389.235 214.786 389.319 214.928C389.403 215.073 389.354 215.256 389.209 215.34L386.07 217.149C386.022 217.178 385.97 217.191 385.919 217.191ZM392.196 213.573C392.093 213.573 391.989 213.518 391.935 213.422C391.851 213.277 391.899 213.093 392.044 213.009L395.183 211.2C395.328 211.116 395.513 211.168 395.597 211.31C395.68 211.455 395.632 211.638 395.487 211.722L392.348 213.531C392.299 213.557 392.248 213.573 392.196 213.573Z" fill="#DFE2F5"/>
</g>
<path d="M368.975 91.9178L210.883 0.770605C209.539 -0.00330481 208.183 -0.17421 206.995 0.164376L206.959 0.174049C206.791 0.222419 206.627 0.283687 206.469 0.351404L202.238 1.88632C203.407 1.57998 204.734 1.75734 206.046 2.51513L364.138 93.6591C365.833 94.6361 367.157 96.371 367.909 98.3477L372.585 96.1839C371.81 94.3846 370.554 92.8207 368.978 91.9146L368.975 91.9178Z" fill="white"/>
<g opacity="0.85">
<path d="M231.295 69.1391C231.104 69.1391 230.907 69.0907 230.73 68.9875L199.374 50.9103C198.835 50.5975 198.648 49.9074 198.961 49.3689C199.274 48.8304 199.965 48.6434 200.504 48.9561L231.86 67.0334C232.399 67.3462 232.586 68.0362 232.273 68.5747C232.063 68.9359 231.682 69.1391 231.295 69.1391Z" fill="white"/>
</g>
<g opacity="0.85">
<path d="M244.376 85.4073C244.186 85.4073 243.989 85.359 243.811 85.2558L197.672 58.6559C197.133 58.3431 196.946 57.653 197.259 57.1145C197.572 56.576 198.263 56.389 198.802 56.7018L244.941 83.3017C245.481 83.6144 245.668 84.3045 245.355 84.843C245.145 85.2042 244.764 85.4073 244.376 85.4073Z" fill="white"/>
</g>
<g style="mix-blend-mode:multiply" opacity="0.3">
<path d="M218.084 280.755C229.371 280.755 238.522 275.48 238.522 268.972C238.522 262.465 229.371 257.189 218.084 257.189C206.797 257.189 197.646 262.465 197.646 268.972C197.646 275.48 206.797 280.755 218.084 280.755Z" fill="#DFE2F5"/>
</g>
<path d="M218.084 268.024C229.372 268.024 238.522 262.749 238.522 256.241C238.522 249.734 229.372 244.459 218.084 244.459C206.797 244.459 197.647 249.734 197.647 256.241C197.647 262.749 206.797 268.024 218.084 268.024Z" fill="white"/>
<path d="M218.087 245.226C223.412 245.226 228.408 246.416 232.154 248.573C235.767 250.656 237.756 253.378 237.756 256.241C237.756 259.105 235.767 261.826 232.154 263.91C228.408 266.07 223.412 267.257 218.087 267.257C212.762 267.257 207.764 266.067 204.021 263.91C200.407 261.826 198.418 259.105 198.418 256.241C198.418 253.378 200.407 250.656 204.021 248.573C207.767 246.413 212.762 245.226 218.087 245.226ZM218.087 244.459C212.856 244.459 207.625 245.61 203.637 247.909C195.654 252.511 195.654 259.972 203.637 264.574C207.628 266.876 212.856 268.024 218.087 268.024C223.319 268.024 228.55 266.873 232.538 264.574C240.521 259.972 240.521 252.511 232.538 247.909C228.547 245.607 223.319 244.459 218.087 244.459Z" fill="#F85D78"/>
<path d="M212.346 260.543L210.476 261.62L208.994 260.765L210.844 259.698C209.73 258.924 209.149 258.15 209.104 257.37C209.055 256.59 209.556 255.841 210.602 255.122L212.365 256.138C211.7 256.622 211.361 257.089 211.348 257.551C211.335 258.008 211.622 258.463 212.204 258.915L217.093 256.096L216.934 255.98C215.94 255.177 215.407 254.442 215.339 253.775C215.271 253.107 215.746 252.478 216.767 251.891C217.816 251.288 219.008 250.998 220.341 251.024C221.675 251.05 222.98 251.366 224.252 251.969L225.996 250.963L227.478 251.817L225.757 252.81C226.751 253.513 227.284 254.236 227.355 254.971C227.426 255.706 226.955 256.435 225.941 257.157L224.178 256.141C225.405 255.297 225.485 254.445 224.42 253.584L219.763 256.267L220.135 256.554C221.142 257.347 221.669 258.092 221.71 258.786C221.752 259.479 221.249 260.127 220.199 260.733C219.108 261.362 217.874 261.655 216.499 261.614C215.123 261.572 213.738 261.214 212.346 260.543ZM218.304 259.763C218.985 259.369 219.318 258.966 219.305 258.55C219.292 258.134 218.962 257.651 218.32 257.099L213.663 259.782C214.516 260.175 215.333 260.369 216.111 260.359C216.893 260.353 217.622 260.153 218.3 259.759L218.304 259.763ZM218.536 255.264L222.915 252.739C222.15 252.414 221.404 252.265 220.674 252.291C219.944 252.317 219.272 252.51 218.665 252.859C218.071 253.201 217.764 253.568 217.751 253.962C217.739 254.352 218 254.787 218.539 255.261L218.536 255.264Z" fill="#3E89E2"/>
<path d="M232.535 264.574C224.552 269.175 211.613 269.175 203.63 264.574C199.639 262.271 197.643 259.256 197.643 256.241V261.227C197.643 264.242 199.639 267.257 203.63 269.559C211.613 274.161 224.552 274.161 232.535 269.559C236.526 267.257 238.522 264.242 238.522 261.227V256.241C238.522 259.256 236.526 262.271 232.535 264.574Z" fill="url(#paint8_linear_308_372)"/>
<g style="mix-blend-mode:multiply">
<path d="M232.535 268.111C224.552 272.713 211.613 272.713 203.63 268.111C199.639 265.809 197.643 262.794 197.643 259.779V261.227C197.643 264.242 199.639 267.257 203.63 269.559C211.613 274.161 224.552 274.161 232.535 269.559C236.526 267.257 238.522 264.242 238.522 261.227V259.779C238.522 262.794 236.526 265.809 232.535 268.111Z" fill="#E8EDFA"/>
</g>
<g style="mix-blend-mode:multiply" opacity="0.3">
<path d="M219.621 273.454C230.909 273.454 240.059 268.179 240.059 261.672C240.059 255.164 230.909 249.889 219.621 249.889C208.334 249.889 199.184 255.164 199.184 261.672C199.184 268.179 208.334 273.454 219.621 273.454Z" fill="#DFE2F5"/>
</g>
<path d="M219.621 260.724C230.909 260.724 240.059 255.448 240.059 248.941C240.059 242.433 230.909 237.158 219.621 237.158C208.334 237.158 199.184 242.433 199.184 248.941C199.184 255.448 208.334 260.724 219.621 260.724Z" fill="white"/>
<path d="M219.625 237.926C224.95 237.926 229.945 239.115 233.691 241.273C237.305 243.356 239.294 246.077 239.294 248.941C239.294 251.804 237.305 254.526 233.691 256.609C229.945 258.77 224.95 259.956 219.625 259.956C214.3 259.956 209.301 258.766 205.558 256.609C201.945 254.526 199.956 251.804 199.956 248.941C199.956 246.077 201.945 243.356 205.558 241.273C209.304 239.112 214.3 237.926 219.625 237.926ZM219.625 237.158C214.393 237.158 209.162 238.309 205.174 240.608C197.191 245.21 197.191 252.672 205.174 257.273C209.165 259.576 214.393 260.724 219.625 260.724C224.856 260.724 230.087 259.572 234.075 257.273C242.058 252.672 242.058 245.21 234.075 240.608C230.084 238.306 224.856 237.158 219.625 237.158Z" fill="#F85D78"/>
<path d="M213.886 253.243L212.016 254.32L210.534 253.465L212.385 252.398C211.27 251.624 210.689 250.85 210.644 250.069C210.596 249.289 211.096 248.541 212.142 247.822L213.905 248.838C213.24 249.321 212.901 249.789 212.888 250.25C212.875 250.708 213.163 251.163 213.744 251.614L218.633 248.796L218.475 248.68C217.48 247.877 216.947 247.142 216.88 246.474C216.812 245.807 217.286 245.178 218.307 244.588C219.356 243.985 220.548 243.694 221.882 243.72C223.215 243.746 224.52 244.062 225.792 244.665L227.536 243.659L229.018 244.513L227.297 245.507C228.292 246.21 228.824 246.932 228.895 247.667C228.966 248.402 228.495 249.131 227.481 249.853L225.718 248.838C226.945 247.993 227.026 247.142 225.96 246.281L221.307 248.963L221.678 249.25C222.689 250.044 223.212 250.789 223.254 251.482C223.296 252.175 222.792 252.823 221.743 253.43C220.651 254.058 219.418 254.352 218.042 254.31C216.666 254.268 215.281 253.91 213.889 253.239L213.886 253.243ZM219.844 252.462C220.525 252.069 220.858 251.666 220.845 251.25C220.832 250.834 220.503 250.35 219.86 249.799L215.204 252.481C216.056 252.875 216.873 253.068 217.651 253.059C218.433 253.052 219.163 252.852 219.841 252.459L219.844 252.462ZM220.076 247.964L224.455 245.439C223.69 245.113 222.944 244.965 222.214 244.991C221.484 245.02 220.813 245.207 220.206 245.558C219.611 245.9 219.305 246.268 219.292 246.661C219.279 247.051 219.54 247.487 220.08 247.961L220.076 247.964Z" fill="#F85D78"/>
<path d="M234.075 257.273C226.093 261.875 213.153 261.875 205.171 257.273C201.179 254.971 199.184 251.956 199.184 248.941V253.926C199.184 256.941 201.179 259.956 205.171 262.258C213.153 266.86 226.093 266.86 234.075 262.258C238.066 259.956 240.062 256.941 240.062 253.926V248.941C240.062 251.956 238.066 254.971 234.075 257.273Z" fill="url(#paint9_linear_308_372)"/>
<g style="mix-blend-mode:multiply">
<path d="M234.075 260.811C226.093 265.412 213.153 265.412 205.171 260.811C201.179 258.508 199.184 255.493 199.184 252.478V253.926C199.184 256.941 201.179 259.956 205.171 262.259C213.153 266.86 226.093 266.86 234.075 262.259C238.066 259.956 240.062 256.941 240.062 253.926V252.478C240.062 255.493 238.066 258.508 234.075 260.811Z" fill="#E8EDFA"/>
</g>
<g style="mix-blend-mode:multiply" opacity="0.3">
<path d="M264.614 368.997C275.901 368.997 285.051 363.722 285.051 357.214C285.051 350.707 275.901 345.431 264.614 345.431C253.326 345.431 244.176 350.707 244.176 357.214C244.176 363.722 253.326 368.997 264.614 368.997Z" fill="#DFE2F5"/>
</g>
<path d="M264.614 356.266C275.901 356.266 285.051 350.991 285.051 344.483C285.051 337.976 275.901 332.7 264.614 332.7C253.326 332.7 244.176 337.976 244.176 344.483C244.176 350.991 253.326 356.266 264.614 356.266Z" fill="white"/>
<path d="M264.617 333.468C269.942 333.468 274.938 334.658 278.683 336.815C282.297 338.898 284.286 341.62 284.286 344.483C284.286 347.343 282.297 350.068 278.683 352.151C274.938 354.312 269.942 355.499 264.617 355.499C259.292 355.499 254.293 354.309 250.551 352.151C246.937 350.068 244.948 347.347 244.948 344.483C244.948 341.62 246.937 338.898 250.551 336.815C254.297 334.655 259.292 333.468 264.617 333.468ZM264.617 332.7C259.386 332.7 254.154 333.852 250.166 336.151C242.184 340.752 242.184 348.214 250.166 352.816C254.158 355.118 259.386 356.266 264.617 356.266C269.848 356.266 275.08 355.115 279.068 352.816C287.05 348.214 287.05 340.752 279.068 336.151C275.076 333.848 269.848 332.7 264.617 332.7Z" fill="#F85D78"/>
<path d="M262.741 348.291L261.701 347.692L260.167 348.575L258.956 347.876L260.49 346.992L258.959 346.108L257.425 346.992L256.234 346.305L257.768 345.422L256.663 344.783C255.346 344.022 254.694 343.171 254.703 342.223C254.716 341.278 255.549 340.327 257.203 339.372C258.565 338.585 259.951 338.137 261.352 338.021C262.757 337.905 264.032 338.121 265.185 338.666L263.522 339.624C262.731 339.343 261.93 339.243 261.123 339.317C260.316 339.392 259.466 339.685 258.578 340.194C257.471 340.833 256.967 341.452 257.064 342.049C257.161 342.645 257.642 343.193 258.507 343.693L259.634 344.341L264.927 341.291L265.834 342.139L260.823 345.028L262.353 345.912L267.006 343.229L267.962 344.074L263.564 346.608L264.649 347.234C265.599 347.782 266.603 348.079 267.662 348.13C268.721 348.182 269.806 347.888 270.914 347.247C272.551 346.302 272.864 345.364 271.854 344.425L273.617 343.406C274.56 344.087 274.908 344.844 274.66 345.673C274.411 346.502 273.623 347.302 272.293 348.069C270.607 349.043 268.938 349.52 267.294 349.507C265.647 349.491 264.133 349.085 262.741 348.282V348.291Z" fill="#F85D78"/>
<path d="M279.068 352.816C271.085 357.417 258.146 357.417 250.163 352.816C246.172 350.513 244.176 347.498 244.176 344.483V349.469C244.176 352.484 246.172 355.499 250.163 357.801C258.146 362.402 271.085 362.402 279.068 357.801C283.059 355.499 285.054 352.484 285.054 349.469V344.483C285.054 347.498 283.059 350.513 279.068 352.816Z" fill="url(#paint10_linear_308_372)"/>
<g style="mix-blend-mode:multiply">
<path d="M279.068 356.353C271.085 360.955 258.146 360.955 250.163 356.353C246.172 354.051 244.176 351.036 244.176 348.021V349.468C244.176 352.484 246.172 355.499 250.163 357.801C258.146 362.402 271.085 362.402 279.068 357.801C283.059 355.499 285.054 352.484 285.054 349.468V348.021C285.054 351.036 283.059 354.051 279.068 356.353Z" fill="#E8EDFA"/>
</g>
<g style="mix-blend-mode:multiply">
<path d="M249.085 58.5237L169.213 126.425C159.804 134.425 161.16 149.319 171.865 155.488L285.975 221.277C299.689 229.184 316.168 216.704 312.245 201.384L278.005 67.6945C274.728 54.8992 259.156 49.9591 249.085 58.5204V58.5237Z" fill="#C6D4FA"/>
</g>
<path d="M215.927 77.2588L138.106 143.418C128.936 151.212 130.26 165.726 140.69 171.737L251.871 235.836C265.234 243.54 281.289 231.383 277.466 216.456L244.105 86.1974C240.911 73.731 225.741 68.9167 215.927 77.2588Z" fill="white"/>
<path d="M227.161 77.6973C229.939 77.6973 232.696 78.6067 234.921 80.2609C237.266 82.0022 238.896 84.4497 239.636 87.3357L272.997 217.594C274.004 221.522 273.22 225.408 270.791 228.532C268.314 231.715 264.497 233.618 260.577 233.618C258.362 233.618 256.208 233.024 254.174 231.85L142.992 167.751C139.337 165.642 137.021 162.028 136.637 157.829C136.253 153.631 137.877 149.658 141.094 146.924L218.914 80.764C221.271 78.7582 224.126 77.7006 227.161 77.7006V77.6973ZM227.161 73.0926C223.251 73.0926 219.276 74.4082 215.927 77.2556L138.106 143.415C128.936 151.209 130.26 165.723 140.69 171.734L251.871 235.833C254.723 237.477 257.703 238.216 260.58 238.216C271.185 238.216 280.472 228.19 277.466 216.45L244.105 86.191C242.003 77.9811 234.705 73.0894 227.161 73.0894V73.0926ZM211.803 172.263C207.906 170.015 204.018 171.418 203.117 175.39C202.216 179.366 204.647 184.41 208.545 186.657C212.443 188.905 216.331 187.502 217.232 183.529C218.133 179.554 215.701 174.51 211.803 172.263ZM225.921 108.95C216.395 103.459 213.357 116.88 212.142 122.246C210.928 127.611 207.618 163.537 212.879 166.571C218.139 169.606 229.981 138.598 231.195 133.232C232.409 127.866 235.448 114.445 225.921 108.954V108.95Z" fill="url(#paint11_linear_308_372)"/>
<path d="M268.74 236.149L268.847 236.088C268.812 236.107 268.776 236.126 268.74 236.146V236.149Z" fill="#ACBCF5"/>
<path d="M288.494 210.207L255.133 79.9481C254.383 77.0233 252.969 74.5242 251.125 72.5121L240.165 78.8323C241.977 80.8316 243.365 83.3049 244.105 86.1974L277.466 216.456C279.581 224.711 275.615 232.115 269.386 235.784L279.959 229.796C280.072 229.735 280.182 229.671 280.291 229.609L280.414 229.538C286.643 225.869 290.609 218.462 288.494 210.207Z" fill="#ACBCF5"/>
<path d="M230.261 68.7877V68.778L230.077 68.8812C229.871 68.9908 229.67 69.1069 229.467 69.2262L218.995 75.1531H219.001C226.16 71.2932 234.94 73.0667 240.165 78.8291L251.125 72.5089C245.949 66.8658 237.349 65.1019 230.265 68.7844L230.261 68.7877Z" fill="white"/>
<path d="M382.98 356.808L316.836 318.673C314.095 317.093 314.437 314.33 317.605 312.505L356.394 290.142C359.562 288.317 364.351 288.117 367.092 289.7L433.236 327.834C435.978 329.414 435.635 332.178 432.467 334.003L393.678 356.366C390.51 358.191 385.722 358.391 382.98 356.808Z" fill="#E2E4F6"/>
<path d="M382.98 354.399L316.836 316.264C314.095 314.684 314.437 311.921 317.605 310.096L356.394 287.733C359.562 285.908 364.351 285.708 367.092 287.291L433.236 325.426C435.978 327.006 435.635 329.769 432.467 331.594L393.678 353.957C390.51 355.782 385.722 355.982 382.98 354.399Z" fill="white"/>
<path d="M399.594 333.016L398.438 332.349C398.835 330.824 400.037 329.356 402.068 328.183C404.102 327.012 406.647 326.319 409.292 326.09L410.448 326.757C410.05 328.283 408.849 329.75 406.818 330.924C404.784 332.094 402.239 332.787 399.594 333.016ZM408.846 330.314C408.426 330.65 407.955 330.972 407.432 331.275C406.905 331.578 406.347 331.849 405.762 332.091L409.673 334.345L412.756 332.568L408.846 330.314ZM405.032 332.375C403.573 332.904 401.977 333.255 400.334 333.442L402.284 334.567C404.141 335.638 407.105 335.68 409.053 334.693L405.035 332.378L405.032 332.375ZM413.357 332.21C415.065 331.088 414.998 329.379 413.141 328.308L411.19 327.183C410.871 328.131 410.254 329.05 409.34 329.892L413.357 332.207V332.21ZM399.552 329.215L395.535 326.899C393.827 328.021 393.895 329.731 395.752 330.801L397.702 331.927C398.022 330.978 398.638 330.059 399.552 329.218V329.215ZM403.857 326.732C405.316 326.203 406.912 325.848 408.555 325.664L406.605 324.539C404.748 323.468 401.784 323.426 399.836 324.413L403.854 326.728L403.857 326.732ZM399.216 324.761L396.133 326.538L400.043 328.792C400.463 328.457 400.934 328.134 401.461 327.831C401.987 327.528 402.546 327.257 403.13 327.015L399.22 324.761H399.216ZM379.024 311.837C379.525 311.547 379.525 311.079 379.024 310.792L358.57 299C358.07 298.71 357.259 298.71 356.759 299C356.258 299.29 356.258 299.758 356.759 300.045L377.213 311.837C377.713 312.127 378.524 312.127 379.024 311.837ZM363.346 309.386C363.847 309.096 363.847 308.629 363.346 308.342L352.858 302.295C352.357 302.005 351.547 302.005 351.046 302.295C350.546 302.586 350.546 303.053 351.046 303.34L361.535 309.386C362.035 309.677 362.846 309.677 363.346 309.386ZM379.312 318.593C379.812 318.302 379.812 317.835 379.312 317.548L369.45 311.863C368.949 311.573 368.139 311.573 367.638 311.863C367.138 312.153 367.138 312.621 367.638 312.908L377.5 318.593C378.001 318.883 378.811 318.883 379.312 318.593ZM344.372 320.015C345.457 319.389 345.457 318.377 344.372 317.751L335.214 312.469C334.129 311.844 332.369 311.844 331.284 312.469C330.199 313.095 330.199 314.107 331.284 314.733L340.442 320.015C341.527 320.64 343.287 320.64 344.372 320.015ZM359.41 328.686C360.495 328.06 360.495 327.048 359.41 326.422L350.252 321.143C349.167 320.518 347.407 320.518 346.322 321.143C345.237 321.769 345.237 322.781 346.322 323.407L355.48 328.689C356.565 329.315 358.325 329.315 359.41 328.689V328.686ZM374.448 337.357C375.533 336.731 375.533 335.719 374.448 335.093L365.29 329.814C364.205 329.189 362.446 329.189 361.361 329.814C360.276 330.44 360.276 331.452 361.361 332.078L370.519 337.357C371.604 337.982 373.363 337.982 374.448 337.357ZM389.487 346.028C390.572 345.402 390.572 344.39 389.487 343.764L380.329 338.485C379.244 337.86 377.484 337.86 376.399 338.485C375.314 339.111 375.314 340.123 376.399 340.749L385.557 346.028C386.642 346.653 388.402 346.653 389.487 346.028Z" fill="url(#paint12_linear_308_372)"/>
<g style="mix-blend-mode:multiply">
<path d="M62.3591 164.881C62.1912 164.872 62.0653 164.73 62.075 164.565C62.0846 164.398 62.2364 164.272 62.3914 164.282C63.6121 164.349 64.823 164.285 65.9371 164.095C66.1018 164.069 66.2568 164.178 66.2858 164.34C66.3149 164.504 66.2019 164.659 66.0404 164.688C65.1815 164.833 64.274 164.907 63.3408 164.907C63.0179 164.907 62.6853 164.897 62.3591 164.881ZM58.7231 164.311C57.4701 163.978 56.3141 163.521 55.2936 162.956C55.1483 162.876 55.0967 162.692 55.1774 162.547C55.2581 162.402 55.4422 162.347 55.5875 162.431C56.5659 162.972 57.6736 163.411 58.8813 163.73C59.0427 163.772 59.1396 163.937 59.0944 164.098C59.0589 164.233 58.9362 164.323 58.8038 164.323C58.7779 164.323 58.7521 164.32 58.7263 164.314L58.7231 164.311ZM69.1437 163.401C69.063 163.256 69.1179 163.072 69.2632 162.992L72.5247 161.112C72.67 161.028 72.854 161.076 72.938 161.221C73.022 161.366 72.9735 161.55 72.8282 161.634L69.6894 163.443L69.5538 163.521C69.5086 163.546 69.4569 163.559 69.4085 163.559C69.3019 163.559 69.1986 163.504 69.1437 163.404V163.401ZM52.1484 161.144L49.0096 159.335C48.8643 159.251 48.8159 159.067 48.8998 158.922C48.9838 158.777 49.1678 158.729 49.3132 158.813L52.4519 160.622C52.5973 160.705 52.6457 160.889 52.5617 161.034C52.5068 161.131 52.4035 161.186 52.3002 161.186C52.2485 161.186 52.1968 161.173 52.1484 161.144ZM75.5536 159.715C75.4697 159.57 75.5181 159.387 75.6634 159.303L78.8022 157.494C78.9475 157.41 79.1316 157.458 79.2156 157.603C79.2995 157.748 79.2511 157.932 79.1058 158.016L75.967 159.825C75.9185 159.851 75.8669 159.867 75.8152 159.867C75.7119 159.867 75.6085 159.812 75.5536 159.715ZM45.8741 157.526L42.7353 155.717C42.59 155.633 42.5415 155.449 42.6255 155.304C42.7094 155.159 42.8935 155.111 43.0388 155.195L46.1776 157.004C46.3229 157.087 46.3714 157.271 46.2874 157.416C46.2325 157.513 46.1292 157.568 46.0258 157.568C45.9742 157.568 45.9225 157.555 45.8741 157.526ZM81.8312 156.097C81.7473 155.952 81.7957 155.769 81.941 155.685L85.0798 153.876C85.2251 153.792 85.4092 153.84 85.4931 153.985C85.5771 154.13 85.5287 154.314 85.3833 154.398L82.2446 156.207C82.1961 156.233 82.1445 156.249 82.0928 156.249C81.9895 156.249 81.8861 156.194 81.8312 156.097ZM39.5965 153.908L38.9054 153.508C37.9819 152.976 37.2133 152.373 36.6192 151.715C36.5061 151.593 36.5158 151.402 36.6418 151.29C36.7645 151.177 36.955 151.186 37.068 151.312C37.6202 151.922 38.3403 152.486 39.209 152.986L39.9 153.386C40.0453 153.469 40.0938 153.653 40.0098 153.798C39.9549 153.895 39.8516 153.95 39.7483 153.95C39.6966 153.95 39.6449 153.937 39.5965 153.908ZM88.1056 152.476C88.0087 152.341 88.041 152.151 88.1766 152.057C89.2519 151.299 89.8655 150.358 89.9527 149.335C89.9656 149.171 90.1174 149.048 90.2788 149.061C90.4435 149.074 90.5694 149.223 90.5533 149.387C90.45 150.59 89.7492 151.683 88.5254 152.547C88.4737 152.586 88.4123 152.602 88.351 152.602C88.2573 152.602 88.1637 152.557 88.1056 152.473V152.476ZM35.5471 148.539C35.3824 148.52 35.2629 148.371 35.279 148.207C35.4082 147.014 36.1283 145.933 37.3651 145.082C37.504 144.985 37.6913 145.021 37.7849 145.16C37.8786 145.295 37.8463 145.485 37.7074 145.579C36.6224 146.327 35.9895 147.259 35.8797 148.271C35.8635 148.426 35.7311 148.539 35.5794 148.539C35.5697 148.539 35.5568 148.539 35.5471 148.539ZM88.7159 146.311C88.1701 145.721 87.4662 145.176 86.6234 144.689L85.8677 144.253C85.7224 144.17 85.674 143.986 85.7579 143.841C85.8419 143.696 86.026 143.647 86.1713 143.731L86.9269 144.166C87.8246 144.682 88.5738 145.266 89.1615 145.901C89.2745 146.024 89.2681 146.214 89.1454 146.327C89.0872 146.382 89.013 146.407 88.9419 146.407C88.8612 146.407 88.7805 146.375 88.7191 146.311H88.7159ZM40.4006 143.654C40.3166 143.509 40.365 143.325 40.5104 143.241L43.6491 141.432C43.7945 141.348 43.9785 141.4 44.0625 141.541C44.1464 141.687 44.098 141.87 43.9527 141.954L40.8139 143.763C40.7655 143.789 40.7138 143.805 40.6621 143.805C40.5588 143.805 40.4555 143.75 40.4006 143.654ZM82.7257 142.444L79.5869 140.635C79.4416 140.552 79.3932 140.368 79.4771 140.223C79.5611 140.078 79.7452 140.029 79.8905 140.113L83.0293 141.922C83.1746 142.006 83.223 142.19 83.139 142.335C83.0841 142.431 82.9808 142.486 82.8775 142.486C82.8258 142.486 82.7741 142.473 82.7257 142.444ZM46.6749 140.036C46.5909 139.89 46.6394 139.707 46.7847 139.623L49.9235 137.814C50.0688 137.73 50.2529 137.782 50.3368 137.923C50.4208 138.069 50.3723 138.252 50.227 138.336L47.0882 140.145C47.0398 140.171 46.9881 140.187 46.9365 140.187C46.8331 140.187 46.7298 140.132 46.6749 140.036ZM76.4481 138.826L73.3094 137.017C73.164 136.934 73.1156 136.75 73.1996 136.605C73.2835 136.459 73.4676 136.411 73.6129 136.495L76.7517 138.304C76.897 138.388 76.9454 138.572 76.8615 138.717C76.8066 138.813 76.7032 138.868 76.5999 138.868C76.5482 138.868 76.4966 138.855 76.4481 138.826ZM52.9525 136.418C52.8685 136.272 52.9169 136.089 53.0623 136.005L56.1397 134.231L56.201 134.196C56.3464 134.112 56.5304 134.164 56.6144 134.309C56.6983 134.454 56.6467 134.638 56.5014 134.721L53.3626 136.53C53.3141 136.556 53.2625 136.572 53.2108 136.572C53.1075 136.572 53.0041 136.518 52.9492 136.421L52.9525 136.418ZM70.177 135.215C69.1954 134.676 68.0845 134.244 66.8768 133.931C66.7153 133.889 66.6184 133.725 66.6604 133.564C66.7024 133.403 66.8671 133.306 67.0286 133.348C68.2815 133.673 69.4408 134.125 70.4644 134.686C70.6097 134.767 70.6646 134.95 70.5839 135.095C70.529 135.195 70.4257 135.253 70.3191 135.253C70.2707 135.253 70.219 135.241 70.1738 135.215H70.177ZM59.469 133.351C59.4399 133.187 59.5497 133.032 59.7144 133.003C60.8705 132.8 62.1266 132.729 63.3925 132.793C63.5604 132.803 63.6863 132.941 63.6799 133.109C63.6702 133.277 63.5249 133.406 63.3634 133.396C62.1428 133.335 60.9318 133.403 59.821 133.596C59.8048 133.596 59.7855 133.599 59.7693 133.599C59.624 133.599 59.4981 133.496 59.4722 133.351H59.469Z" fill="#DFE2F5"/>
</g>
<g style="mix-blend-mode:multiply">
<path d="M74.4654 119.372C74.3007 119.346 74.1877 119.195 74.2103 119.03C74.2362 118.866 74.3912 118.75 74.5526 118.776C75.741 118.953 76.9713 118.959 78.0724 118.792C78.2371 118.769 78.3921 118.879 78.418 119.043C78.4438 119.208 78.3308 119.363 78.1661 119.388C77.601 119.475 77.0068 119.517 76.3997 119.517C75.7571 119.517 75.108 119.469 74.4654 119.372ZM80.5751 118.347C80.4911 118.202 80.5396 118.018 80.6849 117.934L83.8236 116.125C83.969 116.041 84.153 116.093 84.237 116.235C84.3209 116.38 84.2725 116.564 84.1272 116.647L80.9884 118.456C80.94 118.485 80.8883 118.498 80.8366 118.498C80.7333 118.498 80.63 118.444 80.5751 118.347ZM70.9262 118.279C70.7712 118.202 70.6194 118.118 70.4709 118.034L67.7681 116.476C67.6227 116.393 67.5743 116.209 67.6583 116.064C67.7422 115.919 67.9263 115.87 68.0716 115.954L70.7744 117.512C70.9133 117.592 71.0554 117.67 71.2007 117.741C71.3492 117.815 71.4106 117.999 71.3331 118.147C71.2782 118.253 71.1749 118.311 71.0618 118.311C71.0166 118.311 70.9682 118.302 70.9262 118.279ZM86.8526 114.726C86.7687 114.58 86.8171 114.397 86.9624 114.313L90.1012 112.504C90.2465 112.42 90.4306 112.472 90.5146 112.613C90.5985 112.759 90.5501 112.942 90.4048 113.026L87.266 114.835C87.2175 114.861 87.1659 114.877 87.1142 114.877C87.0109 114.877 86.9075 114.822 86.8526 114.726ZM64.6293 114.664L61.4905 112.855C61.3452 112.771 61.2967 112.588 61.3807 112.442C61.4647 112.297 61.6487 112.249 61.794 112.333L64.9328 114.142C65.0781 114.226 65.1266 114.41 65.0426 114.555C64.9877 114.651 64.8844 114.706 64.7811 114.706C64.7294 114.706 64.6777 114.693 64.6293 114.664ZM93.1302 111.108C93.0462 110.962 93.0947 110.779 93.24 110.695L93.7534 110.398C94.7222 109.84 95.2776 109.115 95.3584 108.305C95.3745 108.141 95.5231 108.018 95.6877 108.034C95.8524 108.051 95.9751 108.199 95.959 108.363C95.8589 109.373 95.1969 110.256 94.0538 110.917L93.5403 111.214C93.4919 111.24 93.4402 111.256 93.3885 111.256C93.2852 111.256 93.1819 111.201 93.127 111.104L93.1302 111.108ZM58.3453 111.014C57.0407 110.127 56.2883 109.024 56.2237 107.905C56.214 107.738 56.3399 107.596 56.5078 107.586C56.6725 107.577 56.8178 107.702 56.8275 107.87C56.8824 108.795 57.5412 109.734 58.6876 110.514C58.8264 110.608 58.8619 110.795 58.7683 110.933C58.7102 111.02 58.6165 111.066 58.5196 111.066C58.4615 111.066 58.4034 111.049 58.3485 111.014H58.3453ZM93.7987 105.545C93.5629 105.364 93.3014 105.194 93.0204 105.029L90.7245 103.707C90.5791 103.623 90.5307 103.439 90.6147 103.294C90.6986 103.149 90.8827 103.101 91.028 103.185L93.324 104.507C93.6275 104.681 93.9117 104.868 94.1668 105.065C94.2992 105.165 94.325 105.355 94.2249 105.487C94.1668 105.564 94.0764 105.606 93.9859 105.606C93.9214 105.606 93.8568 105.587 93.8019 105.545H93.7987ZM58.2161 105.235C58.1321 105.09 58.1806 104.907 58.3259 104.823L61.4647 103.014C61.61 102.93 61.794 102.981 61.878 103.123C61.962 103.268 61.9135 103.452 61.7682 103.536L58.6294 105.345C58.581 105.371 58.5293 105.387 58.4776 105.387C58.3743 105.387 58.271 105.332 58.2161 105.235ZM87.5857 101.898L84.4469 100.089C84.3016 100.005 84.2531 99.8213 84.3371 99.6762C84.4211 99.5311 84.6051 99.4827 84.7504 99.5666L87.8892 101.376C88.0345 101.459 88.083 101.643 87.999 101.788C87.9441 101.885 87.8408 101.94 87.7374 101.94C87.6858 101.94 87.6341 101.927 87.5857 101.898ZM64.4904 101.614C64.4065 101.469 64.4549 101.285 64.6002 101.201L67.739 99.3925C67.8843 99.3086 68.0684 99.3602 68.1523 99.5021C68.2363 99.6472 68.1879 99.831 68.0425 99.9148L64.9038 101.724C64.8553 101.75 64.8037 101.766 64.752 101.766C64.6487 101.766 64.5453 101.711 64.4904 101.614ZM81.3113 98.28C80.3619 97.7511 79.2156 97.3545 77.9949 97.1352C77.8303 97.1062 77.7205 96.9482 77.7495 96.7837C77.7786 96.6193 77.9368 96.5096 78.1015 96.5419C79.3835 96.7708 80.5977 97.19 81.6052 97.7511C81.7505 97.8317 81.8022 98.0155 81.7214 98.1606C81.6665 98.2606 81.5632 98.3154 81.4566 98.3154C81.4082 98.3154 81.3565 98.3025 81.3081 98.2767L81.3113 98.28ZM70.768 97.9962C70.684 97.8511 70.7325 97.6673 70.8778 97.5834L71.2007 97.3964C72.0661 96.8966 73.1737 96.558 74.4041 96.4161C74.5752 96.3968 74.7205 96.5161 74.7399 96.6805C74.7593 96.845 74.6398 96.9965 74.4751 97.0159C73.3255 97.1481 72.2986 97.4609 71.5042 97.9188L71.1813 98.1058C71.1329 98.1316 71.0812 98.1477 71.0296 98.1477C70.9262 98.1477 70.8229 98.0929 70.768 97.9962Z" fill="#DFE2F5"/>
</g>
<path d="M76.0962 114.877L87.8117 108.118V94.6072L76.0962 101.363V114.877Z" fill="#E8EDFA"/>
<path d="M76.0962 101.363L87.8118 94.6072L76.0962 87.8516L64.3774 94.6072L76.0962 101.363Z" fill="#F9FBFC"/>
<path d="M64.3774 108.118L76.0962 114.877V101.363L64.3774 94.6072V108.118Z" fill="url(#paint13_linear_308_372)"/>
<g style="mix-blend-mode:multiply">
<path d="M87.8118 107.428V108.118L76.0962 114.877L64.3774 108.118V107.428L76.0962 114.184L87.8118 107.428Z" fill="#E8EDFA"/>
</g>
<path d="M62.7048 158.99L81.0209 148.429V127.308L62.7048 137.869V158.99Z" fill="#E8EDFA"/>
<path d="M62.7049 137.869L81.021 127.308L62.7049 116.747L44.3889 127.308L62.7049 137.869Z" fill="#F9FBFC"/>
<path d="M44.3887 148.429L62.7047 158.99V137.869L44.3887 127.308V148.429Z" fill="url(#paint14_linear_308_372)"/>
<g style="mix-blend-mode:multiply">
<path d="M81.0208 147.349V148.429L62.7048 158.99L44.3855 148.429V147.349L62.7048 157.91L81.0208 147.349Z" fill="#E8EDFA"/>
</g>
<path d="M59.4432 129.188C61.2451 130.226 64.1643 130.226 65.963 129.188C67.7649 128.15 67.7649 126.466 65.963 125.428C64.1611 124.39 61.2419 124.39 59.4432 125.428C57.6413 126.466 57.6413 128.15 59.4432 129.188Z" fill="url(#paint15_linear_308_372)"/>
<path d="M73.9359 95.8518C75.1275 96.5387 77.0618 96.5387 78.2566 95.8518C79.4482 95.165 79.4482 94.0493 78.2566 93.3624C77.065 92.6756 75.1307 92.6756 73.9359 93.3624C72.7443 94.0493 72.7443 95.165 73.9359 95.8518Z" fill="url(#paint16_linear_308_372)"/>
<path d="M75.0144 160.167C76.3093 160.912 78.4051 160.912 79.6967 160.167C80.9916 159.422 80.9916 158.213 79.6967 157.468C78.4018 156.723 76.3061 156.723 75.0144 157.468C73.7195 158.213 73.7195 159.422 75.0144 160.167Z" fill="#F4F6FF"/>
<path d="M74.8723 160.409C74.1554 159.996 73.7615 159.429 73.7615 158.816C73.7615 158.203 74.1554 157.636 74.8723 157.223C76.2641 156.42 78.4438 156.42 79.8388 157.223C80.5557 157.636 80.9497 158.203 80.9497 158.816C80.9497 159.429 80.5557 159.996 79.8388 160.409C79.1413 160.809 78.2501 161.012 77.3556 161.012C76.4611 161.012 75.5698 160.812 74.8723 160.409ZM75.1533 157.71C74.6172 158.019 74.3234 158.413 74.3234 158.816C74.3234 159.222 74.6172 159.616 75.1533 159.922C76.3674 160.622 78.3405 160.622 79.5547 159.922C80.0907 159.612 80.3846 159.219 80.3846 158.816C80.3846 158.41 80.0907 158.016 79.5547 157.71C78.9476 157.358 78.15 157.184 77.3523 157.184C76.5547 157.184 75.7571 157.358 75.15 157.71H75.1533Z" fill="#DFE2F5"/>
<path d="M85.6064 117.296C87.4362 117.296 88.9195 116.441 88.9195 115.387C88.9195 114.332 87.4362 113.478 85.6064 113.478C83.7766 113.478 82.2932 114.332 82.2932 115.387C82.2932 116.441 83.7766 117.296 85.6064 117.296Z" fill="#F3F6FF"/>
<path d="M83.1262 116.98C82.4093 116.567 82.0154 115.999 82.0154 115.387C82.0154 114.774 82.4093 114.206 83.1262 113.794C84.4954 113.004 86.7236 113.004 88.0927 113.794C88.8096 114.206 89.2036 114.774 89.2036 115.387C89.2036 115.999 88.8096 116.567 88.0927 116.98C87.4081 117.373 86.5104 117.57 85.6095 117.57C84.7118 117.57 83.8108 117.373 83.1262 116.976V116.98ZM83.4072 114.281C82.8711 114.59 82.5773 114.984 82.5773 115.387C82.5773 115.793 82.8711 116.186 83.4072 116.493C84.6214 117.192 86.5944 117.192 87.8086 116.493C88.3446 116.183 88.6385 115.79 88.6385 115.387C88.6385 114.98 88.3446 114.587 87.8086 114.281C87.2015 113.929 86.4039 113.755 85.6063 113.755C84.8086 113.755 84.011 113.929 83.4039 114.281H83.4072Z" fill="#DFE2F5"/>
<g style="mix-blend-mode:multiply">
<path d="M105.249 173.73C105.081 173.726 104.952 173.588 104.956 173.42C104.959 173.252 105.104 173.136 105.266 173.127C105.356 173.127 105.446 173.13 105.537 173.13C106.622 173.14 107.7 172.965 108.734 172.633C108.895 172.582 109.063 172.669 109.115 172.827C109.166 172.985 109.079 173.156 108.921 173.207C107.826 173.559 106.696 173.749 105.537 173.733C105.443 173.733 105.346 173.733 105.249 173.73ZM101.613 172.998C101.087 172.795 100.574 172.549 100.086 172.269L98.3745 171.282C98.2291 171.198 98.1807 171.015 98.2647 170.869C98.3486 170.724 98.5327 170.676 98.678 170.76L100.389 171.747C100.851 172.014 101.336 172.246 101.833 172.437C101.988 172.498 102.065 172.672 102.007 172.827C101.962 172.946 101.846 173.02 101.726 173.02C101.691 173.02 101.652 173.014 101.617 173.001L101.613 172.998ZM111.808 171.476C111.724 171.331 111.772 171.147 111.918 171.063L115.056 169.254C115.202 169.17 115.386 169.222 115.47 169.364C115.554 169.509 115.505 169.692 115.36 169.776L112.221 171.585C112.173 171.611 112.121 171.627 112.069 171.627C111.966 171.627 111.863 171.572 111.808 171.476ZM95.2357 169.473L92.0969 167.664C91.9516 167.58 91.9031 167.397 91.9871 167.251C92.071 167.106 92.2551 167.058 92.4004 167.142L95.5392 168.951C95.6845 169.035 95.733 169.218 95.649 169.364C95.5941 169.46 95.4908 169.515 95.3874 169.515C95.3358 169.515 95.2841 169.502 95.2357 169.473ZM118.085 167.858C118.002 167.713 118.05 167.529 118.195 167.445L121.334 165.636C121.479 165.552 121.663 165.604 121.747 165.746C121.831 165.891 121.783 166.074 121.638 166.158L118.499 167.967C118.45 167.993 118.399 168.009 118.347 168.009C118.244 168.009 118.14 167.954 118.085 167.858ZM88.9613 165.855L85.8225 164.046C85.6772 163.962 85.6288 163.779 85.7127 163.633C85.7967 163.488 85.9808 163.44 86.1261 163.524L89.2649 165.333C89.4102 165.417 89.4586 165.6 89.3747 165.746C89.3198 165.842 89.2164 165.897 89.1131 165.897C89.0614 165.897 89.0098 165.884 88.9613 165.855ZM124.363 164.24C124.279 164.095 124.328 163.911 124.473 163.827L127.612 162.018C127.757 161.934 127.941 161.986 128.025 162.127C128.109 162.273 128.06 162.456 127.915 162.54L124.776 164.349C124.728 164.378 124.676 164.391 124.625 164.391C124.521 164.391 124.418 164.336 124.363 164.24ZM82.6838 162.237L79.545 160.428C79.3997 160.344 79.3512 160.16 79.4352 160.015C79.5191 159.87 79.7032 159.822 79.8485 159.906L82.9873 161.715C83.1326 161.799 83.1811 161.982 83.0971 162.127C83.0422 162.224 82.9389 162.279 82.8355 162.279C82.7839 162.279 82.7322 162.266 82.6838 162.237ZM130.637 160.622C130.553 160.476 130.602 160.293 130.747 160.209L133.886 158.4C134.031 158.316 134.215 158.368 134.299 158.509C134.383 158.655 134.335 158.838 134.19 158.922L131.051 160.731C131.002 160.757 130.951 160.773 130.899 160.773C130.796 160.773 130.692 160.718 130.637 160.622ZM136.915 157.004C136.831 156.858 136.879 156.675 137.025 156.591L140.164 154.782C140.309 154.698 140.493 154.75 140.577 154.891C140.661 155.037 140.612 155.22 140.467 155.304L137.328 157.113C137.28 157.139 137.228 157.155 137.177 157.155C137.073 157.155 136.97 157.1 136.915 157.004ZM143.193 153.386C143.109 153.24 143.157 153.057 143.302 152.973L146.441 151.164C146.586 151.08 146.77 151.132 146.854 151.273C146.938 151.419 146.89 151.602 146.745 151.686L143.606 153.495C143.557 153.521 143.506 153.537 143.454 153.537C143.351 153.537 143.247 153.482 143.193 153.386ZM149.47 149.768C149.386 149.622 149.435 149.439 149.58 149.355L152.719 147.546C152.864 147.462 153.048 147.514 153.132 147.655C153.216 147.8 153.168 147.984 153.022 148.068L149.883 149.877C149.835 149.903 149.783 149.919 149.732 149.919C149.628 149.919 149.525 149.864 149.47 149.768Z" fill="#DFE2F5"/>
</g>
<g style="mix-blend-mode:multiply">
<path d="M141.355 147.51C140.632 147.336 139.934 147.059 139.292 146.688L138.01 145.95C137.864 145.866 137.816 145.682 137.9 145.537C137.984 145.392 138.168 145.343 138.313 145.427L139.595 146.166C140.189 146.507 140.832 146.765 141.5 146.923C141.662 146.962 141.762 147.127 141.723 147.288C141.691 147.426 141.565 147.52 141.429 147.52C141.407 147.52 141.381 147.52 141.358 147.51H141.355ZM144.72 147.268C144.678 147.107 144.775 146.943 144.936 146.901C145.605 146.73 146.244 146.466 146.838 146.111L148.101 145.359C148.246 145.272 148.43 145.321 148.514 145.463C148.598 145.605 148.553 145.792 148.411 145.875L147.152 146.627C146.509 147.01 145.815 147.301 145.088 147.484C145.062 147.491 145.036 147.494 145.014 147.494C144.878 147.494 144.755 147.404 144.72 147.268ZM134.871 144.141L131.732 142.332C131.587 142.248 131.538 142.064 131.622 141.919C131.706 141.774 131.89 141.725 132.036 141.809L135.174 143.618C135.32 143.702 135.368 143.886 135.284 144.031C135.229 144.128 135.126 144.182 135.023 144.182C134.971 144.182 134.919 144.17 134.871 144.141ZM128.593 140.523L125.455 138.714C125.309 138.63 125.261 138.446 125.345 138.301C125.429 138.156 125.613 138.107 125.758 138.191L128.897 140C129.042 140.084 129.091 140.268 129.007 140.413C128.952 140.51 128.848 140.564 128.745 140.564C128.693 140.564 128.642 140.552 128.593 140.523ZM122.316 136.905L119.177 135.096C119.032 135.012 118.983 134.828 119.067 134.683C119.151 134.538 119.335 134.489 119.481 134.573L122.619 136.382C122.765 136.466 122.813 136.65 122.729 136.795C122.674 136.892 122.571 136.946 122.468 136.946C122.416 136.946 122.364 136.934 122.316 136.905ZM116.038 133.286L112.899 131.477C112.754 131.394 112.706 131.21 112.79 131.065C112.874 130.92 113.058 130.871 113.203 130.955L116.342 132.764C116.487 132.848 116.535 133.032 116.452 133.177C116.397 133.274 116.293 133.328 116.19 133.328C116.138 133.328 116.087 133.316 116.038 133.286ZM109.761 129.668L106.622 127.859C106.477 127.776 106.428 127.592 106.512 127.447C106.596 127.302 106.78 127.253 106.925 127.337L110.064 129.146C110.209 129.23 110.258 129.414 110.174 129.559C110.119 129.656 110.016 129.71 109.912 129.71C109.861 129.71 109.809 129.697 109.761 129.668ZM103.483 126.05L100.344 124.241C100.199 124.158 100.151 123.974 100.234 123.829C100.318 123.684 100.502 123.635 100.648 123.719L103.787 125.528C103.932 125.612 103.98 125.796 103.896 125.941C103.841 126.038 103.738 126.092 103.635 126.092C103.583 126.092 103.531 126.079 103.483 126.05ZM97.2055 122.432L94.0667 120.623C93.9214 120.54 93.8729 120.356 93.9569 120.211C94.0409 120.066 94.2249 120.017 94.3702 120.101L97.509 121.91C97.6543 121.994 97.7028 122.178 97.6188 122.323C97.5639 122.42 97.4606 122.474 97.3572 122.474C97.3056 122.474 97.2539 122.461 97.2055 122.432ZM90.9279 118.814L87.7891 117.005C87.6438 116.922 87.5954 116.738 87.6793 116.593C87.7633 116.448 87.9474 116.399 88.0927 116.483L91.2314 118.292C91.3768 118.376 91.4252 118.56 91.3412 118.705C91.2863 118.801 91.183 118.856 91.0797 118.856C91.028 118.856 90.9763 118.843 90.9279 118.814Z" fill="#DFE2F5"/>
</g>
</g>
<defs>
<linearGradient id="paint0_linear_308_372" x1="8.25711" y1="246.11" x2="26.9219" y2="246.11" gradientUnits="userSpaceOnUse">
<stop stop-color="#FFC8A7"/>
<stop offset="1" stop-color="#F6406B"/>
</linearGradient>
<linearGradient id="paint1_linear_308_372" x1="80.6912" y1="330.298" x2="104.716" y2="330.298" gradientUnits="userSpaceOnUse">
<stop stop-color="#FFC8A7"/>
<stop offset="1" stop-color="#F6406B"/>
</linearGradient>
<linearGradient id="paint2_linear_308_372" x1="195.88" y1="166.329" x2="345.033" y2="65.0988" gradientUnits="userSpaceOnUse">
<stop stop-color="#427CE8"/>
<stop offset="0.52" stop-color="#2B64C7"/>
<stop offset="1" stop-color="#1951AD"/>
</linearGradient>
<linearGradient id="paint3_linear_308_372" x1="324.06" y1="84.4142" x2="243.45" y2="131.822" gradientUnits="userSpaceOnUse">
<stop stop-color="white"/>
<stop offset="1" stop-color="#8F8F8F"/>
</linearGradient>
<linearGradient id="paint4_linear_308_372" x1="733.253" y1="14.8592" x2="744.963" y2="8.08921" gradientUnits="userSpaceOnUse">
<stop stop-color="#DDDEF5"/>
<stop offset="0.12" stop-color="#DEDFF6"/>
<stop offset="0.99" stop-color="#E2E5F8"/>
<stop offset="1" stop-color="#DAE3F1"/>
</linearGradient>
<linearGradient id="paint5_linear_308_372" x1="767.473" y1="43.1596" x2="785.775" y2="32.5781" gradientUnits="userSpaceOnUse">
<stop stop-color="#DDDEF5"/>
<stop offset="0.12" stop-color="#DEDFF6"/>
<stop offset="0.99" stop-color="#E2E5F8"/>
<stop offset="1" stop-color="#DAE3F1"/>
</linearGradient>
<linearGradient id="paint6_linear_308_372" x1="849.032" y1="469.005" x2="855.549" y2="472.773" gradientUnits="userSpaceOnUse">
<stop stop-color="#FFC8A7"/>
<stop offset="1" stop-color="#F6406B"/>
</linearGradient>
<linearGradient id="paint7_linear_308_372" x1="825.912" y1="430.694" x2="830.23" y2="433.19" gradientUnits="userSpaceOnUse">
<stop stop-color="#FFC8A7"/>
<stop offset="1" stop-color="#F6406B"/>
</linearGradient>
<linearGradient id="paint8_linear_308_372" x1="205.745" y1="269.504" x2="230.871" y2="251.822" gradientUnits="userSpaceOnUse">
<stop stop-color="#DEE6FF"/>
<stop offset="0.25" stop-color="#EBF0FF"/>
<stop offset="0.48" stop-color="#F0F4FF"/>
<stop offset="0.58" stop-color="#ECF1FF"/>
<stop offset="0.67" stop-color="#E0E8FF"/>
<stop offset="0.76" stop-color="#CDD9FF"/>
<stop offset="0.81" stop-color="#BFCEFF"/>
</linearGradient>
<linearGradient id="paint9_linear_308_372" x1="207.282" y1="262.204" x2="232.408" y2="244.522" gradientUnits="userSpaceOnUse">
<stop stop-color="#DEE6FF"/>
<stop offset="0.25" stop-color="#EBF0FF"/>
<stop offset="0.48" stop-color="#F0F4FF"/>
<stop offset="0.58" stop-color="#ECF1FF"/>
<stop offset="0.67" stop-color="#E0E8FF"/>
<stop offset="0.76" stop-color="#CDD9FF"/>
<stop offset="0.81" stop-color="#BFCEFF"/>
</linearGradient>
<linearGradient id="paint10_linear_308_372" x1="252.275" y1="357.746" x2="277.4" y2="340.064" gradientUnits="userSpaceOnUse">
<stop stop-color="#DEE6FF"/>
<stop offset="0.25" stop-color="#EBF0FF"/>
<stop offset="0.48" stop-color="#F0F4FF"/>
<stop offset="0.58" stop-color="#ECF1FF"/>
<stop offset="0.67" stop-color="#E0E8FF"/>
<stop offset="0.76" stop-color="#CDD9FF"/>
<stop offset="0.81" stop-color="#BFCEFF"/>
</linearGradient>
<linearGradient id="paint11_linear_308_372" x1="131.974" y1="155.659" x2="278.037" y2="155.659" gradientUnits="userSpaceOnUse">
<stop stop-color="#FFC8A7"/>
<stop offset="1" stop-color="#F6406B"/>
</linearGradient>
<linearGradient id="paint12_linear_308_372" x1="469.019" y1="357.998" x2="301.974" y2="296.712" gradientUnits="userSpaceOnUse">
<stop stop-color="#F6406B"/>
<stop offset="1" stop-color="#FFC8A7"/>
</linearGradient>
<linearGradient id="paint13_linear_308_372" x1="-127.667" y1="-9.3516" x2="-139.376" y2="-16.1216" gradientUnits="userSpaceOnUse">
<stop stop-color="#DDDEF5"/>
<stop offset="0.12" stop-color="#DEDFF6"/>
<stop offset="0.99" stop-color="#E2E5F8"/>
<stop offset="1" stop-color="#DAE3F1"/>
</linearGradient>
<linearGradient id="paint14_linear_308_372" x1="-161.883" y1="18.9505" x2="-180.188" y2="8.36734" gradientUnits="userSpaceOnUse">
<stop stop-color="#DDDEF5"/>
<stop offset="0.12" stop-color="#DEDFF6"/>
<stop offset="0.99" stop-color="#E2E5F8"/>
<stop offset="1" stop-color="#DAE3F1"/>
</linearGradient>
<linearGradient id="paint15_linear_308_372" x1="-405.904" y1="397.426" x2="-412.421" y2="401.194" gradientUnits="userSpaceOnUse">
<stop stop-color="#FFC8A7"/>
<stop offset="1" stop-color="#F6406B"/>
</linearGradient>
<linearGradient id="paint16_linear_308_372" x1="-382.781" y1="359.118" x2="-387.096" y2="361.612" gradientUnits="userSpaceOnUse">
<stop stop-color="#FFC8A7"/>
<stop offset="1" stop-color="#F6406B"/>
</linearGradient>
<clipPath id="clip0_308_372">
<rect width="448" height="369" fill="white"/>
</clipPath>
</defs>
</svg>
