<svg xmlns="http://www.w3.org/2000/svg" width="56" height="56" viewBox="0 0 56 56">
  <g id="Group_78121" data-name="Group 78121" transform="translate(-278 -2282)">
    <rect id="Rectangle_27886" data-name="Rectangle 27886" width="56" height="56" rx="6" transform="translate(278 2282)" fill="#ff6d24" opacity="0.08"/>
    <g id="Group_78120" data-name="Group 78120" transform="translate(0 322)">
      <path id="Path_124317" data-name="Path 124317" d="M171.99,41.668a.914.914,0,0,0-.311-.671.932.932,0,0,0-.727-.205c-.075,0-7.59,1.044-12.88-4.27a.951.951,0,0,0-1.318,0c-5.29,5.315-12.805,4.283-12.88,4.27a.957.957,0,0,0-.727.2.939.939,0,0,0-.342.678c-.336,6.719-.4,16.162,2.9,20.706,3.4,4.662,10.138,8.081,11.251,8.454a1.58,1.58,0,0,0,.92,0c1.113-.348,7.851-3.792,11.251-8.454,3.27-4.531,3.176-13.986,2.865-20.706Zm-4.407,19.606c-2.847,3.91-8.808,7.217-10.2,7.739-1.393-.5-7.353-3.823-10.2-7.739s-2.853-12.2-2.592-18.543a17.983,17.983,0,0,0,12.792-4.264,17.961,17.961,0,0,0,12.792,4.264c.261,6.34.218,14.689-2.592,18.543Z" transform="translate(148.348 1934.744)" fill="#ff6d24" stroke="#ff6d24" stroke-width="1"/>
      <path id="Path_124318" data-name="Path 124318" d="M162.8,49.414a.927.927,0,0,1,.062,1.312l-6.328,6.949a.958.958,0,0,1-.678.3.933.933,0,0,1-.665-.286l-3.263-3.332a.934.934,0,0,1,1.336-1.305l2.567,2.629L161.5,49.47h0a.933.933,0,0,1,1.305-.056Z" transform="translate(148.348 1934.744)" fill="#1e5bfa" stroke="#1e5bfa" stroke-width="1"/>
    </g>
  </g>
</svg>
