<svg xmlns="http://www.w3.org/2000/svg" xmlns:xlink="http://www.w3.org/1999/xlink" width="594" height="440" viewBox="0 0 594 440">
  <defs>
    <filter id="Rectangle_620" x="0" y="0" width="594" height="440" filterUnits="userSpaceOnUse">
      <feOffset input="SourceAlpha"/>
      <feGaussianBlur stdDeviation="7" result="blur"/>
      <feFlood flood-color="#091d50" flood-opacity="0.078"/>
      <feComposite operator="in" in2="blur"/>
      <feComposite in="SourceGraphic"/>
    </filter>
    <filter id="Rectangle_622" x="12" y="14" width="570" height="69" filterUnits="userSpaceOnUse">
      <feOffset dy="3" input="SourceAlpha"/>
      <feGaussianBlur stdDeviation="3" result="blur-2"/>
      <feFlood flood-opacity="0.09"/>
      <feComposite operator="in" in2="blur-2"/>
      <feComposite in="SourceGraphic"/>
    </filter>
    <filter id="Rectangle_703" x="26" y="75" width="543" height="339" filterUnits="userSpaceOnUse">
      <feOffset input="SourceAlpha"/>
      <feGaussianBlur stdDeviation="6" result="blur-3"/>
      <feFlood flood-color="#081e33" flood-opacity="0.18"/>
      <feComposite operator="in" in2="blur-3"/>
      <feComposite in="SourceGraphic"/>
    </filter>
  </defs>
  <g id="Real-Time_Notifications" data-name="Real-Time Notifications" transform="translate(-0.692 -78)">
    <g id="Group_75638" data-name="Group 75638" transform="translate(21.692 98)">
      <g transform="matrix(1, 0, 0, 1, -21, -20)" filter="url(#Rectangle_620)">
        <rect id="Rectangle_620-2" data-name="Rectangle 620" width="552" height="398" rx="8" transform="translate(21 21)" fill="#fff"/>
      </g>
      <g transform="matrix(1, 0, 0, 1, -21, -20)" filter="url(#Rectangle_622)">
        <path id="Rectangle_622-2" data-name="Rectangle 622" d="M2,0H541a11,11,0,0,1,11,11V51a0,0,0,0,1,0,0H0a0,0,0,0,1,0,0V2A2,2,0,0,1,2,0Z" transform="translate(21 20)" fill="#f9f9f9"/>
      </g>
      <g id="Group_4085" data-name="Group 4085" transform="translate(15.959 9.388)">
        <g id="Group_3664" data-name="Group 3664" transform="translate(0 0)">
          <g id="Group_3649" data-name="Group 3649" transform="translate(0)">
            <g id="Group_3646" data-name="Group 3646" transform="translate(0 0.939)">
              <rect id="Rectangle_623" data-name="Rectangle 623" width="31" height="31" rx="4" transform="translate(0.041 -0.327)"/>
            </g>
            <g id="Group_3648" data-name="Group 3648" transform="translate(39.429 0)">
              <text id="Alerts" transform="translate(-0.388 11.612)" fill="#293846" font-size="11" font-family="SegoeUI-Semibold, Segoe UI" font-weight="600"><tspan x="0" y="0">Alerts</tspan></text>
              <g id="Group_3647" data-name="Group 3647" transform="translate(0 15.02)">
                <text id="All_Alerts" data-name="All Alerts" transform="translate(-0.388 -0.408)" font-size="14" font-family="SegoeUI, Segoe UI"><tspan x="0" y="15">All Alerts</tspan></text>
              </g>
            </g>
          </g>
        </g>
      </g>
      <rect id="Rectangle_703-2" data-name="Rectangle 703" width="527" height="322" rx="10" transform="translate(13 64)" fill="#f4f6f9"/>
      <path id="Path_45937" data-name="Path 45937" d="M4513.873,6814.542" transform="translate(-4103.176 -6529.245)" fill="none" stroke="#707070" stroke-width="1"/>
      <g id="Group_4928" data-name="Group 4928" transform="translate(22.531 73.225)">
        <g transform="matrix(1, 0, 0, 1, -43.53, -93.22)" filter="url(#Rectangle_703)">
          <rect id="Rectangle_703-3" data-name="Rectangle 703" width="507" height="303" rx="4" transform="translate(44 93)" fill="#fff"/>
        </g>
        <g id="Group_4105" data-name="Group 4105" transform="translate(7.208 53.249)">
          <line id="Line_14" data-name="Line 14" x2="486.909" fill="none" stroke="#293846" stroke-linecap="round" stroke-width="1" opacity="0.17"/>
          <line id="Line_14-2" data-name="Line 14" x2="486.909" transform="translate(0 25.106)" fill="none" stroke="#293846" stroke-linecap="round" stroke-width="1" opacity="0.17"/>
          <line id="Line_14-3" data-name="Line 14" x2="486.909" transform="translate(0 50.213)" fill="none" stroke="#293846" stroke-linecap="round" stroke-width="1" opacity="0.17"/>
          <line id="Line_14-4" data-name="Line 14" x2="486.909" transform="translate(0 75.319)" fill="none" stroke="#293846" stroke-linecap="round" stroke-width="1" opacity="0.17"/>
          <line id="Line_14-5" data-name="Line 14" x2="486.909" transform="translate(0 100.425)" fill="none" stroke="#293846" stroke-linecap="round" stroke-width="1" opacity="0.17"/>
          <line id="Line_14-6" data-name="Line 14" x2="486.909" transform="translate(0 125.532)" fill="none" stroke="#293846" stroke-linecap="round" stroke-width="1" opacity="0.17"/>
          <line id="Line_14-7" data-name="Line 14" x2="486.909" transform="translate(0 150.638)" fill="none" stroke="#293846" stroke-linecap="round" stroke-width="1" opacity="0.17"/>
        </g>
        <g id="Group_4123" data-name="Group 4123" transform="translate(0 0)">
          <path id="Rectangle_704" data-name="Rectangle 704" d="M4,0H503a4,4,0,0,1,4,4V28a0,0,0,0,1,0,0H0a0,0,0,0,1,0,0V4A4,4,0,0,1,4,0Z" transform="translate(0.469 -0.225)" fill="#f5f5f5"/>
        </g>
      </g>
      <g id="Group_19075" data-name="Group 19075" transform="translate(42.245 80.735)">
        <g id="Group_19071" data-name="Group 19071" transform="translate(0 0)">
          <g id="Group_19060" data-name="Group 19060" transform="translate(0)">
            <g id="Group_4080" data-name="Group 4080" transform="translate(28.164 27.224)">
              <g id="Group_4097" data-name="Group 4097" transform="translate(0 0)">
                <text id="Repeat_Description" data-name="Repeat Description" transform="translate(-0.408 10.041)" fill="#293846" font-size="9" font-family="SegoeUI, Segoe UI"><tspan x="0" y="0">Ignition Off</tspan></text>
                <text id="Repeat_Description-2" data-name="Repeat Description" transform="translate(-0.408 34.041)" fill="#293846" font-size="9" font-family="SegoeUI, Segoe UI"><tspan x="0" y="0">Ignition On</tspan></text>
                <text id="Repeat_Description-3" data-name="Repeat Description" transform="translate(-0.408 60.041)" fill="#293846" font-size="9" font-family="SegoeUI, Segoe UI"><tspan x="0" y="0">Speed</tspan></text>
                <text id="Repeat_Description-4" data-name="Repeat Description" transform="translate(-0.408 85.041)" fill="#293846" font-size="9" font-family="SegoeUI, Segoe UI"><tspan x="0" y="0">Ignition Off</tspan></text>
                <text id="Repeat_Description-5" data-name="Repeat Description" transform="translate(-0.408 110.041)" fill="#293846" font-size="9" font-family="SegoeUI, Segoe UI"><tspan x="0" y="0">Speed</tspan></text>
                <text id="Repeat_Description-6" data-name="Repeat Description" transform="translate(-0.408 136.041)" fill="#293846" font-size="9" font-family="SegoeUI, Segoe UI"><tspan x="0" y="0">Speed</tspan></text>
                <text id="Repeat_Description-7" data-name="Repeat Description" transform="translate(-0.408 160.041)" fill="#293846" font-size="9" font-family="SegoeUI, Segoe UI"><tspan x="0" y="0">Ignition Off</tspan></text>
                <text id="Repeat_Description-8" data-name="Repeat Description" transform="translate(-0.408 186.041)" fill="#293846" font-size="9" font-family="SegoeUI, Segoe UI"><tspan x="0" y="0">Network Disconnected</tspan></text>
              </g>
            </g>
            <text id="Alert_Type" data-name="Alert Type" transform="translate(-0.244 12.265)" fill="#293846" font-size="11" font-family="SegoeUI-Semibold, Segoe UI" font-weight="600"><tspan x="0" y="0">Alert Type</tspan></text>
          </g>
          <g id="Group_19070" data-name="Group 19070" transform="translate(0.097 27.222)">
            <g id="Group_4430" data-name="Group 4430" transform="translate(1.255 0)">
              <path id="Subtraction_10" data-name="Subtraction 10" d="M9.47,11.364H2.841a.316.316,0,0,1-.316-.315V8.523H.631v1.894a.316.316,0,0,1-.631,0V6A.316.316,0,0,1,.631,6V7.892H2.525V5.051a.316.316,0,0,1,.316-.315h.975a1.31,1.31,0,0,0,.554-.128l6.137,6.137-.658.494A.646.646,0,0,1,9.47,11.364Zm-6-4.735a.317.317,0,0,0-.316.316v2.84a.316.316,0,0,0,.631,0V6.946A.316.316,0,0,0,3.473,6.629Zm0-1.259a.33.33,0,0,0-.224.088.363.363,0,0,0-.067.1.278.278,0,0,0-.025.12.316.316,0,1,0,.606-.12.363.363,0,0,0-.067-.1A.329.329,0,0,0,3.473,5.37Zm8.483,4.288h0L5.9,3.6l.976-.652a.669.669,0,0,1,.357-.108h.976V1.263H6V.948A.948.948,0,0,1,6.945,0H10.1a.948.948,0,0,1,.947.948v.315H8.838V2.841h5.683a.316.316,0,0,1,.315.316V5.366h1.578V3.473a.316.316,0,0,1,.631,0v4.42a.316.316,0,0,1-.631,0V6H14.836v2.21a.316.316,0,0,1-.315.315H13.89a1.26,1.26,0,0,0-.757.253l-1.176.882Z" fill="#036dce" stroke="rgba(0,0,0,0)" stroke-width="1"/>
              <rect id="Rectangle_761" data-name="Rectangle 761" width="1.568" height="15.234" transform="translate(13.451 12.049) rotate(135)" fill="#f05228"/>
            </g>
            <g id="Group_18962" data-name="Group 18962" transform="translate(4.394 176.372)">
              <rect id="Rectangle_833" data-name="Rectangle 833" width="1.099" height="13.743" transform="translate(8.27 0) rotate(29)" fill="#e80d0d"/>
              <g id="Group_18818" data-name="Group 18818" transform="translate(0 0.133)">
                <g id="Union_32" data-name="Union 32" transform="translate(0 0)" fill="none" stroke-miterlimit="10">
                  <path d="M0,9.528A1.272,1.272,0,1,1,1.272,10.8,1.272,1.272,0,0,1,0,9.528ZM.565,7.063.635,5.54a4.5,4.5,0,0,1,4.633,4.516l-1.58.05A3,3,0,0,0,.565,7.063ZM6.507,10C5.881,4.1.595,4.241.595,4.241L.576,2.749c7.477.232,7.489,7.3,7.489,7.3ZM.533,1.467S.547.894.551.7L.567,0C10.678.446,10.8,9.976,10.8,9.976L9.282,10A8.873,8.873,0,0,0,.533,1.467Z" stroke="none"/>
                  <path d="M 1.271819591522217 10.19987964630127 C 1.642169594764709 10.19987964630127 1.943469524383545 9.898499488830566 1.943469524383545 9.528059959411621 C 1.943469524383545 9.157449722290039 1.642169594764709 8.855939865112305 1.271819591522217 8.855939865112305 C 0.9013795256614685 8.855939865112305 0.5999995470046997 9.157449722290039 0.5999995470046997 9.528059959411621 C 0.5999995470046997 9.898499488830566 0.9013795256614685 10.19987964630127 1.271819591522217 10.19987964630127 M 4.241819381713867 9.488556861877441 L 4.606052875518799 9.477113723754883 C 4.541934967041016 9.100414276123047 4.410459518432617 8.586492538452148 4.140949726104736 8.078489303588867 C 3.559136629104614 6.981828689575195 2.573394298553467 6.345285892486572 1.206080794334412 6.181167602539062 L 1.190834999084473 6.517529487609863 C 1.547881603240967 6.574918746948242 2.012385129928589 6.692291736602783 2.473549604415894 6.931609630584717 C 3.192803621292114 7.304865837097168 4.037959098815918 8.044668197631836 4.241819381713867 9.488556861877441 M 7.413218975067139 9.430802345275879 C 7.331112384796143 8.795289993286133 7.119153499603271 7.757775783538818 6.572509765625 6.726139545440674 C 5.517236709594727 4.734591007232666 3.706352233886719 3.612960815429688 1.183924198150635 3.386179447174072 L 1.187538146972656 3.668848276138306 C 3.297709703445435 3.873752355575562 6.368646144866943 5.259276866912842 7.034313201904297 9.41971492767334 L 7.413218975067139 9.430802345275879 M 9.812914848327637 9.388333320617676 L 10.15348434448242 9.383950233459473 C 10.06006145477295 8.562703132629395 9.780157089233398 7.009734153747559 8.94495964050293 5.436579704284668 C 8.24052906036377 4.109739303588867 7.282749652862549 3.036319494247437 6.098239421844482 2.24614953994751 C 4.746200084686279 1.344219207763672 3.084813117980957 0.8046925663948059 1.152364134788513 0.6389986276626587 L 1.150619506835938 0.7157495617866516 C 1.149639487266541 0.7603729963302612 1.148169636726379 0.8258263468742371 1.146492481231689 0.8999269604682922 C 1.953551054000854 0.975901186466217 3.43513298034668 1.223732233047485 4.966909408569336 2.028559446334839 C 6.869052886962891 3.027984380722046 9.212751388549805 5.111005306243896 9.812914848327637 9.388333320617676 M 1.271819591522217 10.79987907409668 C 0.5695295333862305 10.79987907409668 -4.629516752174823e-07 10.23034954071045 -4.629516752174823e-07 9.528059959411621 C -4.629516752174823e-07 8.825459480285645 0.5695295333862305 8.255939483642578 1.271819591522217 8.255939483642578 C 1.974259495735168 8.255939483642578 2.543469429016113 8.825459480285645 2.543469429016113 9.528059959411621 C 2.543469429016113 10.23034954071045 1.974259495735168 10.79987907409668 1.271819591522217 10.79987907409668 Z M 3.687329530715942 10.10626983642578 C 3.647469520568848 7.003979682922363 0.5658000707626343 7.063226699829102 0.5654895305633545 7.063229560852051 L 0.6345095634460449 5.540459632873535 C 5.279739379882812 5.647789478302002 5.267019748687744 10.05663967132568 5.267019748687744 10.05663967132568 L 3.687329530715942 10.10626983642578 Z M 8.065009117126465 10.05012989044189 L 6.506729602813721 10.00452995300293 C 5.881370067596436 4.095240116119385 0.5948095917701721 4.241355419158936 0.5948095321655273 4.241349697113037 L 0.5757295489311218 2.748979568481445 C 8.053069114685059 2.98069953918457 8.065009117126465 10.05012989044189 8.065009117126465 10.05012989044189 Z M 9.281769752502441 9.995219230651855 C 8.412429809570312 1.392168521881104 0.5333882570266724 1.466618299484253 0.5333895087242126 1.466619491577148 C 0.5333895087242126 1.466619491577148 0.5465695261955261 0.8936795592308044 0.5507595539093018 0.7025995254516602 L 0.5667295455932617 -4.629516752174823e-07 C 10.67765998840332 0.446379542350769 10.79987907409668 9.975679397583008 10.79987907409668 9.975679397583008 L 9.281769752502441 9.995219230651855 Z" stroke="none" fill="#e80d0d"/>
                </g>
                <path id="Path_45863" data-name="Path 45863" d="M-3604,5431.228l.073-.287.18-.279.333-.32.38-.06.519.126a2.145,2.145,0,0,0,.266.3,4.132,4.132,0,0,1,.293.52l-.18.613-.379.326-.479.126-.526-.093-.452-.586Z" transform="translate(3604.2 -5421.751)" fill="#e80d0d"/>
              </g>
            </g>
            <g id="Group_4377" data-name="Group 4377" transform="translate(0 24.551)">
              <path id="Path_529" data-name="Path 529" d="M215,229.427a.706.706,0,0,1-.111-.629l.473-1.575h-1.392l-.854,2.847h1.657a.356.356,0,0,1,.337.468l-1.14,2.641,2.535-3.465h-.934A.706.706,0,0,1,215,229.427Z" transform="translate(-205.117 -221.884)" fill="#34b394"/>
              <path id="Path_530" data-name="Path 530" d="M18.864,88.559a.356.356,0,0,0-.356.356v2.135h-1.78V88.559a.356.356,0,0,0-.356-.356H9.966v-1.78h2.492v-.356A1.068,1.068,0,0,0,11.39,85H7.83a1.068,1.068,0,0,0-1.068,1.068v.356H9.254V88.2h-1.1a.75.75,0,0,0-.4.122L5.1,90.1a1.464,1.464,0,0,1-.792.238H3.2a.356.356,0,0,0-.356.356v3.2H.712V91.763a.356.356,0,0,0-.712,0v4.983a.356.356,0,0,0,.712,0V94.61H2.847v2.847a.356.356,0,0,0,.356.356h7.475a.72.72,0,0,0,.427-.142l3.7-2.776a1.434,1.434,0,0,1,.854-.285h.712a.356.356,0,0,0,.356-.356V91.763h1.78V93.9a.356.356,0,1,0,.712,0V88.915A.356.356,0,0,0,18.864,88.559ZM4.271,96.034a.356.356,0,0,1-.712,0v-3.2a.356.356,0,1,1,.712,0Zm-.1-4.374a.356.356,0,0,1-.609-.253.3.3,0,0,1,.028-.135.411.411,0,0,1,.075-.117.373.373,0,0,1,.505,0,.411.411,0,0,1,.075.117A.352.352,0,0,1,4.168,91.659Zm7.768,1.627L8.863,96.974a.356.356,0,0,1-.611-.34L9.163,93.9H8a.712.712,0,0,1-.682-.916l.854-2.847a.717.717,0,0,1,.682-.508h1.392a.712.712,0,0,1,.682.916l-.473,1.575h.933a.712.712,0,0,1,.547,1.168Z" transform="translate(0 -85)" fill="#036dce"/>
            </g>
            <path id="Union_35" data-name="Union 35" d="M12.858,10.219a5.641,5.641,0,0,0,.234-2.6h1.935a8.9,8.9,0,0,1-.469,3.689ZM.014,7.62H1.95a7.833,7.833,0,0,0,.234,2.6l-1.7,1.089A9.989,9.989,0,0,1,.014,7.62ZM6.641,9.252A1.131,1.131,0,0,1,7.052,7.74c.469-.3,4.105-1.391,5.161-1.815-.88.787-3.578,3.448-4.106,3.75a1.077,1.077,0,0,1-.537.146A1.054,1.054,0,0,1,6.641,9.252Zm6.334-2.419a7.34,7.34,0,0,0-.88-2.116l1.642-1.029a7.885,7.885,0,0,1,1.173,3.145Zm-12.844,0A8.88,8.88,0,0,1,1.3,3.689L2.947,4.717a7.328,7.328,0,0,0-.88,2.116ZM10.219,2.842l.939-1.814a8,8,0,0,1,2.228,2.056l-1.7,1.028A7.44,7.44,0,0,0,10.219,2.842Zm-8.5.242a7.089,7.089,0,0,1,2.17-2.056l1,1.814a7.8,7.8,0,0,0-1.525,1.27Zm6.158-.967V0a8.419,8.419,0,0,1,2.7.665l-1,1.875A5.4,5.4,0,0,0,7.873,2.117ZM4.53.665A8.084,8.084,0,0,1,7.169,0V2.117a5.836,5.836,0,0,0-1.7.423Z" transform="translate(1.883 50.84)" fill="#e80d0d" stroke="rgba(0,0,0,0)" stroke-miterlimit="10" stroke-width="1"/>
            <g id="Group_19068" data-name="Group 19068" transform="translate(1.255 75.319)">
              <path id="Subtraction_10-2" data-name="Subtraction 10" d="M9.47,11.364H2.841a.316.316,0,0,1-.316-.315V8.523H.631v1.894a.316.316,0,0,1-.631,0V6A.316.316,0,0,1,.631,6V7.892H2.525V5.051a.316.316,0,0,1,.316-.315h.975a1.31,1.31,0,0,0,.554-.128l6.137,6.137-.658.494A.646.646,0,0,1,9.47,11.364Zm-6-4.735a.317.317,0,0,0-.316.316v2.84a.316.316,0,0,0,.631,0V6.946A.316.316,0,0,0,3.473,6.629Zm0-1.259a.33.33,0,0,0-.224.088.363.363,0,0,0-.067.1.278.278,0,0,0-.025.12.316.316,0,1,0,.606-.12.363.363,0,0,0-.067-.1A.329.329,0,0,0,3.473,5.37Zm8.483,4.288h0L5.9,3.6l.976-.652a.669.669,0,0,1,.357-.108h.976V1.263H6V.948A.948.948,0,0,1,6.945,0H10.1a.948.948,0,0,1,.947.948v.315H8.838V2.841h5.683a.316.316,0,0,1,.315.316V5.366h1.578V3.473a.316.316,0,0,1,.631,0v4.42a.316.316,0,0,1-.631,0V6H14.836v2.21a.316.316,0,0,1-.315.315H13.89a1.26,1.26,0,0,0-.757.253l-1.176.882Z" transform="translate(0 0)" fill="#036dce" stroke="rgba(0,0,0,0)" stroke-width="1"/>
              <rect id="Rectangle_761-2" data-name="Rectangle 761" width="1.568" height="15.234" transform="translate(13.451 12.049) rotate(135)" fill="#f05228"/>
            </g>
            <path id="Union_138" data-name="Union 138" d="M12.858,10.219a5.641,5.641,0,0,0,.234-2.6h1.935a8.9,8.9,0,0,1-.469,3.689ZM.014,7.62H1.95a7.833,7.833,0,0,0,.234,2.6l-1.7,1.089A9.989,9.989,0,0,1,.014,7.62ZM6.641,9.252A1.131,1.131,0,0,1,7.052,7.74c.469-.3,4.105-1.391,5.161-1.815-.88.787-3.578,3.448-4.106,3.75a1.077,1.077,0,0,1-.537.146A1.054,1.054,0,0,1,6.641,9.252Zm6.334-2.419a7.34,7.34,0,0,0-.88-2.116l1.642-1.029a7.885,7.885,0,0,1,1.173,3.145Zm-12.844,0A8.88,8.88,0,0,1,1.3,3.689L2.947,4.717a7.328,7.328,0,0,0-.88,2.116ZM10.219,2.842l.939-1.814a8,8,0,0,1,2.228,2.056l-1.7,1.028A7.44,7.44,0,0,0,10.219,2.842Zm-8.5.242a7.089,7.089,0,0,1,2.17-2.056l1,1.814a7.8,7.8,0,0,0-1.525,1.27Zm6.158-.967V0a8.419,8.419,0,0,1,2.7.665l-1,1.875A5.4,5.4,0,0,0,7.873,2.117ZM4.53.665A8.084,8.084,0,0,1,7.169,0V2.117a5.836,5.836,0,0,0-1.7.423Z" transform="translate(1.883 101.681)" fill="#e80d0d" stroke="rgba(0,0,0,0)" stroke-miterlimit="10" stroke-width="1"/>
            <path id="Union_139" data-name="Union 139" d="M12.858,10.219a5.641,5.641,0,0,0,.234-2.6h1.935a8.9,8.9,0,0,1-.469,3.689ZM.014,7.62H1.95a7.833,7.833,0,0,0,.234,2.6l-1.7,1.089A9.989,9.989,0,0,1,.014,7.62ZM6.641,9.252A1.131,1.131,0,0,1,7.052,7.74c.469-.3,4.105-1.391,5.161-1.815-.88.787-3.578,3.448-4.106,3.75a1.077,1.077,0,0,1-.537.146A1.054,1.054,0,0,1,6.641,9.252Zm6.334-2.419a7.34,7.34,0,0,0-.88-2.116l1.642-1.029a7.885,7.885,0,0,1,1.173,3.145Zm-12.844,0A8.88,8.88,0,0,1,1.3,3.689L2.947,4.717a7.328,7.328,0,0,0-.88,2.116ZM10.219,2.842l.939-1.814a8,8,0,0,1,2.228,2.056l-1.7,1.028A7.44,7.44,0,0,0,10.219,2.842Zm-8.5.242a7.089,7.089,0,0,1,2.17-2.056l1,1.814a7.8,7.8,0,0,0-1.525,1.27Zm6.158-.967V0a8.419,8.419,0,0,1,2.7.665l-1,1.875A5.4,5.4,0,0,0,7.873,2.117ZM4.53.665A8.084,8.084,0,0,1,7.169,0V2.117a5.836,5.836,0,0,0-1.7.423Z" transform="translate(1.883 126.787)" fill="#e80d0d" stroke="rgba(0,0,0,0)" stroke-miterlimit="10" stroke-width="1"/>
            <g id="Group_19069" data-name="Group 19069" transform="translate(1.255 150.638)">
              <path id="Subtraction_10-3" data-name="Subtraction 10" d="M9.47,11.364H2.841a.316.316,0,0,1-.316-.315V8.523H.631v1.894a.316.316,0,0,1-.631,0V6A.316.316,0,0,1,.631,6V7.892H2.525V5.051a.316.316,0,0,1,.316-.315h.975a1.31,1.31,0,0,0,.554-.128l6.137,6.137-.658.494A.646.646,0,0,1,9.47,11.364Zm-6-4.735a.317.317,0,0,0-.316.316v2.84a.316.316,0,0,0,.631,0V6.946A.316.316,0,0,0,3.473,6.629Zm0-1.259a.33.33,0,0,0-.224.088.363.363,0,0,0-.067.1.278.278,0,0,0-.025.12.316.316,0,1,0,.606-.12.363.363,0,0,0-.067-.1A.329.329,0,0,0,3.473,5.37Zm8.483,4.288h0L5.9,3.6l.976-.652a.669.669,0,0,1,.357-.108h.976V1.263H6V.948A.948.948,0,0,1,6.945,0H10.1a.948.948,0,0,1,.947.948v.315H8.838V2.841h5.683a.316.316,0,0,1,.315.316V5.366h1.578V3.473a.316.316,0,0,1,.631,0v4.42a.316.316,0,0,1-.631,0V6H14.836v2.21a.316.316,0,0,1-.315.315H13.89a1.26,1.26,0,0,0-.757.253l-1.176.882Z" transform="translate(0 0)" fill="#036dce" stroke="rgba(0,0,0,0)" stroke-width="1"/>
              <rect id="Rectangle_761-3" data-name="Rectangle 761" width="1.568" height="15.234" transform="translate(13.451 12.049) rotate(135)" fill="#f05228"/>
            </g>
          </g>
        </g>
        <path id="Path_18852" data-name="Path 18852" d="M8.016,4.528a.591.591,0,0,1,.156.4V9.286a.3.3,0,0,0,.5.211L9.891,8.1c.163-.2.252-.292.252-.485V4.929a.6.6,0,0,1,.156-.4L13.787.744A.444.444,0,0,0,13.461,0H4.854a.444.444,0,0,0-.326.744Z" transform="translate(53.432 3.371)" fill="#293846" opacity="0.9"/>
      </g>
      <g id="Group_19074" data-name="Group 19074" transform="translate(407.429 80.735)">
        <g id="Group_19063" data-name="Group 19063" transform="translate(0 0)">
          <g id="Group_4080-2" data-name="Group 4080" transform="translate(0 27.224)">
            <g id="Group_4097-2" data-name="Group 4097" transform="translate(0 0)">
              <text id="Repeat_Description-9" data-name="Repeat Description" transform="translate(-0.429 10.041)" fill="#293846" font-size="9" font-family="SegoeUI, Segoe UI"><tspan x="0" y="0">2020-03-31 21:18</tspan></text>
              <text id="Repeat_Description-10" data-name="Repeat Description" transform="translate(-0.429 35.041)" fill="#293846" font-size="9" font-family="SegoeUI, Segoe UI"><tspan x="0" y="0">2020-03-31 21:16</tspan></text>
              <text id="Repeat_Description-11" data-name="Repeat Description" transform="translate(-0.429 60.041)" fill="#293846" font-size="9" font-family="SegoeUI, Segoe UI"><tspan x="0" y="0">2020-03-31 20:42</tspan></text>
              <text id="Repeat_Description-12" data-name="Repeat Description" transform="translate(-0.429 85.041)" fill="#293846" font-size="9" font-family="SegoeUI, Segoe UI"><tspan x="0" y="0">2020-03-31 20:35</tspan></text>
              <text id="Repeat_Description-13" data-name="Repeat Description" transform="translate(-0.429 110.041)" fill="#293846" font-size="9" font-family="SegoeUI, Segoe UI"><tspan x="0" y="0">2020-03-31 20:32</tspan></text>
              <text id="Repeat_Description-14" data-name="Repeat Description" transform="translate(-0.429 136.041)" fill="#293846" font-size="9" font-family="SegoeUI, Segoe UI"><tspan x="0" y="0">2020-03-31 12:07</tspan></text>
              <text id="Repeat_Description-15" data-name="Repeat Description" transform="translate(-0.429 160.041)" fill="#293846" font-size="9" font-family="SegoeUI, Segoe UI"><tspan x="0" y="0">2020-03-31 11:55</tspan></text>
              <text id="Repeat_Description-16" data-name="Repeat Description" transform="translate(-0.429 186.041)" fill="#293846" font-size="9" font-family="SegoeUI, Segoe UI"><tspan x="0" y="0">2020-03-31 10:31</tspan></text>
            </g>
          </g>
          <text id="Date_Time" data-name="Date/Time" transform="translate(-0.429 12.265)" fill="#293846" font-size="11" font-family="SegoeUI-Semibold, Segoe UI" font-weight="600"><tspan x="0" y="0">Date/Time</tspan></text>
        </g>
        <path id="Path_45973" data-name="Path 45973" d="M8.016,4.528a.591.591,0,0,1,.156.4V9.286a.3.3,0,0,0,.5.211L9.891,8.1c.163-.2.252-.292.252-.485V4.929a.6.6,0,0,1,.156-.4L13.787.744A.444.444,0,0,0,13.461,0H4.854a.444.444,0,0,0-.326.744Z" transform="translate(54.172 3.371)" fill="#293846" opacity="0.9"/>
      </g>
      <g id="Group_19100" data-name="Group 19100" transform="translate(311.673 80.735)">
        <g id="Group_19098" data-name="Group 19098" transform="translate(0 0)">
          <g id="Group_4080-3" data-name="Group 4080" transform="translate(0 27.224)">
            <g id="Group_4097-3" data-name="Group 4097" transform="translate(0 0)">
              <text id="Repeat_Description-17" data-name="Repeat Description" transform="translate(0.327 10.041)" font-size="9" font-family="SegoeUI, Segoe UI"><tspan x="0" y="0">DL-07G-2353</tspan></text>
              <text id="Repeat_Description-18" data-name="Repeat Description" transform="translate(0.327 35.041)" font-size="9" font-family="SegoeUI, Segoe UI"><tspan x="0" y="0">WB-07G-1672</tspan></text>
              <text id="Repeat_Description-19" data-name="Repeat Description" transform="translate(0.327 60.041)" font-size="9" font-family="SegoeUI, Segoe UI"><tspan x="0" y="0">HR-07G-1672</tspan></text>
              <text id="Repeat_Description-20" data-name="Repeat Description" transform="translate(0.327 85.041)" font-size="9" font-family="SegoeUI, Segoe UI"><tspan x="0" y="0">WB-07G-1672</tspan></text>
              <text id="Repeat_Description-21" data-name="Repeat Description" transform="translate(0.327 110.041)" font-size="9" font-family="SegoeUI, Segoe UI"><tspan x="0" y="0">DL-07G-2353</tspan></text>
              <text id="Repeat_Description-22" data-name="Repeat Description" transform="translate(0.327 136.041)" font-size="9" font-family="SegoeUI, Segoe UI"><tspan x="0" y="0">DL-07G-2353</tspan></text>
              <text id="Repeat_Description-23" data-name="Repeat Description" transform="translate(0.327 160.041)" font-size="9" font-family="SegoeUI, Segoe UI"><tspan x="0" y="0">WB-07G-1672</tspan></text>
              <text id="Repeat_Description-24" data-name="Repeat Description" transform="translate(0.327 186.041)" font-size="9" font-family="SegoeUI, Segoe UI"><tspan x="0" y="0">HR-07G-1672</tspan></text>
            </g>
          </g>
          <text id="Vehicle_No" data-name="Vehicle No" transform="translate(0.327 12.265)" fill="#293846" font-size="11" font-family="SegoeUI-Semibold, Segoe UI" font-weight="600"><tspan x="0" y="0">Vehicle No</tspan></text>
        </g>
        <path id="Path_45989" data-name="Path 45989" d="M8.016,4.528a.591.591,0,0,1,.156.4V9.286a.3.3,0,0,0,.5.211L9.891,8.1c.163-.2.252-.292.252-.485V4.929a.6.6,0,0,1,.156-.4L13.787.744A.444.444,0,0,0,13.461,0H4.854a.444.444,0,0,0-.326.744Z" transform="translate(55.78 3.371)" fill="#293846" opacity="0.9"/>
      </g>
      <g id="Group_19101" data-name="Group 19101" transform="translate(196.204 80.735)">
        <g id="Group_19098-2" data-name="Group 19098" transform="translate(0 0)">
          <g id="Group_4080-4" data-name="Group 4080" transform="translate(0 27.224)">
            <g id="Group_4097-4" data-name="Group 4097" transform="translate(0 0)">
              <text id="Repeat_Description-25" data-name="Repeat Description" transform="translate(-0.204 10.041)" font-size="9" font-family="SegoeUI, Segoe UI"><tspan x="0" y="0">Bus 5 - School P</tspan></text>
              <text id="Repeat_Description-26" data-name="Repeat Description" transform="translate(-0.204 35.041)" font-size="9" font-family="SegoeUI, Segoe UI"><tspan x="0" y="0">Mini - VP Travels</tspan></text>
              <text id="Repeat_Description-27" data-name="Repeat Description" transform="translate(-0.204 60.041)" font-size="9" font-family="SegoeUI, Segoe UI"><tspan x="0" y="0">Bus 1 - Aman Travels</tspan></text>
              <text id="Repeat_Description-28" data-name="Repeat Description" transform="translate(-0.204 85.041)" font-size="9" font-family="SegoeUI, Segoe UI"><tspan x="0" y="0">Bus 2 - VP Travelers</tspan></text>
              <text id="Repeat_Description-29" data-name="Repeat Description" transform="translate(-0.204 110.041)" font-size="9" font-family="SegoeUI, Segoe UI"><tspan x="0" y="0">Bus 3 - VP Travelers</tspan></text>
              <text id="Repeat_Description-30" data-name="Repeat Description" transform="translate(-0.204 136.041)" font-size="9" font-family="SegoeUI, Segoe UI"><tspan x="0" y="0">Mini - Aman Travels</tspan></text>
              <text id="Repeat_Description-31" data-name="Repeat Description" transform="translate(-0.204 160.041)" font-size="9" font-family="SegoeUI, Segoe UI"><tspan x="0" y="0">Bus 1 - VP Travelers</tspan></text>
              <text id="Repeat_Description-32" data-name="Repeat Description" transform="translate(-0.204 186.041)" font-size="9" font-family="SegoeUI, Segoe UI"><tspan x="0" y="0">Bus 4 - Aman Travels</tspan></text>
            </g>
          </g>
          <text id="Vehicle" transform="translate(-0.204 12.265)" fill="#293846" font-size="11" font-family="SegoeUI-Semibold, Segoe UI" font-weight="600"><tspan x="0" y="0">Vehicle</tspan></text>
        </g>
        <path id="Path_45989-2" data-name="Path 45989" d="M8.016,4.528a.591.591,0,0,1,.156.4V9.286a.3.3,0,0,0,.5.211L9.891,8.1c.163-.2.252-.292.252-.485V4.929a.6.6,0,0,1,.156-.4L13.787.744A.444.444,0,0,0,13.461,0H4.854a.444.444,0,0,0-.326.744Z" transform="translate(36.93 3.371)" fill="#293846" opacity="0.9"/>
      </g>
      <path id="Union_180" data-name="Union 180" d="M4.265,15.2H.554A.564.564,0,0,1,0,14.627V12.866a.6.6,0,0,1,.161-.412l1.18-1.248V8.9A5.41,5.41,0,0,1,4.65,3.807,2,2,0,0,1,6.576,2.195,2.006,2.006,0,0,1,8.5,3.807,5.411,5.411,0,0,1,11.813,8.9v2.31l1.178,1.248a.6.6,0,0,1,.163.412v1.762a.566.566,0,0,1-.556.573H8.887a2.408,2.408,0,0,1-2.31,2.375A2.411,2.411,0,0,1,4.265,15.2Zm8.668-7.324a.226.226,0,0,1-.222-.223A5.188,5.188,0,0,0,9.8,3.21a.236.236,0,0,1-.117-.3l.254-.638a.22.22,0,0,1,.3-.126,6.35,6.35,0,0,1,3.595,5.49.227.227,0,0,1-.223.237h-.671Zm2.234-.011a.225.225,0,0,1-.221-.225,7.5,7.5,0,0,0-4.3-6.561.232.232,0,0,1-.119-.3l.254-.639a.221.221,0,0,1,.3-.125,8.652,8.652,0,0,1,4.984,7.6.23.23,0,0,1-.223.239l-.67,0Z" transform="translate(23.513 16.946)" fill="#fff" stroke="rgba(0,0,0,0)" stroke-miterlimit="10" stroke-width="1"/>
      <g id="Group_75636" data-name="Group 75636" transform="translate(258.884 14.436)">
        <g id="Group_4470" data-name="Group 4470" transform="translate(203.09 0.628)">
          <g id="Group_3659" data-name="Group 3659" transform="translate(0 0)">
            <g id="Group_3657" data-name="Group 3657">
              <g id="Rectangle_629" data-name="Rectangle 629" fill="#fff" stroke="rgba(41,56,70,0.25)" stroke-width="1">
                <rect width="24.479" height="21.34" rx="4" stroke="none"/>
                <rect x="0.5" y="0.5" width="23.479" height="20.34" rx="3.5" fill="none"/>
              </g>
            </g>
            <g id="Group_3658" data-name="Group 3658" transform="translate(7.532 5.649)">
              <g id="refresh" transform="translate(0 0)">
                <path id="Path_242" data-name="Path 242" d="M8.2,1.448A4.6,4.6,0,0,0,4.826,0a4.826,4.826,0,1,0,0,9.652A4.85,4.85,0,0,0,9.471,6.032H8.2A3.593,3.593,0,0,1,4.826,8.445a3.619,3.619,0,1,1,0-7.239A3.506,3.506,0,0,1,7.36,2.292L6.234,3.418l3.418.8L9.25.4Z" transform="translate(0 0)" fill="#293846"/>
              </g>
            </g>
          </g>
          <g id="Group_3656" data-name="Group 3656" transform="translate(33.894 0)">
            <g id="Rectangle_628" data-name="Rectangle 628" transform="translate(0)" fill="#fff" stroke="rgba(41,56,70,0.25)" stroke-width="1">
              <rect width="24.479" height="21.34" rx="4" stroke="none"/>
              <rect x="0.5" y="0.5" width="23.479" height="20.34" rx="3.5" fill="none"/>
            </g>
            <g id="Group_3650" data-name="Group 3650" transform="translate(7.532 6.277)">
              <path id="Path_226" data-name="Path 226" d="M8.016,4.528a.591.591,0,0,1,.156.4V9.286a.3.3,0,0,0,.5.211L9.891,8.1c.163-.2.252-.292.252-.485V4.929a.6.6,0,0,1,.156-.4L13.787.744A.444.444,0,0,0,13.461,0H4.854a.444.444,0,0,0-.326.744Z" transform="translate(-4.41 0)" fill="#293846"/>
            </g>
          </g>
        </g>
        <g id="Group_19099" data-name="Group 19099" transform="translate(0)">
          <g id="Group_19054" data-name="Group 19054">
            <g id="Group_19050" data-name="Group 19050">
              <g id="Group_4119" data-name="Group 4119" transform="translate(0)">
                <g id="Group_4114" data-name="Group 4114">
                  <g id="Rectangle_632" data-name="Rectangle 632" fill="#fff" stroke="#c9cdd0" stroke-width="1">
                    <rect width="137.186" height="21.654" rx="4" stroke="none"/>
                    <rect x="0.5" y="0.5" width="136.186" height="20.654" rx="3.5" fill="none"/>
                  </g>
                  <text id="Select_Date_Range" data-name="Select Date Range" transform="translate(7.261 4.564)" fill="#293846" font-size="8" font-family="SegoeUI, Segoe UI" letter-spacing="-0.05em" opacity="0.8"><tspan x="0" y="9">Select Date Range</tspan></text>
                </g>
              </g>
            </g>
            <path id="Rectangle_1666" data-name="Rectangle 1666" d="M0,0H20.479a4,4,0,0,1,4,4V17.654a4,4,0,0,1-4,4H0a0,0,0,0,1,0,0V0A0,0,0,0,1,0,0Z" transform="translate(112.708)"/>
            <g id="Group_12" data-name="Group 12" transform="translate(119.612 5.649)">
              <g id="calendar" transform="translate(0)">
                <path id="Path_6" data-name="Path 6" d="M9.8,1H8.353V.334a.334.334,0,0,0-.668,0V1h-2V.334a.334.334,0,0,0-.668,0V1h-2V.334a.334.334,0,0,0-.668,0V1H.891A.891.891,0,0,0,0,1.893V9.8a.891.891,0,0,0,.891.891H9.8a.891.891,0,0,0,.891-.891V1.893A.89.89,0,0,0,9.8,1Zm.223,8.8a.223.223,0,0,1-.223.223H.891A.223.223,0,0,1,.668,9.8V1.893a.223.223,0,0,1,.223-.223H2.339v.668a.334.334,0,1,0,.668,0V1.671h2v.668a.334.334,0,1,0,.668,0V1.671h2v.668a.334.334,0,0,0,.668,0V1.671H9.8a.223.223,0,0,1,.223.223Z" fill="#fff"/>
                <rect id="Rectangle_8" data-name="Rectangle 8" width="0.97" height="0.97" rx="0.485" transform="translate(2.468 3.954)" fill="#fff" stroke="#fff" stroke-width="0.4"/>
                <rect id="Rectangle_9" data-name="Rectangle 9" width="0.97" height="0.97" rx="0.485" transform="translate(2.468 5.837)" fill="#fff" stroke="#fff" stroke-width="0.4"/>
                <rect id="Rectangle_10" data-name="Rectangle 10" width="0.97" height="0.97" rx="0.485" transform="translate(2.468 7.737)" fill="#fff" stroke="#fff" stroke-width="0.4"/>
                <rect id="Rectangle_11" data-name="Rectangle 11" width="0.97" height="0.97" rx="0.485" transform="translate(4.796 7.737)" fill="#fff" stroke="#fff" stroke-width="0.4"/>
                <rect id="Rectangle_12" data-name="Rectangle 12" width="0.97" height="0.97" rx="0.485" transform="translate(4.796 5.837)" fill="#fff" stroke="#fff" stroke-width="0.4"/>
                <rect id="Rectangle_13" data-name="Rectangle 13" width="0.97" height="0.97" rx="0.485" transform="translate(4.796 3.954)" fill="#fff" stroke="#fff" stroke-width="0.4"/>
                <rect id="Rectangle_14" data-name="Rectangle 14" width="0.97" height="0.97" rx="0.485" transform="translate(7.123 7.737)" fill="#fff" stroke="#fff" stroke-width="0.4"/>
                <rect id="Rectangle_15" data-name="Rectangle 15" width="0.97" height="0.97" rx="0.485" transform="translate(7.123 5.837)" fill="#fff" stroke="#fff" stroke-width="0.4"/>
                <rect id="Rectangle_16" data-name="Rectangle 16" width="0.97" height="0.97" rx="0.485" transform="translate(7.123 3.954)" fill="#fff" stroke="#fff" stroke-width="0.4"/>
              </g>
            </g>
          </g>
          <path id="Path_439" data-name="Path 439" d="M7,10l3.766,3.766L14.532,10Z" transform="translate(93.154 -0.585)" fill="#293846" opacity="0.7"/>
        </g>
        <g id="Group_75635" data-name="Group 75635" transform="translate(173.316 1.883)">
          <path id="Path_96066" data-name="Path 96066" d="M183.589,140.741V125.5h-1.231c-3.161.571-6.313,1.1-9.485,1.647v14.416c3.121.551,6.282,1.1,9.422,1.673h1.285v-2.5Zm-4.648-3.164a24.342,24.342,0,0,1-1.033-2.587c-.286.837-.68,1.625-1,2.444-.451,0-.9-.026-1.353-.043.528-1.036,1.039-2.081,1.585-3.109-.462-1.062-.974-2.1-1.451-3.155l1.365-.077c.306.805.643,1.6.9,2.427.286-.877.677-1.713,1.025-2.547q.7-.048,1.4-.086-.823,1.69-1.659,3.389c.571,1.142,1.142,2.3,1.713,3.452-.5-.04-.991-.071-1.488-.109Z" transform="translate(-172.873 -125.5)" fill="#42ac46"/>
          <path id="Path_96067" data-name="Path 96067" d="M393.23,164.25v1.094h2.184v1.613H393.23v.885h2.184v1.613H393.23v.885h2.184v1.61H393.23v.885h2.184v1.6H393.23v.936h2.184v1.562H393.23v1.094h7.543V164.25Zm5.879,12.695h-3.175v-1.562h3.175Zm0-2.5h-3.175v-1.613h3.175Zm0-2.5h-3.175v-1.61h3.175Zm0-2.5h-3.175v-1.61h3.175Zm0-2.5h-3.175v-1.607h3.175Z" transform="translate(-381.995 -162.274)" fill="#42ac46"/>
        </g>
        <g id="Group_75637" data-name="Group 75637" transform="translate(148.127 1.255)">
          <path id="Path_440" data-name="Path 440" d="M518.159,10291.839h8.568l4.677,3.952v13.875a1.093,1.093,0,0,1-1.192,1.286c-1.374-.028-12.053,0-12.053,0s-1.16.146-1.043-1.606v-16.284s-.11-1.116.883-1.223A.458.458,0,0,1,518.159,10291.839Z" transform="translate(-517.107 -10291.833)" fill="#2979ff"/>
          <path id="Path_441" data-name="Path 441" d="M772.217,10291.833s-.094,2.908,0,2.935.067,1.29,1.45,1.142c1.208-.014,3.324-.074,3.324-.074Z" transform="translate(-762.672 -10291.833)" fill="#2962ff"/>
          <g id="Group_4154" data-name="Group 4154" transform="translate(1.623 9.166)">
            <path id="Path_442" data-name="Path 442" d="M21.892,26.463a.718.718,0,0,1,.232-.108,1.035,1.035,0,0,1,.264-.034,1.11,1.11,0,0,1,.785.289l.528-.528a1.541,1.541,0,0,0-.572-.316,2.565,2.565,0,0,0-.772-.107,2.272,2.272,0,0,0-.584.077,1.62,1.62,0,0,0-.517.237,1.246,1.246,0,0,0-.368.4,1.144,1.144,0,0,0-.14.581,1.072,1.072,0,0,0,.092.464,1.09,1.09,0,0,0,.248.338,1.6,1.6,0,0,0,.36.249,4.027,4.027,0,0,0,.437.19,2.919,2.919,0,0,1,.608.307.518.518,0,0,1,.24.448.541.541,0,0,1-.2.448.782.782,0,0,1-.5.16,1.5,1.5,0,0,1-.533-.1,1.331,1.331,0,0,1-.445-.27l-.52.54a1.9,1.9,0,0,0,.64.356,2.6,2.6,0,0,0,.873.141,2.223,2.223,0,0,0,.624-.086,1.552,1.552,0,0,0,.517-.255,1.278,1.278,0,0,0,.352-.414,1.175,1.175,0,0,0,.132-.565.973.973,0,0,0-.112-.479,1.231,1.231,0,0,0-.288-.35,1.887,1.887,0,0,0-.392-.252q-.216-.1-.424-.184a2.676,2.676,0,0,1-.568-.286.489.489,0,0,1-.216-.427.59.59,0,0,1,.06-.276A.524.524,0,0,1,21.892,26.463Z" transform="translate(-16.79 -25.658)" fill="#fff"/>
            <path id="Path_443" data-name="Path 443" d="M13.738,26.813a1.093,1.093,0,0,1,.36-.341.985.985,0,0,1,.5-.126,1.092,1.092,0,0,1,.849.362L16,26.192a1.506,1.506,0,0,0-.6-.4,2.432,2.432,0,0,0-.857-.138,2.14,2.14,0,0,0-.861.169,1.885,1.885,0,0,0-.661.473,2.137,2.137,0,0,0-.42.725,2.916,2.916,0,0,0,0,1.833,2.167,2.167,0,0,0,.416.721,1.87,1.87,0,0,0,.656.476,2.126,2.126,0,0,0,.869.172,2.1,2.1,0,0,0,.876-.16,1.663,1.663,0,0,0,.572-.418l-.552-.5a1.183,1.183,0,0,1-.34.27,1,1,0,0,1-.484.111,1.022,1.022,0,0,1-.517-.126,1.079,1.079,0,0,1-.364-.341,1.573,1.573,0,0,1-.216-.507,2.564,2.564,0,0,1-.072-.617,2.6,2.6,0,0,1,.072-.624A1.6,1.6,0,0,1,13.738,26.813Z" transform="translate(-12.457 -25.658)" fill="#fff"/>
            <path id="Path_444" data-name="Path 444" d="M29.713,29.4h-.024l-.945-3.435H27.672l1.385,4.281h1.217l1.409-4.281H30.658Z" transform="translate(-20.637 -25.82)" fill="#fff"/>
          </g>
        </g>
      </g>
    </g>
  </g>
</svg>
