<svg xmlns="http://www.w3.org/2000/svg" xmlns:xlink="http://www.w3.org/1999/xlink" width="92" height="92" viewBox="0 0 92 92">
  <defs>
    <filter id="Rectangle_27304" x="0" y="0" width="92" height="92" filterUnits="userSpaceOnUse">
      <feOffset input="SourceAlpha"/>
      <feGaussianBlur stdDeviation="6" result="blur"/>
      <feFlood flood-color="#0c2464" flood-opacity="0.122"/>
      <feComposite operator="in" in2="blur"/>
      <feComposite in="SourceGraphic"/>
    </filter>
  </defs>
  <g id="Route_design" data-name="Route design" transform="translate(-896 -6475)">
    <g transform="matrix(1, 0, 0, 1, 896, 6475)" filter="url(#Rectangle_27304)">
      <rect id="Rectangle_27304-2" data-name="Rectangle 27304" width="56" height="56" rx="6" transform="translate(18 18)" fill="#fff"/>
    </g>
    <g id="Group_78111" data-name="Group 78111" transform="translate(-1 0)">
      <path id="Path_129229" data-name="Path 129229" d="M128.441,80.24a3.793,3.793,0,0,0-3.654,4.8,3.867,3.867,0,0,0,.318.794c.033.061.067.119.1.178l2.858,4.95c.007.01.011.021.019.033a.434.434,0,0,0,.715,0l.012-.021,2.863-4.959.1-.179a3.8,3.8,0,0,0,.454-1.8,3.79,3.79,0,0,0-3.791-3.79Zm0,5.38a1.59,1.59,0,1,1,1.59-1.589A1.589,1.589,0,0,1,128.441,85.62Zm-1.525,9.654,3.858,1.289-4.08,1.3-19.755,6.269,3.8-6.577,11.316-1.733-3.283-1.7-2.331-1.207,2.5-.214,9.555-.814-6.766,1.659Z" transform="translate(829.952 6431.956)" fill="#ff6d24"/>
      <path id="Path_129230" data-name="Path 129230" d="M108.813,97.989l4.724-8.181.3-.516A10.942,10.942,0,1,0,93.656,87a10.824,10.824,0,0,0,.918,2.294c.094.173.193.345.3.512l8.248,14.286c.017.032.033.063.053.094a1.253,1.253,0,0,0,2.066,0l.035-.061.142-.245ZM99.617,84.1a4.587,4.587,0,1,1,4.587,4.587A4.587,4.587,0,0,1,99.617,84.1Z" transform="translate(829.736 6431.844)" fill="#1e5bfa"/>
    </g>
  </g>
</svg>
