<svg xmlns="http://www.w3.org/2000/svg" width="56" height="56" viewBox="0 0 56 56">
  <g id="Group_78119" data-name="Group 78119" transform="translate(-278 -2184)">
    <rect id="Rectangle_27885" data-name="Rectangle 27885" width="56" height="56" rx="6" transform="translate(278 2184)" fill="#ff6d24" opacity="0.08"/>
    <g id="Group_78118" data-name="Group 78118" transform="translate(189.699 2115.359)">
      <path id="Path_124308" data-name="Path 124308" d="M104.533,209.44c-2.364,0-8.1,1.226-8.231,7.793s8.231,13.485,8.231,13.485,8.319-6.918,8.231-13.485S106.9,209.44,104.533,209.44Zm0,12.347a4.41,4.41,0,0,1-4.422-4.422,4.422,4.422,0,1,1,4.422,4.422Z" transform="translate(0 -118.729)" fill="#ff6d24"/>
      <path id="Path_124309" data-name="Path 124309" d="M499.7,80.641a3.912,3.912,0,0,0-4.116,3.9c-.088,3.284,4.116,6.742,4.116,6.742s4.159-3.459,4.116-6.742A3.912,3.912,0,0,0,499.7,80.641Zm0,6.174a2.2,2.2,0,0,1-2.189-2.189,2.189,2.189,0,1,1,4.378,0A2.2,2.2,0,0,1,499.7,86.814Z" transform="translate(-368.064 0)" fill="#ff6d24"/>
      <path id="Path_124310" data-name="Path 124310" d="M241.463,202.541c-1.664-.876-4.9-1.664-4.291-3.5.7-2.058,7.049-2.758,10.508-3.021-.307-.35-.657-.744-1.007-1.138-4.072.088-12,.7-12.347,4.159-.525,4.641,6.83,5.254,7.049,7.837.219,2.408-2.145,4.729-12.172,5.035a34.746,34.746,0,0,1-4.641,5.342c5.561-.263,22.2-1.751,20.622-10.727-.307-1.839-2.1-3.152-3.722-3.984Z" transform="translate(-118.234 -105.306)" fill="#1e5bfa"/>
    </g>
  </g>
</svg>
