<svg xmlns="http://www.w3.org/2000/svg" xmlns:xlink="http://www.w3.org/1999/xlink" width="92" height="92" viewBox="0 0 92 92">
  <defs>
    <filter id="Rectangle_22110" x="0" y="0" width="92" height="92" filterUnits="userSpaceOnUse">
      <feOffset input="SourceAlpha"/>
      <feGaussianBlur stdDeviation="6" result="blur"/>
      <feFlood flood-color="#0c2464" flood-opacity="0.122"/>
      <feComposite operator="in" in2="blur"/>
      <feComposite in="SourceGraphic"/>
    </filter>
  </defs>
  <g id="Vehicle_Usage_Reports" data-name="Vehicle Usage Reports" transform="translate(-260 -4543)">
    <g transform="matrix(1, 0, 0, 1, 260, 4543)" filter="url(#Rectangle_22110)">
      <rect id="Rectangle_22110-2" data-name="Rectangle 22110" width="56" height="56" rx="6" transform="translate(18 18)" fill="#fff"/>
    </g>
    <g id="Group_78104" data-name="Group 78104" transform="translate(-1 0.17)">
      <path id="Path_129210" data-name="Path 129210" d="M101.646,57.259a1.492,1.492,0,0,0,.809.239,1.526,1.526,0,0,0,.324-.035l3.854-.844a1.507,1.507,0,0,0,1.156-1.788,5.453,5.453,0,0,0-6.5-4.162,1.507,1.507,0,0,0-1.156,1.788l.844,3.854a1.49,1.49,0,0,0,.667.948Zm2.7-4.239a3.5,3.5,0,0,1,1.426,1.8l-2.99.667-.659-3h0a3.5,3.5,0,0,1,2.235.536ZM98.825,54.5a1.26,1.26,0,0,0-.987-.131A6.031,6.031,0,0,0,99.507,66.2a5.893,5.893,0,0,0,.994-.073,6.058,6.058,0,0,0,4.948-6.879,1.268,1.268,0,0,0-1.522-1.021l-3.7.809-.813-3.7a1.275,1.275,0,0,0-.589-.833Zm1.229,6.532,3.537-.771a4.1,4.1,0,1,1-5.9-3.773l.771,3.537h0a1.329,1.329,0,0,0,1.584,1.013Z" transform="translate(210.076 4529.119)" fill="#1e5bfa" stroke="#1e5bfa" stroke-width="0.2"/>
      <path id="Path_129209" data-name="Path 129209" d="M111.085,45.657a2.27,2.27,0,0,0-2.725-1.673L95.775,46.933a.964.964,0,1,0,.443,1.876L108.8,45.846h0a.339.339,0,0,1,.408.254l4.624,19.707h0a.339.339,0,0,1-.255.408L89.624,71.861a.963.963,0,0,0,.22,1.9.977.977,0,0,0,.223-.027l2.7-.636h0a.951.951,0,0,0,.116.042l11.981,3.214a2.294,2.294,0,0,0,.578.073,2.27,2.27,0,0,0,2.189-1.7l1.414-5.465,4.987-1.156h0a2.27,2.27,0,0,0,1.688-2.724Zm-5.322,28.589a.337.337,0,0,1-.158.208.329.329,0,0,1-.25.038l-8.644-2.32,10.22-2.408ZM83.435,75.368a1.83,1.83,0,0,0,1.187-.435,14.828,14.828,0,0,0,4.817-7.777l4.069-17.094a4.285,4.285,0,0,0-3.206-5.21A4.367,4.367,0,0,0,85.15,48.1l-.293,1.183-.17.717-2.015-.5h0a1.869,1.869,0,0,0-2.262,1.368l-1.977,7.958a.963.963,0,0,0,.7,1.156.973.973,0,0,0,.231.027.963.963,0,0,0,.932-.732l1.961-7.9,1.985.493L81.115,65.1a14.829,14.829,0,0,0,.62,9.118,1.827,1.827,0,0,0,1.7,1.156Zm-.447-9.8,3.75-15.8.293-1.179h0a2.428,2.428,0,0,1,2.84-1.838,2.358,2.358,0,0,1,1.761,2.875l-4.066,17.1a12.9,12.9,0,0,1-4.089,6.655,12.915,12.915,0,0,1-.49-7.811Z" transform="translate(209.593 4528.906)" fill="#ff6d24" stroke="#ff6d24" stroke-width="0.2"/>
    </g>
  </g>
</svg>
